<?xml version="1.0" encoding="UTF-8"?><svg id="Layer_3" xmlns="http://www.w3.org/2000/svg" viewBox="0 0 612 792"><defs><style>.cls-1{letter-spacing:-.02em;}.cls-2{fill:none;stroke:#000;stroke-linecap:round;stroke-linejoin:round;stroke-width:.25px;}.cls-3{font-family:MyriadPro-Regular, 'Myriad Pro';font-size:12px;}.cls-4{letter-spacing:-.04em;}</style></defs><text class="cls-3" transform="translate(470.23 742.17)"><tspan x="0" y="0">Exploded</tspan><tspan class="cls-4" x="47.26" y="0"> </tspan><tspan class="cls-1" x="49.37" y="0">V</tspan><tspan x="55.87" y="0">iew</tspan></text><line class="cls-2" x1="476.21" y1="355.17" x2="333.41" y2="397.12"/><line class="cls-2" x1="327.58" y1="398.84" x2="296.48" y2="407.97"/><line class="cls-2" x1="97.66" y1="490.34" x2="192.19" y2="554.69"/><line class="cls-2" x1="385.24" y1="453.25" x2="385.24" y2="408.52"/><line class="cls-2" x1="460.2" y1="590.05" x2="450.87" y2="592.79"/><line class="cls-2" x1="97.66" y1="528.11" x2="220.65" y2="611.85"/><line class="cls-2" x1="426.67" y1="523.59" x2="485.87" y2="506.2"/><line class="cls-2" x1="235.48" y1="633.54" x2="258.58" y2="644.07"/><line class="cls-2" x1="246.11" y1="631.61" x2="260.53" y2="641.42"/><line class="cls-2" x1="199.49" y1="644.11" x2="222.6" y2="654.64"/><line class="cls-2" x1="194.8" y1="631.74" x2="224.54" y2="651.99"/><line class="cls-2" x1="257.78" y1="319.59" x2="287.5" y2="339.82"/><line class="cls-2" x1="92.83" y1="244.44" x2="219.65" y2="330.79"/><line class="cls-2" x1="232.05" y1="199.38" x2="92.83" y2="240.28"/><line class="cls-2" x1="219.65" y1="330.79" x2="519.17" y2="242.8"/><line class="cls-2" x1="450.4" y1="578.71" x2="478.86" y2="598.09"/><line class="cls-2" x1="469.53" y1="601.87" x2="462.06" y2="596.78"/><line class="cls-2" x1="422.12" y1="578.71" x2="445.23" y2="589.24"/><line class="cls-2" x1="447.17" y1="588.67" x2="445.23" y2="589.24"/><line class="cls-2" x1="456.59" y1="582.92" x2="482.65" y2="575.27"/><polyline class="cls-2" points="336.08 618.33 343.74 616.08 366.6 609.36"/><line class="cls-2" x1="296.93" y1="629.83" x2="329.27" y2="620.33"/><line class="cls-2" x1="192.86" y1="660.4" x2="218.62" y2="652.83"/><line class="cls-2" x1="100.88" y1="597.78" x2="192.86" y2="660.4"/><path class="cls-2" d="M225.85,640.86v-30.53"/><line class="cls-2" x1="485.87" y1="281.55" x2="192.19" y2="367.82"/><line class="cls-2" x1="220.65" y1="391.36" x2="514.34" y2="305.09"/><line class="cls-2" x1="347.46" y1="600.64" x2="370.57" y2="611.17"/><line class="cls-2" x1="342.77" y1="588.27" x2="372.51" y2="608.52"/><line class="cls-2" x1="384.79" y1="589.68" x2="407.9" y2="600.21"/><line class="cls-2" x1="380.1" y1="577.31" x2="409.84" y2="597.56"/><line class="cls-2" x1="272.81" y1="622.58" x2="295.91" y2="633.11"/><line class="cls-2" x1="284.69" y1="621.49" x2="297.86" y2="630.45"/><line class="cls-2" x1="448.44" y1="479.42" x2="458.97" y2="476.32"/><path class="cls-2" d="M265.4,629.24v-30.53"/><line class="cls-2" x1="194.19" y1="375.98" x2="196.9" y2="375.19"/><line class="cls-2" x1="150.75" y1="346.41" x2="150.75" y2="342.24"/><line class="cls-2" x1="150.75" y1="346.41" x2="194.19" y2="375.98"/><line class="cls-2" x1="469.53" y1="594.59" x2="460.2" y2="597.33"/><line class="cls-2" x1="460.2" y1="597.33" x2="452.73" y2="592.24"/><line class="cls-2" x1="422.87" y1="341.75" x2="422.87" y2="370.84"/><line class="cls-2" x1="370.81" y1="502.22" x2="385.24" y2="497.99"/><polyline class="cls-2" points="199.96 483.32 199.96 479.72 199.96 462.94"/><line class="cls-2" x1="107.96" y1="422.45" x2="123.2" y2="432.83"/><line class="cls-2" x1="199.96" y1="462.94" x2="292.53" y2="435.75"/><line class="cls-2" x1="480.04" y1="380.67" x2="485.87" y2="378.96"/><line class="cls-2" x1="469.51" y1="383.76" x2="480.04" y2="380.67"/><line class="cls-2" x1="406.3" y1="402.33" x2="416.84" y2="399.24"/><line class="cls-2" x1="402.11" y1="403.56" x2="406.3" y2="402.33"/><line class="cls-2" x1="385.24" y1="408.52" x2="395.77" y2="405.42"/><line class="cls-2" x1="192.19" y1="442.34" x2="485.87" y2="356.07"/><line class="cls-2" x1="282.21" y1="336.22" x2="280.65" y2="336.68"/><line class="cls-2" x1="333.41" y1="397.12" x2="293.51" y2="369.96"/><line class="cls-2" x1="296.48" y1="407.97" x2="256.58" y2="380.81"/><line class="cls-2" x1="213.28" y1="386.34" x2="146.91" y2="405.83"/><line class="cls-2" x1="146.91" y1="405.83" x2="107.32" y2="378.88"/><line class="cls-2" x1="194.19" y1="438.02" x2="150.75" y2="408.44"/><line class="cls-2" x1="290.65" y1="409.69" x2="194.19" y2="438.02"/><line class="cls-2" x1="150.75" y1="408.44" x2="217.11" y2="388.95"/><line class="cls-2" x1="97.66" y1="377.99" x2="192.19" y2="442.34"/><line class="cls-2" x1="285.41" y1="395.1" x2="301.96" y2="406.36"/><line class="cls-2" x1="248.48" y1="405.95" x2="265.03" y2="417.21"/><line class="cls-2" x1="339.19" y1="511.51" x2="339.19" y2="424.13"/><line class="cls-2" x1="339.19" y1="424.13" x2="370.81" y2="414.84"/><line class="cls-2" x1="370.81" y1="502.22" x2="370.81" y2="414.84"/><line class="cls-2" x1="265.4" y1="533.19" x2="280.19" y2="528.84"/><line class="cls-2" x1="246.11" y1="538.85" x2="260.9" y2="534.51"/><line class="cls-2" x1="192.19" y1="554.69" x2="192.19" y2="442.34"/><line class="cls-2" x1="385.24" y1="497.99" x2="385.24" y2="475.62"/><line class="cls-2" x1="386.21" y1="440.74" x2="394.8" y2="438.22"/><line class="cls-2" x1="416.84" y1="432.79" x2="427.37" y2="429.69"/><line class="cls-2" x1="426.4" y1="419.83" x2="417.81" y2="422.36"/><line class="cls-2" x1="417.81" y1="431.46" x2="426.4" y2="428.94"/><line class="cls-2" x1="417.81" y1="422.36" x2="417.81" y2="431.46"/><line class="cls-2" x1="479.07" y1="404.36" x2="470.48" y2="406.89"/><line class="cls-2" x1="479.07" y1="413.46" x2="479.07" y2="404.36"/><line class="cls-2" x1="460.2" y1="589.01" x2="450.87" y2="591.75"/><line class="cls-2" x1="431.73" y1="569.63" x2="460.2" y2="589.01"/><line class="cls-2" x1="425.11" y1="571.57" x2="431.73" y2="569.63"/><line class="cls-2" x1="450.87" y1="591.75" x2="446.6" y2="588.84"/><line class="cls-2" x1="473.12" y1="405.07" x2="480.04" y2="403.04"/><line class="cls-2" x1="473.12" y1="416.25" x2="480.04" y2="414.22"/><line class="cls-2" x1="470.48" y1="415.99" x2="479.07" y2="413.46"/><line class="cls-2" x1="129.68" y1="437.24" x2="139.8" y2="444.13"/><line class="cls-2" x1="103.49" y1="419.41" x2="107.96" y2="422.45"/><line class="cls-2" x1="102.13" y1="448.65" x2="139.17" y2="473.86"/><line class="cls-2" x1="124.48" y1="434.74" x2="102.13" y2="419.52"/><line class="cls-2" x1="428.34" y1="439.55" x2="436.93" y2="437.03"/><line class="cls-2" x1="428.34" y1="430.45" x2="428.34" y2="439.55"/><line class="cls-2" x1="459.95" y1="430.27" x2="468.54" y2="427.74"/><line class="cls-2" x1="480.04" y1="436.59" x2="484.81" y2="435.19"/><line class="cls-2" x1="447.47" y1="447.19" x2="438.88" y2="449.72"/><line class="cls-2" x1="447.47" y1="456.3" x2="447.47" y2="447.19"/><line class="cls-2" x1="287.46" y1="459.61" x2="199.96" y2="485.31"/><line class="cls-2" x1="292.53" y1="435.75" x2="292.53" y2="458.12"/><line class="cls-2" x1="291.56" y1="437.08" x2="200.93" y2="463.7"/><line class="cls-2" x1="406.3" y1="424.7" x2="406.3" y2="413.51"/><line class="cls-2" x1="407.28" y1="423.37" x2="415.87" y2="420.85"/><line class="cls-2" x1="407.28" y1="414.27" x2="407.28" y2="423.37"/><line class="cls-2" x1="416.84" y1="410.42" x2="422.87" y2="408.65"/><line class="cls-2" x1="416.84" y1="421.6" x2="427.37" y2="418.51"/><line class="cls-2" x1="426.4" y1="408.65" x2="417.81" y2="411.17"/><line class="cls-2" x1="417.81" y1="420.28" x2="426.4" y2="417.75"/><line class="cls-2" x1="427.37" y1="440.87" x2="434.14" y2="438.89"/><line class="cls-2" x1="395.77" y1="450.16" x2="395.77" y2="438.97"/><line class="cls-2" x1="469.51" y1="428.5" x2="480.04" y2="425.4"/><line class="cls-2" x1="480.04" y1="436.59" x2="480.04" y2="425.4"/><line class="cls-2" x1="479.07" y1="426.73" x2="470.48" y2="429.25"/><line class="cls-2" x1="473.76" y1="437.39" x2="479.07" y2="435.83"/><line class="cls-2" x1="479.07" y1="435.83" x2="479.07" y2="430.24"/><line class="cls-2" x1="450.87" y1="540.06" x2="422.4" y2="520.68"/><line class="cls-2" x1="220.65" y1="607.69" x2="450.87" y2="540.06"/><line class="cls-2" x1="220.65" y1="611.85" x2="450.87" y2="544.22"/><line class="cls-2" x1="97.66" y1="523.95" x2="220.65" y2="607.69"/><line class="cls-2" x1="422.4" y1="520.68" x2="485.87" y2="502.04"/><line class="cls-2" x1="473.12" y1="449.8" x2="480.04" y2="447.77"/><line class="cls-2" x1="480.04" y1="458.95" x2="480.04" y2="447.77"/><line class="cls-2" x1="479.07" y1="449.09" x2="473.76" y2="450.65"/><line class="cls-2" x1="479.07" y1="457.25" x2="479.07" y2="449.09"/><line class="cls-2" x1="459.95" y1="452.63" x2="468.54" y2="450.11"/><line class="cls-2" x1="459.95" y1="443.53" x2="459.95" y2="452.63"/><line class="cls-2" x1="385.24" y1="486.8" x2="395.77" y2="483.71"/><line class="cls-2" x1="386.21" y1="485.48" x2="394.8" y2="482.95"/><line class="cls-2" x1="386.21" y1="476.37" x2="386.21" y2="485.48"/><line class="cls-2" x1="230.78" y1="621.17" x2="241.61" y2="628.54"/><line class="cls-2" x1="246.11" y1="633.5" x2="258.58" y2="641.99"/><line class="cls-2" x1="228.84" y1="621.74" x2="241.61" y2="630.44"/><line class="cls-2" x1="228.84" y1="621.74" x2="228.84" y2="629.02"/><line class="cls-2" x1="192.86" y1="632.31" x2="222.6" y2="652.56"/><line class="cls-2" x1="192.86" y1="632.31" x2="192.86" y2="639.59"/><path class="cls-2" d="M280.19,590.2v-109.27"/><path class="cls-2" d="M280.19,622.4v-28.04"/><path class="cls-2" d="M282.75,589.45v-106.79"/><path class="cls-2" d="M282.75,624.14v-30.53"/><path class="cls-2" d="M284.69,588.88v-106.79"/><path class="cls-2" d="M284.69,623.57v-30.53"/><line class="cls-2" x1="395.77" y1="494.89" x2="406.3" y2="491.8"/><line class="cls-2" x1="396.74" y1="484.46" x2="396.74" y2="493.56"/><line class="cls-2" x1="450.87" y1="547.29" x2="441.53" y2="550.03"/><line class="cls-2" x1="450.87" y1="546.25" x2="441.53" y2="548.99"/><line class="cls-2" x1="395.77" y1="494.89" x2="395.77" y2="483.71"/><line class="cls-2" x1="385.24" y1="497.99" x2="395.77" y2="494.89"/><line class="cls-2" x1="394.8" y1="485.03" x2="386.21" y2="487.56"/><line class="cls-2" x1="386.21" y1="487.56" x2="386.21" y2="496.66"/><line class="cls-2" x1="394.8" y1="494.14" x2="394.8" y2="485.03"/><line class="cls-2" x1="322.87" y1="329.43" x2="293.15" y2="309.2"/><line class="cls-2" x1="92.83" y1="240.28" x2="219.65" y2="326.62"/><line class="cls-2" x1="219.65" y1="326.62" x2="519.17" y2="238.64"/><line class="cls-2" x1="123.2" y1="442.88" x2="123.2" y2="432.83"/><line class="cls-2" x1="395.77" y1="416.61" x2="406.3" y2="413.51"/><line class="cls-2" x1="405.33" y1="414.84" x2="396.74" y2="417.36"/><line class="cls-2" x1="405.33" y1="419.27" x2="405.33" y2="414.84"/><line class="cls-2" x1="417.81" y1="409.09" x2="426.4" y2="406.57"/><line class="cls-2" x1="479.07" y1="393.18" x2="473.76" y2="394.74"/><line class="cls-2" x1="470.48" y1="404.8" x2="479.07" y2="402.28"/><line class="cls-2" x1="479.07" y1="402.28" x2="479.07" y2="393.18"/><path class="cls-2" d="M369.37,501.71v-86.45"/><line class="cls-2" x1="458.97" y1="398.04" x2="469.51" y2="394.95"/><line class="cls-2" x1="427.37" y1="463.24" x2="437.91" y2="460.15"/><line class="cls-2" x1="448.44" y1="457.05" x2="458.97" y2="453.96"/><line class="cls-2" x1="465.84" y1="596.71" x2="465.84" y2="594.63"/><line class="cls-2" x1="465.84" y1="596.71" x2="463.89" y2="597.28"/><line class="cls-2" x1="463.89" y1="595.2" x2="463.89" y2="597.28"/><line class="cls-2" x1="478.86" y1="599.13" x2="469.53" y2="601.87"/><line class="cls-2" x1="478.86" y1="598.09" x2="469.53" y2="600.83"/><line class="cls-2" x1="417.43" y1="566.34" x2="447.17" y2="586.59"/><line class="cls-2" x1="415.49" y1="566.91" x2="445.23" y2="587.16"/><line class="cls-2" x1="445.23" y1="587.16" x2="445.23" y2="589.24"/><line class="cls-2" x1="415.49" y1="566.91" x2="415.49" y2="574.19"/><line class="cls-2" x1="458.97" y1="431.59" x2="469.51" y2="428.5"/><line class="cls-2" x1="458.97" y1="442.77" x2="469.51" y2="439.68"/><line class="cls-2" x1="385.24" y1="442.07" x2="395.77" y2="438.97"/><line class="cls-2" x1="458.97" y1="420.41" x2="469.51" y2="417.31"/><line class="cls-2" x1="468.54" y1="418.64" x2="459.95" y2="421.16"/><line class="cls-2" x1="405.33" y1="403.66" x2="396.74" y2="406.18"/><line class="cls-2" x1="402.11" y1="413.7" x2="405.33" y2="412.76"/><line class="cls-2" x1="480.04" y1="391.85" x2="480.04" y2="380.67"/><line class="cls-2" x1="458.97" y1="386.86" x2="469.51" y2="383.76"/><line class="cls-2" x1="459.95" y1="396.72" x2="468.54" y2="394.19"/><line class="cls-2" x1="200.93" y1="483.99" x2="200.93" y2="463.7"/><line class="cls-2" x1="223.29" y1="477.42" x2="223.29" y2="457.13"/><line class="cls-2" x1="200.93" y1="483.99" x2="223.29" y2="477.42"/><line class="cls-2" x1="146.82" y1="405.77" x2="174.98" y2="397.5"/><line class="cls-2" x1="386.21" y1="431.64" x2="386.21" y2="440.74"/><line class="cls-2" x1="386.21" y1="496.66" x2="394.8" y2="494.14"/><line class="cls-2" x1="447.47" y1="469.56" x2="438.88" y2="472.08"/><line class="cls-2" x1="447.47" y1="478.66" x2="447.47" y2="469.56"/><line class="cls-2" x1="241.61" y1="613.64" x2="225.85" y2="618.27"/><line class="cls-2" x1="196.86" y1="626.79" x2="120.21" y2="574.61"/><line class="cls-2" x1="463.32" y1="548.51" x2="336.08" y2="585.89"/><path class="cls-2" d="M221.35,607.48v-109.28"/><path class="cls-2" d="M221.35,639.69v-28.04"/><path class="cls-2" d="M223.9,606.73v-106.79"/><path class="cls-2" d="M225.85,606.16v-106.79"/><line class="cls-2" x1="192.19" y1="367.82" x2="220.65" y2="387.2"/><line class="cls-2" x1="192.19" y1="371.98" x2="220.65" y2="391.36"/><line class="cls-2" x1="192.19" y1="371.98" x2="192.19" y2="367.82"/><line class="cls-2" x1="220.65" y1="391.36" x2="220.65" y2="387.2"/><line class="cls-2" x1="220.65" y1="387.2" x2="514.34" y2="300.93"/><line class="cls-2" x1="146.91" y1="339.64" x2="206.81" y2="322.04"/><line class="cls-2" x1="340.83" y1="588.84" x2="340.83" y2="596.13"/><line class="cls-2" x1="310.14" y1="611.61" x2="333.24" y2="622.14"/><line class="cls-2" x1="324.16" y1="611.98" x2="335.19" y2="619.49"/><line class="cls-2" x1="305.44" y1="599.24" x2="319.75" y2="608.98"/><line class="cls-2" x1="303.98" y1="600.14" x2="333.24" y2="620.06"/><line class="cls-2" x1="378.16" y1="577.88" x2="378.16" y2="585.16"/><line class="cls-2" x1="268.11" y1="610.2" x2="280.19" y2="618.43"/><line class="cls-2" x1="266.17" y1="610.78" x2="266.17" y2="618.06"/><line class="cls-2" x1="437.91" y1="471.33" x2="448.44" y2="468.23"/><line class="cls-2" x1="448.44" y1="479.42" x2="448.44" y2="468.23"/><path class="cls-2" d="M299.48,584.53v-109.27"/><path class="cls-2" d="M299.48,616.74v-28.05"/><path class="cls-2" d="M302.04,583.78v-106.79"/><path class="cls-2" d="M303.98,583.21v-106.79"/><path class="cls-2" d="M303.98,617.9v-30.53"/><line class="cls-2" x1="449.41" y1="468.99" x2="449.41" y2="478.09"/><path class="cls-2" d="M260.9,595.86v-109.28"/><path class="cls-2" d="M260.9,628.07v-28.04"/><path class="cls-2" d="M263.46,595.11v-106.79"/><path class="cls-2" d="M265.4,594.54v-106.79"/><line class="cls-2" x1="427.37" y1="463.24" x2="427.37" y2="452.06"/><line class="cls-2" x1="448.44" y1="457.05" x2="448.44" y2="445.87"/><line class="cls-2" x1="416.84" y1="455.15" x2="427.37" y2="452.06"/><line class="cls-2" x1="298.98" y1="307.48" x2="328.7" y2="327.72"/><line class="cls-2" x1="294.71" y1="308.74" x2="324.43" y2="328.97"/><line class="cls-2" x1="210.64" y1="324.65" x2="150.75" y2="342.24"/><line class="cls-2" x1="285.94" y1="340.28" x2="256.21" y2="320.05"/><line class="cls-2" x1="150.75" y1="342.24" x2="192.19" y2="370.46"/><line class="cls-2" x1="456.51" y1="592.17" x2="456.51" y2="590.09"/><line class="cls-2" x1="456.51" y1="592.17" x2="454.56" y2="592.74"/><line class="cls-2" x1="426.76" y1="569.84" x2="456.51" y2="590.09"/><line class="cls-2" x1="424.82" y1="570.41" x2="454.56" y2="590.66"/><line class="cls-2" x1="454.56" y1="590.66" x2="454.56" y2="592.74"/><line class="cls-2" x1="475.17" y1="601.25" x2="475.17" y2="599.17"/><line class="cls-2" x1="469.53" y1="593.55" x2="460.2" y2="596.29"/><line class="cls-2" x1="441.07" y1="574.17" x2="469.53" y2="593.55"/><line class="cls-2" x1="422.87" y1="341.75" x2="412.83" y2="334.91"/><line class="cls-2" x1="449.41" y1="455.73" x2="458" y2="453.2"/><line class="cls-2" x1="469.51" y1="439.68" x2="480.04" y2="436.59"/><line class="cls-2" x1="480.04" y1="447.77" x2="480.04" y2="436.59"/><line class="cls-2" x1="473.12" y1="448.76" x2="479.07" y2="447.01"/><line class="cls-2" x1="469.51" y1="462.05" x2="480.04" y2="458.95"/><line class="cls-2" x1="437.91" y1="471.33" x2="437.91" y2="460.15"/><line class="cls-2" x1="339.19" y1="510.58" x2="369.86" y2="501.57"/><path class="cls-2" d="M341.65,506.74v-81.14"/><path class="cls-2" d="M369.86,501.57v-86.45"/><path class="cls-2" d="M241.61,601.53v-109.27"/><path class="cls-2" d="M241.61,633.74v-28.04"/><path class="cls-2" d="M244.17,600.78v-106.79"/><path class="cls-2" d="M244.17,635.48v-30.53"/><path class="cls-2" d="M246.11,600.21v-106.79"/><path class="cls-2" d="M246.11,634.9v-30.53"/><line class="cls-2" x1="426.4" y1="453.38" x2="417.81" y2="455.91"/><line class="cls-2" x1="426.4" y1="462.49" x2="426.4" y2="453.38"/><line class="cls-2" x1="473.76" y1="450.65" x2="470.48" y2="451.62"/><line class="cls-2" x1="470.48" y1="460.72" x2="479.07" y2="458.2"/><line class="cls-2" x1="436.93" y1="461.47" x2="428.34" y2="464"/><line class="cls-2" x1="436.93" y1="470.58" x2="436.93" y2="461.47"/><line class="cls-2" x1="470.48" y1="438.35" x2="473.76" y2="437.39"/><line class="cls-2" x1="468.54" y1="429.82" x2="459.95" y2="432.35"/><line class="cls-2" x1="459.95" y1="441.45" x2="468.54" y2="438.93"/><line class="cls-2" x1="123.2" y1="462.99" x2="123.2" y2="442.88"/><line class="cls-2" x1="225.24" y1="455.52" x2="225.24" y2="477.89"/><line class="cls-2" x1="291.56" y1="457.36" x2="291.56" y2="437.08"/><line class="cls-2" x1="225.24" y1="476.85" x2="291.56" y2="457.36"/><line class="cls-2" x1="124.48" y1="463.86" x2="124.48" y2="434.74"/><line class="cls-2" x1="124.48" y1="434.74" x2="139.17" y2="444.73"/><line class="cls-2" x1="139.17" y1="473.86" x2="139.17" y2="444.73"/><line class="cls-2" x1="396.74" y1="493.56" x2="398.54" y2="493.04"/><line class="cls-2" x1="395.77" y1="416.61" x2="395.77" y2="405.42"/><line class="cls-2" x1="395.77" y1="405.42" x2="402.11" y2="403.56"/><line class="cls-2" x1="396.74" y1="415.28" x2="402.11" y2="413.7"/><line class="cls-2" x1="415.87" y1="400.56" x2="407.28" y2="403.08"/><line class="cls-2" x1="407.28" y1="412.19" x2="415.87" y2="409.66"/><line class="cls-2" x1="394.8" y1="406.75" x2="386.21" y2="409.27"/><line class="cls-2" x1="386.21" y1="409.27" x2="386.21" y2="418.38"/><line class="cls-2" x1="394.8" y1="415.85" x2="394.8" y2="406.75"/><line class="cls-2" x1="473.76" y1="394.74" x2="470.48" y2="395.7"/><line class="cls-2" x1="416.84" y1="399.24" x2="422.87" y2="397.46"/><line class="cls-2" x1="422.87" y1="398.5" x2="417.81" y2="399.99"/><line class="cls-2" x1="468.54" y1="385.09" x2="459.95" y2="387.61"/><path class="cls-2" d="M319.75,574.77v-105.47"/><path class="cls-2" d="M319.75,610.78v-28.04"/><path class="cls-2" d="M322.3,577.83v-106.79"/><path class="cls-2" d="M324.25,577.26v-106.79"/><path class="cls-2" d="M324.25,611.95v-30.53"/><path class="cls-2" d="M322.3,612.52c.65-.19,1.3-.38,1.94-.57"/><line class="cls-2" x1="427.37" y1="440.87" x2="427.37" y2="429.69"/><line class="cls-2" x1="426.4" y1="431.02" x2="417.81" y2="433.54"/><line class="cls-2" x1="426.4" y1="440.12" x2="426.4" y2="431.02"/><line class="cls-2" x1="406.3" y1="424.7" x2="416.84" y2="421.6"/><line class="cls-2" x1="416.84" y1="427.11" x2="416.84" y2="421.6"/><line class="cls-2" x1="145.75" y1="405.04" x2="175.95" y2="396.17"/><line class="cls-2" x1="468.54" y1="452.19" x2="459.95" y2="454.71"/><line class="cls-2" x1="449.41" y1="478.09" x2="458" y2="475.57"/><line class="cls-2" x1="479.07" y1="460.28" x2="470.48" y2="462.8"/><line class="cls-2" x1="470.48" y1="471.9" x2="479.07" y2="469.38"/><line class="cls-2" x1="479.07" y1="469.38" x2="479.07" y2="460.28"/><line class="cls-2" x1="479.07" y1="437.91" x2="470.48" y2="440.44"/><line class="cls-2" x1="479.07" y1="447.01" x2="479.07" y2="437.91"/><line class="cls-2" x1="449.41" y1="446.62" x2="449.41" y2="455.73"/><line class="cls-2" x1="480.04" y1="447.77" x2="485.87" y2="446.06"/><line class="cls-2" x1="480.04" y1="458.95" x2="485.87" y2="457.24"/><line class="cls-2" x1="287.46" y1="459.61" x2="292.53" y2="458.12"/><line class="cls-2" x1="422.87" y1="397.46" x2="422.87" y2="397.46"/><line class="cls-2" x1="319.14" y1="325.37" x2="317.58" y2="325.83"/><line class="cls-2" x1="287.68" y1="371.67" x2="327.58" y2="398.84"/><line class="cls-2" x1="250.75" y1="382.52" x2="290.65" y2="409.69"/><line class="cls-2" x1="124.48" y1="434.74" x2="124.48" y2="433.7"/><line class="cls-2" x1="305.08" y1="305.69" x2="305.08" y2="305.69"/><line class="cls-2" x1="303.98" y1="521.85" x2="319.75" y2="517.22"/><line class="cls-2" x1="324.25" y1="515.9" x2="339.19" y2="511.51"/><line class="cls-2" x1="310.84" y1="319.72" x2="309.28" y2="320.18"/><line class="cls-2" x1="284.48" y1="339.29" x2="286.04" y2="338.83"/><line class="cls-2" x1="167.15" y1="357.57" x2="97.66" y2="377.99"/><line class="cls-2" x1="436.31" y1="328.01" x2="476.21" y2="355.17"/><line class="cls-2" x1="225.85" y1="544.81" x2="241.61" y2="540.18"/><line class="cls-2" x1="398.54" y1="493.04" x2="405.33" y2="491.04"/><line class="cls-2" x1="332.08" y1="621.61" x2="332.08" y2="644.47"/><line class="cls-2" x1="324.41" y1="621.75" x2="324.41" y2="639.25"/><path class="cls-2" d="M358.9,420.52c.64-.19,1.28-.38,1.92-.56"/><line class="cls-2" x1="459.43" y1="590.27" x2="465.84" y2="594.63"/><line class="cls-2" x1="174.98" y1="397.59" x2="174.98" y2="397.5"/><line class="cls-2" x1="198" y1="633.92" x2="221.35" y2="627.06"/><line class="cls-2" x1="223.62" y1="651.36" x2="254.61" y2="642.26"/><line class="cls-2" x1="259.61" y1="640.79" x2="291.94" y2="631.29"/><line class="cls-2" x1="280.19" y1="602.31" x2="265.4" y2="606.65"/><line class="cls-2" x1="284.69" y1="623.39" x2="295.91" y2="631.02"/><line class="cls-2" x1="453.17" y1="592.11" x2="454.56" y2="592.74"/><line class="cls-2" x1="439.21" y1="574.71" x2="441.07" y2="574.17"/><line class="cls-2" x1="160.7" y1="571.03" x2="128.75" y2="580.42"/><line class="cls-2" x1="402.11" y1="361.17" x2="402.11" y2="372.35"/><line class="cls-2" x1="465.12" y1="442.01" x2="459.95" y2="443.53"/><line class="cls-2" x1="233.99" y1="623.35" x2="241.61" y2="621.11"/><line class="cls-2" x1="284.69" y1="608.45" x2="299.48" y2="604.11"/><line class="cls-2" x1="316.26" y1="583.77" x2="319.75" y2="586.14"/><line class="cls-2" x1="144.5" y1="560" x2="100.88" y2="572.82"/><line class="cls-2" x1="426.7" y1="523.58" x2="463.32" y2="548.51"/><line class="cls-2" x1="167.22" y1="295.09" x2="107.32" y2="312.68"/><line class="cls-2" x1="445.62" y1="446.7" x2="448.44" y2="445.87"/><line class="cls-2" x1="402.75" y1="376.75" x2="402.75" y2="373.82"/><line class="cls-2" x1="422.87" y1="397.46" x2="427.37" y2="396.14"/><line class="cls-2" x1="452.4" y1="592.34" x2="453.8" y2="592.97"/><line class="cls-2" x1="422.23" y1="371.03" x2="422.23" y2="342.35"/><line class="cls-2" x1="406.83" y1="375.56" x2="402.11" y2="372.35"/><path class="cls-2" d="M249.94,421.64v-14.71"/><line class="cls-2" x1="407.95" y1="413.03" x2="416.84" y2="410.42"/><line class="cls-2" x1="434.14" y1="438.89" x2="437.91" y2="437.78"/><line class="cls-2" x1="175.95" y1="397.3" x2="175.95" y2="396.17"/><line class="cls-2" x1="484.81" y1="435.19" x2="485.87" y2="434.87"/><line class="cls-2" x1="248.48" y1="422.07" x2="248.48" y2="405.95"/><line class="cls-2" x1="247.2" y1="422.45" x2="247.2" y2="383.56"/><line class="cls-2" x1="458.97" y1="409.22" x2="469.51" y2="406.13"/><line class="cls-2" x1="415.87" y1="454.4" x2="415.87" y2="445.3"/><line class="cls-2" x1="435.21" y1="439.61" x2="428.34" y2="441.63"/><line class="cls-2" x1="436.93" y1="448.21" x2="436.93" y2="439.11"/><line class="cls-2" x1="437.91" y1="448.96" x2="437.91" y2="437.78"/><line class="cls-2" x1="438.88" y1="447.64" x2="447.47" y2="445.11"/><line class="cls-2" x1="438.88" y1="438.53" x2="438.88" y2="447.64"/><line class="cls-2" x1="396.74" y1="448.83" x2="405.33" y2="446.31"/><line class="cls-2" x1="458.97" y1="453.96" x2="469.51" y2="450.86"/><line class="cls-2" x1="407.28" y1="447.82" x2="407.28" y2="456.92"/><line class="cls-2" x1="336.08" y1="618.33" x2="334.26" y2="618.86"/><line class="cls-2" x1="262.05" y1="318.33" x2="291.77" y2="338.57"/><line class="cls-2" x1="123.2" y1="464.04" x2="123.2" y2="462.99"/><line class="cls-2" x1="124.48" y1="464.9" x2="124.48" y2="463.86"/><path class="cls-2" d="M360.81,501.11v-81.14"/><line class="cls-2" x1="468.54" y1="396.27" x2="459.95" y2="398.8"/><line class="cls-2" x1="459.95" y1="407.9" x2="468.54" y2="405.38"/><line class="cls-2" x1="415.87" y1="411.75" x2="407.28" y2="414.27"/><line class="cls-2" x1="124.48" y1="433.7" x2="129.68" y2="437.24"/><line class="cls-2" x1="124.48" y1="464.9" x2="139.8" y2="475.34"/><line class="cls-2" x1="313.11" y1="322.79" x2="314.67" y2="322.33"/><line class="cls-2" x1="321.41" y1="328.44" x2="322.97" y2="327.98"/><line class="cls-2" x1="299.25" y1="313.35" x2="299.25" y2="311.83"/><line class="cls-2" x1="305.08" y1="317.32" x2="305.08" y2="315.8"/><line class="cls-2" x1="297.97" y1="312.48" x2="297.97" y2="310.96"/><line class="cls-2" x1="284.69" y1="527.52" x2="299.48" y2="523.17"/><line class="cls-2" x1="396.74" y1="441.36" x2="396.74" y2="448.83"/><path class="cls-2" d="M287.79,402.06c.01-1.77.02-3.55.03-5.32"/><path class="cls-2" d="M290.53,403.92c.03-1.76.06-3.52.1-5.28"/><line class="cls-2" x1="132.15" y1="513.82" x2="97.66" y2="523.95"/><line class="cls-2" x1="458.97" y1="455.79" x2="458.97" y2="453.96"/><path class="cls-2" d="M293.6,406.01c.03-1.76.06-3.52.09-5.28"/><path class="cls-2" d="M297.07,407.8c-.01-1.6-.03-3.2-.04-4.8"/><path class="cls-2" d="M299.6,407.06c0-.77-.02-1.55-.02-2.32"/><line class="cls-2" x1="422.87" y1="398.5" x2="422.87" y2="398.5"/><line class="cls-2" x1="103.2" y1="419.21" x2="103.49" y2="419.41"/><line class="cls-2" x1="101.49" y1="449.25" x2="123.2" y2="464.04"/><line class="cls-2" x1="139.8" y1="475.34" x2="139.8" y2="444.13"/><line class="cls-2" x1="468.54" y1="407.46" x2="459.95" y2="409.98"/><line class="cls-2" x1="459.95" y1="419.08" x2="468.54" y2="416.56"/><line class="cls-2" x1="107.32" y1="378.88" x2="170.98" y2="360.18"/><line class="cls-2" x1="301.95" y1="375.71" x2="301.95" y2="367.48"/><line class="cls-2" x1="284.13" y1="399.57" x2="284.13" y2="372.71"/><line class="cls-2" x1="393.81" y1="379.38" x2="393.81" y2="340.49"/><line class="cls-2" x1="396.34" y1="378.64" x2="396.34" y2="339.75"/><line class="cls-2" x1="400.17" y1="377.51" x2="400.17" y2="338.63"/><line class="cls-2" x1="301.95" y1="406.36" x2="301.95" y2="406.36"/><line class="cls-2" x1="285.41" y1="400.44" x2="285.41" y2="395.1"/><line class="cls-2" x1="282.04" y1="336.27" x2="282.04" y2="336.11"/><line class="cls-2" x1="101.49" y1="449.25" x2="101.49" y2="418.05"/><line class="cls-2" x1="402.11" y1="361.17" x2="402.11" y2="349.98"/><line class="cls-2" x1="402.11" y1="349.98" x2="402.11" y2="338.8"/><line class="cls-2" x1="402.11" y1="338.8" x2="402.11" y2="338.06"/><line class="cls-2" x1="485.87" y1="378.96" x2="485.87" y2="356.07"/><line class="cls-2" x1="448.44" y1="389.95" x2="458.97" y2="386.86"/><line class="cls-2" x1="437.91" y1="393.05" x2="448.44" y2="389.95"/><line class="cls-2" x1="485.87" y1="356.07" x2="442.14" y2="326.3"/><line class="cls-2" x1="370.81" y1="502.22" x2="369.86" y2="501.57"/><line class="cls-2" x1="192.19" y1="554.69" x2="221.35" y2="546.13"/><line class="cls-2" x1="97.66" y1="490.34" x2="97.66" y2="377.99"/><line class="cls-2" x1="427.37" y1="418.51" x2="437.91" y2="415.41"/><line class="cls-2" x1="428.34" y1="428.36" x2="436.93" y2="425.84"/><line class="cls-2" x1="428.34" y1="419.26" x2="428.34" y2="428.36"/><line class="cls-2" x1="436.93" y1="425.84" x2="436.93" y2="416.74"/><line class="cls-2" x1="437.91" y1="426.6" x2="437.91" y2="415.41"/><line class="cls-2" x1="437.91" y1="415.41" x2="448.44" y2="412.32"/><line class="cls-2" x1="448.44" y1="423.5" x2="448.44" y2="412.32"/><line class="cls-2" x1="438.88" y1="425.27" x2="447.47" y2="422.75"/><line class="cls-2" x1="438.88" y1="416.17" x2="438.88" y2="425.27"/><line class="cls-2" x1="447.47" y1="422.75" x2="447.47" y2="413.65"/><line class="cls-2" x1="458" y1="410.55" x2="449.41" y2="413.07"/><line class="cls-2" x1="449.41" y1="422.18" x2="458" y2="419.65"/><line class="cls-2" x1="447.47" y1="413.65" x2="438.88" y2="416.17"/><line class="cls-2" x1="394.8" y1="429.12" x2="386.21" y2="431.64"/><line class="cls-2" x1="416.84" y1="432.79" x2="416.84" y2="427.11"/><line class="cls-2" x1="427.37" y1="429.69" x2="427.37" y2="418.51"/><line class="cls-2" x1="426.4" y1="428.94" x2="426.4" y2="419.83"/><line class="cls-2" x1="460.2" y1="589.01" x2="460.2" y2="590.05"/><line class="cls-2" x1="450.87" y1="591.75" x2="450.87" y2="592.79"/><line class="cls-2" x1="450.87" y1="592.79" x2="445.53" y2="589.15"/><line class="cls-2" x1="469.51" y1="417.31" x2="469.51" y2="406.13"/><line class="cls-2" x1="480.04" y1="414.22" x2="480.04" y2="403.04"/><line class="cls-2" x1="470.48" y1="406.89" x2="470.48" y2="415.99"/><line class="cls-2" x1="468.54" y1="416.56" x2="468.54" y2="407.46"/><line class="cls-2" x1="101.49" y1="418.05" x2="103.2" y2="419.21"/><line class="cls-2" x1="459.95" y1="409.98" x2="459.95" y2="419.08"/><line class="cls-2" x1="417.81" y1="433.54" x2="417.81" y2="442.64"/><line class="cls-2" x1="394.8" y1="451.48" x2="386.21" y2="454.01"/><line class="cls-2" x1="386.21" y1="463.11" x2="394.8" y2="460.59"/><line class="cls-2" x1="386.21" y1="454.01" x2="386.21" y2="463.11"/><line class="cls-2" x1="394.8" y1="460.59" x2="394.8" y2="451.48"/><line class="cls-2" x1="458" y1="432.92" x2="449.41" y2="435.44"/><line class="cls-2" x1="449.41" y1="435.44" x2="449.41" y2="444.54"/><line class="cls-2" x1="468.54" y1="427.74" x2="468.54" y2="418.64"/><line class="cls-2" x1="438.88" y1="436.45" x2="447.47" y2="433.93"/><line class="cls-2" x1="438.88" y1="427.35" x2="438.88" y2="436.45"/><line class="cls-2" x1="480.04" y1="470.14" x2="485.87" y2="468.42"/><line class="cls-2" x1="485.87" y1="468.42" x2="485.87" y2="457.24"/><line class="cls-2" x1="436.93" y1="416.74" x2="428.34" y2="419.26"/><line class="cls-2" x1="485.87" y1="446.06" x2="485.87" y2="434.87"/><line class="cls-2" x1="394.8" y1="440.3" x2="386.21" y2="442.82"/><line class="cls-2" x1="386.21" y1="442.82" x2="386.21" y2="451.93"/><line class="cls-2" x1="426.4" y1="442.2" x2="417.81" y2="444.72"/><line class="cls-2" x1="417.81" y1="453.83" x2="426.4" y2="451.3"/><line class="cls-2" x1="428.34" y1="450.73" x2="436.93" y2="448.21"/><line class="cls-2" x1="438.88" y1="458.82" x2="447.47" y2="456.3"/><line class="cls-2" x1="438.88" y1="449.72" x2="438.88" y2="458.82"/><line class="cls-2" x1="436.93" y1="450.29" x2="428.34" y2="452.81"/><line class="cls-2" x1="428.34" y1="461.91" x2="436.93" y2="459.39"/><line class="cls-2" x1="448.79" y1="544.83" x2="450.87" y2="546.25"/><line class="cls-2" x1="199.96" y1="483.32" x2="199.96" y2="485.31"/><line class="cls-2" x1="406.3" y1="413.51" x2="407.95" y2="413.03"/><line class="cls-2" x1="416.84" y1="421.6" x2="416.84" y2="410.42"/><line class="cls-2" x1="415.87" y1="420.85" x2="415.87" y2="411.75"/><line class="cls-2" x1="427.37" y1="418.51" x2="427.37" y2="407.32"/><line class="cls-2" x1="426.4" y1="417.75" x2="426.4" y2="408.65"/><line class="cls-2" x1="406.3" y1="458.25" x2="406.3" y2="447.06"/><line class="cls-2" x1="416.84" y1="455.15" x2="416.84" y2="443.97"/><line class="cls-2" x1="405.48" y1="447.3" x2="406.3" y2="447.06"/><line class="cls-2" x1="427.37" y1="452.06" x2="427.37" y2="440.87"/><line class="cls-2" x1="427.37" y1="452.06" x2="437.91" y2="448.96"/><line class="cls-2" x1="436.93" y1="439.11" x2="435.21" y2="439.61"/><line class="cls-2" x1="428.34" y1="441.63" x2="428.34" y2="450.73"/><line class="cls-2" x1="448.44" y1="445.87" x2="448.44" y2="434.69"/><line class="cls-2" x1="437.91" y1="448.96" x2="445.62" y2="446.7"/><line class="cls-2" x1="447.47" y1="436.01" x2="438.88" y2="438.53"/><line class="cls-2" x1="447.47" y1="445.11" x2="447.47" y2="436.01"/><line class="cls-2" x1="406.3" y1="447.06" x2="406.3" y2="435.88"/><line class="cls-2" x1="395.77" y1="450.16" x2="405.48" y2="447.3"/><line class="cls-2" x1="405.33" y1="437.21" x2="396.74" y2="439.73"/><line class="cls-2" x1="396.74" y1="439.73" x2="396.74" y2="441.35"/><line class="cls-2" x1="405.33" y1="446.31" x2="405.33" y2="437.21"/><line class="cls-2" x1="450.87" y1="544.22" x2="450.87" y2="540.06"/><line class="cls-2" x1="220.65" y1="611.85" x2="220.65" y2="607.69"/><line class="cls-2" x1="97.66" y1="528.11" x2="97.66" y2="523.95"/><line class="cls-2" x1="485.87" y1="502.04" x2="451.38" y2="478.55"/><line class="cls-2" x1="485.87" y1="506.2" x2="485.87" y2="502.04"/><line class="cls-2" x1="469.51" y1="462.05" x2="469.51" y2="450.86"/><line class="cls-2" x1="459.95" y1="454.71" x2="459.95" y2="463.82"/><line class="cls-2" x1="406.3" y1="447.06" x2="416.84" y2="443.97"/><line class="cls-2" x1="415.87" y1="445.3" x2="407.28" y2="447.82"/><line class="cls-2" x1="407.28" y1="456.92" x2="415.87" y2="454.4"/><line class="cls-2" x1="395.77" y1="461.34" x2="395.77" y2="450.16"/><line class="cls-2" x1="396.74" y1="450.91" x2="396.74" y2="460.02"/><line class="cls-2" x1="417.81" y1="444.72" x2="417.81" y2="453.83"/><line class="cls-2" x1="426.4" y1="451.3" x2="426.4" y2="442.2"/><line class="cls-2" x1="469.51" y1="450.86" x2="469.51" y2="439.68"/><line class="cls-2" x1="468.54" y1="441.01" x2="465.12" y2="442.01"/><line class="cls-2" x1="468.54" y1="450.11" x2="468.54" y2="441.01"/><line class="cls-2" x1="406.3" y1="480.61" x2="406.3" y2="469.43"/><line class="cls-2" x1="406.3" y1="469.43" x2="416.84" y2="466.34"/><line class="cls-2" x1="416.84" y1="477.52" x2="416.84" y2="466.34"/><line class="cls-2" x1="406.3" y1="480.61" x2="416.84" y2="477.52"/><line class="cls-2" x1="415.87" y1="467.66" x2="407.28" y2="470.18"/><line class="cls-2" x1="385.24" y1="475.62" x2="395.77" y2="472.52"/><line class="cls-2" x1="395.77" y1="483.71" x2="395.77" y2="472.52"/><line class="cls-2" x1="394.8" y1="473.85" x2="386.21" y2="476.37"/><line class="cls-2" x1="394.8" y1="482.95" x2="394.8" y2="473.85"/><line class="cls-2" x1="258.58" y1="641.99" x2="258.58" y2="644.07"/><line class="cls-2" x1="260.53" y1="643.5" x2="260.53" y2="641.42"/><line class="cls-2" x1="260.53" y1="643.5" x2="258.58" y2="644.07"/><line class="cls-2" x1="235.48" y1="633.54" x2="228.84" y2="629.02"/><line class="cls-2" x1="260.53" y1="641.42" x2="258.58" y2="641.99"/><line class="cls-2" x1="230.78" y1="621.17" x2="228.84" y2="621.74"/><line class="cls-2" x1="222.6" y1="652.56" x2="222.6" y2="654.64"/><line class="cls-2" x1="224.54" y1="654.07" x2="224.54" y2="651.99"/><line class="cls-2" x1="224.54" y1="654.07" x2="222.6" y2="654.64"/><line class="cls-2" x1="199.49" y1="644.11" x2="192.86" y2="639.59"/><line class="cls-2" x1="224.54" y1="651.99" x2="222.6" y2="652.56"/><line class="cls-2" x1="194.8" y1="631.74" x2="192.86" y2="632.31"/><line class="cls-2" x1="447.47" y1="391.28" x2="438.88" y2="393.8"/><line class="cls-2" x1="438.88" y1="402.9" x2="447.47" y2="400.38"/><line class="cls-2" x1="438.88" y1="393.8" x2="438.88" y2="402.9"/><line class="cls-2" x1="448.44" y1="401.14" x2="448.44" y2="389.95"/><line class="cls-2" x1="458.97" y1="398.04" x2="458.97" y2="386.86"/><line class="cls-2" x1="448.44" y1="401.14" x2="458.97" y2="398.04"/><line class="cls-2" x1="458" y1="388.18" x2="449.41" y2="390.71"/><line class="cls-2" x1="449.41" y1="399.81" x2="458" y2="397.29"/><line class="cls-2" x1="437.91" y1="415.41" x2="437.91" y2="404.23"/><line class="cls-2" x1="437.91" y1="404.23" x2="448.44" y2="401.14"/><line class="cls-2" x1="448.44" y1="412.32" x2="448.44" y2="401.14"/><line class="cls-2" x1="438.88" y1="404.98" x2="438.88" y2="414.09"/><line class="cls-2" x1="447.47" y1="411.56" x2="447.47" y2="402.46"/><path class="cls-2" d="M280.19,480.92c.85.58,1.7,1.16,2.55,1.74"/><path class="cls-2" d="M280.19,622.4c.85.58,1.7,1.16,2.55,1.74"/><path class="cls-2" d="M282.14,480.35c-.65.19-1.3.38-1.94.57"/><path class="cls-2" d="M284.69,482.09c-.85-.58-1.7-1.16-2.55-1.74"/><path class="cls-2" d="M282.75,482.66c.65-.19,1.3-.38,1.94-.57"/><path class="cls-2" d="M282.75,624.14c.65-.19,1.3-.38,1.94-.57"/><line class="cls-2" x1="458.97" y1="476.32" x2="458.97" y2="465.14"/><line class="cls-2" x1="458.97" y1="465.14" x2="469.51" y2="462.05"/><line class="cls-2" x1="469.51" y1="473.23" x2="469.51" y2="462.05"/><line class="cls-2" x1="458.97" y1="476.32" x2="469.51" y2="473.23"/><line class="cls-2" x1="468.54" y1="472.47" x2="468.54" y2="463.37"/><line class="cls-2" x1="343.74" y1="641.04" x2="332.08" y2="644.47"/><line class="cls-2" x1="343.74" y1="616.08" x2="343.74" y2="641.04"/><line class="cls-2" x1="332.08" y1="644.47" x2="324.41" y2="639.25"/><line class="cls-2" x1="450.87" y1="546.25" x2="450.87" y2="547.29"/><line class="cls-2" x1="441.53" y1="548.99" x2="441.53" y2="550.03"/><line class="cls-2" x1="441.53" y1="550.03" x2="438.39" y2="547.89"/><line class="cls-2" x1="441.53" y1="548.99" x2="439.45" y2="547.58"/><line class="cls-2" x1="164.98" y1="153.72" x2="232.05" y2="199.38"/><line class="cls-2" x1="92.83" y1="244.44" x2="92.83" y2="240.28"/><line class="cls-2" x1="164.98" y1="157.88" x2="227.78" y2="200.64"/><line class="cls-2" x1="325.27" y1="106.63" x2="164.98" y2="153.72"/><line class="cls-2" x1="164.98" y1="157.88" x2="164.98" y2="153.72"/><line class="cls-2" x1="519.17" y1="238.64" x2="325.27" y2="106.63"/><line class="cls-2" x1="219.65" y1="330.79" x2="219.65" y2="326.62"/><line class="cls-2" x1="519.17" y1="242.8" x2="519.17" y2="238.64"/><line class="cls-2" x1="123.2" y1="432.83" x2="124.48" y2="433.7"/><line class="cls-2" x1="123.2" y1="464.04" x2="124.48" y2="464.9"/><path class="cls-2" d="M341.65,506.74c6.39-1.88,12.78-3.75,19.16-5.63"/><line class="cls-2" x1="385.24" y1="430.89" x2="395.77" y2="427.79"/><line class="cls-2" x1="394.8" y1="427.04" x2="394.8" y2="417.93"/><line class="cls-2" x1="395.77" y1="427.79" x2="395.77" y2="416.61"/><line class="cls-2" x1="428.34" y1="406" x2="436.93" y2="403.48"/><line class="cls-2" x1="428.34" y1="396.9" x2="428.34" y2="406"/><line class="cls-2" x1="426.4" y1="406.57" x2="426.4" y2="397.47"/><line class="cls-2" x1="459.95" y1="398.8" x2="459.95" y2="407.9"/><line class="cls-2" x1="427.37" y1="407.32" x2="437.91" y2="404.23"/><line class="cls-2" x1="428.34" y1="417.18" x2="436.93" y2="414.66"/><line class="cls-2" x1="428.34" y1="408.08" x2="428.34" y2="417.18"/><line class="cls-2" x1="436.93" y1="414.66" x2="436.93" y2="405.56"/><line class="cls-2" x1="448.44" y1="412.32" x2="458.97" y2="409.22"/><line class="cls-2" x1="449.41" y1="410.99" x2="458" y2="408.47"/><line class="cls-2" x1="458" y1="408.47" x2="458" y2="399.37"/><line class="cls-2" x1="458.97" y1="409.22" x2="458.97" y2="398.04"/><line class="cls-2" x1="469.51" y1="406.13" x2="469.51" y2="394.95"/><line class="cls-2" x1="468.54" y1="405.38" x2="468.54" y2="396.27"/><line class="cls-2" x1="436.93" y1="405.56" x2="428.34" y2="408.08"/><line class="cls-2" x1="417.81" y1="411.17" x2="417.81" y2="420.28"/><line class="cls-2" x1="447.47" y1="402.46" x2="438.88" y2="404.98"/><line class="cls-2" x1="438.88" y1="414.09" x2="447.47" y2="411.56"/><line class="cls-2" x1="469.53" y1="600.83" x2="464.19" y2="597.19"/><line class="cls-2" x1="480.04" y1="425.4" x2="480.04" y2="414.22"/><line class="cls-2" x1="473.12" y1="426.39" x2="478.97" y2="424.68"/><line class="cls-2" x1="469.51" y1="394.95" x2="478.95" y2="392.17"/><line class="cls-2" x1="479.07" y1="381.99" x2="473.12" y2="383.74"/><line class="cls-2" x1="415.87" y1="422.93" x2="407.28" y2="425.45"/><line class="cls-2" x1="420.63" y1="568.52" x2="482.65" y2="550.3"/><line class="cls-2" x1="383.3" y1="579.49" x2="415.49" y2="570.03"/><polyline class="cls-2" points="324.25 596.84 332.08 594.54 340.83 591.96"/><line class="cls-2" x1="299.49" y1="596.64" x2="284.69" y2="600.99"/><line class="cls-2" x1="100.88" y1="572.82" x2="192.86" y2="635.43"/><path class="cls-2" d="M223.9,641.43v-30.53"/><line class="cls-2" x1="340.83" y1="588.84" x2="370.57" y2="609.09"/><line class="cls-2" x1="378.16" y1="577.88" x2="407.9" y2="598.13"/><line class="cls-2" x1="266.17" y1="610.78" x2="280.19" y2="620.32"/><path class="cls-2" d="M302.04,618.48v-30.53"/><path class="cls-2" d="M263.46,629.81v-30.53"/><line class="cls-2" x1="468.77" y1="594.81" x2="475.17" y2="599.17"/><line class="cls-2" x1="454.79" y1="551.02" x2="449.78" y2="547.61"/><line class="cls-2" x1="460.2" y1="596.29" x2="454.86" y2="592.65"/><path class="cls-2" d="M358.9,420.52c-5.75,1.69-11.5,3.38-17.25,5.07"/><line class="cls-2" x1="479.07" y1="415.54" x2="473.12" y2="417.29"/><line class="cls-2" x1="470.48" y1="427.17" x2="473.12" y2="426.39"/><line class="cls-2" x1="479.07" y1="424.65" x2="479.07" y2="415.54"/><line class="cls-2" x1="478.95" y1="392.17" x2="480.04" y2="391.85"/><line class="cls-2" x1="470.48" y1="393.62" x2="479.07" y2="391.1"/><line class="cls-2" x1="479.07" y1="391.1" x2="479.07" y2="385.51"/><path class="cls-2" d="M322.3,612.52v-30.53"/><line class="cls-2" x1="415.87" y1="432.03" x2="415.87" y2="422.93"/><line class="cls-2" x1="462.5" y1="596.65" x2="463.89" y2="597.28"/><line class="cls-2" x1="448.54" y1="579.25" x2="450.4" y2="578.71"/><line class="cls-2" x1="484.81" y1="424" x2="485.87" y2="423.69"/><line class="cls-2" x1="246.11" y1="619.79" x2="260.9" y2="615.44"/><line class="cls-2" x1="324.25" y1="589.21" x2="324.41" y2="589.32"/><line class="cls-2" x1="371.59" y1="607.89" x2="403.92" y2="598.4"/><line class="cls-2" x1="319.75" y1="590.69" x2="303.98" y2="595.32"/><line class="cls-2" x1="260.9" y1="533.28" x2="260.9" y2="533.28"/><line class="cls-2" x1="471.84" y1="601.19" x2="473.23" y2="601.82"/><line class="cls-2" x1="221.35" y1="553.22" x2="221.35" y2="553.22"/><line class="cls-2" x1="463.32" y1="597.64" x2="463.32" y2="598.45"/><line class="cls-2" x1="478.97" y1="424.68" x2="479.07" y2="424.65"/><line class="cls-2" x1="470.99" y1="601.44" x2="470.99" y2="603.66"/><line class="cls-2" x1="471.5" y1="285.77" x2="441.78" y2="265.53"/><line class="cls-2" x1="473.23" y1="600.78" x2="473.23" y2="601.82"/><line class="cls-2" x1="463.32" y1="580.95" x2="463.32" y2="587.51"/><line class="cls-2" x1="411.76" y1="335.22" x2="422.23" y2="342.35"/><line class="cls-2" x1="484.81" y1="390.45" x2="485.87" y2="390.14"/><line class="cls-2" x1="120.21" y1="610.94" x2="120.21" y2="624.54"/><line class="cls-2" x1="473.12" y1="417.29" x2="470.48" y2="418.07"/><line class="cls-2" x1="395.77" y1="472.52" x2="395.77" y2="461.34"/><line class="cls-2" x1="395.77" y1="461.34" x2="406.3" y2="458.25"/><line class="cls-2" x1="396.74" y1="462.1" x2="396.74" y2="471.2"/><line class="cls-2" x1="385.24" y1="475.62" x2="385.24" y2="464.44"/><line class="cls-2" x1="394.8" y1="462.67" x2="386.21" y2="465.19"/><line class="cls-2" x1="427.37" y1="474.42" x2="437.91" y2="471.33"/><line class="cls-2" x1="458.97" y1="465.14" x2="458.97" y2="455.79"/><line class="cls-2" x1="458" y1="455.28" x2="449.41" y2="457.81"/><line class="cls-2" x1="449.41" y1="466.91" x2="458" y2="464.39"/><line class="cls-2" x1="449.41" y1="457.81" x2="449.41" y2="466.91"/><line class="cls-2" x1="447.17" y1="588.67" x2="447.17" y2="586.59"/><line class="cls-2" x1="120.21" y1="624.54" x2="108.54" y2="627.97"/><line class="cls-2" x1="108.54" y1="603" x2="108.54" y2="627.97"/><line class="cls-2" x1="108.54" y1="627.97" x2="100.88" y2="622.75"/><line class="cls-2" x1="100.88" y1="597.78" x2="100.88" y2="622.75"/><line class="cls-2" x1="447.17" y1="586.59" x2="445.23" y2="587.16"/><line class="cls-2" x1="478.86" y1="598.09" x2="478.86" y2="599.13"/><line class="cls-2" x1="469.53" y1="600.83" x2="469.53" y2="601.87"/><line class="cls-2" x1="422.12" y1="578.71" x2="415.49" y2="574.19"/><line class="cls-2" x1="417.43" y1="566.34" x2="415.49" y2="566.91"/><line class="cls-2" x1="458.97" y1="442.77" x2="458.97" y2="431.59"/><line class="cls-2" x1="469.51" y1="439.68" x2="469.51" y2="428.5"/><line class="cls-2" x1="468.54" y1="438.93" x2="468.54" y2="429.82"/><line class="cls-2" x1="449.41" y1="444.54" x2="458" y2="442.02"/><line class="cls-2" x1="458" y1="442.02" x2="458" y2="432.92"/><line class="cls-2" x1="437.91" y1="437.78" x2="437.91" y2="426.6"/><line class="cls-2" x1="437.91" y1="426.6" x2="448.44" y2="423.5"/><line class="cls-2" x1="437.91" y1="437.78" x2="448.44" y2="434.69"/><line class="cls-2" x1="447.47" y1="424.83" x2="438.88" y2="427.35"/><line class="cls-2" x1="447.47" y1="433.93" x2="447.47" y2="424.83"/><line class="cls-2" x1="448.44" y1="434.69" x2="448.44" y2="423.5"/><line class="cls-2" x1="458.97" y1="431.59" x2="458.97" y2="420.41"/><line class="cls-2" x1="448.44" y1="434.69" x2="458.97" y2="431.59"/><line class="cls-2" x1="458" y1="421.73" x2="449.41" y2="424.26"/><line class="cls-2" x1="449.41" y1="433.36" x2="458" y2="430.84"/><line class="cls-2" x1="449.41" y1="424.26" x2="449.41" y2="433.36"/><line class="cls-2" x1="458" y1="430.84" x2="458" y2="421.73"/><line class="cls-2" x1="385.24" y1="453.25" x2="395.77" y2="450.16"/><line class="cls-2" x1="386.21" y1="451.93" x2="394.8" y2="449.4"/><line class="cls-2" x1="394.8" y1="449.4" x2="394.8" y2="440.3"/><line class="cls-2" x1="406.3" y1="435.88" x2="416.84" y2="432.79"/><line class="cls-2" x1="415.87" y1="434.11" x2="407.28" y2="436.63"/><line class="cls-2" x1="407.28" y1="445.74" x2="415.87" y2="443.21"/><line class="cls-2" x1="407.28" y1="436.63" x2="407.28" y2="445.74"/><line class="cls-2" x1="415.87" y1="443.21" x2="415.87" y2="434.11"/><line class="cls-2" x1="459.95" y1="421.16" x2="459.95" y2="430.27"/><line class="cls-2" x1="469.51" y1="428.5" x2="469.51" y2="417.31"/><line class="cls-2" x1="469.51" y1="417.31" x2="473.12" y2="416.25"/><line class="cls-2" x1="470.48" y1="418.07" x2="470.48" y2="427.17"/><line class="cls-2" x1="480.04" y1="414.22" x2="485.87" y2="412.51"/><line class="cls-2" x1="480.04" y1="391.85" x2="484.81" y2="390.45"/><line class="cls-2" x1="479.07" y1="385.51" x2="479.07" y2="381.99"/><line class="cls-2" x1="396.74" y1="406.18" x2="396.74" y2="415.28"/><line class="cls-2" x1="405.33" y1="412.76" x2="405.33" y2="403.66"/><line class="cls-2" x1="458" y1="399.37" x2="449.41" y2="401.89"/><line class="cls-2" x1="449.41" y1="401.89" x2="449.41" y2="410.99"/><line class="cls-2" x1="469.51" y1="394.95" x2="469.51" y2="383.76"/><line class="cls-2" x1="468.54" y1="394.19" x2="468.54" y2="385.09"/><line class="cls-2" x1="480.04" y1="403.04" x2="485.87" y2="401.32"/><line class="cls-2" x1="485.87" y1="412.51" x2="485.87" y2="401.32"/><line class="cls-2" x1="485.87" y1="401.32" x2="485.87" y2="390.14"/><line class="cls-2" x1="405.33" y1="448.39" x2="396.74" y2="450.91"/><line class="cls-2" x1="396.74" y1="460.02" x2="405.33" y2="457.49"/><line class="cls-2" x1="405.33" y1="457.49" x2="405.33" y2="448.39"/><line class="cls-2" x1="394.8" y1="438.22" x2="394.8" y2="429.12"/><line class="cls-2" x1="485.87" y1="423.69" x2="485.87" y2="412.51"/><line class="cls-2" x1="416.84" y1="488.7" x2="427.37" y2="485.61"/><line class="cls-2" x1="417.81" y1="487.38" x2="426.4" y2="484.85"/><line class="cls-2" x1="427.37" y1="485.61" x2="427.37" y2="474.42"/><line class="cls-2" x1="437.91" y1="482.51" x2="437.91" y2="471.33"/><line class="cls-2" x1="427.37" y1="485.61" x2="437.91" y2="482.51"/><line class="cls-2" x1="436.93" y1="472.66" x2="428.34" y2="475.18"/><line class="cls-2" x1="428.34" y1="484.28" x2="436.93" y2="481.76"/><line class="cls-2" x1="225.85" y1="625.74" x2="228.84" y2="624.86"/><line class="cls-2" x1="265.4" y1="614.12" x2="266.17" y2="613.9"/><line class="cls-2" x1="271.32" y1="612.38" x2="280.19" y2="609.78"/><line class="cls-2" x1="308.65" y1="601.42" x2="319.75" y2="598.16"/><line class="cls-2" x1="345.97" y1="590.45" x2="378.16" y2="581"/><line class="cls-2" x1="260.9" y1="607.98" x2="246.11" y2="612.32"/><line class="cls-2" x1="221.35" y1="619.59" x2="196.86" y2="626.79"/><line class="cls-2" x1="408.92" y1="596.93" x2="441.25" y2="587.43"/><line class="cls-2" x1="415.87" y1="478.84" x2="407.28" y2="481.37"/><line class="cls-2" x1="407.28" y1="490.47" x2="415.87" y2="487.95"/><line class="cls-2" x1="407.28" y1="481.37" x2="407.28" y2="490.47"/><line class="cls-2" x1="415.87" y1="487.95" x2="415.87" y2="478.84"/><line class="cls-2" x1="438.88" y1="481.19" x2="447.47" y2="478.66"/><line class="cls-2" x1="428.34" y1="475.18" x2="428.34" y2="484.28"/><line class="cls-2" x1="436.93" y1="481.76" x2="436.93" y2="472.66"/><line class="cls-2" x1="405.33" y1="426.02" x2="396.74" y2="428.55"/><line class="cls-2" x1="396.74" y1="437.65" x2="405.33" y2="435.13"/><line class="cls-2" x1="396.74" y1="428.55" x2="396.74" y2="437.65"/><line class="cls-2" x1="407.28" y1="434.55" x2="415.87" y2="432.03"/><line class="cls-2" x1="324.41" y1="589.32" x2="324.25" y2="589.37"/><line class="cls-2" x1="120.21" y1="574.61" x2="152.16" y2="565.22"/><line class="cls-2" x1="192.86" y1="660.4" x2="192.86" y2="639.59"/><line class="cls-2" x1="482.65" y1="550.3" x2="438.37" y2="520.15"/><line class="cls-2" x1="336.08" y1="585.89" x2="327.92" y2="580.34"/><line class="cls-2" x1="482.65" y1="575.27" x2="482.65" y2="550.3"/><line class="cls-2" x1="100.88" y1="597.78" x2="100.88" y2="572.82"/><line class="cls-2" x1="385.24" y1="464.44" x2="385.24" y2="453.25"/><line class="cls-2" x1="385.24" y1="464.44" x2="395.77" y2="461.34"/><path class="cls-2" d="M221.35,498.21c.85.58,1.7,1.16,2.55,1.74"/><path class="cls-2" d="M221.35,639.69c.85.58,1.7,1.16,2.55,1.74"/><path class="cls-2" d="M223.29,497.64c-.65.19-1.3.38-1.94.57"/><path class="cls-2" d="M225.85,499.38c-.85-.58-1.7-1.16-2.55-1.74"/><path class="cls-2" d="M223.9,499.95c.65-.19,1.3-.38,1.94-.57"/><path class="cls-2" d="M223.9,641.43c.65-.19,1.3-.38,1.94-.57"/><line class="cls-2" x1="514.34" y1="300.93" x2="485.87" y2="281.55"/><line class="cls-2" x1="514.34" y1="305.09" x2="514.34" y2="300.93"/><line class="cls-2" x1="107.32" y1="312.68" x2="146.91" y2="339.64"/><line class="cls-2" x1="107.32" y1="316.84" x2="146.91" y2="343.8"/><line class="cls-2" x1="107.32" y1="316.84" x2="107.32" y2="312.68"/><line class="cls-2" x1="146.91" y1="343.8" x2="146.91" y2="339.64"/><line class="cls-2" x1="146.91" y1="343.8" x2="150.75" y2="342.67"/><line class="cls-2" x1="370.57" y1="609.09" x2="370.57" y2="611.17"/><line class="cls-2" x1="372.51" y1="610.6" x2="372.51" y2="608.52"/><line class="cls-2" x1="372.51" y1="610.6" x2="370.57" y2="611.17"/><line class="cls-2" x1="347.46" y1="600.64" x2="340.83" y2="596.13"/><line class="cls-2" x1="372.51" y1="608.52" x2="370.57" y2="609.09"/><line class="cls-2" x1="342.77" y1="588.27" x2="340.83" y2="588.84"/><line class="cls-2" x1="333.24" y1="620.06" x2="333.24" y2="622.14"/><line class="cls-2" x1="335.19" y1="621.57" x2="335.19" y2="619.49"/><line class="cls-2" x1="335.19" y1="621.57" x2="333.24" y2="622.14"/><line class="cls-2" x1="310.14" y1="611.61" x2="303.98" y2="607.42"/><line class="cls-2" x1="335.19" y1="619.49" x2="333.24" y2="620.06"/><line class="cls-2" x1="305.44" y1="599.24" x2="303.98" y2="599.67"/><line class="cls-2" x1="407.9" y1="598.13" x2="407.9" y2="600.21"/><line class="cls-2" x1="409.84" y1="599.64" x2="409.84" y2="597.56"/><line class="cls-2" x1="409.84" y1="599.64" x2="407.9" y2="600.21"/><line class="cls-2" x1="384.79" y1="589.68" x2="378.16" y2="585.16"/><line class="cls-2" x1="409.84" y1="597.56" x2="407.9" y2="598.13"/><line class="cls-2" x1="380.1" y1="577.31" x2="378.16" y2="577.88"/><line class="cls-2" x1="295.91" y1="631.02" x2="295.91" y2="633.11"/><line class="cls-2" x1="297.86" y1="632.53" x2="297.86" y2="630.45"/><line class="cls-2" x1="297.86" y1="632.53" x2="295.91" y2="633.11"/><line class="cls-2" x1="272.81" y1="622.58" x2="266.17" y2="618.06"/><line class="cls-2" x1="297.86" y1="630.45" x2="295.91" y2="631.02"/><line class="cls-2" x1="268.11" y1="610.2" x2="266.17" y2="610.78"/><line class="cls-2" x1="437.91" y1="482.51" x2="448.44" y2="479.42"/><line class="cls-2" x1="438.88" y1="472.08" x2="438.88" y2="481.19"/><path class="cls-2" d="M299.48,475.26c.85.58,1.7,1.16,2.55,1.74"/><path class="cls-2" d="M299.48,616.74c.85.58,1.7,1.16,2.55,1.74"/><path class="cls-2" d="M301.43,474.69c-.65.19-1.3.38-1.94.57"/><path class="cls-2" d="M303.98,476.42c-.85-.58-1.7-1.16-2.55-1.74"/><path class="cls-2" d="M302.04,476.99c.65-.19,1.3-.38,1.94-.57"/><path class="cls-2" d="M302.04,618.48c.65-.19,1.3-.38,1.94-.57"/><line class="cls-2" x1="448.44" y1="468.23" x2="458.97" y2="465.14"/><line class="cls-2" x1="458" y1="466.47" x2="449.41" y2="468.99"/><line class="cls-2" x1="458" y1="475.57" x2="458" y2="466.47"/><path class="cls-2" d="M260.9,486.59c.85.58,1.7,1.16,2.55,1.74"/><path class="cls-2" d="M260.9,628.07c.85.58,1.7,1.16,2.55,1.74"/><path class="cls-2" d="M262.85,486.02c-.65.19-1.3.38-1.94.57"/><path class="cls-2" d="M265.4,487.76c-.85-.58-1.7-1.16-2.55-1.74"/><path class="cls-2" d="M263.46,488.33c.65-.19,1.3-.38,1.94-.57"/><path class="cls-2" d="M263.46,629.81c.65-.19,1.3-.38,1.94-.57"/><line class="cls-2" x1="428.34" y1="452.81" x2="428.34" y2="461.91"/><line class="cls-2" x1="436.93" y1="459.39" x2="436.93" y2="450.29"/><line class="cls-2" x1="437.91" y1="460.15" x2="437.91" y2="448.96"/><line class="cls-2" x1="437.91" y1="460.15" x2="448.44" y2="457.05"/><line class="cls-2" x1="416.84" y1="466.34" x2="416.84" y2="455.15"/><line class="cls-2" x1="406.3" y1="469.43" x2="406.3" y2="458.25"/><line class="cls-2" x1="406.3" y1="458.25" x2="416.84" y2="455.15"/><line class="cls-2" x1="470.48" y1="449.54" x2="473.12" y2="448.76"/><line class="cls-2" x1="479.07" y1="430.24" x2="479.07" y2="426.73"/><line class="cls-2" x1="422.87" y1="408.65" x2="427.37" y2="407.32"/><line class="cls-2" x1="473.12" y1="383.74" x2="470.48" y2="384.52"/><line class="cls-2" x1="466.82" y1="595.38" x2="473.23" y2="599.74"/><line class="cls-2" x1="194.19" y1="375.98" x2="194.19" y2="373.34"/><line class="cls-2" x1="426.76" y1="569.84" x2="424.82" y2="570.41"/><line class="cls-2" x1="424.82" y1="570.41" x2="424.82" y2="571.37"/><line class="cls-2" x1="475.17" y1="601.25" x2="473.23" y2="601.82"/><line class="cls-2" x1="469.53" y1="593.55" x2="469.53" y2="594.59"/><line class="cls-2" x1="460.2" y1="596.29" x2="460.2" y2="597.33"/><line class="cls-2" x1="204.52" y1="681.94" x2="192.86" y2="685.37"/><line class="cls-2" x1="204.52" y1="656.97" x2="204.52" y2="681.94"/><line class="cls-2" x1="192.86" y1="660.4" x2="192.86" y2="685.37"/><line class="cls-2" x1="192.86" y1="685.37" x2="185.19" y2="680.15"/><line class="cls-2" x1="185.19" y1="655.18" x2="185.19" y2="680.15"/><line class="cls-2" x1="482.65" y1="600.24" x2="470.99" y2="603.66"/><line class="cls-2" x1="482.65" y1="575.27" x2="482.65" y2="600.24"/><line class="cls-2" x1="470.99" y1="578.7" x2="470.99" y2="592.73"/><line class="cls-2" x1="470.99" y1="603.66" x2="463.32" y2="598.45"/><line class="cls-2" x1="396.74" y1="426.47" x2="405.33" y2="423.94"/><line class="cls-2" x1="396.74" y1="417.36" x2="396.74" y2="426.47"/><line class="cls-2" x1="405.33" y1="423.94" x2="405.33" y2="419.27"/><line class="cls-2" x1="394.8" y1="417.93" x2="386.21" y2="420.46"/><line class="cls-2" x1="386.21" y1="429.56" x2="394.8" y2="427.04"/><line class="cls-2" x1="386.21" y1="420.46" x2="386.21" y2="429.56"/><line class="cls-2" x1="402.75" y1="373.82" x2="405.76" y2="375.87"/><line class="cls-2" x1="402.11" y1="372.35" x2="402.11" y2="376.94"/><line class="cls-2" x1="402.75" y1="371.74" x2="407.89" y2="375.24"/><line class="cls-2" x1="402.75" y1="371.74" x2="402.75" y2="337.87"/><line class="cls-2" x1="448.44" y1="445.87" x2="458.97" y2="442.77"/><line class="cls-2" x1="458.97" y1="453.96" x2="458.97" y2="442.77"/><line class="cls-2" x1="458" y1="444.1" x2="449.41" y2="446.62"/><line class="cls-2" x1="458" y1="453.2" x2="458" y2="444.1"/><line class="cls-2" x1="469.51" y1="450.86" x2="473.12" y2="449.8"/><line class="cls-2" x1="470.48" y1="440.44" x2="470.48" y2="449.54"/><line class="cls-2" x1="480.04" y1="470.14" x2="480.04" y2="458.95"/><line class="cls-2" x1="469.51" y1="473.23" x2="480.04" y2="470.14"/><line class="cls-2" x1="395.77" y1="472.52" x2="406.3" y2="469.43"/><line class="cls-2" x1="395.77" y1="483.71" x2="406.3" y2="480.61"/><line class="cls-2" x1="416.84" y1="466.34" x2="427.37" y2="463.24"/><line class="cls-2" x1="427.37" y1="474.42" x2="427.37" y2="463.24"/><line class="cls-2" x1="416.84" y1="477.52" x2="427.37" y2="474.42"/><line class="cls-2" x1="417.81" y1="476.19" x2="426.4" y2="473.67"/><line class="cls-2" x1="448.44" y1="468.23" x2="448.44" y2="457.05"/><line class="cls-2" x1="447.47" y1="458.38" x2="438.88" y2="460.9"/><line class="cls-2" x1="438.88" y1="470" x2="447.47" y2="467.48"/><line class="cls-2" x1="438.88" y1="460.9" x2="438.88" y2="470"/><path class="cls-2" d="M241.61,492.26c.85.58,1.7,1.16,2.55,1.74"/><path class="cls-2" d="M241.61,633.74c.85.58,1.7,1.16,2.55,1.74"/><path class="cls-2" d="M243.56,491.69c-.65.19-1.3.38-1.94.57"/><path class="cls-2" d="M246.11,493.42c-.85-.58-1.7-1.16-2.55-1.74"/><path class="cls-2" d="M244.17,494c.65-.19,1.3-.38,1.94-.57"/><path class="cls-2" d="M244.17,635.48c.65-.19,1.3-.38,1.94-.57"/><path class="cls-2" d="M505.31,414.79c.85.58,1.7,1.16,2.55,1.74"/><path class="cls-2" d="M507.87,558.01v-141.48"/><path class="cls-2" d="M505.31,556.27c.85.58,1.7,1.16,2.55,1.74"/><path class="cls-2" d="M507.26,414.22c-.65.19-1.3.38-1.94.57"/><path class="cls-2" d="M505.31,556.27v-141.48"/><path class="cls-2" d="M509.81,415.96c-.85-.58-1.7-1.16-2.55-1.74"/><path class="cls-2" d="M507.87,416.53c.65-.19,1.3-.38,1.94-.57"/><path class="cls-2" d="M509.81,557.44v-141.48"/><path class="cls-2" d="M507.87,558.01c.65-.19,1.3-.38,1.94-.57"/><line class="cls-2" x1="415.87" y1="456.48" x2="407.28" y2="459"/><line class="cls-2" x1="407.28" y1="468.1" x2="415.87" y2="465.58"/><line class="cls-2" x1="407.28" y1="459" x2="407.28" y2="468.1"/><line class="cls-2" x1="415.87" y1="465.58" x2="415.87" y2="456.48"/><line class="cls-2" x1="386.21" y1="474.29" x2="394.8" y2="471.77"/><line class="cls-2" x1="386.21" y1="465.19" x2="386.21" y2="474.29"/><line class="cls-2" x1="394.8" y1="471.77" x2="394.8" y2="462.67"/><line class="cls-2" x1="417.81" y1="465.01" x2="426.4" y2="462.49"/><line class="cls-2" x1="417.81" y1="455.91" x2="417.81" y2="465.01"/><line class="cls-2" x1="405.33" y1="459.57" x2="396.74" y2="462.1"/><line class="cls-2" x1="396.74" y1="471.2" x2="405.33" y2="468.67"/><line class="cls-2" x1="405.33" y1="468.67" x2="405.33" y2="459.57"/><line class="cls-2" x1="470.48" y1="451.62" x2="470.48" y2="460.72"/><line class="cls-2" x1="479.07" y1="458.2" x2="479.07" y2="457.25"/><line class="cls-2" x1="458" y1="464.39" x2="458" y2="455.28"/><line class="cls-2" x1="426.4" y1="464.57" x2="417.81" y2="467.09"/><line class="cls-2" x1="417.81" y1="467.09" x2="417.81" y2="476.19"/><line class="cls-2" x1="426.4" y1="473.67" x2="426.4" y2="464.57"/><line class="cls-2" x1="428.34" y1="473.1" x2="436.93" y2="470.58"/><line class="cls-2" x1="428.34" y1="464" x2="428.34" y2="473.1"/><line class="cls-2" x1="485.87" y1="390.14" x2="485.87" y2="378.96"/><line class="cls-2" x1="470.48" y1="429.25" x2="470.48" y2="438.35"/><line class="cls-2" x1="459.95" y1="432.35" x2="459.95" y2="441.45"/><line class="cls-2" x1="480.04" y1="425.4" x2="484.81" y2="424"/><line class="cls-2" x1="437.91" y1="404.23" x2="437.91" y2="393.05"/><line class="cls-2" x1="447.47" y1="400.38" x2="447.47" y2="391.28"/><line class="cls-2" x1="449.41" y1="390.71" x2="449.41" y2="399.81"/><line class="cls-2" x1="458" y1="397.29" x2="458" y2="388.18"/><line class="cls-2" x1="102.13" y1="448.65" x2="102.13" y2="419.52"/><line class="cls-2" x1="223.29" y1="456.09" x2="223.29" y2="457.13"/><line class="cls-2" x1="426.4" y1="475.75" x2="417.81" y2="478.27"/><line class="cls-2" x1="417.81" y1="478.27" x2="417.81" y2="487.38"/><line class="cls-2" x1="426.4" y1="484.85" x2="426.4" y2="475.75"/><line class="cls-2" x1="405.33" y1="481.94" x2="396.74" y2="484.46"/><line class="cls-2" x1="405.33" y1="491.04" x2="405.33" y2="481.94"/><line class="cls-2" x1="406.3" y1="413.51" x2="406.3" y2="402.33"/><line class="cls-2" x1="407.28" y1="403.08" x2="407.28" y2="412.19"/><line class="cls-2" x1="415.87" y1="409.66" x2="415.87" y2="400.56"/><line class="cls-2" x1="385.24" y1="419.7" x2="395.77" y2="416.61"/><line class="cls-2" x1="386.21" y1="418.38" x2="394.8" y2="415.85"/><line class="cls-2" x1="480.04" y1="403.04" x2="480.04" y2="391.85"/><line class="cls-2" x1="469.51" y1="406.13" x2="473.12" y2="405.07"/><line class="cls-2" x1="470.48" y1="395.7" x2="470.48" y2="404.8"/><line class="cls-2" x1="416.84" y1="410.42" x2="416.84" y2="399.24"/><line class="cls-2" x1="427.37" y1="407.32" x2="427.37" y2="396.14"/><line class="cls-2" x1="426.4" y1="397.47" x2="422.87" y2="398.5"/><line class="cls-2" x1="417.81" y1="399.99" x2="417.81" y2="409.09"/><line class="cls-2" x1="470.48" y1="384.52" x2="470.48" y2="393.62"/><line class="cls-2" x1="427.37" y1="396.14" x2="437.91" y2="393.05"/><line class="cls-2" x1="436.93" y1="394.37" x2="428.34" y2="396.9"/><line class="cls-2" x1="436.93" y1="403.48" x2="436.93" y2="394.37"/><line class="cls-2" x1="459.95" y1="387.61" x2="459.95" y2="396.72"/><path class="cls-2" d="M319.75,469.3c.85.58,1.7,1.16,2.55,1.74"/><path class="cls-2" d="M319.75,610.78c.85.58,1.7,1.16,2.55,1.74"/><path class="cls-2" d="M321.69,468.73c-.65.19-1.3.38-1.94.57"/><path class="cls-2" d="M324.25,470.47c-.85-.58-1.7-1.16-2.55-1.74"/><path class="cls-2" d="M322.3,471.04c.65-.19,1.3-.38,1.94-.57"/><line class="cls-2" x1="406.3" y1="491.8" x2="406.3" y2="480.61"/><line class="cls-2" x1="416.84" y1="488.7" x2="416.84" y2="477.52"/><line class="cls-2" x1="406.3" y1="491.8" x2="416.84" y2="488.7"/><line class="cls-2" x1="427.37" y1="429.69" x2="437.91" y2="426.6"/><line class="cls-2" x1="436.93" y1="427.92" x2="428.34" y2="430.45"/><line class="cls-2" x1="436.93" y1="437.03" x2="436.93" y2="427.92"/><line class="cls-2" x1="416.84" y1="443.97" x2="416.84" y2="432.79"/><line class="cls-2" x1="416.84" y1="443.97" x2="427.37" y2="440.87"/><line class="cls-2" x1="417.81" y1="442.64" x2="426.4" y2="440.12"/><line class="cls-2" x1="395.77" y1="438.97" x2="395.77" y2="427.79"/><line class="cls-2" x1="395.77" y1="427.79" x2="406.3" y2="424.7"/><line class="cls-2" x1="395.77" y1="438.97" x2="406.3" y2="435.88"/><line class="cls-2" x1="405.33" y1="435.13" x2="405.33" y2="426.02"/><line class="cls-2" x1="406.3" y1="435.88" x2="406.3" y2="424.7"/><line class="cls-2" x1="407.28" y1="425.45" x2="407.28" y2="434.55"/><line class="cls-2" x1="458.97" y1="420.41" x2="458.97" y2="409.22"/><line class="cls-2" x1="448.44" y1="423.5" x2="458.97" y2="420.41"/><line class="cls-2" x1="449.41" y1="413.07" x2="449.41" y2="422.18"/><line class="cls-2" x1="458" y1="419.65" x2="458" y2="410.55"/><line class="cls-2" x1="447.47" y1="467.48" x2="447.47" y2="458.38"/><line class="cls-2" x1="459.95" y1="463.82" x2="468.54" y2="461.29"/><line class="cls-2" x1="468.54" y1="461.29" x2="468.54" y2="452.19"/><line class="cls-2" x1="407.28" y1="479.29" x2="415.87" y2="476.76"/><line class="cls-2" x1="407.28" y1="470.18" x2="407.28" y2="479.29"/><line class="cls-2" x1="415.87" y1="476.76" x2="415.87" y2="467.66"/><line class="cls-2" x1="405.33" y1="470.76" x2="396.74" y2="473.28"/><line class="cls-2" x1="396.74" y1="482.38" x2="405.33" y2="479.86"/><line class="cls-2" x1="396.74" y1="473.28" x2="396.74" y2="482.38"/><line class="cls-2" x1="405.33" y1="479.86" x2="405.33" y2="470.76"/><line class="cls-2" x1="468.54" y1="463.37" x2="459.95" y2="465.9"/><line class="cls-2" x1="459.95" y1="475" x2="468.54" y2="472.47"/><line class="cls-2" x1="459.95" y1="465.9" x2="459.95" y2="475"/><line class="cls-2" x1="470.48" y1="462.8" x2="470.48" y2="471.9"/><line class="cls-2" x1="485.87" y1="457.24" x2="485.87" y2="446.06"/><line class="cls-2" x1="485.87" y1="434.87" x2="485.87" y2="423.69"/><path class="cls-2" d="M366.96,465.26c.39.26.55.71.56,1.15.01.44-.13.89-.35,1.27-.22.38-.54.71-.93.94-.38.22-.84.34-1.28.2"/><path class="cls-2" d="M364.64,468.66c-.41-.28-.57-.77-.56-1.24.01-.47.19-.94.45-1.33s.64-.72,1.07-.9c.43-.18.95-.21,1.36.07"/><path class="cls-2" d="M364.96,468.81c-.12-.03-.22-.08-.32-.15"/></svg>