<?xml version="1.0" encoding="UTF-8"?><svg id="Layer_3" xmlns="http://www.w3.org/2000/svg" viewBox="0 0 612 792"><defs><style>.cls-1{letter-spacing:-.02em;}.cls-2{fill:none;stroke:#000;stroke-linecap:round;stroke-linejoin:round;stroke-width:.25px;}.cls-3{font-family:MyriadPro-Regular, 'Myriad Pro';font-size:12px;}.cls-4{letter-spacing:-.04em;}</style></defs><line class="cls-2" x1="221.84" y1="606.52" x2="261.01" y2="585.46"/><line class="cls-2" x1="221.84" y1="598.82" x2="221.84" y2="606.51"/><line class="cls-2" x1="237.87" y1="270.3" x2="239.88" y2="269.14"/><line class="cls-2" x1="225.84" y1="277.25" x2="227.2" y2="276.46"/><line class="cls-2" x1="225.84" y1="294.21" x2="225.84" y2="284.95"/><line class="cls-2" x1="225.84" y1="310.41" x2="225.84" y2="303.45"/><line class="cls-2" x1="310.62" y1="319.3" x2="305.98" y2="330.46"/><line class="cls-2" x1="225.84" y1="321.97" x2="225.84" y2="312.71"/><line class="cls-2" x1="233.86" y1="357.45" x2="225.84" y2="355.78"/><line class="cls-2" x1="298.47" y1="566.92" x2="305.98" y2="562.58"/><line class="cls-2" x1="266.37" y1="576.2" x2="266.37" y2="585.45"/><line class="cls-2" x1="370.51" y1="617.86" x2="378.33" y2="613.35"/><line class="cls-2" x1="360.7" y1="621.22" x2="368.51" y2="616.71"/><line class="cls-2" x1="329.44" y1="639.26" x2="337.25" y2="634.75"/><line class="cls-2" x1="255.38" y1="625.89" x2="263.82" y2="630.76"/><line class="cls-2" x1="232.08" y1="610.12" x2="240.52" y2="614.99"/><line class="cls-2" x1="230.08" y1="611.28" x2="232.08" y2="610.12"/><line class="cls-2" x1="221.64" y1="606.4" x2="230.08" y2="611.28"/><line class="cls-2" x1="372.71" y1="628.93" x2="380.8" y2="624.26"/><line class="cls-2" x1="348.44" y1="640.63" x2="356.53" y2="635.96"/><line class="cls-2" x1="339.26" y1="635.91" x2="331.44" y2="640.42"/><line class="cls-2" x1="339.26" y1="638.22" x2="339.26" y2="635.91"/><line class="cls-2" x1="347.07" y1="633.71" x2="339.26" y2="638.22"/><line class="cls-2" x1="370.51" y1="617.86" x2="362.7" y2="622.37"/><line class="cls-2" x1="378.33" y1="615.67" x2="370.51" y2="620.18"/><line class="cls-2" x1="213.82" y1="594.2" x2="213.82" y2="603.45"/><line class="cls-2" x1="268.37" y1="418.49" x2="283.74" y2="409.62"/><line class="cls-2" x1="266.37" y1="419.65" x2="266.37" y2="386.49"/><line class="cls-2" x1="314" y1="344.34" x2="305.98" y2="363.62"/><line class="cls-2" x1="305.98" y1="330.46" x2="314" y2="335.08"/><line class="cls-2" x1="314" y1="377.5" x2="305.98" y2="396.78"/><line class="cls-2" x1="305.98" y1="363.62" x2="314" y2="368.24"/><line class="cls-2" x1="266.37" y1="446.64" x2="266.37" y2="419.65"/><line class="cls-2" x1="385.14" y1="261.62" x2="392.82" y2="257.19"/><line class="cls-2" x1="332.26" y1="452.56" x2="309.98" y2="465.42"/><line class="cls-2" x1="314" y1="410.66" x2="305.98" y2="429.94"/><line class="cls-2" x1="305.98" y1="396.78" x2="314" y2="401.4"/><line class="cls-2" x1="283.74" y1="442.78" x2="305.98" y2="429.94"/><line class="cls-2" x1="283.74" y1="409.62" x2="305.98" y2="396.78"/><line class="cls-2" x1="221.64" y1="606.4" x2="213.2" y2="601.53"/><line class="cls-2" x1="221.64" y1="608.72" x2="221.64" y2="606.4"/><line class="cls-2" x1="230.08" y1="613.59" x2="221.64" y2="608.72"/><line class="cls-2" x1="238.51" y1="616.14" x2="230.08" y2="611.28"/><line class="cls-2" x1="263.82" y1="633.07" x2="255.38" y2="628.2"/><line class="cls-2" x1="251.6" y1="636.04" x2="259.37" y2="640.53"/><line class="cls-2" x1="220.52" y1="618.09" x2="228.29" y2="622.58"/><line class="cls-2" x1="213.82" y1="353.59" x2="213.82" y2="594.2"/><line class="cls-2" x1="266.37" y1="519.13" x2="283.74" y2="509.1"/><line class="cls-2" x1="266.37" y1="495.23" x2="266.37" y2="492.91"/><line class="cls-2" x1="264.36" y1="584.3" x2="264.36" y2="575.04"/><line class="cls-2" x1="314" y1="443.82" x2="305.98" y2="463.1"/><line class="cls-2" x1="305.98" y1="429.94" x2="314" y2="434.56"/><line class="cls-2" x1="225.86" y1="321.97" x2="225.86" y2="331.22"/><line class="cls-2" x1="215.21" y1="254.9" x2="223.64" y2="259.77"/><line class="cls-2" x1="306" y1="313.74" x2="306" y2="317.85"/><line class="cls-2" x1="314" y1="510.14" x2="305.98" y2="529.42"/><line class="cls-2" x1="305.98" y1="496.26" x2="314" y2="500.89"/><line class="cls-2" x1="283.74" y1="542.26" x2="305.98" y2="529.42"/><line class="cls-2" x1="266.37" y1="576.19" x2="266.37" y2="557.68"/><line class="cls-2" x1="305.98" y1="529.42" x2="314" y2="534.05"/><line class="cls-2" x1="283.74" y1="575.42" x2="298.48" y2="566.92"/><line class="cls-2" x1="221.64" y1="260.93" x2="213.2" y2="256.05"/><line class="cls-2" x1="211.83" y1="341.63" x2="217.84" y2="345.1"/><line class="cls-2" x1="211.83" y1="332.38" x2="211.83" y2="341.63"/><line class="cls-2" x1="211.83" y1="313.87" x2="211.83" y2="323.12"/><line class="cls-2" x1="211.83" y1="295.36" x2="211.83" y2="304.62"/><line class="cls-2" x1="211.83" y1="276.85" x2="211.83" y2="286.11"/><line class="cls-2" x1="314" y1="476.98" x2="305.98" y2="496.26"/><line class="cls-2" x1="305.98" y1="463.1" x2="314" y2="467.72"/><polyline class="cls-2" points="243.67 285.98 234.76 280.84 236.77 279.68"/><polyline class="cls-2" points="261.47 296.26 252.57 291.12 254.57 289.96"/><polyline class="cls-2" points="279.28 306.54 270.38 301.4 272.38 300.25"/><polyline class="cls-2" points="297.09 316.82 288.19 311.68 290.19 310.53"/><polyline class="cls-2" points="321.63 310.63 323.63 311.79 315.82 316.3"/><polyline class="cls-2" points="337.25 301.61 339.26 302.76 331.44 307.28"/><polyline class="cls-2" points="352.88 292.58 354.89 293.74 347.07 298.25"/><polyline class="cls-2" points="368.51 283.56 370.51 284.72 362.7 289.23"/><polyline class="cls-2" points="384.14 274.54 386.14 275.69 378.33 280.21"/><polyline class="cls-2" points="399.76 265.52 401.77 266.67 393.95 271.19"/><polyline class="cls-2" points="415.39 256.49 417.4 257.65 409.58 262.16"/><polyline class="cls-2" points="431.02 247.47 433.02 248.63 425.21 253.14"/><polyline class="cls-2" points="446.65 238.45 448.65 239.61 440.84 244.12"/><line class="cls-2" x1="282.63" y1="296.13" x2="284.63" y2="294.97"/><line class="cls-2" x1="262.81" y1="307.57" x2="273.94" y2="301.14"/><line class="cls-2" x1="254.79" y1="326.85" x2="283.74" y2="310.14"/><line class="cls-2" x1="253.91" y1="279.55" x2="255.91" y2="278.39"/><line class="cls-2" x1="233.86" y1="291.13" x2="243.67" y2="285.46"/><line class="cls-2" x1="233.86" y1="281.87" x2="237.21" y2="279.94"/><line class="cls-2" x1="304.22" y1="316.82" x2="306" y2="315.79"/><line class="cls-2" x1="291.75" y1="314.77" x2="294.65" y2="313.09"/><line class="cls-2" x1="293.31" y1="304.61" x2="295.31" y2="303.46"/><line class="cls-2" x1="334.93" y1="447.93" x2="350.53" y2="438.92"/><line class="cls-2" x1="334.93" y1="348.45" x2="363.88" y2="331.73"/><line class="cls-2" x1="363.88" y1="364.88" x2="363.88" y2="331.73"/><line class="cls-2" x1="334.93" y1="381.61" x2="363.88" y2="364.89"/><line class="cls-2" x1="363.88" y1="398.05" x2="363.88" y2="364.89"/><line class="cls-2" x1="233.86" y1="324.29" x2="225.84" y2="343.57"/><line class="cls-2" x1="225.84" y1="310.41" x2="233.86" y2="315.03"/><line class="cls-2" x1="237.42" y1="336.88" x2="254.79" y2="326.85"/><line class="cls-2" x1="225.84" y1="310.41" x2="254.79" y2="293.69"/><polyline class="cls-2" points="164.04 240 154.87 234.71 156.88 233.56"/><polyline class="cls-2" points="182.35 250.58 173.19 245.29 175.2 244.13"/><polyline class="cls-2" points="200.67 261.15 191.51 255.87 193.51 254.71"/><polyline class="cls-2" points="154.4 224.41 155.53 223.76 157.54 224.92 158.41 224.41"/><line class="cls-2" x1="307.32" y1="497.03" x2="334.93" y2="481.09"/><line class="cls-2" x1="334.93" y1="514.25" x2="334.93" y2="481.09"/><line class="cls-2" x1="334.93" y1="514.25" x2="363.88" y2="497.53"/><line class="cls-2" x1="337.6" y1="509.62" x2="361.21" y2="495.99"/><line class="cls-2" x1="256" y1="290.79" x2="254.79" y2="293.69"/><line class="cls-2" x1="254.79" y1="293.69" x2="257.92" y2="291.89"/><line class="cls-2" x1="233.86" y1="357.45" x2="245.43" y2="350.76"/><line class="cls-2" x1="233.86" y1="348.19" x2="233.86" y2="357.45"/><line class="cls-2" x1="233.86" y1="348.19" x2="245.43" y2="341.51"/><line class="cls-2" x1="225.84" y1="343.57" x2="233.86" y2="348.19"/><line class="cls-2" x1="225.84" y1="343.57" x2="237.42" y2="336.88"/><polyline class="cls-2" points="227.67 648.66 229.67 649.82 220.52 655.11 209.83 648.94 211.83 647.78"/><polyline class="cls-2" points="245.99 638.09 247.99 639.25 238.83 644.53"/><polyline class="cls-2" points="265.17 582.44 265.39 582.31 266.37 582.88"/><line class="cls-2" x1="361.21" y1="336.36" x2="337.6" y2="349.99"/><line class="cls-2" x1="337.6" y1="376.98" x2="361.21" y2="363.35"/><line class="cls-2" x1="361.21" y1="363.35" x2="361.21" y2="336.36"/><line class="cls-2" x1="266.37" y1="539.19" x2="266.37" y2="548.43"/><line class="cls-2" x1="266.37" y1="483.66" x2="266.37" y2="492.91"/><line class="cls-2" x1="266.37" y1="446.64" x2="266.37" y2="455.9"/><line class="cls-2" x1="344.07" y1="585.7" x2="336.25" y2="581.19"/><line class="cls-2" x1="376.32" y1="612.19" x2="385.14" y2="607.1"/><line class="cls-2" x1="368.51" y1="616.71" x2="370.51" y2="617.86"/><line class="cls-2" x1="198.34" y1="590.63" x2="206.77" y2="595.51"/><line class="cls-2" x1="154.15" y1="567.44" x2="162.59" y2="572.31"/><line class="cls-2" x1="147.72" y1="561.41" x2="156.16" y2="566.28"/><line class="cls-2" x1="165.35" y1="553.55" x2="157.54" y2="558.06"/><line class="cls-2" x1="180.98" y1="544.53" x2="173.17" y2="549.04"/><line class="cls-2" x1="196.61" y1="535.5" x2="188.79" y2="540.01"/><line class="cls-2" x1="212.24" y1="526.48" x2="204.42" y2="530.99"/><line class="cls-2" x1="266.37" y1="583.14" x2="264.37" y2="581.98"/><line class="cls-2" x1="366.55" y1="499.08" x2="366.55" y2="526.07"/><line class="cls-2" x1="337.6" y1="301.41" x2="337.6" y2="310.66"/><line class="cls-2" x1="337.6" y1="343.82" x2="361.21" y2="330.19"/><line class="cls-2" x1="361.21" y1="330.19" x2="361.21" y2="303.2"/><line class="cls-2" x1="334.93" y1="315.29" x2="363.88" y2="298.57"/><line class="cls-2" x1="361.21" y1="303.2" x2="337.6" y2="316.83"/><polyline class="cls-2" points="156.41 571.05 157.81 570.24 155.81 569.08 156.41 568.74"/><polyline class="cls-2" points="162.81 584.78 154.27 579.84 156.27 578.69"/><polyline class="cls-2" points="179.91 594.65 171.36 589.71 173.36 588.56"/><polyline class="cls-2" points="190.46 615.78 188.46 616.94 188.46 608.26 188.46 608.26"/><polyline class="cls-2" points="265.26 575.56 265.26 581.27 264.37 581.79"/><line class="cls-2" x1="361.21" y1="529.15" x2="361.21" y2="502.16"/><line class="cls-2" x1="364.62" y1="631.29" x2="372.71" y2="626.62"/><line class="cls-2" x1="348.44" y1="642.94" x2="348.44" y2="640.63"/><line class="cls-2" x1="332.27" y1="649.97" x2="340.36" y2="645.3"/><line class="cls-2" x1="316.09" y1="659.31" x2="324.18" y2="654.64"/><line class="cls-2" x1="308" y1="662.18" x2="308" y2="666.29"/><line class="cls-2" x1="370.51" y1="620.18" x2="370.51" y2="617.86"/><line class="cls-2" x1="394.82" y1="603.83" x2="378.33" y2="613.35"/><line class="cls-2" x1="464.28" y1="567.84" x2="464.28" y2="563.72"/><line class="cls-2" x1="464.28" y1="576.06" x2="464.28" y2="571.95"/><line class="cls-2" x1="449.66" y1="582.19" x2="457.97" y2="577.39"/><line class="cls-2" x1="433.04" y1="591.79" x2="441.35" y2="586.99"/><line class="cls-2" x1="416.42" y1="601.38" x2="424.73" y2="596.59"/><line class="cls-2" x1="399.79" y1="610.98" x2="408.11" y2="606.18"/><line class="cls-2" x1="389.48" y1="636.6" x2="389.48" y2="627.93"/><line class="cls-2" x1="389.48" y1="653.95" x2="389.48" y2="645.28"/><line class="cls-2" x1="382.8" y1="649.13" x2="382.8" y2="657.81"/><line class="cls-2" x1="380.8" y1="641.61" x2="380.8" y2="650.29"/><polyline class="cls-2" points="225.87 347.41 223.86 348.57 217.84 345.1 219.85 343.95"/><polyline class="cls-2" points="391.48 626.77 391.48 635.44 389.48 634.29"/><polyline class="cls-2" points="455.95 558.92 455.95 556.6 466.28 562.57 466.28 566.68 464.28 565.52"/><polyline class="cls-2" points="439.29 549.3 439.29 546.98 447.62 551.79"/><polyline class="cls-2" points="422.63 539.68 422.63 537.36 430.96 542.17"/><polyline class="cls-2" points="405.97 530.06 405.97 527.74 414.3 532.55"/><polyline class="cls-2" points="389.3 520.44 389.3 518.13 397.64 522.93"/><line class="cls-2" x1="221.84" y1="348.96" x2="225.86" y2="346.64"/><path class="cls-2" d="M262.34,583.13v-242.13"/><line class="cls-2" x1="274.38" y1="400.37" x2="291.75" y2="390.34"/><line class="cls-2" x1="274.38" y1="391.12" x2="274.38" y2="400.37"/><line class="cls-2" x1="283.74" y1="376.46" x2="291.75" y2="381.09"/><line class="cls-2" x1="274.38" y1="391.12" x2="291.75" y2="381.09"/><line class="cls-2" x1="283.74" y1="376.46" x2="305.98" y2="363.62"/><line class="cls-2" x1="283.74" y1="343.3" x2="305.98" y2="330.46"/><line class="cls-2" x1="291.75" y1="390.34" x2="283.74" y2="409.62"/><line class="cls-2" x1="291.75" y1="390.34" x2="314" y2="377.5"/><line class="cls-2" x1="291.75" y1="381.09" x2="314" y2="368.24"/><line class="cls-2" x1="274.38" y1="466.69" x2="266.37" y2="485.97"/><line class="cls-2" x1="274.38" y1="466.69" x2="291.75" y2="456.66"/><line class="cls-2" x1="274.38" y1="457.44" x2="291.75" y2="447.41"/><polyline class="cls-2" points="338.35 646.45 340.36 647.61 332.27 652.28"/><polyline class="cls-2" points="354.53 637.12 356.53 638.27 348.44 642.94"/><polyline class="cls-2" points="370.71 627.77 372.71 628.93 364.62 633.6"/><line class="cls-2" x1="229.2" y1="613.08" x2="230.08" y2="612.57"/><polyline class="cls-2" points="236.06 627.07 228.29 622.58 230.29 621.42"/><polyline class="cls-2" points="251.6 636.04 243.83 631.55 245.83 630.4"/><polyline class="cls-2" points="267.14 645.01 259.37 640.53 261.38 639.37"/><polyline class="cls-2" points="282.68 653.99 274.91 649.5 276.92 648.34"/><polyline class="cls-2" points="298.23 662.96 290.46 658.47 292.46 657.32"/><polyline class="cls-2" points="322.18 655.79 324.18 656.95 316.09 661.62"/><polyline class="cls-2" points="422.72 597.74 424.73 598.9 416.42 603.7"/><polyline class="cls-2" points="439.35 588.15 441.35 589.3 433.04 594.1"/><polyline class="cls-2" points="455.97 578.55 457.97 579.7 449.66 584.5"/><polyline class="cls-2" points="406.1 607.34 408.11 608.5 399.79 613.3"/><polyline class="cls-2" points="225.84 310.41 233.86 291.13 233.86 281.87 225.84 277.25"/><line class="cls-2" x1="363.88" y1="298.57" x2="363.88" y2="286.23"/><line class="cls-2" x1="366.55" y1="284.69" x2="366.55" y2="293.95"/><polyline class="cls-2" points="288.37 134.74 288.37 134.73 296.18 130.22 296.18 132.53"/><polyline class="cls-2" points="272.74 143.76 272.74 143.75 280.56 139.24 280.56 141.56"/><polyline class="cls-2" points="257.11 152.78 257.11 152.78 264.93 148.26 264.93 150.58"/><polyline class="cls-2" points="241.49 161.8 249.3 157.29 249.3 159.6"/><polyline class="cls-2" points="218.05 175.34 218.05 175.33 233.67 166.31 233.67 168.63"/><polyline class="cls-2" points="202.42 184.36 202.42 184.36 210.23 179.85 210.23 182.16"/><polyline class="cls-2" points="186.79 193.38 186.79 193.38 194.6 188.87 194.6 191.18"/><polyline class="cls-2" points="171.16 202.41 171.16 202.4 178.98 197.89 178.98 200.2"/><polyline class="cls-2" points="155.53 211.43 155.53 211.42 163.35 206.91 163.35 209.23"/><polyline class="cls-2" points="147.72 224.16 145.72 225.32 145.72 221.21"/><polyline class="cls-2" points="156.41 223.26 155.53 223.76 155.53 222.76"/><polyline class="cls-2" points="455.95 213.44 455.95 211.12 466.28 217.09 466.28 221.2 464.28 220.04"/><polyline class="cls-2" points="439.29 203.82 439.29 201.5 447.62 206.31"/><polyline class="cls-2" points="422.63 194.2 422.63 191.89 430.96 196.69"/><polyline class="cls-2" points="405.97 184.58 405.97 182.27 414.3 187.08"/><polyline class="cls-2" points="389.3 174.96 389.3 172.64 397.64 177.46"/><polyline class="cls-2" points="372.64 165.34 372.64 163.03 380.98 167.84"/><polyline class="cls-2" points="355.98 155.72 355.98 153.41 364.31 158.22"/><polyline class="cls-2" points="339.32 146.1 339.32 143.79 347.65 148.6"/><polyline class="cls-2" points="322.66 136.48 322.66 134.17 330.99 138.98"/><polyline class="cls-2" points="266.37 580.56 265.39 580 265.39 582.31 264.36 581.72"/><polyline class="cls-2" points="202.42 529.84 202.42 529.83 210.23 525.32 210.23 527.64"/><polyline class="cls-2" points="186.79 538.86 186.79 538.86 194.6 534.35 194.6 536.66"/><polyline class="cls-2" points="171.16 547.89 171.16 547.88 178.98 543.37 178.98 545.68"/><polyline class="cls-2" points="155.53 556.9 155.53 556.9 163.35 552.39 163.35 554.7"/><polyline class="cls-2" points="147.72 569.64 145.72 570.8 145.72 566.68 145.72 566.68"/><polyline class="cls-2" points="155.81 568.39 155.81 569.08 154.4 569.89"/><line class="cls-2" x1="245.43" y1="350.76" x2="274.38" y2="334.05"/><line class="cls-2" x1="245.43" y1="341.51" x2="245.43" y2="350.76"/><line class="cls-2" x1="245.43" y1="341.51" x2="274.38" y2="324.8"/><line class="cls-2" x1="237.42" y1="336.88" x2="245.43" y2="341.51"/><line class="cls-2" x1="274.38" y1="499.85" x2="266.37" y2="519.13"/><line class="cls-2" x1="274.38" y1="499.85" x2="291.75" y2="489.82"/><line class="cls-2" x1="274.38" y1="490.6" x2="291.75" y2="480.57"/><line class="cls-2" x1="266.37" y1="511.42" x2="266.37" y2="495.23"/><line class="cls-2" x1="274.38" y1="433.53" x2="291.75" y2="423.5"/><line class="cls-2" x1="274.38" y1="424.28" x2="291.75" y2="414.25"/><line class="cls-2" x1="266.37" y1="419.65" x2="274.38" y2="424.28"/><line class="cls-2" x1="395.63" y1="524.09" x2="387.3" y2="519.28"/><line class="cls-2" x1="412.29" y1="533.71" x2="403.96" y2="528.9"/><line class="cls-2" x1="428.95" y1="543.33" x2="420.62" y2="538.52"/><line class="cls-2" x1="445.62" y1="552.95" x2="437.28" y2="548.14"/><line class="cls-2" x1="462.28" y1="562.57" x2="453.95" y2="557.76"/><line class="cls-2" x1="453.59" y1="567.58" x2="462.28" y2="562.57"/><line class="cls-2" x1="455.6" y1="568.74" x2="453.59" y2="567.58"/><line class="cls-2" x1="446.91" y1="573.75" x2="455.6" y2="568.74"/><line class="cls-2" x1="305" y1="563.15" x2="312.81" y2="567.66"/><line class="cls-2" x1="363.88" y1="331.73" x2="363.88" y2="298.57"/><line class="cls-2" x1="312.33" y1="130.52" x2="304" y2="125.71"/><line class="cls-2" x1="328.99" y1="140.14" x2="320.66" y2="135.33"/><line class="cls-2" x1="345.65" y1="149.75" x2="337.32" y2="144.95"/><line class="cls-2" x1="362.31" y1="159.37" x2="353.98" y2="154.56"/><line class="cls-2" x1="378.97" y1="169" x2="370.64" y2="164.18"/><line class="cls-2" x1="395.63" y1="178.61" x2="387.3" y2="173.8"/><line class="cls-2" x1="412.29" y1="188.23" x2="403.96" y2="183.42"/><line class="cls-2" x1="428.95" y1="197.85" x2="420.62" y2="193.04"/><line class="cls-2" x1="445.62" y1="207.47" x2="437.28" y2="202.66"/><line class="cls-2" x1="462.28" y1="217.09" x2="453.95" y2="212.28"/><line class="cls-2" x1="453.59" y1="222.1" x2="462.28" y2="217.09"/><line class="cls-2" x1="344.02" y1="237.88" x2="352.24" y2="242.63"/><line class="cls-2" x1="311.11" y1="218.88" x2="319.34" y2="223.63"/><line class="cls-2" x1="294.66" y1="209.39" x2="302.89" y2="214.14"/><line class="cls-2" x1="235.68" y1="167.47" x2="228.87" y2="171.4"/><line class="cls-2" x1="251.3" y1="158.44" x2="243.49" y2="162.96"/><line class="cls-2" x1="266.93" y1="149.42" x2="259.12" y2="153.93"/><line class="cls-2" x1="282.56" y1="140.4" x2="274.75" y2="144.91"/><line class="cls-2" x1="298.19" y1="131.38" x2="290.37" y2="135.89"/><line class="cls-2" x1="337.6" y1="410.14" x2="361.21" y2="396.51"/><line class="cls-2" x1="361.21" y1="396.51" x2="361.21" y2="369.52"/><line class="cls-2" x1="361.21" y1="469" x2="337.6" y2="482.63"/><line class="cls-2" x1="337.6" y1="482.63" x2="337.6" y2="509.62"/><line class="cls-2" x1="361.21" y1="495.99" x2="361.21" y2="489.82"/><line class="cls-2" x1="337.6" y1="310.66" x2="361.21" y2="297.03"/><line class="cls-2" x1="361.21" y1="297.03" x2="361.21" y2="290.09"/><line class="cls-2" x1="363.88" y1="530.7" x2="363.88" y2="497.53"/><line class="cls-2" x1="363.88" y1="497.53" x2="363.88" y2="464.37"/><line class="cls-2" x1="363.88" y1="464.37" x2="363.88" y2="431.21"/><line class="cls-2" x1="361.21" y1="462.83" x2="361.21" y2="435.84"/><line class="cls-2" x1="361.21" y1="402.68" x2="337.6" y2="416.31"/><line class="cls-2" x1="337.6" y1="443.3" x2="361.21" y2="429.67"/><line class="cls-2" x1="361.21" y1="429.67" x2="361.21" y2="402.68"/><line class="cls-2" x1="361.21" y1="435.84" x2="337.6" y2="449.47"/><line class="cls-2" x1="373.03" y1="654.48" x2="380.8" y2="658.97"/><line class="cls-2" x1="357.49" y1="645.51" x2="365.25" y2="649.99"/><line class="cls-2" x1="349.71" y1="641.02" x2="349.71" y2="643.33"/><line class="cls-2" x1="378.79" y1="631.78" x2="378.79" y2="625.41"/><line class="cls-2" x1="378.79" y1="649.13" x2="378.79" y2="640.46"/><line class="cls-2" x1="380.8" y1="658.97" x2="380.8" y2="650.29"/><line class="cls-2" x1="238.83" y1="642.22" x2="247.99" y2="636.93"/><line class="cls-2" x1="220.52" y1="652.8" x2="229.67" y2="647.51"/><line class="cls-2" x1="334.93" y1="315.29" x2="334.93" y2="302.95"/><line class="cls-2" x1="291.75" y1="357.18" x2="283.74" y2="376.46"/><line class="cls-2" x1="274.38" y1="367.21" x2="291.75" y2="357.18"/><line class="cls-2" x1="283.74" y1="343.3" x2="291.75" y2="347.93"/><line class="cls-2" x1="274.38" y1="357.96" x2="291.75" y2="347.93"/><line class="cls-2" x1="266.37" y1="381.87" x2="266.37" y2="353.33"/><line class="cls-2" x1="291.75" y1="423.5" x2="314" y2="410.66"/><line class="cls-2" x1="291.75" y1="414.25" x2="314" y2="401.4"/><line class="cls-2" x1="220.52" y1="626.77" x2="220.52" y2="618.09"/><line class="cls-2" x1="209.84" y1="646.63" x2="218.51" y2="651.64"/><line class="cls-2" x1="209.83" y1="648.94" x2="209.83" y2="646.63"/><line class="cls-2" x1="190.46" y1="626.77" x2="190.46" y2="635.44"/><line class="cls-2" x1="190.46" y1="609.42" x2="190.46" y2="618.09"/><line class="cls-2" x1="171.36" y1="587.4" x2="179.91" y2="592.34"/><line class="cls-2" x1="154.27" y1="577.53" x2="162.81" y2="582.47"/><line class="cls-2" x1="147.72" y1="567.84" x2="147.72" y2="571.95"/><line class="cls-2" x1="154.15" y1="567.44" x2="145.72" y2="562.57"/><line class="cls-2" x1="162.59" y1="574.62" x2="154.15" y2="569.75"/><line class="cls-2" x1="196.33" y1="594.11" x2="187.89" y2="589.23"/><line class="cls-2" x1="196.33" y1="591.79" x2="196.33" y2="594.11"/><line class="cls-2" x1="204.77" y1="596.66" x2="196.33" y2="591.79"/><line class="cls-2" x1="230.08" y1="611.28" x2="230.08" y2="613.59"/><line class="cls-2" x1="306" y1="667.45" x2="306" y2="663.34"/><line class="cls-2" x1="290.46" y1="656.16" x2="298.23" y2="660.65"/><line class="cls-2" x1="274.91" y1="647.19" x2="282.68" y2="651.67"/><line class="cls-2" x1="259.37" y1="638.21" x2="267.14" y2="642.7"/><line class="cls-2" x1="251.6" y1="633.73" x2="251.6" y2="636.04"/><line class="cls-2" x1="243.83" y1="629.24" x2="251.6" y2="633.73"/><line class="cls-2" x1="228.29" y1="620.27" x2="236.06" y2="624.75"/><line class="cls-2" x1="361.21" y1="502.16" x2="337.6" y2="515.79"/><path class="cls-2" d="M221.84,598.82v-240.61"/><path class="cls-2" d="M237.49,589.79v-234.44"/><line class="cls-2" x1="274.38" y1="533.01" x2="266.37" y2="552.29"/><line class="cls-2" x1="266.37" y1="519.13" x2="274.38" y2="523.76"/><line class="cls-2" x1="266.37" y1="552.29" x2="283.74" y2="542.26"/><line class="cls-2" x1="266.37" y1="539.19" x2="266.37" y2="520.68"/><path class="cls-2" d="M261.01,585.46v-243.69"/><line class="cls-2" x1="308.66" y1="493.17" x2="332.26" y2="479.55"/><line class="cls-2" x1="264.36" y1="408.47" x2="264.36" y2="399.22"/><line class="cls-2" x1="264.36" y1="547.28" x2="264.36" y2="538.03"/><line class="cls-2" x1="266.37" y1="557.69" x2="266.37" y2="548.43"/><line class="cls-2" x1="264.36" y1="575.04" x2="266.37" y2="576.2"/><line class="cls-2" x1="291.75" y1="456.66" x2="314" y2="443.82"/><line class="cls-2" x1="291.75" y1="447.41" x2="314" y2="434.56"/><line class="cls-2" x1="225.86" y1="343.57" x2="225.86" y2="349.73"/><line class="cls-2" x1="225.86" y1="303.46" x2="225.86" y2="312.71"/><line class="cls-2" x1="225.86" y1="284.95" x2="225.86" y2="284.96"/><line class="cls-2" x1="243.31" y1="182.05" x2="235.08" y2="177.3"/><line class="cls-2" x1="368.69" y1="252.13" x2="360.46" y2="247.38"/><line class="cls-2" x1="374.91" y1="258.03" x2="366.68" y2="253.28"/><line class="cls-2" x1="360.7" y1="275.74" x2="368.51" y2="271.23"/><line class="cls-2" x1="362.7" y1="276.89" x2="360.7" y2="275.74"/><line class="cls-2" x1="354.89" y1="281.41" x2="362.7" y2="276.89"/><line class="cls-2" x1="345.07" y1="284.76" x2="352.88" y2="280.25"/><line class="cls-2" x1="337.25" y1="289.27" x2="339.26" y2="290.43"/><line class="cls-2" x1="329.44" y1="293.78" x2="337.25" y2="289.27"/><line class="cls-2" x1="313.81" y1="302.81" x2="321.63" y2="298.29"/><line class="cls-2" x1="315.82" y1="303.96" x2="313.81" y2="302.81"/><line class="cls-2" x1="308" y1="308.47" x2="315.82" y2="303.96"/><line class="cls-2" x1="299.57" y1="303.6" x2="308" y2="308.47"/><line class="cls-2" x1="289.13" y1="299.89" x2="297.56" y2="304.76"/><line class="cls-2" x1="282.69" y1="293.86" x2="291.13" y2="298.73"/><line class="cls-2" x1="272.26" y1="290.15" x2="280.69" y2="295.02"/><line class="cls-2" x1="265.82" y1="284.12" x2="274.26" y2="288.99"/><line class="cls-2" x1="255.38" y1="280.41" x2="263.82" y2="285.28"/><line class="cls-2" x1="248.95" y1="274.38" x2="257.39" y2="279.25"/><line class="cls-2" x1="238.51" y1="270.67" x2="246.95" y2="275.54"/><line class="cls-2" x1="232.08" y1="264.64" x2="240.52" y2="269.51"/><line class="cls-2" x1="221.64" y1="260.93" x2="230.08" y2="265.8"/><line class="cls-2" x1="154.15" y1="221.96" x2="162.59" y2="226.83"/><line class="cls-2" x1="147.72" y1="215.94" x2="156.16" y2="220.8"/><line class="cls-2" x1="165.35" y1="208.07" x2="157.54" y2="212.58"/><line class="cls-2" x1="180.98" y1="199.05" x2="173.17" y2="203.56"/><line class="cls-2" x1="196.61" y1="190.02" x2="188.79" y2="194.53"/><line class="cls-2" x1="212.24" y1="181" x2="204.42" y2="185.51"/><line class="cls-2" x1="332.26" y1="313.74" x2="332.26" y2="304.48"/><line class="cls-2" x1="349.71" y1="643.33" x2="348.44" y2="642.6"/><polyline class="cls-2" points="365.25 652.3 357.49 647.82 359.49 646.66"/><polyline class="cls-2" points="382.8 657.81 382.35 658.07 384.36 659.22 380.8 661.28 373.03 656.79 375.03 655.63"/><line class="cls-2" x1="315.82" y1="306.27" x2="308" y2="310.79"/><line class="cls-2" x1="339.26" y1="290.43" x2="331.44" y2="294.94"/><line class="cls-2" x1="354.89" y1="281.41" x2="347.07" y2="285.92"/><line class="cls-2" x1="362.7" y1="279.21" x2="354.89" y2="283.72"/><line class="cls-2" x1="370.51" y1="272.38" x2="362.7" y2="276.89"/><line class="cls-2" x1="455.6" y1="223.26" x2="455.6" y2="225.57"/><line class="cls-2" x1="464.28" y1="218.25" x2="455.6" y2="223.26"/><line class="cls-2" x1="464.28" y1="222.36" x2="464.28" y2="218.25"/><line class="cls-2" x1="456.47" y1="232.78" x2="464.28" y2="228.27"/><line class="cls-2" x1="440.84" y1="241.81" x2="448.65" y2="237.29"/><line class="cls-2" x1="425.21" y1="250.83" x2="433.02" y2="246.31"/><line class="cls-2" x1="409.58" y1="259.85" x2="417.4" y2="255.34"/><line class="cls-2" x1="393.95" y1="268.87" x2="401.77" y2="264.36"/><line class="cls-2" x1="378.33" y1="277.89" x2="386.14" y2="273.38"/><line class="cls-2" x1="362.7" y1="286.92" x2="370.51" y2="282.41"/><line class="cls-2" x1="354.89" y1="293.74" x2="362.7" y2="289.23"/><line class="cls-2" x1="354.89" y1="291.43" x2="354.89" y2="293.74"/><line class="cls-2" x1="347.07" y1="295.94" x2="354.89" y2="291.43"/><line class="cls-2" x1="331.44" y1="304.96" x2="339.26" y2="300.45"/><line class="cls-2" x1="315.82" y1="313.98" x2="323.63" y2="309.47"/><line class="cls-2" x1="308" y1="320.81" x2="315.82" y2="316.3"/><line class="cls-2" x1="308" y1="316.7" x2="308" y2="320.81"/><line class="cls-2" x1="291.75" y1="522.98" x2="314" y2="510.14"/><line class="cls-2" x1="291.75" y1="513.73" x2="314" y2="500.89"/><line class="cls-2" x1="283.74" y1="509.1" x2="305.98" y2="496.26"/><path class="cls-2" d="M255.92,480.24c1.22.71,1.45,2.3,1.37,3.49-.08,1.3-.52,2.62-1.11,3.76-.59,1.15-1.41,2.26-2.39,3.12-.89.79-2.22,1.62-3.53,1.53"/><path class="cls-2" d="M249.23,491.83c-.64-.37-1.01-.99-1.2-1.67-.19-.67-.22-1.41-.14-2.09.14-1.38.66-2.78,1.35-3.97.69-1.19,1.64-2.34,2.76-3.15.56-.41,1.2-.75,1.88-.92.68-.17,1.41-.16,2.05.21"/><line class="cls-2" x1="266.37" y1="552.29" x2="274.38" y2="556.92"/><line class="cls-2" x1="266.37" y1="585.45" x2="283.74" y2="575.42"/><line class="cls-2" x1="314" y1="543.3" x2="305.99" y2="562.57"/><line class="cls-2" x1="291.75" y1="556.14" x2="314" y2="543.3"/><line class="cls-2" x1="291.75" y1="546.89" x2="314" y2="534.05"/><line class="cls-2" x1="154.15" y1="221.96" x2="145.72" y2="217.09"/><line class="cls-2" x1="154.15" y1="224.28" x2="154.15" y2="221.96"/><line class="cls-2" x1="162.59" y1="229.14" x2="154.15" y2="224.28"/><line class="cls-2" x1="221.64" y1="263.24" x2="221.64" y2="260.93"/><line class="cls-2" x1="238.51" y1="270.67" x2="230.08" y2="265.8"/><line class="cls-2" x1="246.95" y1="277.85" x2="238.51" y2="272.98"/><line class="cls-2" x1="255.38" y1="280.41" x2="246.95" y2="275.54"/><line class="cls-2" x1="263.82" y1="287.59" x2="255.38" y2="282.72"/><line class="cls-2" x1="272.26" y1="290.15" x2="263.82" y2="285.28"/><line class="cls-2" x1="280.69" y1="297.33" x2="272.26" y2="292.46"/><line class="cls-2" x1="280.69" y1="295.02" x2="280.69" y2="297.33"/><line class="cls-2" x1="289.13" y1="299.89" x2="280.69" y2="295.02"/><line class="cls-2" x1="297.56" y1="307.07" x2="289.13" y2="302.2"/><line class="cls-2" x1="306" y1="309.63" x2="297.56" y2="304.76"/><line class="cls-2" x1="304" y1="316.7" x2="304" y2="312.59"/><line class="cls-2" x1="306" y1="317.85" x2="304" y2="316.7"/><line class="cls-2" x1="306" y1="321.96" x2="306" y2="317.85"/><line class="cls-2" x1="297.09" y1="316.82" x2="306" y2="321.96"/><line class="cls-2" x1="288.19" y1="309.37" x2="297.09" y2="314.51"/><line class="cls-2" x1="279.28" y1="306.54" x2="288.19" y2="311.68"/><line class="cls-2" x1="270.38" y1="299.09" x2="279.28" y2="304.23"/><line class="cls-2" x1="261.47" y1="296.26" x2="270.38" y2="301.4"/><line class="cls-2" x1="252.57" y1="288.8" x2="261.47" y2="293.95"/><line class="cls-2" x1="243.67" y1="283.67" x2="243.67" y2="285.98"/><line class="cls-2" x1="234.76" y1="278.53" x2="243.67" y2="283.67"/><line class="cls-2" x1="225.86" y1="275.7" x2="234.76" y2="280.84"/><line class="cls-2" x1="225.86" y1="284.95" x2="225.86" y2="275.7"/><line class="cls-2" x1="225.85" y1="284.95" x2="225.86" y2="284.95"/><line class="cls-2" x1="225.86" y1="340.48" x2="225.86" y2="331.22"/><line class="cls-2" x1="223.86" y1="339.32" x2="225.86" y2="340.48"/><line class="cls-2" x1="217.84" y1="342.79" x2="223.86" y2="346.26"/><line class="cls-2" x1="211.83" y1="304.62" x2="209.83" y2="303.46"/><line class="cls-2" x1="191.51" y1="253.55" x2="200.67" y2="258.84"/><line class="cls-2" x1="173.2" y1="242.98" x2="182.35" y2="248.27"/><line class="cls-2" x1="173.19" y1="245.29" x2="173.19" y2="242.98"/><line class="cls-2" x1="154.87" y1="232.4" x2="164.04" y2="237.69"/><line class="cls-2" x1="147.72" y1="222.36" x2="147.72" y2="226.47"/><line class="cls-2" x1="314" y1="467.72" x2="314" y2="476.98"/><line class="cls-2" x1="291.75" y1="489.82" x2="314" y2="476.98"/><line class="cls-2" x1="291.75" y1="480.57" x2="314" y2="467.72"/><line class="cls-2" x1="274.38" y1="334.05" x2="291.75" y2="324.02"/><line class="cls-2" x1="274.38" y1="324.8" x2="291.75" y2="314.77"/><line class="cls-2" x1="266.37" y1="353.33" x2="266.37" y2="338.68"/><polyline class="cls-2" points="455.61 225.31 455.38 225.44 455.59 225.57"/><polyline class="cls-2" points="462.28 229.43 464.28 230.58 456.47 235.09"/><line class="cls-2" x1="308.01" y1="318.49" x2="306" y2="319.65"/><line class="cls-2" x1="235.68" y1="267.71" x2="236.55" y2="267.21"/><line class="cls-2" x1="225.84" y1="284.94" x2="225.85" y2="284.95"/><line class="cls-2" x1="280.62" y1="297.29" x2="280.7" y2="297.24"/><line class="cls-2" x1="272.61" y1="292.66" x2="274.62" y2="291.5"/><line class="cls-2" x1="243.89" y1="276.08" x2="245.9" y2="274.92"/><line class="cls-2" x1="314" y1="302.7" x2="314" y2="302.91"/><line class="cls-2" x1="314" y1="305.01" x2="314" y2="307.33"/><line class="cls-2" x1="303.33" y1="308.08" x2="305.33" y2="306.93"/><line class="cls-2" x1="307.31" y1="463.87" x2="334.93" y2="447.93"/><line class="cls-2" x1="305.98" y1="429.95" x2="305.98" y2="429.93"/><line class="cls-2" x1="225.84" y1="331.22" x2="225.84" y2="328.91"/><line class="cls-2" x1="222.52" y1="261.43" x2="221.65" y2="261.93"/><line class="cls-2" x1="305.98" y1="529.42" x2="305.98" y2="529.38"/><line class="cls-2" x1="288.99" y1="297.5" x2="288.22" y2="299.36"/><line class="cls-2" x1="284.08" y1="309.31" x2="283.74" y2="310.14"/><line class="cls-2" x1="259.36" y1="282.69" x2="258.59" y2="284.56"/><line class="cls-2" x1="266.59" y1="286.88" x2="268.6" y2="285.72"/><polyline class="cls-2" points="199.14 642.77 188.46 636.6 190.47 635.44"/><line class="cls-2" x1="220.52" y1="620.41" x2="222.52" y2="619.25"/><line class="cls-2" x1="305.99" y1="562.57" x2="306" y2="562.57"/><line class="cls-2" x1="305.98" y1="562.58" x2="305.98" y2="562.56"/><line class="cls-2" x1="264.36" y1="402.69" x2="266.37" y2="401.53"/><line class="cls-2" x1="384.82" y1="515.52" x2="386.13" y2="514.77"/><line class="cls-2" x1="337.6" y1="289.48" x2="337.6" y2="291.39"/><line class="cls-2" x1="361.21" y1="280.07" x2="361.21" y2="277.76"/><line class="cls-2" x1="361.21" y1="276.04" x2="361.21" y2="275.44"/><line class="cls-2" x1="195.14" y1="593.41" x2="196.34" y2="592.72"/><polyline class="cls-2" points="197.14 592.26 198.55 591.44 198.55 593.07"/><line class="cls-2" x1="199.15" y1="593.41" x2="201.16" y2="592.25"/><polyline class="cls-2" points="190.47 633.13 188.46 634.29 188.46 625.61 188.46 625.61"/><line class="cls-2" x1="306" y1="463.11" x2="306" y2="463.06"/><line class="cls-2" x1="308.66" y1="456.67" x2="308.66" y2="460.01"/><line class="cls-2" x1="307.33" y1="430.7" x2="334.93" y2="414.77"/><line class="cls-2" x1="307.32" y1="530.19" x2="334.93" y2="514.25"/><line class="cls-2" x1="350.52" y1="472.09" x2="363.88" y2="464.37"/><line class="cls-2" x1="361.21" y1="489.82" x2="361.21" y2="469"/><line class="cls-2" x1="305.98" y1="396.77" x2="305.98" y2="396.73"/><line class="cls-2" x1="307.32" y1="364.39" x2="334.93" y2="348.45"/><line class="cls-2" x1="307.33" y1="397.54" x2="334.93" y2="381.61"/><line class="cls-2" x1="304" y1="397.93" x2="304" y2="397.92"/><line class="cls-2" x1="213.83" y1="523.25" x2="210.23" y2="525.32"/><line class="cls-2" x1="308.66" y1="522.99" x2="308.66" y2="526.33"/><line class="cls-2" x1="308.66" y1="556.15" x2="308.66" y2="559.49"/><polyline class="cls-2" points="380.8 609.61 381.13 609.8 381.13 611.73"/><path class="cls-2" d="M226.01,355.81c-1.39.8-2.78,1.61-4.17,2.41"/><line class="cls-2" x1="229.2" y1="610.77" x2="227.2" y2="611.92"/><line class="cls-2" x1="306" y1="330.41" x2="306" y2="330.47"/><line class="cls-2" x1="308.66" y1="324.03" x2="308.66" y2="327.37"/><line class="cls-2" x1="350.53" y1="438.92" x2="363.88" y2="431.21"/><line class="cls-2" x1="336.05" y1="635.44" x2="338.06" y2="636.6"/><line class="cls-2" x1="370.45" y1="617.82" x2="370.45" y2="617.9"/><line class="cls-2" x1="233.21" y1="610.76" x2="231.2" y2="611.92"/><line class="cls-2" x1="225.84" y1="312.7" x2="223.86" y2="311.56"/><line class="cls-2" x1="262.81" y1="298.32" x2="263.93" y2="297.67"/><line class="cls-2" x1="291.75" y1="324.02" x2="300.66" y2="318.88"/><line class="cls-2" x1="283.74" y1="310.14" x2="284.64" y2="309.62"/><line class="cls-2" x1="262.81" y1="307.57" x2="254.79" y2="326.85"/><line class="cls-2" x1="233.86" y1="324.29" x2="262.81" y2="307.57"/><line class="cls-2" x1="233.86" y1="315.03" x2="262.81" y2="298.32"/><line class="cls-2" x1="225.84" y1="343.57" x2="225.84" y2="340.48"/><line class="cls-2" x1="263.26" y1="630.43" x2="261.25" y2="631.59"/><line class="cls-2" x1="203.15" y1="593.41" x2="201.15" y2="594.57"/><line class="cls-2" x1="283.74" y1="310.14" x2="291.75" y2="314.77"/><line class="cls-2" x1="291.75" y1="314.77" x2="291.75" y2="324.02"/><line class="cls-2" x1="334.93" y1="414.77" x2="363.88" y2="398.05"/><line class="cls-2" x1="363.88" y1="425.04" x2="363.88" y2="398.05"/><line class="cls-2" x1="386.13" y1="421.45" x2="366.55" y2="432.76"/><line class="cls-2" x1="386.13" y1="448.45" x2="386.13" y2="451.53"/><line class="cls-2" x1="386.13" y1="418.37" x2="386.13" y2="421.45"/><line class="cls-2" x1="363.88" y1="431.21" x2="386.13" y2="418.37"/><line class="cls-2" x1="363.88" y1="464.37" x2="386.13" y2="451.53"/><line class="cls-2" x1="366.55" y1="432.76" x2="366.55" y2="459.75"/><line class="cls-2" x1="332.26" y1="419.39" x2="310" y2="432.25"/><line class="cls-2" x1="334.93" y1="447.93" x2="334.93" y2="414.77"/><line class="cls-2" x1="332.26" y1="386.23" x2="310" y2="399.09"/><line class="cls-2" x1="386.13" y1="321.97" x2="386.13" y2="348.96"/><line class="cls-2" x1="366.55" y1="360.27" x2="386.13" y2="348.96"/><line class="cls-2" x1="334.93" y1="414.77" x2="334.93" y2="381.61"/><line class="cls-2" x1="361.21" y1="369.52" x2="350.53" y2="375.69"/><line class="cls-2" x1="337.6" y1="383.15" x2="337.6" y2="410.14"/><line class="cls-2" x1="386.13" y1="415.29" x2="386.13" y2="418.37"/><line class="cls-2" x1="386.13" y1="385.21" x2="386.13" y2="388.29"/><line class="cls-2" x1="363.88" y1="431.21" x2="363.88" y2="425.04"/><line class="cls-2" x1="262.81" y1="298.32" x2="262.81" y2="307.57"/><line class="cls-2" x1="233.86" y1="315.03" x2="233.86" y2="324.29"/><line class="cls-2" x1="254.79" y1="293.69" x2="262.81" y2="298.32"/><line class="cls-2" x1="225.84" y1="355.78" x2="225.84" y2="349.73"/><line class="cls-2" x1="334.93" y1="381.61" x2="334.93" y2="348.45"/><line class="cls-2" x1="332.26" y1="353.07" x2="309.99" y2="365.93"/><line class="cls-2" x1="308.66" y1="393.69" x2="332.26" y2="380.06"/><line class="cls-2" x1="332.26" y1="380.06" x2="332.26" y2="353.07"/><line class="cls-2" x1="337.6" y1="349.99" x2="337.6" y2="376.98"/><line class="cls-2" x1="306" y1="562.57" x2="306" y2="562.54"/><line class="cls-2" x1="266.37" y1="465.15" x2="266.37" y2="474.41"/><line class="cls-2" x1="334.93" y1="547.41" x2="334.93" y2="514.25"/><line class="cls-2" x1="332.26" y1="518.88" x2="309.99" y2="531.73"/><line class="cls-2" x1="308.66" y1="559.49" x2="332.26" y2="545.86"/><line class="cls-2" x1="332.26" y1="545.86" x2="332.26" y2="518.88"/><line class="cls-2" x1="359.7" y1="594.73" x2="351.88" y2="590.22"/><line class="cls-2" x1="367.51" y1="599.24" x2="369.51" y2="598.08"/><line class="cls-2" x1="377.33" y1="602.59" x2="375.32" y2="603.75"/><line class="cls-2" x1="378.33" y1="613.35" x2="376.32" y2="612.19"/><line class="cls-2" x1="362.7" y1="622.37" x2="360.7" y2="621.22"/><line class="cls-2" x1="354.89" y1="626.88" x2="362.7" y2="622.37"/><line class="cls-2" x1="352.88" y1="625.73" x2="354.89" y2="626.88"/><line class="cls-2" x1="345.07" y1="630.24" x2="352.88" y2="625.73"/><line class="cls-2" x1="347.07" y1="631.39" x2="345.07" y2="630.24"/><line class="cls-2" x1="339.26" y1="635.91" x2="347.07" y2="631.39"/><line class="cls-2" x1="337.25" y1="634.75" x2="339.26" y2="635.91"/><line class="cls-2" x1="331.44" y1="640.42" x2="329.44" y2="639.26"/><line class="cls-2" x1="323.63" y1="644.93" x2="331.44" y2="640.42"/><line class="cls-2" x1="321.63" y1="643.77" x2="323.63" y2="644.93"/><line class="cls-2" x1="313.81" y1="648.28" x2="321.63" y2="643.77"/><line class="cls-2" x1="315.82" y1="649.44" x2="313.81" y2="648.28"/><line class="cls-2" x1="308" y1="653.95" x2="315.82" y2="649.44"/><line class="cls-2" x1="299.57" y1="649.08" x2="308" y2="653.95"/><line class="cls-2" x1="297.56" y1="650.24" x2="299.57" y2="649.08"/><line class="cls-2" x1="289.13" y1="645.37" x2="297.56" y2="650.24"/><line class="cls-2" x1="291.13" y1="644.21" x2="289.13" y2="645.37"/><line class="cls-2" x1="282.69" y1="639.34" x2="291.13" y2="644.21"/><line class="cls-2" x1="280.69" y1="640.5" x2="282.69" y2="639.34"/><line class="cls-2" x1="272.26" y1="635.63" x2="280.69" y2="640.5"/><line class="cls-2" x1="274.26" y1="634.47" x2="272.26" y2="635.63"/><line class="cls-2" x1="265.82" y1="629.6" x2="274.26" y2="634.47"/><line class="cls-2" x1="263.82" y1="630.76" x2="265.82" y2="629.6"/><line class="cls-2" x1="257.39" y1="624.73" x2="255.38" y2="625.89"/><line class="cls-2" x1="248.95" y1="619.86" x2="257.39" y2="624.73"/><line class="cls-2" x1="246.95" y1="621.02" x2="248.95" y2="619.86"/><line class="cls-2" x1="238.51" y1="616.14" x2="246.95" y2="621.02"/><line class="cls-2" x1="240.52" y1="614.99" x2="238.51" y2="616.14"/><line class="cls-2" x1="213.2" y1="601.53" x2="213.82" y2="601.17"/><line class="cls-2" x1="204.77" y1="596.66" x2="213.2" y2="601.53"/><line class="cls-2" x1="206.77" y1="595.51" x2="204.77" y2="596.66"/><line class="cls-2" x1="196.33" y1="591.79" x2="198.34" y2="590.63"/><line class="cls-2" x1="187.89" y1="586.92" x2="196.33" y2="591.79"/><line class="cls-2" x1="189.9" y1="585.77" x2="187.89" y2="586.92"/><line class="cls-2" x1="181.46" y1="580.89" x2="189.9" y2="585.77"/><line class="cls-2" x1="179.46" y1="582.05" x2="181.46" y2="580.89"/><line class="cls-2" x1="171.03" y1="577.18" x2="179.46" y2="582.05"/><line class="cls-2" x1="173.03" y1="576.03" x2="171.03" y2="577.18"/><line class="cls-2" x1="164.59" y1="571.15" x2="173.03" y2="576.03"/><line class="cls-2" x1="162.59" y1="572.31" x2="164.59" y2="571.15"/><line class="cls-2" x1="156.16" y1="566.28" x2="154.15" y2="567.44"/><line class="cls-2" x1="155.53" y1="556.9" x2="147.72" y2="561.41"/><line class="cls-2" x1="157.54" y1="558.06" x2="155.53" y2="556.9"/><line class="cls-2" x1="163.35" y1="552.39" x2="165.35" y2="553.55"/><line class="cls-2" x1="171.16" y1="547.88" x2="163.35" y2="552.39"/><line class="cls-2" x1="173.17" y1="549.04" x2="171.16" y2="547.88"/><line class="cls-2" x1="178.98" y1="543.37" x2="180.98" y2="544.53"/><line class="cls-2" x1="186.79" y1="538.86" x2="178.98" y2="543.37"/><line class="cls-2" x1="188.79" y1="540.01" x2="186.79" y2="538.86"/><line class="cls-2" x1="194.6" y1="534.35" x2="196.61" y2="535.5"/><line class="cls-2" x1="202.42" y1="529.83" x2="194.6" y2="534.35"/><line class="cls-2" x1="204.42" y1="530.99" x2="202.42" y2="529.83"/><line class="cls-2" x1="210.23" y1="525.32" x2="212.24" y2="526.48"/><line class="cls-2" x1="332.26" y1="485.72" x2="309.99" y2="498.57"/><line class="cls-2" x1="308.66" y1="526.33" x2="332.26" y2="512.7"/><line class="cls-2" x1="332.26" y1="512.7" x2="332.26" y2="485.72"/><line class="cls-2" x1="386.13" y1="487.78" x2="386.13" y2="514.77"/><line class="cls-2" x1="334.93" y1="348.45" x2="334.93" y2="315.29"/><line class="cls-2" x1="337.6" y1="316.83" x2="337.6" y2="343.82"/><line class="cls-2" x1="337.6" y1="515.79" x2="337.6" y2="542.78"/><line class="cls-2" x1="356.53" y1="638.27" x2="364.62" y2="633.6"/><line class="cls-2" x1="354.89" y1="626.88" x2="347.07" y2="631.39"/><line class="cls-2" x1="464.28" y1="563.72" x2="455.6" y2="568.74"/><line class="cls-2" x1="221.84" y1="608.08" x2="223.19" y2="607.29"/><line class="cls-2" x1="274.38" y1="400.37" x2="266.37" y2="419.65"/><line class="cls-2" x1="291.75" y1="357.18" x2="314" y2="344.34"/><line class="cls-2" x1="291.75" y1="347.93" x2="314" y2="335.08"/><line class="cls-2" x1="380.8" y1="611.92" x2="378.79" y2="610.77"/><line class="cls-2" x1="291.75" y1="489.82" x2="283.74" y2="509.1"/><line class="cls-2" x1="266.37" y1="485.97" x2="274.38" y2="490.6"/><line class="cls-2" x1="291.75" y1="423.5" x2="283.74" y2="442.78"/><line class="cls-2" x1="291.75" y1="414.25" x2="291.75" y2="423.5"/><line class="cls-2" x1="366.55" y1="526.07" x2="384.82" y2="515.52"/><line class="cls-2" x1="374.12" y1="618.09" x2="372.12" y2="616.94"/><line class="cls-2" x1="266.37" y1="353.33" x2="274.38" y2="357.96"/><line class="cls-2" x1="283.74" y1="409.62" x2="291.75" y2="414.25"/><line class="cls-2" x1="337.6" y1="542.78" x2="361.21" y2="529.15"/><line class="cls-2" x1="291.75" y1="522.98" x2="283.74" y2="542.26"/><line class="cls-2" x1="291.75" y1="513.73" x2="291.75" y2="522.98"/><line class="cls-2" x1="274.38" y1="533.01" x2="291.75" y2="522.98"/><line class="cls-2" x1="283.74" y1="509.1" x2="291.75" y2="513.73"/><line class="cls-2" x1="274.38" y1="523.76" x2="291.75" y2="513.73"/><line class="cls-2" x1="264.36" y1="510.26" x2="264.36" y2="501.01"/><line class="cls-2" x1="291.75" y1="456.66" x2="283.74" y2="475.94"/><line class="cls-2" x1="291.75" y1="447.41" x2="291.75" y2="456.66"/><line class="cls-2" x1="283.74" y1="442.78" x2="291.75" y2="447.41"/><line class="cls-2" x1="283.74" y1="475.94" x2="305.98" y2="463.1"/><line class="cls-2" x1="342.01" y1="239.04" x2="333.79" y2="234.29"/><line class="cls-2" x1="358.46" y1="248.54" x2="350.24" y2="243.79"/><line class="cls-2" x1="385.14" y1="261.62" x2="376.91" y2="256.88"/><line class="cls-2" x1="291.13" y1="298.73" x2="289.13" y2="299.89"/><line class="cls-2" x1="274.38" y1="566.17" x2="266.37" y2="585.45"/><line class="cls-2" x1="274.38" y1="566.17" x2="291.75" y2="556.14"/><line class="cls-2" x1="274.38" y1="556.92" x2="274.38" y2="566.17"/><line class="cls-2" x1="283.74" y1="542.26" x2="291.75" y2="546.89"/><line class="cls-2" x1="274.38" y1="556.92" x2="291.75" y2="546.89"/><line class="cls-2" x1="306" y1="313.74" x2="306" y2="309.63"/><line class="cls-2" x1="291.75" y1="480.57" x2="291.75" y2="489.82"/><line class="cls-2" x1="283.74" y1="475.94" x2="291.75" y2="480.57"/><line class="cls-2" x1="291.75" y1="324.02" x2="283.74" y2="343.3"/><line class="cls-2" x1="455.01" y1="568.39" x2="455.01" y2="566.77"/><line class="cls-2" x1="215.18" y1="343.55" x2="213.82" y2="344.34"/><line class="cls-2" x1="266.37" y1="483.66" x2="266.37" y2="474.41"/><line class="cls-2" x1="266.37" y1="465.14" x2="266.37" y2="455.9"/><line class="cls-2" x1="308" y1="663.98" x2="306" y2="665.13"/><line class="cls-2" x1="453.6" y1="569.89" x2="455.59" y2="571.05"/><line class="cls-2" x1="363.88" y1="276.22" x2="363.88" y2="273.9"/><line class="cls-2" x1="366.55" y1="272.36" x2="366.55" y2="274.68"/><line class="cls-2" x1="154.4" y1="222.1" x2="154.16" y2="222.24"/><line class="cls-2" x1="147.72" y1="218.25" x2="149.73" y2="217.09"/><polyline class="cls-2" points="306 126.86 306 124.55 314.33 129.36"/><polyline class="cls-2" points="466.28 225.31 466.28 229.43 464.28 228.27"/><polyline class="cls-2" points="457.38 222.23 457.38 221.97 455.6 220.94"/><line class="cls-2" x1="306" y1="429.95" x2="306" y2="429.9"/><line class="cls-2" x1="236.55" y1="269.52" x2="236.54" y2="269.53"/><line class="cls-2" x1="147.73" y1="563.72" x2="149.73" y2="562.57"/><line class="cls-2" x1="308.66" y1="423.51" x2="308.66" y2="426.85"/><line class="cls-2" x1="221.64" y1="607.97" x2="213.82" y2="603.45"/><line class="cls-2" x1="348.74" y1="640.46" x2="349.71" y2="641.02"/><line class="cls-2" x1="307.33" y1="331.22" x2="334.93" y2="315.29"/><line class="cls-2" x1="306" y1="363.62" x2="306" y2="363.58"/><polyline class="cls-2" points="389.48 653.95 391.48 655.11 387.92 657.17"/><line class="cls-2" x1="306" y1="396.74" x2="306" y2="396.77"/><line class="cls-2" x1="350.53" y1="375.69" x2="337.6" y2="383.15"/><line class="cls-2" x1="341.94" y1="636.67" x2="341.94" y2="636.53"/><line class="cls-2" x1="339.26" y1="637.3" x2="340.06" y2="637.76"/><line class="cls-2" x1="370.11" y1="618.09" x2="368.11" y2="616.94"/><line class="cls-2" x1="225.84" y1="294.2" x2="223.86" y2="293.05"/><line class="cls-2" x1="262.34" y1="583.13" x2="264.36" y2="584.3"/><line class="cls-2" x1="308.66" y1="357.19" x2="308.66" y2="360.53"/><line class="cls-2" x1="380.8" y1="650.29" x2="382.8" y2="649.13"/><line class="cls-2" x1="380.8" y1="648.94" x2="378.8" y2="647.78"/><line class="cls-2" x1="370.51" y1="618.32" x2="372.12" y2="619.25"/><line class="cls-2" x1="382.8" y1="650.1" x2="381.97" y2="649.62"/><polyline class="cls-2" points="466.28 570.8 466.28 574.91 464.28 573.75"/><line class="cls-2" x1="386.13" y1="382.12" x2="386.13" y2="385.21"/><line class="cls-2" x1="386.13" y1="352.05" x2="386.13" y2="355.13"/><line class="cls-2" x1="363.88" y1="398.05" x2="386.13" y2="385.21"/><line class="cls-2" x1="366.55" y1="366.44" x2="366.55" y2="393.43"/><line class="cls-2" x1="372.71" y1="626.62" x2="372.71" y2="628.93"/><line class="cls-2" x1="364.62" y1="633.6" x2="364.62" y2="631.29"/><line class="cls-2" x1="356.53" y1="635.96" x2="356.53" y2="638.27"/><line class="cls-2" x1="340.36" y1="647.61" x2="348.44" y2="642.94"/><line class="cls-2" x1="340.36" y1="645.3" x2="340.36" y2="647.61"/><line class="cls-2" x1="332.27" y1="652.28" x2="332.27" y2="649.97"/><line class="cls-2" x1="324.18" y1="656.95" x2="332.27" y2="652.28"/><line class="cls-2" x1="324.18" y1="654.64" x2="324.18" y2="656.95"/><line class="cls-2" x1="316.09" y1="661.62" x2="316.09" y2="659.31"/><line class="cls-2" x1="308" y1="666.29" x2="316.09" y2="661.62"/><line class="cls-2" x1="306" y1="663.34" x2="308" y2="662.18"/><line class="cls-2" x1="306" y1="659.22" x2="306" y2="663.34"/><line class="cls-2" x1="308" y1="658.06" x2="306" y2="659.22"/><line class="cls-2" x1="308" y1="656.27" x2="308" y2="658.06"/><line class="cls-2" x1="315.82" y1="651.76" x2="308" y2="656.27"/><line class="cls-2" x1="315.82" y1="649.44" x2="315.82" y2="651.76"/><line class="cls-2" x1="323.63" y1="644.93" x2="315.82" y2="649.44"/><line class="cls-2" x1="323.63" y1="647.24" x2="323.63" y2="644.93"/><line class="cls-2" x1="331.44" y1="642.73" x2="323.63" y2="647.24"/><line class="cls-2" x1="331.44" y1="640.42" x2="331.44" y2="642.73"/><line class="cls-2" x1="347.07" y1="631.39" x2="347.07" y2="633.71"/><line class="cls-2" x1="354.89" y1="629.2" x2="354.89" y2="626.88"/><line class="cls-2" x1="362.7" y1="624.69" x2="354.89" y2="629.2"/><line class="cls-2" x1="362.7" y1="622.37" x2="362.7" y2="624.69"/><line class="cls-2" x1="378.33" y1="613.35" x2="378.33" y2="615.67"/><line class="cls-2" x1="394.82" y1="606.14" x2="394.82" y2="603.83"/><line class="cls-2" x1="403.5" y1="601.13" x2="394.82" y2="606.14"/><line class="cls-2" x1="403.5" y1="598.81" x2="403.5" y2="601.13"/><line class="cls-2" x1="412.19" y1="593.8" x2="403.5" y2="598.81"/><line class="cls-2" x1="412.19" y1="596.11" x2="412.19" y2="593.8"/><line class="cls-2" x1="420.87" y1="591.1" x2="412.19" y2="596.11"/><line class="cls-2" x1="420.87" y1="588.79" x2="420.87" y2="591.1"/><line class="cls-2" x1="429.55" y1="583.78" x2="420.87" y2="588.79"/><line class="cls-2" x1="429.55" y1="586.09" x2="429.55" y2="583.78"/><line class="cls-2" x1="438.23" y1="581.08" x2="429.55" y2="586.09"/><line class="cls-2" x1="438.23" y1="578.76" x2="438.23" y2="581.08"/><line class="cls-2" x1="446.91" y1="573.75" x2="438.23" y2="578.76"/><line class="cls-2" x1="446.91" y1="576.06" x2="446.91" y2="573.75"/><line class="cls-2" x1="455.6" y1="571.05" x2="446.91" y2="576.06"/><line class="cls-2" x1="455.6" y1="568.74" x2="455.6" y2="571.05"/><line class="cls-2" x1="466.28" y1="566.68" x2="464.28" y2="567.84"/><line class="cls-2" x1="466.28" y1="570.8" x2="466.28" y2="566.68"/><line class="cls-2" x1="464.28" y1="571.95" x2="466.28" y2="570.8"/><line class="cls-2" x1="457.97" y1="579.7" x2="464.28" y2="576.06"/><line class="cls-2" x1="457.97" y1="577.39" x2="457.97" y2="579.7"/><line class="cls-2" x1="449.66" y1="584.5" x2="449.66" y2="582.19"/><line class="cls-2" x1="441.35" y1="589.3" x2="449.66" y2="584.5"/><line class="cls-2" x1="441.35" y1="586.99" x2="441.35" y2="589.3"/><line class="cls-2" x1="433.04" y1="594.1" x2="433.04" y2="591.79"/><line class="cls-2" x1="424.73" y1="598.9" x2="433.04" y2="594.1"/><line class="cls-2" x1="424.73" y1="596.59" x2="424.73" y2="598.9"/><line class="cls-2" x1="416.42" y1="603.7" x2="416.42" y2="601.38"/><line class="cls-2" x1="408.11" y1="608.5" x2="416.42" y2="603.7"/><line class="cls-2" x1="408.11" y1="606.18" x2="408.11" y2="608.5"/><line class="cls-2" x1="399.79" y1="613.3" x2="399.79" y2="610.98"/><line class="cls-2" x1="391.48" y1="618.09" x2="399.79" y2="613.3"/><line class="cls-2" x1="391.48" y1="626.77" x2="391.48" y2="618.09"/><line class="cls-2" x1="389.48" y1="627.93" x2="391.48" y2="626.77"/><line class="cls-2" x1="391.48" y1="635.44" x2="389.48" y2="636.6"/><line class="cls-2" x1="391.48" y1="644.12" x2="391.48" y2="635.44"/><line class="cls-2" x1="389.48" y1="645.28" x2="391.48" y2="644.12"/><line class="cls-2" x1="387.92" y1="654.85" x2="389.48" y2="653.95"/><line class="cls-2" x1="387.92" y1="657.17" x2="387.92" y2="654.85"/><line class="cls-2" x1="384.36" y1="659.22" x2="387.92" y2="657.17"/><line class="cls-2" x1="384.36" y1="656.91" x2="384.36" y2="659.22"/><line class="cls-2" x1="382.8" y1="657.81" x2="384.36" y2="656.91"/><line class="cls-2" x1="382.8" y1="640.46" x2="380.8" y2="641.61"/><line class="cls-2" x1="382.8" y1="631.78" x2="382.8" y2="640.46"/><line class="cls-2" x1="380.8" y1="632.94" x2="382.8" y2="631.78"/><line class="cls-2" x1="380.8" y1="624.26" x2="380.8" y2="632.94"/><polyline class="cls-2" points="391.48 644.12 391.48 652.8 389.48 651.64"/><line class="cls-2" x1="308.66" y1="390.35" x2="308.66" y2="393.69"/><line class="cls-2" x1="386.13" y1="355.13" x2="366.55" y2="366.44"/><line class="cls-2" x1="386.13" y1="355.13" x2="386.13" y2="382.12"/><line class="cls-2" x1="366.55" y1="393.43" x2="386.13" y2="382.12"/><line class="cls-2" x1="308.66" y1="426.85" x2="332.26" y2="413.23"/><line class="cls-2" x1="332.26" y1="413.23" x2="332.26" y2="386.23"/><line class="cls-2" x1="386.13" y1="388.29" x2="366.55" y2="399.6"/><line class="cls-2" x1="386.13" y1="388.29" x2="386.13" y2="415.29"/><line class="cls-2" x1="366.55" y1="426.59" x2="386.13" y2="415.29"/><line class="cls-2" x1="366.55" y1="399.6" x2="366.55" y2="426.59"/><line class="cls-2" x1="221.84" y1="358.22" x2="221.84" y2="348.96"/><path class="cls-2" d="M221.84,358.22c-5.34-3.08-2.67-1.54-8.01-4.63"/><line class="cls-2" x1="266.37" y1="386.49" x2="274.38" y2="391.12"/><line class="cls-2" x1="314" y1="335.08" x2="314" y2="344.34"/><line class="cls-2" x1="314" y1="368.24" x2="314" y2="377.5"/><line class="cls-2" x1="291.75" y1="381.09" x2="291.75" y2="390.34"/><line class="cls-2" x1="274.38" y1="457.44" x2="274.38" y2="466.69"/><line class="cls-2" x1="266.37" y1="452.81" x2="274.38" y2="457.44"/><line class="cls-2" x1="266.37" y1="485.97" x2="283.74" y2="475.94"/><line class="cls-2" x1="266.37" y1="452.81" x2="283.74" y2="442.78"/><line class="cls-2" x1="386.13" y1="282.64" x2="386.13" y2="285.73"/><line class="cls-2" x1="363.88" y1="298.57" x2="386.13" y2="285.73"/><line class="cls-2" x1="366.55" y1="293.95" x2="386.13" y2="282.64"/><line class="cls-2" x1="341.94" y1="636.53" x2="342.06" y2="636.6"/><polyline class="cls-2" points="380.8 651.25 381.71 651.78 382.8 651.15"/><line class="cls-2" x1="291.75" y1="556.14" x2="283.74" y2="575.42"/><line class="cls-2" x1="386.13" y1="275.69" x2="386.13" y2="282.64"/><line class="cls-2" x1="308.66" y1="489.83" x2="308.66" y2="493.17"/><line class="cls-2" x1="220.52" y1="260.27" x2="222.52" y2="259.11"/><line class="cls-2" x1="218.51" y1="259.12" x2="219.65" y2="258.46"/><line class="cls-2" x1="211.84" y1="339.31" x2="209.83" y2="340.48"/><line class="cls-2" x1="225.86" y1="328.91" x2="223.85" y2="330.07"/><line class="cls-2" x1="222.52" y1="619.27" x2="222.52" y2="625.61"/><line class="cls-2" x1="334.93" y1="292.92" x2="334.93" y2="290.61"/><line class="cls-2" x1="332.26" y1="294.46" x2="332.26" y2="292.15"/><line class="cls-2" x1="308.66" y1="310.4" x2="308.66" y2="310.41"/><line class="cls-2" x1="306" y1="321.97" x2="306" y2="321.95"/><line class="cls-2" x1="274.38" y1="324.8" x2="274.38" y2="334.05"/><line class="cls-2" x1="266.37" y1="320.17" x2="274.38" y2="324.8"/><line class="cls-2" x1="274.38" y1="490.6" x2="274.38" y2="499.85"/><line class="cls-2" x1="274.38" y1="433.53" x2="266.37" y2="452.81"/><line class="cls-2" x1="274.38" y1="424.28" x2="274.38" y2="433.53"/><line class="cls-2" x1="266.37" y1="419.65" x2="268.37" y2="418.49"/><line class="cls-2" x1="389.3" y1="518.13" x2="386.13" y2="516.29"/><line class="cls-2" x1="387.3" y1="519.28" x2="389.3" y2="518.13"/><line class="cls-2" x1="397.64" y1="522.93" x2="395.63" y2="524.09"/><line class="cls-2" x1="405.97" y1="527.74" x2="397.64" y2="522.93"/><line class="cls-2" x1="403.96" y1="528.9" x2="405.97" y2="527.74"/><line class="cls-2" x1="414.3" y1="532.55" x2="412.29" y2="533.71"/><line class="cls-2" x1="422.63" y1="537.36" x2="414.3" y2="532.55"/><line class="cls-2" x1="420.62" y1="538.52" x2="422.63" y2="537.36"/><line class="cls-2" x1="430.96" y1="542.17" x2="428.95" y2="543.33"/><line class="cls-2" x1="439.29" y1="546.98" x2="430.96" y2="542.17"/><line class="cls-2" x1="437.28" y1="548.14" x2="439.29" y2="546.98"/><line class="cls-2" x1="447.62" y1="551.79" x2="445.62" y2="552.95"/><line class="cls-2" x1="455.95" y1="556.6" x2="447.62" y2="551.79"/><line class="cls-2" x1="453.95" y1="557.76" x2="455.95" y2="556.6"/><line class="cls-2" x1="444.91" y1="572.6" x2="446.91" y2="573.75"/><line class="cls-2" x1="436.23" y1="577.61" x2="444.91" y2="572.6"/><line class="cls-2" x1="438.23" y1="578.76" x2="436.23" y2="577.61"/><line class="cls-2" x1="429.55" y1="583.78" x2="438.23" y2="578.76"/><line class="cls-2" x1="427.55" y1="582.62" x2="429.55" y2="583.78"/><line class="cls-2" x1="418.87" y1="587.63" x2="427.55" y2="582.62"/><line class="cls-2" x1="420.87" y1="588.79" x2="418.87" y2="587.63"/><line class="cls-2" x1="412.19" y1="593.8" x2="420.87" y2="588.79"/><line class="cls-2" x1="410.18" y1="592.64" x2="412.19" y2="593.8"/><line class="cls-2" x1="401.5" y1="597.66" x2="410.18" y2="592.64"/><line class="cls-2" x1="403.5" y1="598.81" x2="401.5" y2="597.66"/><line class="cls-2" x1="394.82" y1="603.83" x2="403.5" y2="598.81"/><line class="cls-2" x1="392.82" y1="602.67" x2="394.82" y2="603.83"/><line class="cls-2" x1="385.14" y1="607.1" x2="392.82" y2="602.67"/><line class="cls-2" x1="377.33" y1="602.59" x2="385.14" y2="607.1"/><line class="cls-2" x1="367.51" y1="599.24" x2="375.32" y2="603.75"/><line class="cls-2" x1="361.7" y1="593.57" x2="369.51" y2="598.08"/><line class="cls-2" x1="359.7" y1="594.73" x2="361.7" y2="593.57"/><line class="cls-2" x1="353.88" y1="589.06" x2="351.88" y2="590.22"/><line class="cls-2" x1="346.07" y1="584.55" x2="353.88" y2="589.06"/><line class="cls-2" x1="344.07" y1="585.7" x2="346.07" y2="584.55"/><line class="cls-2" x1="338.26" y1="580.04" x2="336.25" y2="581.19"/><line class="cls-2" x1="330.44" y1="575.52" x2="338.26" y2="580.04"/><line class="cls-2" x1="328.44" y1="576.68" x2="330.44" y2="575.52"/><line class="cls-2" x1="320.63" y1="572.17" x2="328.44" y2="576.68"/><line class="cls-2" x1="322.63" y1="571.01" x2="320.63" y2="572.17"/><line class="cls-2" x1="314.82" y1="566.5" x2="322.63" y2="571.01"/><line class="cls-2" x1="312.81" y1="567.66" x2="314.82" y2="566.5"/><line class="cls-2" x1="386.13" y1="315.8" x2="386.13" y2="318.89"/><line class="cls-2" x1="386.13" y1="285.73" x2="386.13" y2="288.81"/><line class="cls-2" x1="363.88" y1="331.73" x2="386.13" y2="318.89"/><line class="cls-2" x1="366.55" y1="327.11" x2="386.13" y2="315.8"/><line class="cls-2" x1="366.55" y1="300.11" x2="366.55" y2="327.11"/><line class="cls-2" x1="314.33" y1="129.36" x2="312.33" y2="130.52"/><line class="cls-2" x1="322.66" y1="134.17" x2="314.33" y2="129.36"/><line class="cls-2" x1="320.66" y1="135.33" x2="322.66" y2="134.17"/><line class="cls-2" x1="330.99" y1="138.98" x2="328.99" y2="140.14"/><line class="cls-2" x1="339.32" y1="143.79" x2="330.99" y2="138.98"/><line class="cls-2" x1="337.32" y1="144.95" x2="339.32" y2="143.79"/><line class="cls-2" x1="347.65" y1="148.6" x2="345.65" y2="149.75"/><line class="cls-2" x1="355.98" y1="153.41" x2="347.65" y2="148.6"/><line class="cls-2" x1="353.98" y1="154.56" x2="355.98" y2="153.41"/><line class="cls-2" x1="364.31" y1="158.22" x2="362.31" y2="159.37"/><line class="cls-2" x1="372.64" y1="163.03" x2="364.31" y2="158.22"/><line class="cls-2" x1="370.64" y1="164.18" x2="372.64" y2="163.03"/><line class="cls-2" x1="380.98" y1="167.84" x2="378.97" y2="169"/><line class="cls-2" x1="389.3" y1="172.64" x2="380.98" y2="167.84"/><line class="cls-2" x1="387.3" y1="173.8" x2="389.3" y2="172.64"/><line class="cls-2" x1="397.64" y1="177.46" x2="395.63" y2="178.61"/><line class="cls-2" x1="405.97" y1="182.27" x2="397.64" y2="177.46"/><line class="cls-2" x1="403.96" y1="183.42" x2="405.97" y2="182.27"/><line class="cls-2" x1="414.3" y1="187.08" x2="412.29" y2="188.23"/><line class="cls-2" x1="422.63" y1="191.89" x2="414.3" y2="187.08"/><line class="cls-2" x1="420.62" y1="193.04" x2="422.63" y2="191.89"/><line class="cls-2" x1="430.96" y1="196.69" x2="428.95" y2="197.85"/><line class="cls-2" x1="439.29" y1="201.5" x2="430.96" y2="196.69"/><line class="cls-2" x1="437.28" y1="202.66" x2="439.29" y2="201.5"/><line class="cls-2" x1="447.62" y1="206.31" x2="445.62" y2="207.47"/><line class="cls-2" x1="455.95" y1="211.12" x2="447.62" y2="206.31"/><line class="cls-2" x1="453.95" y1="212.28" x2="455.95" y2="211.12"/><line class="cls-2" x1="455.6" y1="223.26" x2="453.59" y2="222.1"/><line class="cls-2" x1="446.91" y1="228.27" x2="455.6" y2="223.26"/><line class="cls-2" x1="444.91" y1="227.12" x2="446.91" y2="228.27"/><line class="cls-2" x1="436.23" y1="232.13" x2="444.91" y2="227.12"/><line class="cls-2" x1="438.23" y1="233.28" x2="436.23" y2="232.13"/><line class="cls-2" x1="429.55" y1="238.3" x2="438.23" y2="233.28"/><line class="cls-2" x1="427.55" y1="237.14" x2="429.55" y2="238.3"/><line class="cls-2" x1="418.87" y1="242.15" x2="427.55" y2="237.14"/><line class="cls-2" x1="420.87" y1="243.31" x2="418.87" y2="242.15"/><line class="cls-2" x1="412.19" y1="248.32" x2="420.87" y2="243.31"/><line class="cls-2" x1="410.18" y1="247.17" x2="412.19" y2="248.32"/><line class="cls-2" x1="401.5" y1="252.18" x2="410.18" y2="247.17"/><line class="cls-2" x1="403.5" y1="253.34" x2="401.5" y2="252.18"/><line class="cls-2" x1="394.82" y1="258.35" x2="403.5" y2="253.34"/><line class="cls-2" x1="392.82" y1="257.19" x2="394.82" y2="258.35"/><line class="cls-2" x1="374.91" y1="258.03" x2="376.91" y2="256.88"/><line class="cls-2" x1="358.46" y1="248.54" x2="360.46" y2="247.38"/><line class="cls-2" x1="352.24" y1="242.63" x2="350.24" y2="243.79"/><line class="cls-2" x1="325.56" y1="229.54" x2="327.56" y2="228.38"/><line class="cls-2" x1="317.34" y1="224.79" x2="325.56" y2="229.54"/><line class="cls-2" x1="319.34" y1="223.63" x2="317.34" y2="224.79"/><line class="cls-2" x1="300.89" y1="215.29" x2="309.11" y2="220.04"/><line class="cls-2" x1="302.89" y1="214.14" x2="300.89" y2="215.29"/><line class="cls-2" x1="292.66" y1="210.54" x2="294.66" y2="209.39"/><line class="cls-2" x1="284.43" y1="205.8" x2="292.66" y2="210.54"/><line class="cls-2" x1="286.44" y1="204.64" x2="284.43" y2="205.8"/><line class="cls-2" x1="278.21" y1="199.89" x2="286.44" y2="204.64"/><line class="cls-2" x1="276.21" y1="201.05" x2="278.21" y2="199.89"/><line class="cls-2" x1="267.98" y1="196.3" x2="276.21" y2="201.05"/><line class="cls-2" x1="269.99" y1="195.14" x2="267.98" y2="196.3"/><line class="cls-2" x1="261.76" y1="190.39" x2="269.99" y2="195.14"/><line class="cls-2" x1="259.76" y1="191.55" x2="261.76" y2="190.39"/><line class="cls-2" x1="245.31" y1="180.9" x2="253.54" y2="185.65"/><line class="cls-2" x1="243.31" y1="182.05" x2="245.31" y2="180.9"/><line class="cls-2" x1="237.09" y1="176.15" x2="235.08" y2="177.3"/><line class="cls-2" x1="228.87" y1="171.4" x2="237.09" y2="176.15"/><line class="cls-2" x1="233.67" y1="166.31" x2="235.68" y2="167.47"/><line class="cls-2" x1="241.49" y1="161.8" x2="233.67" y2="166.31"/><line class="cls-2" x1="243.49" y1="162.96" x2="241.49" y2="161.8"/><line class="cls-2" x1="249.3" y1="157.29" x2="251.3" y2="158.44"/><line class="cls-2" x1="257.11" y1="152.78" x2="249.3" y2="157.29"/><line class="cls-2" x1="259.12" y1="153.93" x2="257.11" y2="152.78"/><line class="cls-2" x1="264.93" y1="148.26" x2="266.93" y2="149.42"/><line class="cls-2" x1="272.74" y1="143.75" x2="264.93" y2="148.26"/><line class="cls-2" x1="274.75" y1="144.91" x2="272.74" y2="143.75"/><line class="cls-2" x1="280.56" y1="139.24" x2="282.56" y2="140.4"/><line class="cls-2" x1="288.37" y1="134.73" x2="280.56" y2="139.24"/><line class="cls-2" x1="290.37" y1="135.89" x2="288.37" y2="134.73"/><line class="cls-2" x1="296.18" y1="130.22" x2="298.19" y2="131.38"/><line class="cls-2" x1="304" y1="125.71" x2="296.18" y2="130.22"/><line class="cls-2" x1="219.65" y1="258.46" x2="219.65" y2="259.77"/><line class="cls-2" x1="209.83" y1="284.95" x2="209.83" y2="275.7"/><line class="cls-2" x1="211.83" y1="283.79" x2="209.83" y2="284.95"/><line class="cls-2" x1="209.83" y1="303.46" x2="209.83" y2="294.21"/><line class="cls-2" x1="211.83" y1="302.3" x2="209.83" y2="303.46"/><line class="cls-2" x1="209.83" y1="321.97" x2="209.83" y2="312.71"/><line class="cls-2" x1="211.83" y1="320.81" x2="209.83" y2="321.97"/><line class="cls-2" x1="209.83" y1="340.48" x2="209.83" y2="331.22"/><line class="cls-2" x1="386.13" y1="321.97" x2="366.55" y2="333.27"/><line class="cls-2" x1="386.13" y1="348.96" x2="386.13" y2="352.05"/><line class="cls-2" x1="386.13" y1="318.89" x2="386.13" y2="321.97"/><line class="cls-2" x1="363.88" y1="364.89" x2="386.13" y2="352.05"/><line class="cls-2" x1="366.55" y1="333.27" x2="366.55" y2="360.27"/><line class="cls-2" x1="386.13" y1="454.61" x2="366.55" y2="465.92"/><line class="cls-2" x1="386.13" y1="454.61" x2="386.13" y2="481.61"/><line class="cls-2" x1="366.55" y1="492.91" x2="386.13" y2="481.61"/><line class="cls-2" x1="366.55" y1="465.92" x2="366.55" y2="492.91"/><line class="cls-2" x1="386.13" y1="288.81" x2="366.55" y2="300.11"/><line class="cls-2" x1="386.13" y1="288.81" x2="386.13" y2="315.8"/><line class="cls-2" x1="350.53" y1="469" x2="361.21" y2="462.83"/><line class="cls-2" x1="386.13" y1="487.78" x2="366.55" y2="499.08"/><line class="cls-2" x1="386.13" y1="514.77" x2="386.13" y2="516.28"/><line class="cls-2" x1="386.13" y1="484.69" x2="386.13" y2="487.78"/><line class="cls-2" x1="363.88" y1="497.53" x2="386.13" y2="484.69"/><line class="cls-2" x1="386.13" y1="481.61" x2="386.13" y2="484.69"/><line class="cls-2" x1="386.13" y1="451.53" x2="386.13" y2="454.61"/><line class="cls-2" x1="334.93" y1="481.09" x2="334.93" y2="447.93"/><line class="cls-2" x1="334.93" y1="481.09" x2="350.52" y2="472.09"/><line class="cls-2" x1="337.6" y1="476.46" x2="350.53" y2="469"/><line class="cls-2" x1="337.6" y1="449.47" x2="337.6" y2="476.46"/><line class="cls-2" x1="337.6" y1="416.31" x2="337.6" y2="443.3"/><line class="cls-2" x1="308.66" y1="460.01" x2="332.26" y2="446.39"/><line class="cls-2" x1="332.26" y1="446.39" x2="332.26" y2="419.39"/><line class="cls-2" x1="386.13" y1="421.45" x2="386.13" y2="448.45"/><line class="cls-2" x1="366.55" y1="459.75" x2="386.13" y2="448.45"/><line class="cls-2" x1="230.61" y1="611.58" x2="230.61" y2="610.97"/><line class="cls-2" x1="259.25" y1="630.43" x2="261.26" y2="629.27"/><line class="cls-2" x1="373.03" y1="656.79" x2="373.03" y2="654.48"/><line class="cls-2" x1="365.25" y1="652.3" x2="373.03" y2="656.79"/><line class="cls-2" x1="365.25" y1="649.99" x2="365.25" y2="652.3"/><line class="cls-2" x1="357.49" y1="647.82" x2="357.49" y2="645.51"/><line class="cls-2" x1="349.71" y1="643.33" x2="357.49" y2="647.82"/><line class="cls-2" x1="380.8" y1="632.94" x2="378.79" y2="631.78"/><line class="cls-2" x1="380.8" y1="641.61" x2="380.8" y2="632.94"/><line class="cls-2" x1="378.79" y1="640.46" x2="380.8" y2="641.61"/><line class="cls-2" x1="380.8" y1="650.29" x2="378.79" y2="649.13"/><line class="cls-2" x1="247.99" y1="639.25" x2="252.58" y2="636.6"/><line class="cls-2" x1="247.99" y1="636.93" x2="247.99" y2="639.25"/><line class="cls-2" x1="238.83" y1="644.53" x2="238.83" y2="642.22"/><line class="cls-2" x1="229.67" y1="649.82" x2="238.83" y2="644.53"/><line class="cls-2" x1="229.67" y1="647.51" x2="229.67" y2="649.82"/><line class="cls-2" x1="220.52" y1="644.12" x2="220.52" y2="652.8"/><line class="cls-2" x1="222.52" y1="642.96" x2="220.52" y2="644.12"/><line class="cls-2" x1="222.52" y1="634.29" x2="222.52" y2="642.96"/><line class="cls-2" x1="220.52" y1="635.44" x2="222.52" y2="634.29"/><line class="cls-2" x1="220.52" y1="626.77" x2="220.52" y2="635.44"/><line class="cls-2" x1="222.52" y1="625.61" x2="220.52" y2="626.77"/><line class="cls-2" x1="274.38" y1="367.21" x2="266.37" y2="386.49"/><line class="cls-2" x1="291.75" y1="347.93" x2="291.75" y2="357.18"/><line class="cls-2" x1="274.38" y1="357.96" x2="274.38" y2="367.21"/><line class="cls-2" x1="266.37" y1="386.49" x2="283.74" y2="376.46"/><line class="cls-2" x1="314" y1="401.4" x2="314" y2="410.66"/><line class="cls-2" x1="218.51" y1="625.61" x2="220.52" y2="626.77"/><line class="cls-2" x1="218.51" y1="634.29" x2="218.51" y2="625.61"/><line class="cls-2" x1="220.52" y1="635.44" x2="218.51" y2="634.29"/><line class="cls-2" x1="220.52" y1="644.12" x2="220.52" y2="635.44"/><line class="cls-2" x1="218.51" y1="642.96" x2="220.52" y2="644.12"/><line class="cls-2" x1="218.51" y1="651.64" x2="218.51" y2="642.96"/><line class="cls-2" x1="199.14" y1="642.77" x2="209.83" y2="648.94"/><line class="cls-2" x1="199.14" y1="640.46" x2="199.14" y2="642.77"/><line class="cls-2" x1="190.46" y1="635.44" x2="199.14" y2="640.46"/><line class="cls-2" x1="188.46" y1="625.61" x2="190.46" y2="626.77"/><line class="cls-2" x1="188.46" y1="616.94" x2="188.46" y2="625.61"/><line class="cls-2" x1="190.46" y1="618.09" x2="188.46" y2="616.94"/><line class="cls-2" x1="188.46" y1="608.26" x2="190.46" y2="609.42"/><line class="cls-2" x1="188.46" y1="599.59" x2="188.46" y2="608.26"/><line class="cls-2" x1="179.91" y1="594.65" x2="188.46" y2="599.59"/><line class="cls-2" x1="179.91" y1="592.34" x2="179.91" y2="594.65"/><line class="cls-2" x1="171.36" y1="589.71" x2="171.36" y2="587.4"/><line class="cls-2" x1="162.81" y1="584.78" x2="171.36" y2="589.71"/><line class="cls-2" x1="162.81" y1="582.47" x2="162.81" y2="584.78"/><line class="cls-2" x1="154.27" y1="579.84" x2="154.27" y2="577.53"/><line class="cls-2" x1="145.72" y1="574.91" x2="154.27" y2="579.84"/><line class="cls-2" x1="145.72" y1="570.8" x2="145.72" y2="574.91"/><line class="cls-2" x1="147.72" y1="571.95" x2="145.72" y2="570.8"/><line class="cls-2" x1="145.72" y1="566.68" x2="147.72" y2="567.84"/><line class="cls-2" x1="145.72" y1="562.57" x2="145.72" y2="566.68"/><line class="cls-2" x1="154.15" y1="569.75" x2="154.15" y2="567.44"/><line class="cls-2" x1="162.59" y1="572.31" x2="162.59" y2="574.62"/><line class="cls-2" x1="171.03" y1="577.18" x2="162.59" y2="572.31"/><line class="cls-2" x1="171.03" y1="579.5" x2="171.03" y2="577.18"/><line class="cls-2" x1="179.46" y1="584.37" x2="171.03" y2="579.5"/><line class="cls-2" x1="179.46" y1="582.05" x2="179.46" y2="584.37"/><line class="cls-2" x1="187.89" y1="586.92" x2="179.46" y2="582.05"/><line class="cls-2" x1="187.89" y1="589.23" x2="187.89" y2="586.92"/><line class="cls-2" x1="204.77" y1="598.98" x2="204.77" y2="596.66"/><line class="cls-2" x1="213.2" y1="603.85" x2="204.77" y2="598.98"/><line class="cls-2" x1="213.2" y1="601.53" x2="213.2" y2="603.85"/><line class="cls-2" x1="238.51" y1="618.46" x2="238.51" y2="616.14"/><line class="cls-2" x1="246.95" y1="623.33" x2="238.51" y2="618.46"/><line class="cls-2" x1="246.95" y1="621.02" x2="246.95" y2="623.33"/><line class="cls-2" x1="255.38" y1="625.89" x2="246.95" y2="621.02"/><line class="cls-2" x1="255.38" y1="628.2" x2="255.38" y2="625.89"/><line class="cls-2" x1="263.82" y1="630.76" x2="263.82" y2="633.07"/><line class="cls-2" x1="272.26" y1="635.63" x2="263.82" y2="630.76"/><line class="cls-2" x1="272.26" y1="637.94" x2="272.26" y2="635.63"/><line class="cls-2" x1="280.69" y1="642.81" x2="272.26" y2="637.94"/><line class="cls-2" x1="280.69" y1="640.5" x2="280.69" y2="642.81"/><line class="cls-2" x1="289.13" y1="645.37" x2="280.69" y2="640.5"/><line class="cls-2" x1="289.13" y1="647.68" x2="289.13" y2="645.37"/><line class="cls-2" x1="297.56" y1="652.55" x2="289.13" y2="647.68"/><line class="cls-2" x1="297.56" y1="650.24" x2="297.56" y2="652.55"/><line class="cls-2" x1="306" y1="655.11" x2="297.56" y2="650.24"/><line class="cls-2" x1="306" y1="659.22" x2="306" y2="655.11"/><line class="cls-2" x1="304" y1="658.06" x2="306" y2="659.22"/><line class="cls-2" x1="304" y1="662.18" x2="304" y2="658.06"/><line class="cls-2" x1="306" y1="663.34" x2="304" y2="662.18"/><line class="cls-2" x1="298.23" y1="662.96" x2="306" y2="667.45"/><line class="cls-2" x1="298.23" y1="660.65" x2="298.23" y2="662.96"/><line class="cls-2" x1="290.46" y1="658.47" x2="290.46" y2="656.16"/><line class="cls-2" x1="282.68" y1="653.99" x2="290.46" y2="658.47"/><line class="cls-2" x1="282.68" y1="651.67" x2="282.68" y2="653.99"/><line class="cls-2" x1="274.91" y1="649.5" x2="274.91" y2="647.19"/><line class="cls-2" x1="267.14" y1="645.01" x2="274.91" y2="649.5"/><line class="cls-2" x1="267.14" y1="642.7" x2="267.14" y2="645.01"/><line class="cls-2" x1="259.37" y1="640.53" x2="259.37" y2="638.21"/><line class="cls-2" x1="243.83" y1="631.55" x2="243.83" y2="629.24"/><line class="cls-2" x1="236.06" y1="627.07" x2="243.83" y2="631.55"/><line class="cls-2" x1="236.06" y1="624.75" x2="236.06" y2="627.07"/><line class="cls-2" x1="228.29" y1="622.58" x2="228.29" y2="620.27"/><line class="cls-2" x1="266.37" y1="381.87" x2="266.37" y2="386.49"/><line class="cls-2" x1="235.68" y1="269.03" x2="235.68" y2="267.71"/><line class="cls-2" x1="264.36" y1="519.52" x2="266.37" y2="520.67"/><line class="cls-2" x1="266.37" y1="520.67" x2="266.37" y2="519.13"/><line class="cls-2" x1="266.37" y1="519.13" x2="266.37" y2="511.42"/><path class="cls-2" d="M221.84,598.82c-5.34-3.08-2.67-1.54-8.01-4.63"/><line class="cls-2" x1="274.38" y1="523.76" x2="274.38" y2="533.01"/><path class="cls-2" d="M221.84,598.82c5.22-3.01,10.44-6.03,15.66-9.04"/><path class="cls-2" d="M221.84,348.96c-5.34-3.08-2.67-1.54-8.01-4.63"/><path class="cls-2" d="M221.84,608.08c-.07-.04-.13-.07-.2-.11"/><line class="cls-2" x1="213.82" y1="344.34" x2="213.82" y2="353.59"/><path class="cls-2" d="M221.84,608.08v-1.57"/><line class="cls-2" x1="332.26" y1="479.55" x2="332.26" y2="452.56"/><line class="cls-2" x1="264.36" y1="343.69" x2="266.37" y2="344.85"/><line class="cls-2" x1="264.36" y1="352.95" x2="264.36" y2="343.69"/><line class="cls-2" x1="266.37" y1="354.1" x2="264.36" y2="352.95"/><line class="cls-2" x1="264.36" y1="362.2" x2="266.37" y2="363.36"/><line class="cls-2" x1="264.36" y1="371.45" x2="264.36" y2="362.2"/><line class="cls-2" x1="266.37" y1="372.61" x2="264.36" y2="371.45"/><line class="cls-2" x1="264.36" y1="380.71" x2="266.37" y2="381.87"/><line class="cls-2" x1="264.36" y1="389.96" x2="264.36" y2="380.71"/><line class="cls-2" x1="266.37" y1="391.12" x2="264.36" y2="389.96"/><line class="cls-2" x1="264.36" y1="399.22" x2="266.37" y2="400.37"/><line class="cls-2" x1="266.37" y1="409.63" x2="264.36" y2="408.47"/><line class="cls-2" x1="264.36" y1="426.98" x2="266.37" y2="428.14"/><line class="cls-2" x1="264.36" y1="436.23" x2="264.36" y2="426.98"/><line class="cls-2" x1="266.37" y1="437.39" x2="264.36" y2="436.23"/><line class="cls-2" x1="264.36" y1="445.49" x2="266.37" y2="446.64"/><line class="cls-2" x1="264.36" y1="454.74" x2="264.36" y2="445.49"/><line class="cls-2" x1="266.37" y1="455.9" x2="264.36" y2="454.74"/><line class="cls-2" x1="264.36" y1="463.99" x2="266.37" y2="465.15"/><line class="cls-2" x1="264.36" y1="473.25" x2="264.36" y2="463.99"/><line class="cls-2" x1="266.37" y1="474.41" x2="264.36" y2="473.25"/><line class="cls-2" x1="264.36" y1="482.5" x2="266.37" y2="483.66"/><line class="cls-2" x1="264.36" y1="491.75" x2="264.36" y2="482.5"/><line class="cls-2" x1="266.37" y1="492.91" x2="264.36" y2="491.75"/><line class="cls-2" x1="264.36" y1="501.01" x2="266.37" y2="502.16"/><line class="cls-2" x1="266.37" y1="511.42" x2="264.36" y2="510.26"/><line class="cls-2" x1="264.36" y1="528.77" x2="264.36" y2="519.52"/><line class="cls-2" x1="266.37" y1="529.93" x2="264.36" y2="528.77"/><line class="cls-2" x1="264.36" y1="538.03" x2="266.37" y2="539.18"/><line class="cls-2" x1="266.37" y1="548.43" x2="264.36" y2="547.28"/><line class="cls-2" x1="264.36" y1="556.53" x2="266.37" y2="557.69"/><line class="cls-2" x1="264.36" y1="565.79" x2="264.36" y2="556.53"/><line class="cls-2" x1="266.37" y1="566.94" x2="264.36" y2="565.79"/><line class="cls-2" x1="238.55" y1="268.37" x2="236.55" y2="269.52"/><line class="cls-2" x1="314" y1="434.56" x2="314" y2="443.82"/><line class="cls-2" x1="235.68" y1="267.71" x2="234.54" y2="268.37"/><line class="cls-2" x1="251.54" y1="186.8" x2="253.54" y2="185.65"/><line class="cls-2" x1="259.76" y1="191.55" x2="251.54" y2="186.8"/><line class="cls-2" x1="311.11" y1="218.88" x2="309.11" y2="220.04"/><line class="cls-2" x1="335.79" y1="233.13" x2="327.56" y2="228.38"/><line class="cls-2" x1="333.79" y1="234.29" x2="335.79" y2="233.13"/><line class="cls-2" x1="344.02" y1="237.88" x2="342.01" y2="239.04"/><line class="cls-2" x1="366.68" y1="253.28" x2="368.69" y2="252.13"/><line class="cls-2" x1="376.32" y1="266.71" x2="385.14" y2="261.62"/><line class="cls-2" x1="378.33" y1="267.87" x2="376.32" y2="266.71"/><line class="cls-2" x1="370.51" y1="272.38" x2="378.33" y2="267.87"/><line class="cls-2" x1="368.51" y1="271.23" x2="370.51" y2="272.38"/><line class="cls-2" x1="352.88" y1="280.25" x2="354.89" y2="281.41"/><line class="cls-2" x1="347.07" y1="285.92" x2="345.07" y2="284.76"/><line class="cls-2" x1="339.26" y1="290.43" x2="347.07" y2="285.92"/><line class="cls-2" x1="331.44" y1="294.94" x2="329.44" y2="293.78"/><line class="cls-2" x1="323.63" y1="299.45" x2="331.44" y2="294.94"/><line class="cls-2" x1="321.63" y1="298.29" x2="323.63" y2="299.45"/><line class="cls-2" x1="297.56" y1="304.76" x2="299.57" y2="303.6"/><line class="cls-2" x1="280.69" y1="295.02" x2="282.69" y2="293.86"/><line class="cls-2" x1="274.26" y1="288.99" x2="272.26" y2="290.15"/><line class="cls-2" x1="263.82" y1="285.28" x2="265.82" y2="284.12"/><line class="cls-2" x1="257.39" y1="279.25" x2="255.38" y2="280.41"/><line class="cls-2" x1="246.95" y1="275.54" x2="248.95" y2="274.38"/><line class="cls-2" x1="240.52" y1="269.51" x2="238.51" y2="270.67"/><line class="cls-2" x1="230.08" y1="265.8" x2="232.08" y2="264.64"/><line class="cls-2" x1="223.64" y1="259.77" x2="221.64" y2="260.93"/><line class="cls-2" x1="213.2" y1="256.05" x2="215.21" y2="254.9"/><line class="cls-2" x1="204.77" y1="251.19" x2="213.2" y2="256.05"/><line class="cls-2" x1="206.77" y1="250.03" x2="204.77" y2="251.19"/><line class="cls-2" x1="198.34" y1="245.16" x2="206.77" y2="250.03"/><line class="cls-2" x1="196.33" y1="246.31" x2="198.34" y2="245.16"/><line class="cls-2" x1="187.89" y1="241.44" x2="196.33" y2="246.31"/><line class="cls-2" x1="189.9" y1="240.29" x2="187.89" y2="241.44"/><line class="cls-2" x1="181.46" y1="235.42" x2="189.9" y2="240.29"/><line class="cls-2" x1="179.46" y1="236.57" x2="181.46" y2="235.42"/><line class="cls-2" x1="171.03" y1="231.7" x2="179.46" y2="236.57"/><line class="cls-2" x1="173.03" y1="230.54" x2="171.03" y2="231.7"/><line class="cls-2" x1="164.59" y1="225.68" x2="173.03" y2="230.54"/><line class="cls-2" x1="162.59" y1="226.83" x2="164.59" y2="225.68"/><line class="cls-2" x1="156.16" y1="220.8" x2="154.15" y2="221.96"/><line class="cls-2" x1="155.53" y1="211.42" x2="147.72" y2="215.94"/><line class="cls-2" x1="157.54" y1="212.58" x2="155.53" y2="211.42"/><line class="cls-2" x1="163.35" y1="206.91" x2="165.35" y2="208.07"/><line class="cls-2" x1="171.16" y1="202.4" x2="163.35" y2="206.91"/><line class="cls-2" x1="173.17" y1="203.56" x2="171.16" y2="202.4"/><line class="cls-2" x1="178.98" y1="197.89" x2="180.98" y2="199.05"/><line class="cls-2" x1="186.79" y1="193.38" x2="178.98" y2="197.89"/><line class="cls-2" x1="188.79" y1="194.53" x2="186.79" y2="193.38"/><line class="cls-2" x1="194.6" y1="188.87" x2="196.61" y2="190.02"/><line class="cls-2" x1="202.42" y1="184.36" x2="194.6" y2="188.87"/><line class="cls-2" x1="204.42" y1="185.51" x2="202.42" y2="184.36"/><line class="cls-2" x1="210.23" y1="179.85" x2="212.24" y2="181"/><line class="cls-2" x1="218.05" y1="175.33" x2="210.23" y2="179.85"/><line class="cls-2" x1="220.05" y1="176.49" x2="218.05" y2="175.33"/><line class="cls-2" x1="228.87" y1="171.4" x2="220.05" y2="176.49"/><line class="cls-2" x1="308.66" y1="327.37" x2="332.26" y2="313.74"/><line class="cls-2" x1="306" y1="496.22" x2="306" y2="496.25"/><line class="cls-2" x1="332.26" y1="319.91" x2="310" y2="332.77"/><line class="cls-2" x1="308.66" y1="360.53" x2="332.26" y2="346.9"/><line class="cls-2" x1="332.26" y1="346.9" x2="332.26" y2="319.91"/><line class="cls-2" x1="315.82" y1="303.96" x2="315.82" y2="306.27"/><line class="cls-2" x1="323.63" y1="299.45" x2="315.82" y2="303.96"/><line class="cls-2" x1="323.63" y1="301.76" x2="323.63" y2="299.45"/><line class="cls-2" x1="331.44" y1="297.25" x2="323.63" y2="301.76"/><line class="cls-2" x1="331.44" y1="294.94" x2="331.44" y2="297.25"/><line class="cls-2" x1="339.26" y1="292.74" x2="339.26" y2="290.43"/><line class="cls-2" x1="347.07" y1="288.23" x2="339.26" y2="292.74"/><line class="cls-2" x1="347.07" y1="285.92" x2="347.07" y2="288.23"/><line class="cls-2" x1="354.89" y1="283.72" x2="354.89" y2="281.41"/><line class="cls-2" x1="362.7" y1="276.89" x2="362.7" y2="279.21"/><line class="cls-2" x1="370.51" y1="274.7" x2="370.51" y2="272.38"/><line class="cls-2" x1="378.33" y1="270.19" x2="370.51" y2="274.7"/><line class="cls-2" x1="378.33" y1="267.87" x2="378.33" y2="270.19"/><line class="cls-2" x1="394.82" y1="258.35" x2="378.33" y2="267.87"/><line class="cls-2" x1="394.82" y1="260.66" x2="394.82" y2="258.35"/><line class="cls-2" x1="403.5" y1="255.65" x2="394.82" y2="260.66"/><line class="cls-2" x1="403.5" y1="253.34" x2="403.5" y2="255.65"/><line class="cls-2" x1="412.19" y1="248.32" x2="403.5" y2="253.34"/><line class="cls-2" x1="412.19" y1="250.64" x2="412.19" y2="248.32"/><line class="cls-2" x1="420.87" y1="245.62" x2="412.19" y2="250.64"/><line class="cls-2" x1="420.87" y1="243.31" x2="420.87" y2="245.62"/><line class="cls-2" x1="429.55" y1="238.3" x2="420.87" y2="243.31"/><line class="cls-2" x1="429.55" y1="240.61" x2="429.55" y2="238.3"/><line class="cls-2" x1="438.23" y1="235.6" x2="429.55" y2="240.61"/><line class="cls-2" x1="438.23" y1="233.28" x2="438.23" y2="235.6"/><line class="cls-2" x1="446.91" y1="228.27" x2="438.23" y2="233.28"/><line class="cls-2" x1="446.91" y1="230.59" x2="446.91" y2="228.27"/><line class="cls-2" x1="455.6" y1="225.57" x2="446.91" y2="230.59"/><line class="cls-2" x1="466.28" y1="221.2" x2="464.28" y2="222.36"/><line class="cls-2" x1="466.28" y1="225.31" x2="466.28" y2="221.2"/><line class="cls-2" x1="464.28" y1="226.47" x2="466.28" y2="225.31"/><line class="cls-2" x1="464.28" y1="228.27" x2="464.28" y2="226.47"/><line class="cls-2" x1="456.47" y1="235.09" x2="456.47" y2="232.78"/><line class="cls-2" x1="448.65" y1="239.61" x2="456.47" y2="235.09"/><line class="cls-2" x1="448.65" y1="237.29" x2="448.65" y2="239.61"/><line class="cls-2" x1="440.84" y1="244.12" x2="440.84" y2="241.81"/><line class="cls-2" x1="433.02" y1="248.63" x2="440.84" y2="244.12"/><line class="cls-2" x1="433.02" y1="246.31" x2="433.02" y2="248.63"/><line class="cls-2" x1="425.21" y1="253.14" x2="425.21" y2="250.83"/><line class="cls-2" x1="417.4" y1="257.65" x2="425.21" y2="253.14"/><line class="cls-2" x1="417.4" y1="255.34" x2="417.4" y2="257.65"/><line class="cls-2" x1="409.58" y1="262.16" x2="409.58" y2="259.85"/><line class="cls-2" x1="401.77" y1="266.67" x2="409.58" y2="262.16"/><line class="cls-2" x1="401.77" y1="264.36" x2="401.77" y2="266.67"/><line class="cls-2" x1="393.95" y1="271.19" x2="393.95" y2="268.87"/><line class="cls-2" x1="386.14" y1="275.69" x2="393.95" y2="271.19"/><line class="cls-2" x1="386.14" y1="273.38" x2="386.14" y2="275.69"/><line class="cls-2" x1="378.33" y1="280.21" x2="378.33" y2="277.89"/><line class="cls-2" x1="370.51" y1="284.72" x2="378.33" y2="280.21"/><line class="cls-2" x1="370.51" y1="282.41" x2="370.51" y2="284.72"/><line class="cls-2" x1="362.7" y1="289.23" x2="362.7" y2="286.92"/><line class="cls-2" x1="347.07" y1="298.25" x2="347.07" y2="295.94"/><line class="cls-2" x1="339.26" y1="302.76" x2="347.07" y2="298.25"/><line class="cls-2" x1="339.26" y1="300.45" x2="339.26" y2="302.76"/><line class="cls-2" x1="331.44" y1="307.28" x2="331.44" y2="304.96"/><line class="cls-2" x1="323.63" y1="311.79" x2="331.44" y2="307.28"/><line class="cls-2" x1="323.63" y1="309.47" x2="323.63" y2="311.79"/><line class="cls-2" x1="315.82" y1="316.3" x2="315.82" y2="313.98"/><line class="cls-2" x1="306" y1="317.85" x2="308" y2="316.7"/><line class="cls-2" x1="308" y1="312.59" x2="306" y2="313.74"/><line class="cls-2" x1="308" y1="310.79" x2="308" y2="312.59"/><line class="cls-2" x1="314" y1="500.89" x2="314" y2="510.14"/><path class="cls-2" d="M250.26,492.13c-.37-.02-.71-.12-1.03-.31"/><line class="cls-2" x1="291.75" y1="546.89" x2="291.75" y2="556.14"/><line class="cls-2" x1="314" y1="534.05" x2="314" y2="543.3"/><line class="cls-2" x1="162.59" y1="226.83" x2="162.59" y2="229.14"/><line class="cls-2" x1="171.03" y1="231.7" x2="162.59" y2="226.83"/><line class="cls-2" x1="171.03" y1="234.02" x2="171.03" y2="231.7"/><line class="cls-2" x1="179.46" y1="238.89" x2="171.03" y2="234.02"/><line class="cls-2" x1="179.46" y1="236.57" x2="179.46" y2="238.89"/><line class="cls-2" x1="187.89" y1="241.44" x2="179.46" y2="236.57"/><line class="cls-2" x1="187.89" y1="243.76" x2="187.89" y2="241.44"/><line class="cls-2" x1="196.33" y1="248.63" x2="187.89" y2="243.76"/><line class="cls-2" x1="196.33" y1="246.31" x2="196.33" y2="248.63"/><line class="cls-2" x1="204.77" y1="251.19" x2="196.33" y2="246.31"/><line class="cls-2" x1="204.77" y1="253.5" x2="204.77" y2="251.19"/><line class="cls-2" x1="213.2" y1="258.37" x2="204.77" y2="253.5"/><line class="cls-2" x1="213.2" y1="256.05" x2="213.2" y2="258.37"/><line class="cls-2" x1="230.08" y1="268.11" x2="221.64" y2="263.24"/><line class="cls-2" x1="230.08" y1="265.8" x2="230.08" y2="268.11"/><line class="cls-2" x1="238.51" y1="272.98" x2="238.51" y2="270.67"/><line class="cls-2" x1="246.95" y1="275.54" x2="246.95" y2="277.85"/><line class="cls-2" x1="255.38" y1="282.72" x2="255.38" y2="280.41"/><line class="cls-2" x1="263.82" y1="285.28" x2="263.82" y2="287.59"/><line class="cls-2" x1="272.26" y1="292.46" x2="272.26" y2="290.15"/><line class="cls-2" x1="289.13" y1="302.2" x2="289.13" y2="299.89"/><line class="cls-2" x1="297.56" y1="304.76" x2="297.56" y2="307.07"/><line class="cls-2" x1="304" y1="312.59" x2="306" y2="313.74"/><line class="cls-2" x1="297.09" y1="314.51" x2="297.09" y2="316.82"/><line class="cls-2" x1="288.19" y1="311.68" x2="288.19" y2="309.37"/><line class="cls-2" x1="279.28" y1="304.23" x2="279.28" y2="306.54"/><line class="cls-2" x1="270.38" y1="301.4" x2="270.38" y2="299.09"/><line class="cls-2" x1="261.47" y1="293.95" x2="261.47" y2="296.26"/><line class="cls-2" x1="252.57" y1="291.12" x2="252.57" y2="288.8"/><line class="cls-2" x1="243.67" y1="285.98" x2="252.57" y2="291.12"/><line class="cls-2" x1="234.76" y1="280.84" x2="234.76" y2="278.53"/><line class="cls-2" x1="223.86" y1="283.79" x2="225.84" y2="284.94"/><line class="cls-2" x1="223.86" y1="293.05" x2="223.86" y2="283.79"/><line class="cls-2" x1="225.86" y1="303.46" x2="225.86" y2="294.21"/><line class="cls-2" x1="223.86" y1="302.3" x2="225.86" y2="303.46"/><line class="cls-2" x1="223.86" y1="311.56" x2="223.86" y2="302.3"/><line class="cls-2" x1="225.86" y1="312.71" x2="225.85" y2="312.71"/><line class="cls-2" x1="223.86" y1="320.81" x2="225.84" y2="321.96"/><line class="cls-2" x1="223.86" y1="330.06" x2="223.86" y2="320.81"/><line class="cls-2" x1="225.86" y1="331.22" x2="223.86" y2="330.06"/><line class="cls-2" x1="223.86" y1="346.26" x2="223.86" y2="339.32"/><line class="cls-2" x1="217.84" y1="345.1" x2="217.84" y2="342.79"/><line class="cls-2" x1="209.83" y1="331.22" x2="211.83" y2="332.38"/><line class="cls-2" x1="209.83" y1="321.97" x2="209.83" y2="331.22"/><line class="cls-2" x1="211.83" y1="323.12" x2="209.83" y2="321.97"/><line class="cls-2" x1="209.83" y1="312.71" x2="211.83" y2="313.87"/><line class="cls-2" x1="209.83" y1="303.46" x2="209.83" y2="312.71"/><line class="cls-2" x1="209.83" y1="294.21" x2="211.83" y2="295.36"/><line class="cls-2" x1="209.83" y1="284.95" x2="209.83" y2="294.21"/><line class="cls-2" x1="211.83" y1="286.11" x2="209.83" y2="284.95"/><line class="cls-2" x1="209.83" y1="275.7" x2="211.83" y2="276.85"/><line class="cls-2" x1="209.83" y1="266.44" x2="209.83" y2="275.7"/><line class="cls-2" x1="200.67" y1="261.15" x2="209.83" y2="266.44"/><line class="cls-2" x1="200.67" y1="258.84" x2="200.67" y2="261.15"/><line class="cls-2" x1="191.51" y1="255.87" x2="191.51" y2="253.55"/><line class="cls-2" x1="182.35" y1="250.58" x2="191.51" y2="255.87"/><line class="cls-2" x1="182.35" y1="248.27" x2="182.35" y2="250.58"/><line class="cls-2" x1="164.04" y1="240" x2="173.19" y2="245.29"/><line class="cls-2" x1="164.04" y1="237.69" x2="164.04" y2="240"/><line class="cls-2" x1="154.87" y1="234.71" x2="154.87" y2="232.4"/><line class="cls-2" x1="145.72" y1="229.43" x2="154.87" y2="234.71"/><line class="cls-2" x1="145.72" y1="225.32" x2="145.72" y2="229.43"/><line class="cls-2" x1="147.72" y1="226.47" x2="145.72" y2="225.32"/><line class="cls-2" x1="145.72" y1="221.2" x2="147.72" y2="222.36"/><line class="cls-2" x1="145.72" y1="217.09" x2="145.72" y2="221.2"/><line class="cls-2" x1="274.38" y1="334.05" x2="266.37" y2="353.33"/><line class="cls-2" x1="266.37" y1="353.33" x2="283.74" y2="343.3"/><text class="cls-3" transform="translate(470.23 742.17)"><tspan x="0" y="0">Exploded</tspan><tspan class="cls-4" x="47.26" y="0"> </tspan><tspan class="cls-1" x="49.37" y="0">V</tspan><tspan x="55.87" y="0">iew</tspan></text></svg>