<?xml version="1.0" encoding="UTF-8"?><svg id="Layer_3" xmlns="http://www.w3.org/2000/svg" viewBox="0 0 612 792"><defs><style>.cls-1{letter-spacing:.02em;}.cls-2{letter-spacing:0em;}.cls-3{fill:none;stroke:#000;stroke-linecap:round;stroke-linejoin:round;stroke-width:.25px;}.cls-4{letter-spacing:0em;}.cls-5{font-family:MyriadPro-Regular, 'Myriad Pro';font-size:12px;}.cls-6{letter-spacing:0em;}.cls-7{letter-spacing:-.03em;}</style></defs><text class="cls-5" transform="translate(476.62 262.2)"><tspan x="0" y="0">East Ele</tspan><tspan class="cls-6" x="37.7" y="0">va</tspan><tspan x="49.16" y="0">tion</tspan></text><text class="cls-5" transform="translate(472.16 519.46)"><tspan x="0" y="0">No</tspan><tspan class="cls-1" x="14.48" y="0">r</tspan><tspan x="18.7" y="0">th Ele</tspan><tspan class="cls-4" x="46.62" y="0">va</tspan><tspan x="58.08" y="0">tion</tspan></text><text class="cls-5" transform="translate(474.58 764.19)"><tspan class="cls-7" x="0" y="0">W</tspan><tspan x="9.76" y="0">est Ele</tspan><tspan class="cls-2" x="41.78" y="0">va</tspan><tspan x="53.24" y="0">tion</tspan></text><line class="cls-3" x1="319.37" y1="683.83" x2="491.31" y2="683.83"/><line class="cls-3" x1="128.61" y1="683.83" x2="319.37" y2="683.83"/><line class="cls-3" x1="322.98" y1="549.37" x2="494.91" y2="549.37"/><line class="cls-3" x1="125.01" y1="549.37" x2="322.98" y2="549.37"/><line class="cls-3" x1="333.78" y1="719.85" x2="114.2" y2="719.85"/><line class="cls-3" x1="333.78" y1="712.65" x2="114.2" y2="712.65"/><line class="cls-3" x1="505.72" y1="719.85" x2="333.78" y2="719.85"/><line class="cls-3" x1="505.72" y1="712.65" x2="333.78" y2="712.65"/><line class="cls-3" x1="319.37" y1="679.03" x2="319.37" y2="549.37"/><line class="cls-3" x1="131.01" y1="719.85" x2="131.01" y2="741.46"/><line class="cls-3" x1="145.42" y1="719.85" x2="145.42" y2="741.46"/><line class="cls-3" x1="319.37" y1="679.03" x2="491.31" y2="679.03"/><line class="cls-3" x1="128.61" y1="679.03" x2="319.37" y2="679.03"/><line class="cls-3" x1="128.61" y1="679.03" x2="128.61" y2="549.37"/><line class="cls-3" x1="491.31" y1="679.03" x2="491.31" y2="549.37"/><line class="cls-3" x1="145.42" y1="741.46" x2="131.01" y2="741.46"/><line class="cls-3" x1="491.31" y1="683.83" x2="491.31" y2="679.03"/><line class="cls-3" x1="319.37" y1="683.83" x2="319.37" y2="679.03"/><line class="cls-3" x1="128.61" y1="683.83" x2="128.61" y2="679.03"/><line class="cls-3" x1="399.35" y1="592.59" x2="484.11" y2="592.59"/><line class="cls-3" x1="484.11" y1="628.61" x2="484.11" y2="592.59"/><line class="cls-3" x1="399.35" y1="628.61" x2="399.35" y2="592.59"/><line class="cls-3" x1="322.98" y1="544.57" x2="494.91" y2="544.57"/><line class="cls-3" x1="494.91" y1="549.37" x2="494.91" y2="544.57"/><line class="cls-3" x1="125.01" y1="544.57" x2="322.98" y2="544.57"/><line class="cls-3" x1="322.98" y1="549.37" x2="322.98" y2="544.57"/><line class="cls-3" x1="125.01" y1="549.37" x2="125.01" y2="544.57"/><line class="cls-3" x1="302.57" y1="719.85" x2="302.57" y2="741.46"/><line class="cls-3" x1="316.97" y1="719.85" x2="316.97" y2="741.46"/><line class="cls-3" x1="474.5" y1="719.85" x2="474.5" y2="741.46"/><line class="cls-3" x1="488.91" y1="719.85" x2="488.91" y2="741.46"/><line class="cls-3" x1="316.97" y1="741.46" x2="302.57" y2="741.46"/><line class="cls-3" x1="488.91" y1="741.46" x2="474.5" y2="741.46"/><line class="cls-3" x1="400.55" y1="627.41" x2="482.91" y2="627.41"/><line class="cls-3" x1="419.64" y1="683.83" x2="419.64" y2="712.65"/><line class="cls-3" x1="347.61" y1="712.65" x2="347.61" y2="683.83"/><line class="cls-3" x1="114.2" y1="712.65" x2="114.2" y2="719.85"/><line class="cls-3" x1="333.78" y1="712.65" x2="333.78" y2="719.85"/><line class="cls-3" x1="505.72" y1="712.65" x2="505.72" y2="719.85"/><line class="cls-3" x1="316.97" y1="712.65" x2="316.97" y2="683.83"/><line class="cls-3" x1="131.01" y1="712.65" x2="131.01" y2="683.83"/><line class="cls-3" x1="488.91" y1="712.65" x2="488.91" y2="683.83"/><line class="cls-3" x1="399.35" y1="628.61" x2="484.11" y2="628.61"/><line class="cls-3" x1="482.91" y1="593.79" x2="400.55" y2="593.79"/><line class="cls-3" x1="482.91" y1="627.41" x2="482.91" y2="593.79"/><line class="cls-3" x1="400.55" y1="627.41" x2="400.55" y2="593.79"/><line class="cls-3" x1="70.3" y1="719.85" x2="549.62" y2="719.85"/><line class="cls-3" x1="445.19" y1="444.43" x2="482.63" y2="439.26"/><line class="cls-3" x1="228.57" y1="391.61" x2="228.57" y2="390.41"/><line class="cls-3" x1="445.19" y1="452.84" x2="482.63" y2="447.66"/><line class="cls-3" x1="228.57" y1="390.41" x2="228.57" y2="373.45"/><line class="cls-3" x1="228.57" y1="373.45" x2="256.19" y2="373.45"/><line class="cls-3" x1="228.57" y1="373.45" x2="228.57" y2="372.25"/><line class="cls-3" x1="139.69" y1="390.41" x2="139.69" y2="373.45"/><line class="cls-3" x1="445.19" y1="461.24" x2="482.64" y2="456.07"/><line class="cls-3" x1="274.2" y1="490.05" x2="259.79" y2="490.05"/><line class="cls-3" x1="307.81" y1="376" x2="335.42" y2="376"/><line class="cls-3" x1="335.42" y1="376" x2="335.42" y2="342.38"/><line class="cls-3" x1="307.81" y1="342.38" x2="335.42" y2="342.38"/><line class="cls-3" x1="265.79" y1="376" x2="305.41" y2="376"/><line class="cls-3" x1="265.79" y1="376" x2="265.79" y2="342.38"/><line class="cls-3" x1="131.29" y1="427.62" x2="131.29" y2="297.96"/><line class="cls-3" x1="138.49" y1="391.61" x2="138.49" y2="372.25"/><line class="cls-3" x1="336.63" y1="377.2" x2="336.63" y2="341.18"/><line class="cls-3" x1="264.59" y1="377.2" x2="264.59" y2="341.18"/><line class="cls-3" x1="169.7" y1="373.45" x2="226.17" y2="373.45"/><line class="cls-3" x1="148.09" y1="490.05" x2="133.69" y2="490.05"/><line class="cls-3" x1="432.71" y1="490.05" x2="418.31" y2="490.05"/><line class="cls-3" x1="131.29" y1="432.43" x2="131.29" y2="427.62"/><line class="cls-3" x1="257.39" y1="432.43" x2="257.39" y2="427.62"/><line class="cls-3" x1="488.63" y1="302.77" x2="488.63" y2="297.96"/><line class="cls-3" x1="242.98" y1="461.24" x2="242.98" y2="468.44"/><line class="cls-3" x1="503.04" y1="461.24" x2="503.04" y2="468.44"/><line class="cls-3" x1="116.88" y1="461.24" x2="116.88" y2="468.44"/><line class="cls-3" x1="133.69" y1="468.44" x2="133.69" y2="490.05"/><line class="cls-3" x1="148.09" y1="468.44" x2="148.09" y2="490.05"/><line class="cls-3" x1="418.31" y1="468.44" x2="418.31" y2="490.05"/><line class="cls-3" x1="432.71" y1="468.44" x2="432.71" y2="490.05"/><line class="cls-3" x1="259.79" y1="468.44" x2="259.79" y2="490.05"/><line class="cls-3" x1="274.2" y1="468.44" x2="274.2" y2="490.05"/><line class="cls-3" x1="488.63" y1="432.43" x2="488.63" y2="427.62"/><line class="cls-3" x1="259.79" y1="461.24" x2="259.79" y2="432.43"/><line class="cls-3" x1="133.69" y1="461.24" x2="133.69" y2="432.43"/><line class="cls-3" x1="307.81" y1="342.38" x2="305.41" y2="342.38"/><line class="cls-3" x1="492.24" y1="297.96" x2="492.24" y2="293.16"/><line class="cls-3" x1="127.68" y1="297.96" x2="127.68" y2="293.16"/><line class="cls-3" x1="127.68" y1="293.16" x2="253.79" y2="293.16"/><line class="cls-3" x1="253.79" y1="297.96" x2="253.79" y2="293.16"/><line class="cls-3" x1="253.79" y1="293.16" x2="492.24" y2="293.16"/><line class="cls-3" x1="488.63" y1="452.84" x2="487.43" y2="452.84"/><line class="cls-3" x1="435.11" y1="452.84" x2="435.11" y2="454.04"/><line class="cls-3" x1="488.63" y1="454.04" x2="487.44" y2="454.04"/><line class="cls-3" x1="488.63" y1="452.84" x2="488.63" y2="454.04"/><line class="cls-3" x1="488.63" y1="436.03" x2="487.44" y2="436.03"/><line class="cls-3" x1="488.63" y1="437.23" x2="487.44" y2="437.23"/><line class="cls-3" x1="488.63" y1="436.03" x2="488.63" y2="437.23"/><line class="cls-3" x1="256.19" y1="373.45" x2="256.19" y2="390.41"/><line class="cls-3" x1="488.63" y1="444.43" x2="487.43" y2="444.43"/><line class="cls-3" x1="435.11" y1="444.43" x2="435.11" y2="445.63"/><line class="cls-3" x1="488.63" y1="445.63" x2="487.44" y2="445.63"/><line class="cls-3" x1="488.63" y1="444.43" x2="488.63" y2="445.63"/><line class="cls-3" x1="482.63" y1="452.84" x2="445.19" y2="452.84"/><line class="cls-3" x1="482.63" y1="436.03" x2="453.89" y2="436.03"/><line class="cls-3" x1="482.63" y1="437.23" x2="445.19" y2="437.23"/><line class="cls-3" x1="488.63" y1="437.23" x2="488.63" y2="438.43"/><line class="cls-3" x1="487.44" y1="438.59" x2="488.63" y2="438.43"/><line class="cls-3" x1="488.63" y1="445.63" x2="488.63" y2="446.83"/><line class="cls-3" x1="487.44" y1="447" x2="488.63" y2="446.83"/><line class="cls-3" x1="488.63" y1="454.03" x2="488.63" y2="455.24"/><line class="cls-3" x1="487.44" y1="455.4" x2="488.63" y2="455.24"/><line class="cls-3" x1="169.71" y1="390.41" x2="226.17" y2="390.41"/><line class="cls-3" x1="228.57" y1="373.45" x2="226.17" y2="373.45"/><line class="cls-3" x1="487.43" y1="427.62" x2="487.43" y2="302.77"/><line class="cls-3" x1="482.63" y1="427.62" x2="482.63" y2="302.77"/><line class="cls-3" x1="305.41" y1="342.38" x2="265.79" y2="342.38"/><line class="cls-3" x1="228.58" y1="372.25" x2="257.39" y2="372.25"/><line class="cls-3" x1="445.19" y1="444.43" x2="432.71" y2="444.43"/><line class="cls-3" x1="226.17" y1="391.61" x2="226.17" y2="372.25"/><line class="cls-3" x1="445.19" y1="452.84" x2="432.71" y2="452.84"/><line class="cls-3" x1="445.19" y1="437.23" x2="432.71" y2="437.23"/><line class="cls-3" x1="257.39" y1="427.62" x2="257.39" y2="297.96"/><line class="cls-3" x1="138.49" y1="391.61" x2="226.17" y2="391.61"/><line class="cls-3" x1="138.49" y1="372.25" x2="228.58" y2="372.25"/><line class="cls-3" x1="131.29" y1="427.62" x2="257.39" y2="427.62"/><line class="cls-3" x1="307.81" y1="377.2" x2="307.81" y2="341.18"/><line class="cls-3" x1="432.71" y1="461.24" x2="432.71" y2="432.43"/><line class="cls-3" x1="265.79" y1="376" x2="307.82" y2="376"/><line class="cls-3" x1="264.59" y1="341.18" x2="336.63" y2="341.18"/><line class="cls-3" x1="139.69" y1="390.41" x2="169.71" y2="390.41"/><line class="cls-3" x1="226.17" y1="390.41" x2="256.19" y2="390.41"/><line class="cls-3" x1="226.17" y1="391.61" x2="257.39" y2="391.61"/><line class="cls-3" x1="482.63" y1="444.43" x2="445.19" y2="444.43"/><line class="cls-3" x1="167.3" y1="391.61" x2="167.3" y2="372.25"/><line class="cls-3" x1="445.19" y1="437.23" x2="479.95" y2="432.43"/><line class="cls-3" x1="435.11" y1="427.62" x2="435.11" y2="297.96"/><line class="cls-3" x1="131.29" y1="432.43" x2="257.39" y2="432.43"/><line class="cls-3" x1="257.39" y1="432.43" x2="488.63" y2="432.43"/><line class="cls-3" x1="257.39" y1="427.62" x2="488.63" y2="427.62"/><line class="cls-3" x1="435.11" y1="302.77" x2="488.63" y2="302.77"/><line class="cls-3" x1="503.04" y1="461.24" x2="242.98" y2="461.24"/><line class="cls-3" x1="503.04" y1="468.44" x2="242.98" y2="468.44"/><line class="cls-3" x1="242.98" y1="461.24" x2="116.88" y2="461.24"/><line class="cls-3" x1="242.98" y1="468.44" x2="116.88" y2="468.44"/><line class="cls-3" x1="305.41" y1="377.2" x2="305.41" y2="341.18"/><line class="cls-3" x1="264.59" y1="377.2" x2="336.63" y2="377.2"/><line class="cls-3" x1="127.68" y1="297.96" x2="253.79" y2="297.96"/><line class="cls-3" x1="253.79" y1="297.96" x2="492.24" y2="297.96"/><line class="cls-3" x1="482.64" y1="454.04" x2="435.11" y2="454.04"/><line class="cls-3" x1="487.43" y1="461.24" x2="487.43" y2="432.43"/><line class="cls-3" x1="482.63" y1="461.24" x2="482.63" y2="432.43"/><line class="cls-3" x1="169.71" y1="373.45" x2="139.69" y2="373.45"/><line class="cls-3" x1="482.64" y1="445.63" x2="435.11" y2="445.63"/><line class="cls-3" x1="169.7" y1="391.61" x2="169.7" y2="372.25"/><line class="cls-3" x1="70.3" y1="468.44" x2="549.62" y2="468.44"/><line class="cls-3" x1="139.98" y1="181.02" x2="166.04" y2="184.62"/><line class="cls-3" x1="184.81" y1="184.62" x2="137.29" y2="184.62"/><line class="cls-3" x1="127.68" y1="46.56" x2="492.24" y2="46.56"/><line class="cls-3" x1="184.81" y1="72.97" x2="184.81" y2="46.56"/><line class="cls-3" x1="131.29" y1="51.36" x2="184.81" y2="51.36"/><line class="cls-3" x1="331.32" y1="72.97" x2="305.3" y2="72.97"/><line class="cls-3" x1="503.04" y1="217.04" x2="116.88" y2="217.04"/><line class="cls-3" x1="503.04" y1="209.84" x2="116.88" y2="209.84"/><line class="cls-3" x1="137.29" y1="181.02" x2="184.81" y2="181.02"/><line class="cls-3" x1="184.81" y1="181.02" x2="488.63" y2="181.02"/><line class="cls-3" x1="137.29" y1="209.84" x2="137.29" y2="51.36"/><line class="cls-3" x1="132.49" y1="209.84" x2="132.49" y2="51.36"/><line class="cls-3" x1="184.81" y1="201.43" x2="137.29" y2="201.43"/><line class="cls-3" x1="184.81" y1="193.03" x2="137.29" y2="193.03"/><line class="cls-3" x1="292.29" y1="124.6" x2="292.29" y2="176.22"/><line class="cls-3" x1="331.32" y1="124.6" x2="331.32" y2="176.22"/><line class="cls-3" x1="292.29" y1="72.97" x2="292.29" y2="98.78"/><line class="cls-3" x1="187.21" y1="209.84" x2="187.21" y2="181.02"/><line class="cls-3" x1="131.29" y1="181.02" x2="131.29" y2="176.22"/><line class="cls-3" x1="184.81" y1="176.22" x2="488.63" y2="176.22"/><line class="cls-3" x1="184.81" y1="181.02" x2="184.81" y2="176.22"/><line class="cls-3" x1="132.49" y1="193.03" x2="131.29" y2="193.03"/><line class="cls-3" x1="132.49" y1="184.62" x2="131.29" y2="184.62"/><line class="cls-3" x1="137.29" y1="204.66" x2="174.73" y2="209.84"/><line class="cls-3" x1="137.29" y1="187.85" x2="174.73" y2="193.03"/><line class="cls-3" x1="132.49" y1="185.82" x2="131.29" y2="185.82"/><line class="cls-3" x1="292.29" y1="111.69" x2="292.29" y2="124.6"/><line class="cls-3" x1="210.82" y1="163.31" x2="223.83" y2="163.31"/><line class="cls-3" x1="223.83" y1="176.22" x2="223.83" y2="163.31"/><line class="cls-3" x1="222.63" y1="164.51" x2="212.02" y2="164.51"/><line class="cls-3" x1="212.02" y1="175.02" x2="222.63" y2="175.02"/><line class="cls-3" x1="212.02" y1="164.51" x2="212.02" y2="175.02"/><line class="cls-3" x1="222.63" y1="175.02" x2="222.63" y2="164.51"/><line class="cls-3" x1="222.63" y1="151.61" x2="212.02" y2="151.61"/><line class="cls-3" x1="212.02" y1="162.11" x2="222.63" y2="162.11"/><line class="cls-3" x1="212.02" y1="151.61" x2="212.02" y2="162.11"/><line class="cls-3" x1="199.02" y1="138.7" x2="199.02" y2="149.21"/><line class="cls-3" x1="210.82" y1="163.31" x2="210.82" y2="150.41"/><line class="cls-3" x1="210.82" y1="150.41" x2="223.83" y2="150.41"/><line class="cls-3" x1="222.63" y1="162.11" x2="222.63" y2="151.61"/><line class="cls-3" x1="197.81" y1="163.31" x2="197.81" y2="150.41"/><line class="cls-3" x1="197.81" y1="150.41" x2="210.82" y2="150.41"/><line class="cls-3" x1="209.62" y1="151.61" x2="199.02" y2="151.61"/><line class="cls-3" x1="199.02" y1="162.11" x2="209.62" y2="162.11"/><line class="cls-3" x1="199.02" y1="151.61" x2="199.02" y2="162.11"/><line class="cls-3" x1="209.62" y1="162.11" x2="209.62" y2="151.61"/><line class="cls-3" x1="293.49" y1="175.02" x2="330.12" y2="175.02"/><line class="cls-3" x1="330.12" y1="125.8" x2="293.49" y2="125.8"/><line class="cls-3" x1="330.12" y1="125.8" x2="330.12" y2="175.02"/><line class="cls-3" x1="131.29" y1="203.83" x2="132.49" y2="204"/><line class="cls-3" x1="131.29" y1="203.83" x2="131.29" y2="202.63"/><line class="cls-3" x1="187.21" y1="201.43" x2="184.81" y2="201.43"/><line class="cls-3" x1="131.29" y1="187.02" x2="132.49" y2="187.19"/><line class="cls-3" x1="131.29" y1="187.02" x2="131.29" y2="185.83"/><line class="cls-3" x1="187.21" y1="184.62" x2="184.81" y2="184.62"/><line class="cls-3" x1="184.81" y1="185.82" x2="137.29" y2="185.82"/><line class="cls-3" x1="131.29" y1="184.62" x2="131.29" y2="185.82"/><line class="cls-3" x1="184.81" y1="184.62" x2="184.81" y2="185.82"/><line class="cls-3" x1="127.68" y1="41.76" x2="492.24" y2="41.76"/><line class="cls-3" x1="492.24" y1="46.56" x2="492.24" y2="41.76"/><line class="cls-3" x1="127.68" y1="46.56" x2="127.68" y2="41.76"/><line class="cls-3" x1="196.61" y1="74.17" x2="186.01" y2="74.17"/><line class="cls-3" x1="184.81" y1="98.78" x2="184.81" y2="85.88"/><line class="cls-3" x1="197.81" y1="98.78" x2="197.81" y2="85.88"/><line class="cls-3" x1="184.81" y1="98.78" x2="197.81" y2="98.78"/><line class="cls-3" x1="186.01" y1="87.08" x2="186.01" y2="97.58"/><line class="cls-3" x1="196.61" y1="97.58" x2="196.61" y2="87.08"/><line class="cls-3" x1="184.81" y1="111.69" x2="184.81" y2="98.78"/><line class="cls-3" x1="184.81" y1="111.69" x2="197.81" y2="111.69"/><line class="cls-3" x1="196.61" y1="99.98" x2="186.01" y2="99.98"/><line class="cls-3" x1="186.01" y1="110.49" x2="196.61" y2="110.49"/><line class="cls-3" x1="186.01" y1="99.98" x2="186.01" y2="110.49"/><line class="cls-3" x1="199.02" y1="84.68" x2="209.62" y2="84.68"/><line class="cls-3" x1="199.02" y1="74.17" x2="199.02" y2="84.68"/><line class="cls-3" x1="210.82" y1="85.88" x2="210.82" y2="72.97"/><line class="cls-3" x1="210.82" y1="72.97" x2="223.83" y2="72.97"/><line class="cls-3" x1="210.82" y1="85.88" x2="223.83" y2="85.88"/><line class="cls-3" x1="197.81" y1="85.88" x2="210.82" y2="85.88"/><line class="cls-3" x1="209.62" y1="74.17" x2="199.02" y2="74.17"/><line class="cls-3" x1="209.62" y1="84.68" x2="209.62" y2="74.17"/><line class="cls-3" x1="222.63" y1="74.17" x2="212.02" y2="74.17"/><line class="cls-3" x1="212.02" y1="84.68" x2="222.63" y2="84.68"/><line class="cls-3" x1="212.02" y1="74.17" x2="212.02" y2="84.68"/><line class="cls-3" x1="222.63" y1="84.68" x2="222.63" y2="74.17"/><line class="cls-3" x1="210.82" y1="137.5" x2="210.82" y2="124.6"/><line class="cls-3" x1="210.82" y1="124.6" x2="223.83" y2="124.6"/><line class="cls-3" x1="223.83" y1="137.5" x2="223.83" y2="124.6"/><line class="cls-3" x1="210.82" y1="137.5" x2="223.83" y2="137.5"/><line class="cls-3" x1="222.63" y1="125.8" x2="212.02" y2="125.8"/><line class="cls-3" x1="212.02" y1="136.3" x2="222.63" y2="136.3"/><line class="cls-3" x1="212.02" y1="125.8" x2="212.02" y2="136.3"/><line class="cls-3" x1="222.63" y1="136.3" x2="222.63" y2="125.8"/><line class="cls-3" x1="197.81" y1="137.5" x2="197.81" y2="124.6"/><line class="cls-3" x1="197.81" y1="124.6" x2="210.82" y2="124.6"/><line class="cls-3" x1="197.81" y1="137.5" x2="210.82" y2="137.5"/><line class="cls-3" x1="209.62" y1="125.8" x2="199.02" y2="125.8"/><line class="cls-3" x1="199.02" y1="136.3" x2="209.62" y2="136.3"/><line class="cls-3" x1="209.62" y1="136.3" x2="209.62" y2="125.8"/><line class="cls-3" x1="184.81" y1="137.5" x2="184.81" y2="124.6"/><line class="cls-3" x1="210.82" y1="150.41" x2="210.82" y2="137.5"/><line class="cls-3" x1="222.63" y1="138.7" x2="212.02" y2="138.7"/><line class="cls-3" x1="212.02" y1="149.21" x2="222.63" y2="149.21"/><line class="cls-3" x1="184.81" y1="176.22" x2="184.81" y2="163.31"/><line class="cls-3" x1="184.81" y1="163.31" x2="197.81" y2="163.31"/><line class="cls-3" x1="196.61" y1="164.51" x2="186.01" y2="164.51"/><line class="cls-3" x1="186.01" y1="175.02" x2="196.61" y2="175.02"/><line class="cls-3" x1="186.01" y1="164.51" x2="186.01" y2="175.02"/><line class="cls-3" x1="196.61" y1="175.02" x2="196.61" y2="164.51"/><line class="cls-3" x1="331.32" y1="124.6" x2="331.32" y2="111.69"/><line class="cls-3" x1="292.29" y1="111.69" x2="292.29" y2="98.78"/><line class="cls-3" x1="331.32" y1="111.69" x2="331.32" y2="98.78"/><line class="cls-3" x1="331.32" y1="98.78" x2="331.32" y2="85.88"/><line class="cls-3" x1="292.29" y1="72.97" x2="305.3" y2="72.97"/><line class="cls-3" x1="223.83" y1="85.88" x2="223.83" y2="72.97"/><line class="cls-3" x1="197.81" y1="72.97" x2="210.82" y2="72.97"/><line class="cls-3" x1="223.83" y1="98.78" x2="223.83" y2="85.88"/><line class="cls-3" x1="223.83" y1="111.69" x2="223.83" y2="98.78"/><line class="cls-3" x1="223.83" y1="150.41" x2="223.83" y2="137.5"/><line class="cls-3" x1="223.83" y1="163.31" x2="223.83" y2="150.41"/><line class="cls-3" x1="488.63" y1="176.22" x2="488.63" y2="46.56"/><line class="cls-3" x1="293.49" y1="74.17" x2="293.49" y2="123.39"/><line class="cls-3" x1="187.21" y1="217.04" x2="187.21" y2="238.65"/><line class="cls-3" x1="201.61" y1="217.04" x2="201.61" y2="238.65"/><line class="cls-3" x1="471.83" y1="217.04" x2="471.83" y2="238.65"/><line class="cls-3" x1="486.23" y1="217.04" x2="486.23" y2="238.65"/><line class="cls-3" x1="137.29" y1="196.26" x2="174.73" y2="201.43"/><line class="cls-3" x1="132.49" y1="177.42" x2="131.29" y2="177.42"/><line class="cls-3" x1="222.63" y1="99.98" x2="212.02" y2="99.98"/><line class="cls-3" x1="222.63" y1="110.49" x2="222.63" y2="99.98"/><line class="cls-3" x1="186.01" y1="112.89" x2="186.01" y2="123.39"/><line class="cls-3" x1="196.61" y1="123.39" x2="196.61" y2="112.89"/><line class="cls-3" x1="222.63" y1="87.08" x2="212.02" y2="87.08"/><line class="cls-3" x1="212.02" y1="87.08" x2="212.02" y2="97.58"/><line class="cls-3" x1="222.63" y1="97.58" x2="222.63" y2="87.08"/><line class="cls-3" x1="131.29" y1="51.36" x2="131.29" y2="46.56"/><line class="cls-3" x1="199.02" y1="97.58" x2="209.62" y2="97.58"/><line class="cls-3" x1="209.62" y1="97.58" x2="209.62" y2="87.08"/><line class="cls-3" x1="212.02" y1="110.49" x2="222.63" y2="110.49"/><line class="cls-3" x1="212.02" y1="99.98" x2="212.02" y2="110.49"/><line class="cls-3" x1="345.72" y1="217.04" x2="345.72" y2="238.65"/><line class="cls-3" x1="360.13" y1="217.04" x2="360.13" y2="238.65"/><line class="cls-3" x1="331.32" y1="124.6" x2="292.29" y2="124.6"/><line class="cls-3" x1="331.32" y1="72.97" x2="331.32" y2="85.88"/><line class="cls-3" x1="293.49" y1="123.39" x2="330.12" y2="123.39"/><line class="cls-3" x1="330.12" y1="74.17" x2="293.49" y2="74.17"/><line class="cls-3" x1="330.12" y1="74.17" x2="330.12" y2="123.39"/><line class="cls-3" x1="116.88" y1="209.84" x2="116.88" y2="217.04"/><line class="cls-3" x1="503.04" y1="209.84" x2="503.04" y2="217.04"/><line class="cls-3" x1="360.13" y1="238.65" x2="345.72" y2="238.65"/><line class="cls-3" x1="486.23" y1="209.84" x2="486.23" y2="181.02"/><line class="cls-3" x1="209.62" y1="87.08" x2="199.02" y2="87.08"/><line class="cls-3" x1="199.02" y1="87.08" x2="199.02" y2="97.58"/><line class="cls-3" x1="131.29" y1="176.22" x2="132.48" y2="176.22"/><line class="cls-3" x1="131.29" y1="181.02" x2="132.49" y2="181.02"/><line class="cls-3" x1="488.63" y1="181.02" x2="488.63" y2="176.22"/><line class="cls-3" x1="186.01" y1="136.3" x2="196.61" y2="136.3"/><line class="cls-3" x1="196.61" y1="125.8" x2="186.01" y2="125.8"/><line class="cls-3" x1="186.01" y1="125.8" x2="186.01" y2="136.3"/><line class="cls-3" x1="196.61" y1="136.3" x2="196.61" y2="125.8"/><line class="cls-3" x1="209.62" y1="99.98" x2="199.02" y2="99.98"/><line class="cls-3" x1="186.01" y1="97.58" x2="196.61" y2="97.58"/><line class="cls-3" x1="196.61" y1="87.08" x2="186.01" y2="87.08"/><line class="cls-3" x1="196.61" y1="110.49" x2="196.61" y2="99.98"/><line class="cls-3" x1="132.49" y1="202.63" x2="131.29" y2="202.63"/><line class="cls-3" x1="132.49" y1="201.43" x2="131.29" y2="201.43"/><line class="cls-3" x1="132.49" y1="194.23" x2="131.29" y2="194.23"/><line class="cls-3" x1="184.81" y1="202.63" x2="137.29" y2="202.63"/><line class="cls-3" x1="131.29" y1="201.43" x2="131.29" y2="202.63"/><line class="cls-3" x1="184.81" y1="201.43" x2="184.81" y2="202.63"/><line class="cls-3" x1="184.81" y1="194.23" x2="137.29" y2="194.23"/><line class="cls-3" x1="131.29" y1="193.03" x2="131.29" y2="194.23"/><line class="cls-3" x1="184.81" y1="193.03" x2="184.81" y2="194.23"/><line class="cls-3" x1="184.81" y1="163.31" x2="184.81" y2="150.41"/><line class="cls-3" x1="199.02" y1="125.8" x2="199.02" y2="136.3"/><line class="cls-3" x1="209.62" y1="112.89" x2="199.02" y2="112.89"/><line class="cls-3" x1="199.02" y1="112.89" x2="199.02" y2="123.39"/><line class="cls-3" x1="209.62" y1="123.39" x2="209.62" y2="112.89"/><line class="cls-3" x1="201.61" y1="238.65" x2="187.21" y2="238.65"/><line class="cls-3" x1="486.23" y1="238.65" x2="471.83" y2="238.65"/><line class="cls-3" x1="197.81" y1="176.22" x2="197.81" y2="163.31"/><line class="cls-3" x1="197.81" y1="163.31" x2="210.82" y2="163.31"/><line class="cls-3" x1="210.82" y1="176.22" x2="210.82" y2="163.31"/><line class="cls-3" x1="209.62" y1="175.02" x2="209.62" y2="164.51"/><line class="cls-3" x1="210.82" y1="98.78" x2="210.82" y2="85.88"/><line class="cls-3" x1="210.82" y1="98.78" x2="223.83" y2="98.78"/><line class="cls-3" x1="212.02" y1="97.58" x2="222.63" y2="97.58"/><line class="cls-3" x1="184.81" y1="85.88" x2="184.81" y2="72.97"/><line class="cls-3" x1="184.81" y1="72.97" x2="197.81" y2="72.97"/><line class="cls-3" x1="197.81" y1="85.88" x2="197.81" y2="72.97"/><line class="cls-3" x1="184.81" y1="85.88" x2="197.81" y2="85.88"/><line class="cls-3" x1="186.01" y1="84.68" x2="196.61" y2="84.68"/><line class="cls-3" x1="186.01" y1="74.17" x2="186.01" y2="84.68"/><line class="cls-3" x1="196.61" y1="84.68" x2="196.61" y2="74.17"/><line class="cls-3" x1="197.81" y1="111.69" x2="197.81" y2="98.78"/><line class="cls-3" x1="197.81" y1="98.78" x2="210.82" y2="98.78"/><line class="cls-3" x1="210.82" y1="111.69" x2="210.82" y2="98.78"/><line class="cls-3" x1="199.02" y1="110.49" x2="209.62" y2="110.49"/><line class="cls-3" x1="199.02" y1="99.98" x2="199.02" y2="110.49"/><line class="cls-3" x1="209.62" y1="110.49" x2="209.62" y2="99.98"/><line class="cls-3" x1="210.82" y1="124.6" x2="210.82" y2="111.69"/><line class="cls-3" x1="210.82" y1="111.69" x2="223.83" y2="111.69"/><line class="cls-3" x1="223.83" y1="124.6" x2="223.83" y2="111.69"/><line class="cls-3" x1="222.63" y1="112.89" x2="212.02" y2="112.89"/><line class="cls-3" x1="212.02" y1="123.39" x2="222.63" y2="123.39"/><line class="cls-3" x1="212.02" y1="112.89" x2="212.02" y2="123.39"/><line class="cls-3" x1="222.63" y1="123.39" x2="222.63" y2="112.89"/><line class="cls-3" x1="197.81" y1="124.6" x2="197.81" y2="111.69"/><line class="cls-3" x1="197.81" y1="111.69" x2="210.82" y2="111.69"/><line class="cls-3" x1="199.02" y1="123.39" x2="209.62" y2="123.39"/><line class="cls-3" x1="184.81" y1="124.6" x2="184.81" y2="111.69"/><line class="cls-3" x1="184.81" y1="124.6" x2="197.81" y2="124.6"/><line class="cls-3" x1="196.61" y1="112.89" x2="186.01" y2="112.89"/><line class="cls-3" x1="186.01" y1="123.39" x2="196.61" y2="123.39"/><line class="cls-3" x1="197.81" y1="150.41" x2="197.81" y2="137.5"/><line class="cls-3" x1="209.62" y1="138.7" x2="199.02" y2="138.7"/><line class="cls-3" x1="199.02" y1="149.21" x2="209.62" y2="149.21"/><line class="cls-3" x1="209.62" y1="149.21" x2="209.62" y2="138.7"/><line class="cls-3" x1="184.81" y1="150.41" x2="184.81" y2="137.5"/><line class="cls-3" x1="184.81" y1="137.5" x2="197.81" y2="137.5"/><line class="cls-3" x1="184.81" y1="150.41" x2="197.81" y2="150.41"/><line class="cls-3" x1="196.61" y1="138.7" x2="186.01" y2="138.7"/><line class="cls-3" x1="186.01" y1="149.21" x2="196.61" y2="149.21"/><line class="cls-3" x1="186.01" y1="138.7" x2="186.01" y2="149.21"/><line class="cls-3" x1="196.61" y1="149.21" x2="196.61" y2="138.7"/><line class="cls-3" x1="293.49" y1="175.02" x2="293.49" y2="125.8"/><line class="cls-3" x1="131.29" y1="195.43" x2="132.49" y2="195.6"/><line class="cls-3" x1="131.29" y1="195.43" x2="131.29" y2="194.23"/><line class="cls-3" x1="187.21" y1="193.03" x2="184.81" y2="193.03"/><line class="cls-3" x1="184.81" y1="177.42" x2="137.29" y2="177.42"/><line class="cls-3" x1="184.81" y1="176.22" x2="137.28" y2="176.22"/><line class="cls-3" x1="209.62" y1="164.51" x2="199.02" y2="164.51"/><line class="cls-3" x1="199.02" y1="175.02" x2="209.62" y2="175.02"/><line class="cls-3" x1="199.02" y1="164.51" x2="199.02" y2="175.02"/><line class="cls-3" x1="212.02" y1="138.7" x2="212.02" y2="149.21"/><line class="cls-3" x1="222.63" y1="149.21" x2="222.63" y2="138.7"/><line class="cls-3" x1="186.01" y1="162.11" x2="196.61" y2="162.11"/><line class="cls-3" x1="196.61" y1="151.61" x2="186.01" y2="151.61"/><line class="cls-3" x1="186.01" y1="151.61" x2="186.01" y2="162.11"/><line class="cls-3" x1="196.61" y1="162.11" x2="196.61" y2="151.61"/><line class="cls-3" x1="70.3" y1="216.95" x2="549.62" y2="216.95"/></svg>