<?xml version="1.0" encoding="UTF-8"?><svg id="Layer_3" xmlns="http://www.w3.org/2000/svg" viewBox="0 0 612 792"><defs><style>.cls-1{letter-spacing:0em;}.cls-2{letter-spacing:0em;}.cls-3{fill:none;stroke:#000;stroke-linecap:round;stroke-linejoin:round;stroke-width:.25px;}.cls-4{letter-spacing:0em;}.cls-5{letter-spacing:0em;}.cls-6{font-family:MyriadPro-Regular, 'Myriad Pro';font-size:12px;}.cls-7{letter-spacing:0em;}</style></defs><text class="cls-6" transform="translate(487.82 450.72)"><tspan class="cls-7" x="0" y="0">R</tspan><tspan x="6.5" y="0">oof </tspan><tspan class="cls-2" x="25.73" y="0">P</tspan><tspan x="32.05" y="0">lan</tspan></text><text class="cls-6" transform="translate(470.51 718.32)"><tspan class="cls-5" x="0" y="0">S</tspan><tspan class="cls-1" x="5.99" y="0">outh Ele</tspan><tspan class="cls-4" x="47.11" y="0">va</tspan><tspan x="58.57" y="0">tion</tspan></text><line class="cls-3" x1="104.63" y1="428.78" x2="104.63" y2="168.72"/><line class="cls-3" x1="104.63" y1="168.72" x2="276.57" y2="168.72"/><line class="cls-3" x1="276.57" y1="168.72" x2="276.57" y2="42.62"/><line class="cls-3" x1="276.57" y1="42.62" x2="496.15" y2="42.62"/><line class="cls-3" x1="496.15" y1="42.62" x2="496.15" y2="428.78"/><line class="cls-3" x1="496.15" y1="428.78" x2="104.63" y2="428.78"/><line class="cls-3" x1="115.43" y1="494.14" x2="485.34" y2="494.14"/><line class="cls-3" x1="220.33" y1="623.8" x2="220.33" y2="498.95"/><line class="cls-3" x1="159.85" y1="520.56" x2="159.85" y2="546.37"/><line class="cls-3" x1="496.15" y1="664.62" x2="104.63" y2="664.62"/><line class="cls-3" x1="496.15" y1="657.42" x2="104.63" y2="657.42"/><line class="cls-3" x1="172.69" y1="657.42" x2="172.69" y2="628.61"/><line class="cls-3" x1="426.4" y1="641.81" x2="414.88" y2="641.81"/><line class="cls-3" x1="426.4" y1="640.61" x2="414.88" y2="640.61"/><line class="cls-3" x1="119.03" y1="623.8" x2="396.48" y2="623.8"/><line class="cls-3" x1="119.03" y1="628.61" x2="403.35" y2="628.61"/><line class="cls-3" x1="476.94" y1="628.61" x2="481.74" y2="628.61"/><line class="cls-3" x1="437.93" y1="650.22" x2="426.4" y2="650.22"/><line class="cls-3" x1="437.93" y1="649.02" x2="426.4" y2="649.02"/><line class="cls-3" x1="222.74" y1="623.8" x2="222.74" y2="498.95"/><line class="cls-3" x1="196.51" y1="623.8" x2="196.51" y2="498.95"/><line class="cls-3" x1="198.91" y1="623.8" x2="198.91" y2="498.95"/><line class="cls-3" x1="474.54" y1="657.42" x2="474.54" y2="498.95"/><line class="cls-3" x1="476.94" y1="657.42" x2="476.94" y2="498.95"/><line class="cls-3" x1="414.88" y1="633.41" x2="403.35" y2="633.41"/><line class="cls-3" x1="414.88" y1="632.21" x2="403.35" y2="632.21"/><line class="cls-3" x1="151.26" y1="546.37" x2="172.69" y2="546.37"/><line class="cls-3" x1="151.26" y1="520.56" x2="172.69" y2="520.56"/><line class="cls-3" x1="300.58" y1="522.96" x2="339.64" y2="522.96"/><line class="cls-3" x1="123.84" y1="657.42" x2="123.84" y2="628.61"/><line class="cls-3" x1="126.24" y1="623.8" x2="126.24" y2="498.95"/><line class="cls-3" x1="157.45" y1="545.17" x2="172.69" y2="545.17"/><line class="cls-3" x1="172.69" y1="521.76" x2="157.45" y2="521.76"/><line class="cls-3" x1="410.31" y1="634.61" x2="410.31" y2="632.21"/><line class="cls-3" x1="407.91" y1="632.21" x2="407.91" y2="634.61"/><line class="cls-3" x1="245.36" y1="623.8" x2="245.36" y2="498.95"/><line class="cls-3" x1="247.76" y1="623.8" x2="247.76" y2="498.95"/><line class="cls-3" x1="157.45" y1="520.56" x2="157.45" y2="546.37"/><line class="cls-3" x1="148.86" y1="623.8" x2="148.86" y2="498.95"/><line class="cls-3" x1="151.26" y1="623.8" x2="151.26" y2="498.95"/><line class="cls-3" x1="172.69" y1="623.8" x2="172.69" y2="498.95"/><line class="cls-3" x1="175.09" y1="623.8" x2="175.09" y2="498.95"/><line class="cls-3" x1="119.03" y1="498.95" x2="481.74" y2="498.95"/><line class="cls-3" x1="403.35" y1="625.01" x2="391.82" y2="625.01"/><line class="cls-3" x1="433.36" y1="651.42" x2="433.36" y2="649.02"/><line class="cls-3" x1="430.96" y1="649.02" x2="430.96" y2="651.42"/><line class="cls-3" x1="421.84" y1="643.01" x2="421.84" y2="640.61"/><line class="cls-3" x1="419.44" y1="640.61" x2="419.44" y2="643.01"/><line class="cls-3" x1="403.35" y1="628.61" x2="403.35" y2="623.8"/><line class="cls-3" x1="403.35" y1="623.8" x2="461.53" y2="623.8"/><line class="cls-3" x1="357.45" y1="585.09" x2="357.45" y2="585.08"/><line class="cls-3" x1="476.94" y1="623.8" x2="481.74" y2="623.8"/><line class="cls-3" x1="476.94" y1="533.46" x2="481.74" y2="533.46"/><line class="cls-3" x1="476.94" y1="546.37" x2="481.74" y2="546.37"/><line class="cls-3" x1="476.94" y1="597.99" x2="481.74" y2="597.99"/><line class="cls-3" x1="476.94" y1="572.18" x2="481.74" y2="572.18"/><line class="cls-3" x1="476.94" y1="585.09" x2="481.74" y2="585.09"/><line class="cls-3" x1="476.94" y1="610.9" x2="481.74" y2="610.9"/><line class="cls-3" x1="474.54" y1="623.8" x2="474.54" y2="623.8"/><line class="cls-3" x1="151.27" y1="521.76" x2="157.45" y2="521.76"/><line class="cls-3" x1="151.26" y1="545.17" x2="157.45" y2="545.17"/><line class="cls-3" x1="357.45" y1="533.46" x2="357.45" y2="520.56"/><line class="cls-3" x1="357.45" y1="585.08" x2="357.45" y2="572.18"/><line class="cls-3" x1="479.34" y1="664.62" x2="479.34" y2="686.23"/><line class="cls-3" x1="464.93" y1="664.62" x2="464.93" y2="686.23"/><line class="cls-3" x1="135.84" y1="664.62" x2="135.84" y2="686.23"/><line class="cls-3" x1="121.44" y1="664.62" x2="121.44" y2="686.23"/><line class="cls-3" x1="175.09" y1="546.37" x2="196.51" y2="546.37"/><line class="cls-3" x1="175.08" y1="520.56" x2="196.51" y2="520.56"/><line class="cls-3" x1="198.92" y1="545.17" x2="220.33" y2="545.17"/><line class="cls-3" x1="222.74" y1="545.17" x2="241.76" y2="545.17"/><line class="cls-3" x1="220.34" y1="546.37" x2="198.91" y2="546.37"/><line class="cls-3" x1="220.34" y1="521.76" x2="198.91" y2="521.76"/><line class="cls-3" x1="196.52" y1="521.76" x2="175.09" y2="521.76"/><line class="cls-3" x1="214.38" y1="628.6" x2="214.38" y2="633.41"/><line class="cls-3" x1="398.79" y1="628.61" x2="398.79" y2="633.41"/><line class="cls-3" x1="306.58" y1="628.61" x2="306.58" y2="633.41"/><line class="cls-3" x1="119.03" y1="623.8" x2="119.03" y2="498.95"/><line class="cls-3" x1="123.84" y1="623.8" x2="123.84" y2="498.95"/><line class="cls-3" x1="258.08" y1="633.41" x2="258.08" y2="628.61"/><line class="cls-3" x1="123.84" y1="657.42" x2="123.83" y2="657.42"/><line class="cls-3" x1="447.32" y1="586.29" x2="436.71" y2="586.29"/><line class="cls-3" x1="436.71" y1="596.79" x2="447.32" y2="596.79"/><line class="cls-3" x1="357.45" y1="572.18" x2="370.46" y2="572.18"/><line class="cls-3" x1="370.46" y1="585.09" x2="370.46" y2="572.18"/><line class="cls-3" x1="369.26" y1="573.38" x2="358.65" y2="573.38"/><line class="cls-3" x1="358.65" y1="583.89" x2="369.26" y2="583.89"/><line class="cls-3" x1="358.65" y1="573.38" x2="358.65" y2="583.89"/><line class="cls-3" x1="408.29" y1="586.29" x2="397.68" y2="586.29"/><line class="cls-3" x1="422.5" y1="585.09" x2="435.51" y2="585.09"/><line class="cls-3" x1="435.51" y1="597.99" x2="435.51" y2="585.09"/><line class="cls-3" x1="434.31" y1="586.29" x2="423.7" y2="586.29"/><line class="cls-3" x1="423.7" y1="596.79" x2="434.31" y2="596.79"/><line class="cls-3" x1="423.7" y1="586.29" x2="423.7" y2="596.79"/><line class="cls-3" x1="437.93" y1="649.02" x2="437.93" y2="650.22"/><line class="cls-3" x1="426.4" y1="649.02" x2="426.4" y2="650.22"/><line class="cls-3" x1="479.34" y1="686.23" x2="464.93" y2="686.23"/><line class="cls-3" x1="135.84" y1="686.23" x2="121.44" y2="686.23"/><line class="cls-3" x1="115.43" y1="494.14" x2="115.43" y2="489.34"/><line class="cls-3" x1="115.43" y1="489.34" x2="485.34" y2="489.34"/><line class="cls-3" x1="485.34" y1="494.14" x2="485.34" y2="489.34"/><line class="cls-3" x1="409.49" y1="546.37" x2="409.49" y2="533.46"/><line class="cls-3" x1="422.5" y1="546.37" x2="422.5" y2="533.46"/><line class="cls-3" x1="422.5" y1="546.37" x2="435.51" y2="546.37"/><line class="cls-3" x1="423.7" y1="534.66" x2="423.7" y2="545.17"/><line class="cls-3" x1="434.31" y1="545.17" x2="434.31" y2="534.66"/><line class="cls-3" x1="382.27" y1="596.79" x2="382.27" y2="586.29"/><line class="cls-3" x1="410.69" y1="586.29" x2="410.69" y2="596.79"/><line class="cls-3" x1="460.33" y1="586.29" x2="449.72" y2="586.29"/><line class="cls-3" x1="460.33" y1="596.79" x2="460.33" y2="586.29"/><line class="cls-3" x1="473.34" y1="586.29" x2="462.73" y2="586.29"/><line class="cls-3" x1="462.73" y1="586.29" x2="462.73" y2="596.79"/><line class="cls-3" x1="473.34" y1="596.79" x2="473.34" y2="586.29"/><line class="cls-3" x1="434.31" y1="570.98" x2="434.31" y2="560.47"/><line class="cls-3" x1="397.68" y1="547.57" x2="397.68" y2="558.07"/><line class="cls-3" x1="408.29" y1="558.07" x2="408.29" y2="547.57"/><line class="cls-3" x1="222.74" y1="657.42" x2="222.74" y2="628.61"/><line class="cls-3" x1="198.91" y1="657.42" x2="198.91" y2="628.6"/><line class="cls-3" x1="198.91" y1="520.56" x2="220.33" y2="520.56"/><line class="cls-3" x1="476.93" y1="520.56" x2="481.74" y2="520.56"/><line class="cls-3" x1="260.48" y1="628.61" x2="260.48" y2="633.41"/><line class="cls-3" x1="476.94" y1="559.27" x2="481.74" y2="559.27"/><line class="cls-3" x1="220.33" y1="657.42" x2="220.33" y2="628.61"/><line class="cls-3" x1="196.51" y1="657.42" x2="196.51" y2="628.61"/><line class="cls-3" x1="479.34" y1="657.42" x2="479.34" y2="628.61"/><line class="cls-3" x1="121.44" y1="657.42" x2="121.44" y2="633.41"/><line class="cls-3" x1="414.88" y1="632.21" x2="414.88" y2="633.41"/><line class="cls-3" x1="403.35" y1="632.21" x2="403.35" y2="633.41"/><line class="cls-3" x1="481.74" y1="533.46" x2="481.74" y2="520.56"/><line class="cls-3" x1="481.74" y1="559.27" x2="481.74" y2="546.37"/><line class="cls-3" x1="460.33" y1="547.57" x2="449.72" y2="547.57"/><line class="cls-3" x1="449.72" y1="547.57" x2="449.72" y2="558.07"/><line class="cls-3" x1="460.33" y1="558.07" x2="460.33" y2="547.57"/><line class="cls-3" x1="481.74" y1="572.18" x2="481.74" y2="559.27"/><line class="cls-3" x1="434.31" y1="612.1" x2="423.7" y2="612.1"/><line class="cls-3" x1="460.33" y1="612.1" x2="449.72" y2="612.1"/><line class="cls-3" x1="449.72" y1="622.6" x2="460.33" y2="622.6"/><line class="cls-3" x1="449.72" y1="612.1" x2="449.72" y2="622.6"/><line class="cls-3" x1="460.33" y1="622.6" x2="460.33" y2="612.1"/><line class="cls-3" x1="396.48" y1="572.18" x2="396.48" y2="559.27"/><line class="cls-3" x1="383.47" y1="572.18" x2="396.48" y2="572.18"/><line class="cls-3" x1="395.28" y1="560.47" x2="384.67" y2="560.47"/><line class="cls-3" x1="384.67" y1="570.98" x2="395.28" y2="570.98"/><line class="cls-3" x1="384.67" y1="560.47" x2="384.67" y2="570.98"/><line class="cls-3" x1="395.28" y1="570.98" x2="395.28" y2="560.47"/><line class="cls-3" x1="409.49" y1="572.18" x2="409.49" y2="559.27"/><line class="cls-3" x1="422.5" y1="572.18" x2="422.5" y2="559.27"/><line class="cls-3" x1="421.3" y1="570.98" x2="421.3" y2="560.47"/><line class="cls-3" x1="128.64" y1="546.37" x2="148.86" y2="546.37"/><line class="cls-3" x1="128.64" y1="520.56" x2="148.87" y2="520.56"/><line class="cls-3" x1="481.74" y1="520.56" x2="481.74" y2="498.95"/><line class="cls-3" x1="461.53" y1="520.56" x2="474.53" y2="520.56"/><line class="cls-3" x1="448.52" y1="520.56" x2="461.53" y2="520.56"/><line class="cls-3" x1="435.51" y1="520.56" x2="448.52" y2="520.56"/><line class="cls-3" x1="396.48" y1="520.56" x2="409.49" y2="520.56"/><line class="cls-3" x1="370.46" y1="520.56" x2="383.47" y2="520.56"/><line class="cls-3" x1="357.45" y1="520.56" x2="370.46" y2="520.56"/><line class="cls-3" x1="300.58" y1="623.8" x2="300.58" y2="522.96"/><line class="cls-3" x1="339.64" y1="623.8" x2="339.64" y2="522.96"/><path class="cls-3" d="M304.8,620.2v-93.64"/><line class="cls-3" x1="126.24" y1="657.42" x2="126.24" y2="628.61"/><line class="cls-3" x1="260.48" y1="633.41" x2="258.08" y2="633.41"/><line class="cls-3" x1="242.96" y1="520.56" x2="222.73" y2="520.56"/><line class="cls-3" x1="148.86" y1="657.42" x2="148.86" y2="628.61"/><line class="cls-3" x1="151.26" y1="657.42" x2="151.26" y2="628.61"/><line class="cls-3" x1="175.09" y1="657.42" x2="175.09" y2="628.61"/><line class="cls-3" x1="461.53" y1="623.8" x2="474.54" y2="623.8"/><line class="cls-3" x1="175.09" y1="545.17" x2="196.51" y2="545.17"/><line class="cls-3" x1="357.45" y1="572.18" x2="357.45" y2="559.27"/><line class="cls-3" x1="369.26" y1="560.47" x2="358.65" y2="560.47"/><line class="cls-3" x1="358.65" y1="570.98" x2="369.26" y2="570.98"/><line class="cls-3" x1="358.65" y1="560.47" x2="358.65" y2="570.98"/><line class="cls-3" x1="369.26" y1="570.98" x2="369.26" y2="560.47"/><line class="cls-3" x1="448.52" y1="585.09" x2="448.52" y2="572.18"/><line class="cls-3" x1="448.52" y1="572.18" x2="461.53" y2="572.18"/><line class="cls-3" x1="460.33" y1="573.38" x2="449.72" y2="573.38"/><line class="cls-3" x1="449.72" y1="583.89" x2="460.33" y2="583.89"/><line class="cls-3" x1="449.72" y1="573.38" x2="449.72" y2="583.89"/><line class="cls-3" x1="460.33" y1="583.89" x2="460.33" y2="573.38"/><line class="cls-3" x1="461.53" y1="585.09" x2="461.53" y2="572.18"/><line class="cls-3" x1="461.53" y1="572.18" x2="474.54" y2="572.18"/><line class="cls-3" x1="461.53" y1="585.09" x2="474.54" y2="585.09"/><line class="cls-3" x1="462.73" y1="573.38" x2="462.73" y2="583.89"/><line class="cls-3" x1="473.34" y1="583.89" x2="473.34" y2="573.38"/><line class="cls-3" x1="435.51" y1="585.09" x2="435.51" y2="572.18"/><line class="cls-3" x1="435.51" y1="585.09" x2="448.52" y2="585.09"/><line class="cls-3" x1="447.32" y1="573.38" x2="436.71" y2="573.38"/><line class="cls-3" x1="436.71" y1="583.89" x2="447.32" y2="583.89"/><line class="cls-3" x1="422.5" y1="585.09" x2="422.5" y2="572.18"/><line class="cls-3" x1="423.7" y1="583.89" x2="434.31" y2="583.89"/><line class="cls-3" x1="423.7" y1="573.38" x2="423.7" y2="583.89"/><line class="cls-3" x1="396.48" y1="585.09" x2="396.48" y2="572.18"/><line class="cls-3" x1="409.49" y1="585.09" x2="409.49" y2="572.18"/><line class="cls-3" x1="396.48" y1="585.09" x2="409.49" y2="585.09"/><line class="cls-3" x1="397.68" y1="583.89" x2="408.29" y2="583.89"/><line class="cls-3" x1="408.29" y1="583.89" x2="408.29" y2="573.38"/><line class="cls-3" x1="448.52" y1="597.99" x2="448.52" y2="585.09"/><line class="cls-3" x1="448.52" y1="585.09" x2="461.53" y2="585.09"/><line class="cls-3" x1="448.52" y1="597.99" x2="461.53" y2="597.99"/><line class="cls-3" x1="449.72" y1="596.79" x2="460.33" y2="596.79"/><line class="cls-3" x1="449.72" y1="586.29" x2="449.72" y2="596.79"/><line class="cls-3" x1="461.53" y1="597.99" x2="461.53" y2="585.09"/><line class="cls-3" x1="462.73" y1="596.79" x2="473.34" y2="596.79"/><line class="cls-3" x1="408.29" y1="599.19" x2="397.68" y2="599.19"/><line class="cls-3" x1="397.68" y1="609.7" x2="408.29" y2="609.7"/><line class="cls-3" x1="397.68" y1="599.19" x2="397.68" y2="609.7"/><line class="cls-3" x1="434.31" y1="599.19" x2="423.7" y2="599.19"/><line class="cls-3" x1="423.7" y1="609.7" x2="434.31" y2="609.7"/><line class="cls-3" x1="423.7" y1="599.19" x2="423.7" y2="609.7"/><line class="cls-3" x1="434.31" y1="609.7" x2="434.31" y2="599.19"/><line class="cls-3" x1="460.33" y1="599.19" x2="449.72" y2="599.19"/><line class="cls-3" x1="449.72" y1="609.7" x2="460.33" y2="609.7"/><line class="cls-3" x1="449.72" y1="599.19" x2="449.72" y2="609.7"/><line class="cls-3" x1="436.71" y1="609.7" x2="447.32" y2="609.7"/><line class="cls-3" x1="447.32" y1="609.7" x2="447.32" y2="599.19"/><line class="cls-3" x1="473.34" y1="622.6" x2="473.34" y2="612.1"/><line class="cls-3" x1="382.27" y1="599.19" x2="371.66" y2="599.19"/><line class="cls-3" x1="371.66" y1="609.7" x2="382.27" y2="609.7"/><line class="cls-3" x1="371.66" y1="599.19" x2="371.66" y2="609.7"/><line class="cls-3" x1="382.27" y1="609.7" x2="382.27" y2="599.19"/><line class="cls-3" x1="395.28" y1="599.19" x2="384.67" y2="599.19"/><line class="cls-3" x1="384.67" y1="609.7" x2="395.28" y2="609.7"/><line class="cls-3" x1="384.67" y1="599.19" x2="384.67" y2="609.7"/><line class="cls-3" x1="395.28" y1="609.7" x2="395.28" y2="599.19"/><line class="cls-3" x1="369.26" y1="609.7" x2="369.26" y2="599.19"/><line class="cls-3" x1="370.46" y1="546.37" x2="370.46" y2="533.46"/><line class="cls-3" x1="370.46" y1="533.46" x2="383.47" y2="533.46"/><line class="cls-3" x1="383.47" y1="546.37" x2="383.47" y2="533.46"/><line class="cls-3" x1="382.27" y1="534.66" x2="371.66" y2="534.66"/><line class="cls-3" x1="371.66" y1="545.17" x2="382.27" y2="545.17"/><line class="cls-3" x1="371.66" y1="534.66" x2="371.66" y2="545.17"/><line class="cls-3" x1="382.27" y1="545.17" x2="382.27" y2="534.66"/><line class="cls-3" x1="242.96" y1="546.37" x2="222.73" y2="546.37"/><line class="cls-3" x1="128.64" y1="520.56" x2="128.64" y2="546.37"/><line class="cls-3" x1="242.96" y1="520.56" x2="242.96" y2="546.37"/><line class="cls-3" x1="129.84" y1="545.17" x2="148.86" y2="545.17"/><line class="cls-3" x1="241.76" y1="521.76" x2="222.74" y2="521.76"/><line class="cls-3" x1="129.84" y1="521.76" x2="129.84" y2="545.17"/><line class="cls-3" x1="241.76" y1="521.76" x2="241.76" y2="545.17"/><line class="cls-3" x1="211.98" y1="633.41" x2="211.98" y2="628.61"/><line class="cls-3" x1="214.38" y1="633.41" x2="211.98" y2="633.41"/><line class="cls-3" x1="396.39" y1="633.41" x2="396.39" y2="628.61"/><line class="cls-3" x1="398.79" y1="633.41" x2="396.39" y2="633.41"/><line class="cls-3" x1="398.79" y1="627.41" x2="398.79" y2="625.01"/><line class="cls-3" x1="398.79" y1="627.41" x2="396.39" y2="627.41"/><line class="cls-3" x1="396.39" y1="625.01" x2="396.39" y2="627.41"/><line class="cls-3" x1="410.31" y1="634.61" x2="410.31" y2="640.61"/><line class="cls-3" x1="407.91" y1="640.61" x2="407.91" y2="634.61"/><line class="cls-3" x1="410.31" y1="640.61" x2="407.91" y2="640.61"/><line class="cls-3" x1="410.31" y1="634.61" x2="407.91" y2="634.61"/><line class="cls-3" x1="304.18" y1="633.41" x2="304.18" y2="628.61"/><line class="cls-3" x1="306.58" y1="633.41" x2="304.18" y2="633.41"/><line class="cls-3" x1="448.52" y1="533.46" x2="448.52" y2="520.56"/><line class="cls-3" x1="460.33" y1="521.76" x2="449.72" y2="521.76"/><line class="cls-3" x1="449.72" y1="521.76" x2="449.72" y2="532.26"/><line class="cls-3" x1="460.33" y1="532.26" x2="460.33" y2="521.76"/><line class="cls-3" x1="435.51" y1="533.46" x2="435.51" y2="520.56"/><line class="cls-3" x1="436.71" y1="532.26" x2="447.32" y2="532.26"/><line class="cls-3" x1="396.48" y1="533.46" x2="396.48" y2="520.56"/><line class="cls-3" x1="409.49" y1="533.46" x2="409.49" y2="520.56"/><line class="cls-3" x1="396.48" y1="533.46" x2="409.49" y2="533.46"/><line class="cls-3" x1="408.29" y1="521.76" x2="397.68" y2="521.76"/><line class="cls-3" x1="397.68" y1="521.76" x2="397.68" y2="532.26"/><line class="cls-3" x1="383.47" y1="533.46" x2="383.47" y2="520.56"/><line class="cls-3" x1="383.47" y1="520.56" x2="396.48" y2="520.56"/><line class="cls-3" x1="383.47" y1="533.46" x2="396.48" y2="533.46"/><line class="cls-3" x1="384.67" y1="532.26" x2="395.28" y2="532.26"/><line class="cls-3" x1="395.28" y1="532.26" x2="395.28" y2="521.76"/><line class="cls-3" x1="370.46" y1="533.46" x2="370.46" y2="520.56"/><line class="cls-3" x1="357.45" y1="533.46" x2="370.46" y2="533.46"/><line class="cls-3" x1="369.26" y1="521.76" x2="358.65" y2="521.76"/><line class="cls-3" x1="358.65" y1="532.26" x2="369.26" y2="532.26"/><line class="cls-3" x1="358.65" y1="521.76" x2="358.65" y2="532.26"/><line class="cls-3" x1="369.26" y1="532.26" x2="369.26" y2="521.76"/><line class="cls-3" x1="449.72" y1="532.26" x2="460.33" y2="532.26"/><line class="cls-3" x1="307.78" y1="664.62" x2="307.78" y2="686.23"/><line class="cls-3" x1="293.37" y1="664.62" x2="293.37" y2="686.23"/><line class="cls-3" x1="245.36" y1="657.42" x2="245.36" y2="628.61"/><line class="cls-3" x1="247.76" y1="657.42" x2="247.76" y2="628.61"/><line class="cls-3" x1="307.78" y1="686.23" x2="293.37" y2="686.23"/><line class="cls-3" x1="496.15" y1="657.42" x2="496.15" y2="664.62"/><line class="cls-3" x1="104.63" y1="657.42" x2="104.63" y2="664.62"/><line class="cls-3" x1="461.53" y1="610.9" x2="474.54" y2="610.9"/><line class="cls-3" x1="473.34" y1="612.1" x2="462.73" y2="612.1"/><line class="cls-3" x1="462.73" y1="622.6" x2="473.34" y2="622.6"/><line class="cls-3" x1="462.73" y1="612.1" x2="462.73" y2="622.6"/><line class="cls-3" x1="357.45" y1="610.9" x2="357.45" y2="597.99"/><line class="cls-3" x1="357.45" y1="597.99" x2="370.46" y2="597.99"/><line class="cls-3" x1="370.46" y1="610.9" x2="370.46" y2="597.99"/><line class="cls-3" x1="357.45" y1="610.9" x2="370.46" y2="610.9"/><line class="cls-3" x1="369.26" y1="599.19" x2="358.65" y2="599.19"/><line class="cls-3" x1="358.65" y1="609.7" x2="369.26" y2="609.7"/><line class="cls-3" x1="358.65" y1="599.19" x2="358.65" y2="609.7"/><line class="cls-3" x1="421.3" y1="599.19" x2="410.69" y2="599.19"/><line class="cls-3" x1="410.69" y1="609.7" x2="421.3" y2="609.7"/><line class="cls-3" x1="410.69" y1="599.19" x2="410.69" y2="609.7"/><line class="cls-3" x1="421.3" y1="609.7" x2="421.3" y2="599.19"/><line class="cls-3" x1="461.53" y1="623.8" x2="461.53" y2="610.9"/><line class="cls-3" x1="435.51" y1="623.8" x2="435.51" y2="610.9"/><line class="cls-3" x1="371.66" y1="570.98" x2="382.27" y2="570.98"/><line class="cls-3" x1="382.27" y1="570.98" x2="382.27" y2="560.47"/><line class="cls-3" x1="434.31" y1="596.79" x2="434.31" y2="586.29"/><line class="cls-3" x1="436.71" y1="586.29" x2="436.71" y2="596.79"/><line class="cls-3" x1="447.32" y1="596.79" x2="447.32" y2="586.29"/><line class="cls-3" x1="473.34" y1="573.38" x2="462.73" y2="573.38"/><line class="cls-3" x1="462.73" y1="583.89" x2="473.34" y2="583.89"/><line class="cls-3" x1="434.31" y1="573.38" x2="423.7" y2="573.38"/><line class="cls-3" x1="434.31" y1="583.89" x2="434.31" y2="573.38"/><line class="cls-3" x1="397.68" y1="570.98" x2="408.29" y2="570.98"/><line class="cls-3" x1="397.68" y1="560.47" x2="397.68" y2="570.98"/><line class="cls-3" x1="119.03" y1="498.95" x2="119.03" y2="494.14"/><line class="cls-3" x1="481.74" y1="498.95" x2="481.74" y2="494.14"/><line class="cls-3" x1="422.5" y1="610.9" x2="422.5" y2="597.99"/><line class="cls-3" x1="422.5" y1="597.99" x2="435.51" y2="597.99"/><line class="cls-3" x1="422.5" y1="610.9" x2="435.51" y2="610.9"/><line class="cls-3" x1="410.69" y1="545.17" x2="421.3" y2="545.17"/><line class="cls-3" x1="396.48" y1="546.37" x2="396.48" y2="533.46"/><line class="cls-3" x1="384.67" y1="545.17" x2="395.28" y2="545.17"/><line class="cls-3" x1="384.67" y1="534.66" x2="384.67" y2="545.17"/><line class="cls-3" x1="395.28" y1="545.17" x2="395.28" y2="534.66"/><line class="cls-3" x1="461.53" y1="546.37" x2="461.53" y2="533.46"/><line class="cls-3" x1="461.53" y1="533.46" x2="474.54" y2="533.46"/><line class="cls-3" x1="461.53" y1="546.37" x2="474.54" y2="546.37"/><line class="cls-3" x1="473.34" y1="534.66" x2="462.73" y2="534.66"/><line class="cls-3" x1="462.73" y1="545.17" x2="473.34" y2="545.17"/><line class="cls-3" x1="473.34" y1="545.17" x2="473.34" y2="534.66"/><line class="cls-3" x1="448.52" y1="533.46" x2="461.53" y2="533.46"/><line class="cls-3" x1="449.72" y1="534.66" x2="449.72" y2="545.17"/><line class="cls-3" x1="460.33" y1="545.17" x2="460.33" y2="534.66"/><line class="cls-3" x1="434.31" y1="521.76" x2="423.7" y2="521.76"/><line class="cls-3" x1="423.7" y1="532.26" x2="434.31" y2="532.26"/><line class="cls-3" x1="447.32" y1="521.76" x2="436.71" y2="521.76"/><line class="cls-3" x1="436.71" y1="521.76" x2="436.71" y2="532.26"/><line class="cls-3" x1="447.32" y1="532.26" x2="447.32" y2="521.76"/><line class="cls-3" x1="422.5" y1="533.46" x2="422.5" y2="520.56"/><line class="cls-3" x1="422.5" y1="520.56" x2="435.51" y2="520.56"/><line class="cls-3" x1="422.5" y1="533.46" x2="435.51" y2="533.46"/><line class="cls-3" x1="423.7" y1="521.76" x2="423.7" y2="532.26"/><line class="cls-3" x1="434.31" y1="532.26" x2="434.31" y2="521.76"/><line class="cls-3" x1="409.49" y1="520.56" x2="422.5" y2="520.56"/><line class="cls-3" x1="409.49" y1="533.46" x2="422.5" y2="533.46"/><line class="cls-3" x1="410.69" y1="521.76" x2="410.69" y2="532.26"/><line class="cls-3" x1="371.66" y1="583.89" x2="382.27" y2="583.89"/><line class="cls-3" x1="371.66" y1="573.38" x2="371.66" y2="583.89"/><line class="cls-3" x1="383.47" y1="585.09" x2="383.47" y2="572.18"/><line class="cls-3" x1="384.67" y1="583.89" x2="395.28" y2="583.89"/><line class="cls-3" x1="384.67" y1="573.38" x2="384.67" y2="583.89"/><line class="cls-3" x1="409.49" y1="597.99" x2="409.49" y2="585.09"/><line class="cls-3" x1="422.5" y1="597.99" x2="422.5" y2="585.09"/><line class="cls-3" x1="409.49" y1="597.99" x2="422.5" y2="597.99"/><line class="cls-3" x1="421.3" y1="586.29" x2="410.69" y2="586.29"/><line class="cls-3" x1="410.69" y1="596.79" x2="421.3" y2="596.79"/><line class="cls-3" x1="421.3" y1="596.79" x2="421.3" y2="586.29"/><line class="cls-3" x1="409.49" y1="572.18" x2="422.5" y2="572.18"/><line class="cls-3" x1="409.49" y1="585.09" x2="422.5" y2="585.09"/><line class="cls-3" x1="421.3" y1="573.38" x2="410.69" y2="573.38"/><line class="cls-3" x1="410.69" y1="583.89" x2="421.3" y2="583.89"/><line class="cls-3" x1="421.3" y1="583.89" x2="421.3" y2="573.38"/><line class="cls-3" x1="382.27" y1="573.38" x2="371.66" y2="573.38"/><line class="cls-3" x1="382.27" y1="583.89" x2="382.27" y2="573.38"/><line class="cls-3" x1="395.28" y1="573.38" x2="384.67" y2="573.38"/><line class="cls-3" x1="395.28" y1="583.89" x2="395.28" y2="573.38"/><line class="cls-3" x1="436.71" y1="573.38" x2="436.71" y2="583.89"/><line class="cls-3" x1="447.32" y1="583.89" x2="447.32" y2="573.38"/><line class="cls-3" x1="408.29" y1="573.38" x2="397.68" y2="573.38"/><line class="cls-3" x1="397.68" y1="573.38" x2="397.68" y2="583.89"/><line class="cls-3" x1="410.69" y1="573.38" x2="410.69" y2="583.89"/><path class="cls-3" d="M332.41,583.27c-1.02-.57-1.39-1.87-.82-2.89.57-1.02,1.87-1.39,2.89-.82,1.02.57,1.39,1.87.82,2.89-.57,1.02-1.87,1.39-2.89.82Z"/><line class="cls-3" x1="358.65" y1="558.07" x2="369.26" y2="558.07"/><line class="cls-3" x1="358.65" y1="547.57" x2="358.65" y2="558.07"/><line class="cls-3" x1="369.26" y1="558.07" x2="369.26" y2="547.57"/><line class="cls-3" x1="447.32" y1="547.57" x2="436.71" y2="547.57"/><line class="cls-3" x1="436.71" y1="558.07" x2="447.32" y2="558.07"/><line class="cls-3" x1="447.32" y1="558.07" x2="447.32" y2="547.57"/><line class="cls-3" x1="473.34" y1="547.57" x2="462.73" y2="547.57"/><line class="cls-3" x1="462.73" y1="558.07" x2="473.34" y2="558.07"/><line class="cls-3" x1="473.34" y1="558.07" x2="473.34" y2="547.57"/><line class="cls-3" x1="481.74" y1="546.37" x2="481.74" y2="533.46"/><line class="cls-3" x1="481.74" y1="597.99" x2="481.74" y2="585.09"/><line class="cls-3" x1="481.74" y1="610.9" x2="481.74" y2="597.99"/><line class="cls-3" x1="481.74" y1="585.09" x2="481.74" y2="572.18"/><line class="cls-3" x1="403.35" y1="623.8" x2="396.48" y2="623.8"/><line class="cls-3" x1="391.82" y1="623.8" x2="391.82" y2="625.01"/><line class="cls-3" x1="426.4" y1="640.61" x2="426.4" y2="641.81"/><line class="cls-3" x1="414.88" y1="640.61" x2="414.88" y2="641.81"/><path class="cls-3" d="M304.8,526.56h23.67"/><path class="cls-3" d="M328.47,620.2v-93.64"/><path class="cls-3" d="M304.8,620.2h23.67"/><line class="cls-3" x1="409.49" y1="546.37" x2="422.5" y2="546.37"/><line class="cls-3" x1="409.49" y1="559.27" x2="422.5" y2="559.27"/><line class="cls-3" x1="357.45" y1="559.27" x2="357.45" y2="546.37"/><line class="cls-3" x1="370.46" y1="559.27" x2="370.46" y2="546.37"/><line class="cls-3" x1="357.45" y1="559.27" x2="370.46" y2="559.27"/><line class="cls-3" x1="369.26" y1="547.57" x2="358.65" y2="547.57"/><line class="cls-3" x1="383.47" y1="559.27" x2="383.47" y2="546.37"/><line class="cls-3" x1="383.47" y1="546.37" x2="396.48" y2="546.37"/><line class="cls-3" x1="383.47" y1="559.27" x2="396.48" y2="559.27"/><line class="cls-3" x1="395.28" y1="547.57" x2="384.67" y2="547.57"/><line class="cls-3" x1="384.67" y1="558.07" x2="395.28" y2="558.07"/><line class="cls-3" x1="384.67" y1="547.57" x2="384.67" y2="558.07"/><line class="cls-3" x1="395.28" y1="558.07" x2="395.28" y2="547.57"/><line class="cls-3" x1="481.74" y1="623.8" x2="481.74" y2="610.9"/><line class="cls-3" x1="409.49" y1="623.8" x2="409.49" y2="610.9"/><line class="cls-3" x1="448.52" y1="623.8" x2="448.52" y2="610.9"/><line class="cls-3" x1="447.32" y1="612.1" x2="436.71" y2="612.1"/><line class="cls-3" x1="436.71" y1="622.6" x2="447.32" y2="622.6"/><line class="cls-3" x1="436.71" y1="612.1" x2="436.71" y2="622.6"/><line class="cls-3" x1="409.49" y1="610.9" x2="422.5" y2="610.9"/><line class="cls-3" x1="422.5" y1="623.8" x2="422.5" y2="610.9"/><line class="cls-3" x1="370.46" y1="546.37" x2="383.47" y2="546.37"/><line class="cls-3" x1="370.46" y1="559.27" x2="383.47" y2="559.27"/><line class="cls-3" x1="396.48" y1="559.27" x2="396.48" y2="546.37"/><line class="cls-3" x1="396.48" y1="546.37" x2="409.49" y2="546.37"/><line class="cls-3" x1="409.49" y1="559.27" x2="409.49" y2="546.37"/><line class="cls-3" x1="408.29" y1="547.57" x2="397.68" y2="547.57"/><line class="cls-3" x1="397.68" y1="558.07" x2="408.29" y2="558.07"/><line class="cls-3" x1="461.53" y1="572.18" x2="461.53" y2="559.27"/><line class="cls-3" x1="461.53" y1="559.27" x2="474.54" y2="559.27"/><line class="cls-3" x1="473.34" y1="560.47" x2="462.73" y2="560.47"/><line class="cls-3" x1="462.73" y1="560.47" x2="462.73" y2="570.98"/><line class="cls-3" x1="473.34" y1="570.98" x2="473.34" y2="560.47"/><line class="cls-3" x1="460.33" y1="570.98" x2="460.33" y2="560.47"/><line class="cls-3" x1="421.3" y1="612.1" x2="410.69" y2="612.1"/><line class="cls-3" x1="410.69" y1="622.6" x2="421.3" y2="622.6"/><line class="cls-3" x1="410.69" y1="612.1" x2="410.69" y2="622.6"/><line class="cls-3" x1="421.3" y1="622.6" x2="421.3" y2="612.1"/><line class="cls-3" x1="395.28" y1="612.1" x2="384.67" y2="612.1"/><line class="cls-3" x1="395.28" y1="622.6" x2="395.28" y2="612.1"/><line class="cls-3" x1="408.29" y1="612.1" x2="397.68" y2="612.1"/><line class="cls-3" x1="397.68" y1="622.6" x2="408.29" y2="622.6"/><line class="cls-3" x1="397.68" y1="612.1" x2="397.68" y2="622.6"/><line class="cls-3" x1="408.29" y1="622.6" x2="408.29" y2="612.1"/><line class="cls-3" x1="447.32" y1="622.6" x2="447.32" y2="612.1"/><line class="cls-3" x1="383.47" y1="610.9" x2="396.48" y2="610.9"/><line class="cls-3" x1="396.48" y1="623.8" x2="396.48" y2="610.9"/><line class="cls-3" x1="384.67" y1="622.6" x2="395.28" y2="622.6"/><line class="cls-3" x1="384.67" y1="612.1" x2="384.67" y2="622.6"/><line class="cls-3" x1="168.28" y1="628.61" x2="168.28" y2="633.41"/><line class="cls-3" x1="408.29" y1="534.66" x2="397.68" y2="534.66"/><line class="cls-3" x1="397.68" y1="545.17" x2="408.29" y2="545.17"/><line class="cls-3" x1="397.68" y1="534.66" x2="397.68" y2="545.17"/><line class="cls-3" x1="408.29" y1="545.17" x2="408.29" y2="534.66"/><line class="cls-3" x1="421.3" y1="534.66" x2="410.69" y2="534.66"/><line class="cls-3" x1="410.69" y1="534.66" x2="410.69" y2="545.17"/><line class="cls-3" x1="421.3" y1="545.17" x2="421.3" y2="534.66"/><line class="cls-3" x1="460.33" y1="534.66" x2="449.72" y2="534.66"/><line class="cls-3" x1="449.72" y1="545.17" x2="460.33" y2="545.17"/><line class="cls-3" x1="462.73" y1="534.66" x2="462.73" y2="545.17"/><line class="cls-3" x1="382.27" y1="612.1" x2="371.66" y2="612.1"/><line class="cls-3" x1="371.66" y1="622.6" x2="382.27" y2="622.6"/><line class="cls-3" x1="371.66" y1="612.1" x2="371.66" y2="622.6"/><line class="cls-3" x1="382.27" y1="622.6" x2="382.27" y2="612.1"/><line class="cls-3" x1="473.34" y1="599.19" x2="462.73" y2="599.19"/><line class="cls-3" x1="462.73" y1="599.19" x2="462.73" y2="609.7"/><line class="cls-3" x1="435.51" y1="546.37" x2="435.51" y2="533.46"/><line class="cls-3" x1="435.51" y1="533.46" x2="448.52" y2="533.46"/><line class="cls-3" x1="448.52" y1="546.37" x2="448.52" y2="533.46"/><line class="cls-3" x1="435.51" y1="546.37" x2="448.52" y2="546.37"/><line class="cls-3" x1="436.71" y1="545.17" x2="447.32" y2="545.17"/><line class="cls-3" x1="447.32" y1="545.17" x2="447.32" y2="534.66"/><line class="cls-3" x1="382.27" y1="532.26" x2="382.27" y2="521.76"/><line class="cls-3" x1="473.34" y1="521.76" x2="462.73" y2="521.76"/><line class="cls-3" x1="462.73" y1="521.76" x2="462.73" y2="532.26"/><line class="cls-3" x1="473.34" y1="532.26" x2="473.34" y2="521.76"/><line class="cls-3" x1="461.53" y1="533.46" x2="461.53" y2="520.56"/><line class="cls-3" x1="462.73" y1="532.26" x2="473.34" y2="532.26"/><line class="cls-3" x1="395.28" y1="521.76" x2="384.67" y2="521.76"/><line class="cls-3" x1="384.67" y1="521.76" x2="384.67" y2="532.26"/><line class="cls-3" x1="382.27" y1="521.76" x2="371.66" y2="521.76"/><line class="cls-3" x1="371.66" y1="532.26" x2="382.27" y2="532.26"/><line class="cls-3" x1="371.66" y1="521.76" x2="371.66" y2="532.26"/><line class="cls-3" x1="396.48" y1="610.9" x2="396.48" y2="597.99"/><line class="cls-3" x1="396.48" y1="597.99" x2="409.49" y2="597.99"/><line class="cls-3" x1="409.49" y1="610.9" x2="409.49" y2="597.99"/><line class="cls-3" x1="396.48" y1="610.9" x2="409.49" y2="610.9"/><line class="cls-3" x1="408.29" y1="609.7" x2="408.29" y2="599.19"/><line class="cls-3" x1="370.46" y1="597.99" x2="383.47" y2="597.99"/><line class="cls-3" x1="383.47" y1="610.9" x2="383.47" y2="597.99"/><line class="cls-3" x1="370.46" y1="610.9" x2="383.47" y2="610.9"/><line class="cls-3" x1="423.7" y1="622.6" x2="434.31" y2="622.6"/><line class="cls-3" x1="423.7" y1="612.1" x2="423.7" y2="622.6"/><line class="cls-3" x1="434.31" y1="622.6" x2="434.31" y2="612.1"/><line class="cls-3" x1="383.47" y1="623.8" x2="383.47" y2="610.9"/><line class="cls-3" x1="383.47" y1="597.99" x2="383.47" y2="585.09"/><line class="cls-3" x1="383.47" y1="585.09" x2="396.48" y2="585.09"/><line class="cls-3" x1="396.48" y1="597.99" x2="396.48" y2="585.09"/><line class="cls-3" x1="383.47" y1="597.99" x2="396.48" y2="597.99"/><line class="cls-3" x1="357.45" y1="597.99" x2="357.45" y2="585.09"/><line class="cls-3" x1="357.45" y1="585.09" x2="370.46" y2="585.09"/><line class="cls-3" x1="370.46" y1="597.99" x2="370.46" y2="585.09"/><line class="cls-3" x1="358.65" y1="596.79" x2="369.26" y2="596.79"/><line class="cls-3" x1="369.26" y1="596.79" x2="369.26" y2="586.29"/><line class="cls-3" x1="397.68" y1="532.26" x2="408.29" y2="532.26"/><line class="cls-3" x1="408.29" y1="532.26" x2="408.29" y2="521.76"/><line class="cls-3" x1="421.3" y1="521.76" x2="410.69" y2="521.76"/><line class="cls-3" x1="410.69" y1="532.26" x2="421.3" y2="532.26"/><line class="cls-3" x1="421.3" y1="532.26" x2="421.3" y2="521.76"/><line class="cls-3" x1="352.69" y1="628.61" x2="352.69" y2="633.41"/><line class="cls-3" x1="421.3" y1="560.47" x2="410.69" y2="560.47"/><line class="cls-3" x1="410.69" y1="570.98" x2="421.3" y2="570.98"/><line class="cls-3" x1="410.69" y1="560.47" x2="410.69" y2="570.98"/><line class="cls-3" x1="460.33" y1="560.47" x2="449.72" y2="560.47"/><line class="cls-3" x1="449.72" y1="570.98" x2="460.33" y2="570.98"/><line class="cls-3" x1="449.72" y1="560.47" x2="449.72" y2="570.98"/><line class="cls-3" x1="350.28" y1="633.41" x2="350.28" y2="628.61"/><line class="cls-3" x1="352.69" y1="633.41" x2="350.28" y2="633.41"/><line class="cls-3" x1="369.26" y1="534.66" x2="358.65" y2="534.66"/><line class="cls-3" x1="421.3" y1="547.57" x2="410.69" y2="547.57"/><line class="cls-3" x1="410.69" y1="558.07" x2="421.3" y2="558.07"/><line class="cls-3" x1="410.69" y1="547.57" x2="410.69" y2="558.07"/><line class="cls-3" x1="421.3" y1="558.07" x2="421.3" y2="547.57"/><line class="cls-3" x1="436.71" y1="560.47" x2="436.71" y2="570.98"/><line class="cls-3" x1="382.27" y1="547.57" x2="371.66" y2="547.57"/><line class="cls-3" x1="371.66" y1="558.07" x2="382.27" y2="558.07"/><line class="cls-3" x1="371.66" y1="547.57" x2="371.66" y2="558.07"/><line class="cls-3" x1="382.27" y1="558.07" x2="382.27" y2="547.57"/><line class="cls-3" x1="434.31" y1="547.57" x2="423.7" y2="547.57"/><line class="cls-3" x1="423.7" y1="558.07" x2="434.31" y2="558.07"/><line class="cls-3" x1="423.7" y1="547.57" x2="423.7" y2="558.07"/><line class="cls-3" x1="434.31" y1="558.07" x2="434.31" y2="547.57"/><line class="cls-3" x1="422.5" y1="559.27" x2="422.5" y2="546.37"/><line class="cls-3" x1="422.5" y1="559.27" x2="435.51" y2="559.27"/><line class="cls-3" x1="435.51" y1="559.27" x2="435.51" y2="546.37"/><line class="cls-3" x1="448.52" y1="559.27" x2="448.52" y2="546.37"/><line class="cls-3" x1="435.51" y1="559.27" x2="448.52" y2="559.27"/><line class="cls-3" x1="436.71" y1="547.57" x2="436.71" y2="558.07"/><line class="cls-3" x1="448.52" y1="546.37" x2="461.53" y2="546.37"/><line class="cls-3" x1="448.52" y1="559.27" x2="461.53" y2="559.27"/><line class="cls-3" x1="449.72" y1="558.07" x2="460.33" y2="558.07"/><line class="cls-3" x1="461.53" y1="559.27" x2="461.53" y2="546.37"/><line class="cls-3" x1="462.73" y1="547.57" x2="462.73" y2="558.07"/><line class="cls-3" x1="462.73" y1="570.98" x2="473.34" y2="570.98"/><line class="cls-3" x1="395.28" y1="534.66" x2="384.67" y2="534.66"/><line class="cls-3" x1="121.44" y1="633.41" x2="121.44" y2="628.61"/><line class="cls-3" x1="123.84" y1="633.41" x2="121.44" y2="633.41"/><line class="cls-3" x1="165.88" y1="633.41" x2="165.88" y2="628.61"/><line class="cls-3" x1="168.28" y1="633.41" x2="165.88" y2="633.41"/><line class="cls-3" x1="434.31" y1="534.66" x2="423.7" y2="534.66"/><line class="cls-3" x1="423.7" y1="545.17" x2="434.31" y2="545.17"/><line class="cls-3" x1="447.32" y1="534.66" x2="436.71" y2="534.66"/><line class="cls-3" x1="436.71" y1="534.66" x2="436.71" y2="545.17"/><line class="cls-3" x1="397.68" y1="596.79" x2="408.29" y2="596.79"/><line class="cls-3" x1="397.68" y1="586.29" x2="397.68" y2="596.79"/><line class="cls-3" x1="408.29" y1="596.79" x2="408.29" y2="586.29"/><line class="cls-3" x1="369.26" y1="583.89" x2="369.26" y2="573.38"/><line class="cls-3" x1="369.26" y1="586.29" x2="358.65" y2="586.29"/><line class="cls-3" x1="358.65" y1="586.29" x2="358.65" y2="596.79"/><line class="cls-3" x1="395.28" y1="586.29" x2="384.67" y2="586.29"/><line class="cls-3" x1="384.67" y1="596.79" x2="395.28" y2="596.79"/><line class="cls-3" x1="384.67" y1="586.29" x2="384.67" y2="596.79"/><line class="cls-3" x1="395.28" y1="596.79" x2="395.28" y2="586.29"/><line class="cls-3" x1="448.52" y1="610.9" x2="448.52" y2="597.99"/><line class="cls-3" x1="448.52" y1="610.9" x2="461.53" y2="610.9"/><line class="cls-3" x1="460.33" y1="609.7" x2="460.33" y2="599.19"/><line class="cls-3" x1="370.46" y1="585.09" x2="383.47" y2="585.09"/><line class="cls-3" x1="382.27" y1="586.29" x2="371.66" y2="586.29"/><line class="cls-3" x1="371.66" y1="596.79" x2="382.27" y2="596.79"/><line class="cls-3" x1="371.66" y1="586.29" x2="371.66" y2="596.79"/><line class="cls-3" x1="461.53" y1="610.9" x2="461.53" y2="597.99"/><line class="cls-3" x1="461.53" y1="597.99" x2="474.54" y2="597.99"/><line class="cls-3" x1="462.73" y1="609.7" x2="473.34" y2="609.7"/><line class="cls-3" x1="473.34" y1="609.7" x2="473.34" y2="599.19"/><line class="cls-3" x1="435.51" y1="610.9" x2="435.51" y2="597.99"/><line class="cls-3" x1="435.51" y1="597.99" x2="448.52" y2="597.99"/><line class="cls-3" x1="435.51" y1="610.9" x2="448.52" y2="610.9"/><line class="cls-3" x1="447.32" y1="599.19" x2="436.71" y2="599.19"/><line class="cls-3" x1="436.71" y1="599.19" x2="436.71" y2="609.7"/><line class="cls-3" x1="357.45" y1="623.8" x2="357.45" y2="610.9"/><line class="cls-3" x1="370.46" y1="623.8" x2="370.46" y2="610.9"/><line class="cls-3" x1="369.26" y1="612.1" x2="358.65" y2="612.1"/><line class="cls-3" x1="358.65" y1="622.6" x2="369.26" y2="622.6"/><line class="cls-3" x1="358.65" y1="612.1" x2="358.65" y2="622.6"/><line class="cls-3" x1="369.26" y1="622.6" x2="369.26" y2="612.1"/><line class="cls-3" x1="433.36" y1="651.42" x2="433.36" y2="657.42"/><line class="cls-3" x1="430.96" y1="657.42" x2="430.96" y2="651.42"/><line class="cls-3" x1="433.36" y1="651.42" x2="430.96" y2="651.42"/><line class="cls-3" x1="421.84" y1="643.01" x2="421.84" y2="649.02"/><line class="cls-3" x1="419.44" y1="649.02" x2="419.44" y2="643.01"/><line class="cls-3" x1="421.84" y1="649.02" x2="419.44" y2="649.02"/><line class="cls-3" x1="421.84" y1="643.01" x2="419.44" y2="643.01"/><line class="cls-3" x1="119.03" y1="628.61" x2="119.03" y2="623.8"/><line class="cls-3" x1="481.74" y1="628.61" x2="481.74" y2="623.8"/><line class="cls-3" x1="403.35" y1="628.61" x2="474.54" y2="628.61"/><line class="cls-3" x1="129.84" y1="521.76" x2="148.86" y2="521.76"/><line class="cls-3" x1="357.45" y1="546.37" x2="357.45" y2="533.46"/><line class="cls-3" x1="357.45" y1="546.37" x2="370.46" y2="546.37"/><line class="cls-3" x1="358.65" y1="545.17" x2="369.26" y2="545.17"/><line class="cls-3" x1="358.65" y1="534.66" x2="358.65" y2="545.17"/><line class="cls-3" x1="369.26" y1="545.17" x2="369.26" y2="534.66"/><line class="cls-3" x1="422.5" y1="572.18" x2="435.51" y2="572.18"/><line class="cls-3" x1="434.31" y1="560.47" x2="423.7" y2="560.47"/><line class="cls-3" x1="423.7" y1="570.98" x2="434.31" y2="570.98"/><line class="cls-3" x1="423.7" y1="560.47" x2="423.7" y2="570.98"/><line class="cls-3" x1="435.51" y1="572.18" x2="435.51" y2="559.27"/><line class="cls-3" x1="448.52" y1="572.18" x2="448.52" y2="559.27"/><line class="cls-3" x1="435.51" y1="572.18" x2="448.52" y2="572.18"/><line class="cls-3" x1="447.32" y1="560.47" x2="436.71" y2="560.47"/><line class="cls-3" x1="436.71" y1="570.98" x2="447.32" y2="570.98"/><line class="cls-3" x1="447.32" y1="570.98" x2="447.32" y2="560.47"/><line class="cls-3" x1="396.48" y1="559.27" x2="409.49" y2="559.27"/><line class="cls-3" x1="396.48" y1="572.18" x2="409.49" y2="572.18"/><line class="cls-3" x1="408.29" y1="560.47" x2="397.68" y2="560.47"/><line class="cls-3" x1="408.29" y1="570.98" x2="408.29" y2="560.47"/><line class="cls-3" x1="370.46" y1="572.18" x2="370.46" y2="559.27"/><line class="cls-3" x1="383.47" y1="572.18" x2="383.47" y2="559.27"/><line class="cls-3" x1="370.46" y1="572.18" x2="383.47" y2="572.18"/><line class="cls-3" x1="382.27" y1="560.47" x2="371.66" y2="560.47"/><line class="cls-3" x1="371.66" y1="560.47" x2="371.66" y2="570.98"/><line class="cls-3" x1="60.73" y1="664.62" x2="540.05" y2="664.62"/></svg>