<?xml version="1.0" encoding="UTF-8"?><svg id="Layer_3" xmlns="http://www.w3.org/2000/svg" viewBox="0 0 612 792"><defs><style>.cls-1{font-size:17px;}.cls-1,.cls-2{font-family:ArialMT, Arial;}.cls-3{letter-spacing:0em;}.cls-4{letter-spacing:0em;}.cls-5,.cls-6{fill:none;}.cls-5,.cls-7{stroke:#231f20;stroke-miterlimit:10;stroke-width:.35px;}.cls-8{letter-spacing:-.02em;}.cls-6{stroke:#000;stroke-linecap:round;stroke-linejoin:round;stroke-width:.25px;}.cls-9{font-family:MyriadPro-Regular, 'Myriad Pro';font-size:12px;}.cls-2{font-size:16.1px;}</style></defs><text class="cls-9" transform="translate(475.4 665.59)"><tspan class="cls-8" x="0" y="0">F</tspan><tspan x="5.64" y="0">loor </tspan><tspan class="cls-3" x="28.12" y="0">P</tspan><tspan class="cls-4" x="34.44" y="0">lan</tspan></text><line class="cls-5" x1="89.48" y1="441.02" x2="48.55" y2="441.02"/><text class="cls-2" transform="translate(43.18 419.6)"><tspan x="0" y="0">B</tspan></text><line class="cls-5" x1="27.91" y1="414.1" x2="48.55" y2="393.46"/><path class="cls-5" d="M48.55,428.63c-8.02,0-14.53-6.51-14.53-14.53,0-8.02,6.51-14.53,14.53-14.53,8.02,0,14.53,6.51,14.53,14.53,0,8.02-6.51,14.53-14.53,14.53Z"/><path class="cls-7" d="M38.28,403.82c-1.9,1.88-3.8,3.77-5.7,5.65-.95.94-1.9,1.88-2.85,2.83-.48.47-.95.94-1.43,1.41-.12.12-.24.24-.36.35-.2.2.29.03.43.03h5.02c.31,0,.63.06.64-.37,0-.33.03-.66.06-.99.06-.67.17-1.33.33-1.99.66-2.76,1.86-4.92,3.87-6.92Z"/><path class="cls-7" d="M58.82,403.83c2.01,2.01,3.21,4.16,3.86,6.93.16.66.26,1.32.33,1.99.03.33.05.66.06.99.01.42.33.37.64.37h4.02c.33,0,.67,0,1,0,.14,0,.63.17.43-.03-.12-.12-.24-.24-.36-.35-.48-.47-.95-.94-1.43-1.41-.95-.94-1.9-1.88-2.85-2.83-1.9-1.88-3.8-3.77-5.7-5.65Z"/><path class="cls-7" d="M48.55,393.46c-3.05,3.08-6.1,6.16-9.15,9.24-.2.2-.39.4-.59.6-.16.16-.79.79-.47.48.37-.36.75-.71,1.16-1.03.86-.69,1.77-1.26,2.77-1.74,2.03-.98,4.03-1.43,6.29-1.43s4.25.46,6.29,1.43c.99.48,1.91,1.05,2.77,1.74.4.32.79.66,1.16,1.03.32.31-.31-.32-.47-.48-.2-.2-.4-.4-.59-.6-3.05-3.08-6.1-6.16-9.15-9.24Z"/><line class="cls-5" x1="48.55" y1="441.02" x2="48.55" y2="428.63"/><line class="cls-5" x1="578.53" y1="433.57" x2="549.36" y2="433.57"/><rect class="cls-7" x="573.27" y="400.9" width="6.42" height="32.67"/><line class="cls-5" x1="375.64" y1="196.6" x2="375.64" y2="153.37"/><line class="cls-5" x1="404.07" y1="131.58" x2="425.87" y2="153.38"/><path class="cls-5" d="M388.72,153.38c0-8.47,6.87-15.34,15.34-15.34,8.47,0,15.34,6.87,15.34,15.34,0,8.47-6.87,15.34-15.34,15.34-8.47,0-15.34-6.87-15.34-15.34Z"/><path class="cls-7" d="M414.92,142.53c-1.99-2.01-3.98-4.02-5.97-6.02-.99-1-1.99-2.01-2.98-3.01-.5-.5-.99-1-1.49-1.51-.13-.13-.25-.25-.37-.38-.21-.22-.03.3-.03.45v5.3c0,.32-.06.66.39.67.35,0,.7.03,1.05.06.71.07,1.41.18,2.1.34,2.92.69,5.19,1.96,7.31,4.08Z"/><path class="cls-7" d="M414.92,164.23c-2.12,2.12-4.39,3.39-7.31,4.08-.69.17-1.39.28-2.1.35-.35.03-.7.05-1.05.06-.45.01-.39.35-.39.67v4.24c0,.35,0,.71,0,1.06,0,.15-.18.67.03.46.12-.13.25-.25.37-.38.5-.5.99-1,1.49-1.51.99-1,1.99-2.01,2.98-3.01,1.99-2.01,3.98-4.02,5.97-6.02Z"/><path class="cls-7" d="M425.87,153.38c-3.25-3.22-6.5-6.44-9.75-9.67-.21-.21-.42-.42-.63-.63-.17-.17-.83-.83-.5-.5.39.39.75.8,1.09,1.22.73.91,1.33,1.87,1.83,2.92,1.03,2.15,1.51,4.26,1.51,6.64s-.48,4.49-1.51,6.64c-.51,1.05-1.11,2.01-1.84,2.92-.34.43-.7.83-1.09,1.22-.33.34.33-.33.5-.5.21-.21.42-.42.63-.63,3.25-3.22,6.5-6.44,9.75-9.67Z"/><line class="cls-5" x1="375.64" y1="153.37" x2="388.72" y2="153.38"/><line class="cls-5" x1="375.64" y1="676.2" x2="375.64" y2="645.4"/><rect class="cls-7" x="375.64" y="670.65" width="34.5" height="6.78"/><text class="cls-1" transform="translate(398.4 159.1)"><tspan x="0" y="0">A</tspan></text><line class="cls-6" x1="292.76" y1="490.95" x2="261.54" y2="522.16"/><line class="cls-6" x1="261.54" y1="490.95" x2="292.76" y2="522.16"/><path class="cls-6" d="M261.54,522.16v-31.22"/><line class="cls-6" x1="261.54" y1="490.95" x2="261.54" y2="522.16"/><line class="cls-6" x1="261.54" y1="522.16" x2="292.76" y2="522.16"/><line class="cls-6" x1="292.76" y1="522.16" x2="292.76" y2="490.95"/><line class="cls-6" x1="292.76" y1="490.95" x2="261.54" y2="490.95"/><rect class="cls-6" x="296.59" y="397.36" width="7.2" height="38.42"/><rect class="cls-6" x="250.97" y="447.79" width="7.2" height="38.44"/><rect class="cls-6" x="306.19" y="527.07" width="39.06" height="7.2"/><rect class="cls-6" x="306.18" y="380.55" width="38.46" height="7.2"/><polygon class="cls-6" points="303.79 237.64 303.79 380.55 346.84 380.55 346.84 364.95 480.15 364.95 480.15 237.64 303.79 237.64"/><polygon class="cls-6" points="303.79 387.76 303.79 527.07 480.15 527.07 480.15 372.15 354.05 372.15 354.05 387.76 303.79 387.76"/><rect class="cls-6" x="258.18" y="445.38" width="38.41" height="81.68"/><rect class="cls-6" x="131.85" y="363.75" width="164.73" height="74.44"/><rect class="cls-6" x="131.85" y="445.38" width="119.12" height="81.68"/><polygon class="cls-6" points="124.65 356.54 124.65 534.27 487.35 534.27 487.35 230.44 296.59 230.44 296.59 356.54 124.65 356.54"/><polygon class="cls-6" points="408.96 534.27 408.96 587.79 124.65 587.79 124.65 356.54 296.59 356.54 296.59 230.44 487.35 230.44 487.35 534.27 408.96 534.27"/><rect class="cls-6" x="124.65" y="534.27" width="284.31" height="53.52"/><line class="cls-6" x1="397.44" y1="534.27" x2="397.44" y2="587.79"/><line class="cls-6" x1="385.91" y1="534.27" x2="385.91" y2="587.79"/><line class="cls-6" x1="374.39" y1="534.27" x2="374.39" y2="587.79"/><line class="cls-6" x1="140.26" y1="458.7" x2="158.11" y2="456.38"/><line class="cls-6" x1="140.26" y1="475.51" x2="140.26" y2="458.7"/><line class="cls-6" x1="158.11" y1="477.84" x2="140.26" y2="475.51"/><line class="cls-6" x1="131.85" y1="455.1" x2="140.26" y2="456.3"/><line class="cls-6" x1="131.85" y1="479.11" x2="131.85" y2="455.1"/><line class="cls-6" x1="140.26" y1="477.91" x2="131.85" y2="479.11"/><line class="cls-6" x1="140.26" y1="456.3" x2="140.26" y2="477.91"/><path class="cls-6" d="M149,465.05c.47.27,2.28.54,3.65.81"/><path class="cls-6" d="M149,469.17v-4.12"/><path class="cls-6" d="M152.66,468.36c-1.38.27-3.19.54-3.65.81"/><line class="cls-6" x1="131.85" y1="455.1" x2="167.87" y2="455.1"/><line class="cls-6" x1="131.85" y1="479.11" x2="131.85" y2="455.1"/><line class="cls-6" x1="167.87" y1="479.11" x2="131.85" y2="479.11"/><line class="cls-6" x1="167.87" y1="455.1" x2="167.87" y2="479.11"/><path class="cls-6" d="M167.87,464.95c0-2.49-1.07-4.85-2.94-6.5s-4.35-2.4-6.82-2.08"/><line class="cls-6" x1="167.87" y1="464.95" x2="167.87" y2="469.27"/><path class="cls-6" d="M167.87,469.27c0,2.49-1.07,4.85-2.94,6.5-1.87,1.64-4.35,2.4-6.82,2.08"/><path class="cls-6" d="M156.34,475.14c-2.63.04-5.76-.78-7.73-2.35-.98-.78-1.67-1.75-2.1-2.73-.42-.98-.58-1.97-.58-2.96,0-.99.16-1.98.58-2.96.42-.98,1.11-1.94,2.1-2.72.99-.79,2.28-1.4,3.61-1.79,1.34-.39,2.72-.56,4.11-.56s2.77.17,4.11.56c1.34.39,2.63,1,3.61,1.79.99.79,1.68,1.75,2.1,2.72.42.98.58,1.97.58,2.96s-.16,1.98-.58,2.96-1.12,1.95-2.1,2.73c-1.97,1.56-5.1,2.38-7.73,2.35Z"/><path class="cls-6" d="M152.66,468.36c1.32-.24,1.54-.74,1.54-1.25s-.21-1.01-1.54-1.25"/><path class="cls-6" d="M185.88,494.65c3.82,0,7.49,1.52,10.19,4.22,2.7,2.7,4.22,6.37,4.22,10.19s-1.52,7.49-4.22,10.19c-2.7,2.7-6.37,4.22-10.19,4.22"/><path class="cls-6" d="M146.08,511.96c-1.6,0-2.91-1.3-2.91-2.91s1.3-2.91,2.91-2.91,2.91,1.3,2.91,2.91-1.3,2.91-2.91,2.91Z"/><line class="cls-6" x1="131.85" y1="527.07" x2="131.85" y2="491.05"/><line class="cls-6" x1="131.85" y1="491.05" x2="203.89" y2="491.05"/><line class="cls-6" x1="203.89" y1="491.05" x2="203.89" y2="527.07"/><line class="cls-6" x1="203.89" y1="527.07" x2="131.85" y2="527.07"/><line class="cls-6" x1="185.88" y1="523.46" x2="135.45" y2="523.46"/><line class="cls-6" x1="135.45" y1="523.46" x2="135.45" y2="494.65"/><line class="cls-6" x1="135.45" y1="494.65" x2="185.88" y2="494.65"/><path class="cls-6" d="M146.08,507.65v2.81"/><path class="cls-6" d="M146.08,510.46h-10.63"/><line class="cls-6" x1="135.45" y1="510.46" x2="135.45" y2="507.65"/><path class="cls-6" d="M135.45,507.65h10.63"/><line class="cls-6" x1="225.97" y1="523.97" x2="225.97" y2="513.18"/><line class="cls-6" x1="228.28" y1="523.97" x2="225.97" y2="523.97"/><line class="cls-6" x1="228.28" y1="513.18" x2="228.28" y2="523.97"/><line class="cls-6" x1="225.97" y1="513.18" x2="228.28" y2="513.18"/><line class="cls-6" x1="212.72" y1="517.79" x2="212.72" y2="498.58"/><line class="cls-6" x1="241.53" y1="517.79" x2="212.72" y2="517.79"/><line class="cls-6" x1="241.53" y1="498.58" x2="241.53" y2="517.79"/><line class="cls-6" x1="212.72" y1="498.58" x2="241.53" y2="498.58"/><line class="cls-6" x1="211.52" y1="527.07" x2="211.52" y2="495.85"/><line class="cls-6" x1="242.73" y1="527.07" x2="211.52" y2="527.07"/><line class="cls-6" x1="242.73" y1="495.85" x2="242.73" y2="527.07"/><line class="cls-6" x1="211.52" y1="495.85" x2="242.73" y2="495.85"/><circle class="cls-6" cx="227.13" cy="513.18" r="2.38"/><rect class="cls-6" x="258.18" y="445.38" width="38.41" height="81.68"/><rect class="cls-6" x="131.85" y="445.38" width="119.12" height="81.68"/><line class="cls-6" x1="306.19" y1="488.65" x2="306.19" y2="527.07"/><line class="cls-6" x1="308.59" y1="488.65" x2="306.19" y2="488.65"/><line class="cls-6" x1="308.59" y1="527.07" x2="308.59" y2="488.65"/><line class="cls-6" x1="306.19" y1="527.07" x2="308.59" y2="527.07"/><path class="cls-6" d="M345.25,527.07c0-9.89-3.81-19.4-10.64-26.55-6.83-7.15-16.15-11.4-26.02-11.87"/><line class="cls-6" x1="345.25" y1="527.07" x2="308.59" y2="527.07"/><polyline class="cls-6" points="260.57 391.22 296.59 391.22 296.59 390.77 260.57 390.77"/><path class="cls-6" d="M260.58,394.96h36.01v-31.21h-36.01v31.21Z"/><path class="cls-6" d="M258.78,389.82h-32.42c0,4.27,0-2.93,0,1.34h32.42c0-4.27,0,2.93,0-1.34Z"/><path class="cls-6" d="M258.78,365.55h-32.42v25.61h32.42v-25.61Z"/><path class="cls-6" d="M260.58,363.75h-36.02v31.21h36.02v-31.21Z"/><path class="cls-6" d="M239.4,383.51c0-1.22-.48-2.38-1.34-3.24s-2.02-1.34-3.24-1.34-2.38.48-3.24,1.34c-.86.86-1.34,2.02-1.34,3.24s.48,2.38,1.34,3.24,2.02,1.34,3.24,1.34,2.38-.48,3.24-1.34,1.34-2.02,1.34-3.24Z"/><path class="cls-6" d="M254.9,383.51c0-1.22-.48-2.38-1.34-3.24s-2.02-1.34-3.24-1.34-2.38.48-3.24,1.34-1.34,2.02-1.34,3.24.48,2.38,1.34,3.24,2.02,1.34,3.24,1.34,2.38-.48,3.24-1.34,1.34-2.02,1.34-3.24Z"/><path class="cls-6" d="M260.58,363.75v31.21"/><path class="cls-6" d="M224.56,394.96v-31.21"/><path class="cls-6" d="M239.4,372.34c0-1.22-.48-2.38-1.34-3.24s-2.02-1.34-3.24-1.34-2.38.48-3.24,1.34c-.86.86-1.34,2.02-1.34,3.24s.48,2.38,1.34,3.24c.86.86,2.02,1.34,3.24,1.34s2.38-.48,3.24-1.34,1.34-2.02,1.34-3.24Z"/><path class="cls-6" d="M254.9,372.34c0-1.22-.48-2.38-1.34-3.24s-2.02-1.34-3.24-1.34-2.38.48-3.24,1.34-1.34,2.02-1.34,3.24.48,2.38,1.34,3.24,2.02,1.34,3.24,1.34,2.38-.48,3.24-1.34,1.34-2.02,1.34-3.24Z"/><rect class="cls-6" x="134.94" y="409.42" width="10.79" height="2.3"/><rect class="cls-6" x="141.13" y="396.16" width="19.21" height="28.81"/><path class="cls-6" d="M163.07,426.18h-31.21v-31.22h31.21v31.22Z"/><line class="cls-6" x1="131.85" y1="426.18" x2="163.07" y2="426.18"/><line class="cls-6" x1="158.87" y1="394.96" x2="159.33" y2="394.96"/><circle class="cls-6" cx="145.73" cy="410.57" r="2.38"/><rect class="cls-6" x="131.85" y="426.18" width="31.21" height="12.01"/><rect class="cls-6" x="131.85" y="363.75" width="92.71" height="31.21"/><rect class="cls-6" x="131.85" y="363.75" width="164.73" height="74.44"/><line class="cls-6" x1="212.56" y1="449.59" x2="212.56" y2="447.79"/><line class="cls-6" x1="250.97" y1="449.59" x2="212.56" y2="449.59"/><line class="cls-6" x1="250.97" y1="447.79" x2="250.97" y2="449.59"/><line class="cls-6" x1="212.56" y1="447.79" x2="250.97" y2="447.79"/><line class="cls-6" x1="250.97" y1="486.25" x2="250.97" y2="449.59"/><path class="cls-6" d="M250.97,486.25c-9.89,0-19.4-3.81-26.55-10.64s-11.4-16.15-11.87-26.02"/><line class="cls-6" x1="307.98" y1="380.55" x2="307.98" y2="342.14"/><line class="cls-6" x1="306.18" y1="380.55" x2="307.98" y2="380.55"/><line class="cls-6" x1="306.18" y1="342.14" x2="306.18" y2="380.55"/><path class="cls-6" d="M344.64,380.55c0-9.89-3.81-19.4-10.63-26.55-6.83-7.15-16.15-11.4-26.02-11.87"/><line class="cls-6" x1="306.18" y1="342.14" x2="307.98" y2="342.14"/><line class="cls-6" x1="344.64" y1="380.55" x2="307.98" y2="380.55"/><rect class="cls-6" x="354.05" y="372.15" width="126.1" height="15.61"/><rect class="cls-6" x="450.13" y="237.64" width="30.01" height="127.3"/><rect class="cls-6" x="345.59" y="237.64" width="72.03" height="96.05"/><rect class="cls-6" x="382.21" y="240.04" width="33.02" height="18.12"/><rect class="cls-6" x="347.99" y="240.04" width="33.02" height="18.12"/><line class="cls-6" x1="417.63" y1="260.36" x2="345.59" y2="260.36"/><rect class="cls-6" x="303.79" y="237.64" width="41.8" height="22.72"/><rect class="cls-6" x="124.65" y="363.75" width="7.2" height="74.44"/><rect class="cls-6" x="480.15" y="387.76" width="7.2" height="36.02"/><rect class="cls-6" x="480.15" y="491.05" width="7.2" height="36.02"/><path class="cls-6" d="M407.72,427.44v59.95"/><line class="cls-6" x1="443.74" y1="427.44" x2="407.72" y2="427.44"/><path class="cls-6" d="M407.72,487.38h36.02"/><path class="cls-6" d="M443.74,487.38v-59.95"/><line class="cls-6" x1="390.36" y1="497.38" x2="359.86" y2="497.38"/><line class="cls-6" x1="390.36" y1="505.43" x2="390.36" y2="497.38"/><line class="cls-6" x1="359.86" y1="505.43" x2="390.36" y2="505.43"/><line class="cls-6" x1="359.86" y1="497.38" x2="359.86" y2="505.43"/><line class="cls-6" x1="390.36" y1="409.39" x2="359.86" y2="409.39"/><line class="cls-6" x1="390.36" y1="417.45" x2="390.36" y2="409.39"/><line class="cls-6" x1="359.86" y1="417.45" x2="390.36" y2="417.45"/><line class="cls-6" x1="359.86" y1="409.39" x2="359.86" y2="417.45"/><line class="cls-6" x1="359.86" y1="409.39" x2="353.74" y2="409.39"/><line class="cls-6" x1="359.86" y1="505.43" x2="359.86" y2="409.39"/><line class="cls-6" x1="353.74" y1="505.43" x2="359.86" y2="505.43"/><line class="cls-6" x1="353.74" y1="409.39" x2="353.74" y2="505.43"/><line class="cls-6" x1="390.36" y1="505.43" x2="390.36" y2="409.39"/><line class="cls-6" x1="390.36" y1="457.41" x2="359.86" y2="457.41"/><rect class="cls-6" x="296.59" y="249" width="7.2" height="84.69"/><rect class="cls-6" x="352.45" y="527.07" width="127.69" height="7.2"/><rect class="cls-6" x="480.15" y="387.76" width="7.2" height="2.4"/><rect class="cls-6" x="480.15" y="421.37" width="7.2" height="2.4"/><rect class="cls-6" x="296.59" y="331.29" width="7.2" height="2.4"/><rect class="cls-6" x="131.85" y="527.07" width="2.4" height="7.2"/><rect class="cls-6" x="248.57" y="527.07" width="2.4" height="7.2"/><rect class="cls-6" x="296.59" y="307.9" width="7.2" height="2.4"/><rect class="cls-6" x="296.59" y="272.39" width="7.2" height="2.4"/><rect class="cls-6" x="296.59" y="249" width="7.2" height="2.4"/><rect class="cls-6" x="131.85" y="356.54" width="2.4" height="7.2"/><rect class="cls-6" x="211.11" y="356.54" width="2.4" height="7.2"/><rect class="cls-6" x="124.65" y="363.75" width="7.2" height="2.4"/><rect class="cls-6" x="124.65" y="435.78" width="7.2" height="2.4"/><rect class="cls-6" x="296.59" y="447.79" width="7.2" height="38.44"/></svg>