<?xml version="1.0" encoding="UTF-8"?><svg id="Layer_3" xmlns="http://www.w3.org/2000/svg" viewBox="0 0 612 792"><defs><style>.cls-1{letter-spacing:0em;}.cls-2{fill:none;stroke:#000;stroke-linecap:round;stroke-linejoin:round;stroke-width:.25px;}.cls-3{letter-spacing:-.03em;}.cls-4{font-family:MyriadPro-Regular, 'Myriad Pro';font-size:12px;}.cls-5{letter-spacing:0em;}</style></defs><text class="cls-4" transform="translate(45.06 41.97)"></text><path d="M104.53,601.83c.53-.11,1.28-.17,2-.17,1.12,0,1.83.2,2.34.66.41.36.64.91.64,1.54,0,1.07-.67,1.78-1.52,2.06v.04c.62.22,1,.79,1.19,1.63.26,1.13.46,1.91.62,2.22h-1.08c-.13-.23-.31-.92-.54-1.93-.24-1.12-.67-1.54-1.62-1.57h-.98v3.5h-1.04v-7.98ZM105.57,605.52h1.07c1.12,0,1.82-.61,1.82-1.54,0-1.04-.76-1.5-1.86-1.51-.5,0-.86.05-1.03.1v2.95Z"/><path d="M111.59,607.1c.02,1.43.94,2.02,1.99,2.02.76,0,1.21-.13,1.61-.3l.18.75c-.37.17-1.01.36-1.93.36-1.79,0-2.85-1.18-2.85-2.93s1.03-3.13,2.72-3.13c1.89,0,2.4,1.67,2.4,2.73,0,.22-.02.38-.04.49h-4.08ZM114.68,606.34c.01-.67-.28-1.72-1.46-1.72-1.07,0-1.54.98-1.62,1.72h3.08Z"/><path d="M117.12,609.81v-5h-.82v-.8h.82v-.28c0-.82.18-1.56.67-2.03.4-.38.92-.54,1.42-.54.37,0,.7.08.9.17l-.14.82c-.16-.07-.37-.13-.67-.13-.9,0-1.13.79-1.13,1.68v.31h1.4v.8h-1.4v5h-1.04Z"/><path d="M120.95,607.1c.02,1.43.94,2.02,1.99,2.02.76,0,1.21-.13,1.61-.3l.18.75c-.37.17-1.01.36-1.93.36-1.79,0-2.85-1.18-2.85-2.93s1.03-3.13,2.72-3.13c1.89,0,2.4,1.67,2.4,2.73,0,.22-.02.38-.04.49h-4.08ZM124.04,606.34c.01-.67-.28-1.72-1.46-1.72-1.07,0-1.54.98-1.62,1.72h3.08Z"/><path d="M126.37,605.81c0-.68-.01-1.27-.05-1.81h.92l.04,1.14h.05c.26-.78.9-1.27,1.61-1.27.12,0,.2.01.3.04v1c-.11-.02-.22-.04-.36-.04-.74,0-1.27.56-1.42,1.36-.02.14-.05.31-.05.49v3.09h-1.04v-3.99Z"/><path d="M130.76,607.1c.02,1.43.94,2.02,1.99,2.02.76,0,1.21-.13,1.61-.3l.18.75c-.37.17-1.01.36-1.93.36-1.79,0-2.85-1.18-2.85-2.93s1.03-3.13,2.72-3.13c1.89,0,2.4,1.67,2.4,2.73,0,.22-.02.38-.04.49h-4.08ZM133.86,606.34c.01-.67-.28-1.72-1.46-1.72-1.07,0-1.54.98-1.62,1.72h3.08Z"/><path d="M136.19,605.58c0-.6-.01-1.09-.05-1.57h.94l.06.96h.02c.29-.55.96-1.09,1.92-1.09.8,0,2.05.48,2.05,2.47v3.47h-1.05v-3.35c0-.94-.35-1.72-1.34-1.72-.7,0-1.24.49-1.42,1.08-.05.13-.07.31-.07.49v3.49h-1.05v-4.23Z"/><path d="M146.98,609.59c-.28.14-.89.34-1.67.34-1.75,0-2.89-1.19-2.89-2.96s1.22-3.08,3.12-3.08c.62,0,1.17.16,1.46.3l-.24.82c-.25-.14-.65-.28-1.22-.28-1.33,0-2.05.98-2.05,2.19,0,1.34.86,2.17,2.01,2.17.6,0,1-.16,1.29-.29l.18.79Z"/><path d="M148.74,607.1c.02,1.43.94,2.02,1.99,2.02.76,0,1.21-.13,1.61-.3l.18.75c-.37.17-1.01.36-1.93.36-1.79,0-2.85-1.18-2.85-2.93s1.03-3.13,2.72-3.13c1.89,0,2.4,1.67,2.4,2.73,0,.22-.02.38-.04.49h-4.08ZM151.83,606.34c.01-.67-.28-1.72-1.46-1.72-1.07,0-1.54.98-1.62,1.72h3.08Z"/><path d="M154.02,608.73c.31.2.86.42,1.39.42.77,0,1.13-.38,1.13-.86s-.3-.78-1.08-1.07c-1.04-.37-1.54-.95-1.54-1.64,0-.94.76-1.7,2-1.7.59,0,1.1.17,1.43.36l-.26.77c-.23-.14-.65-.34-1.19-.34-.62,0-.97.36-.97.79,0,.48.35.7,1.1.98,1.01.38,1.52.89,1.52,1.75,0,1.02-.79,1.74-2.17,1.74-.64,0-1.22-.16-1.63-.4l.26-.8Z"/><path d="M158.66,604.96c0-.44.3-.75.72-.75s.7.31.71.75c0,.42-.28.74-.72.74-.42,0-.71-.32-.71-.74ZM158.66,609.2c0-.44.3-.76.72-.76s.7.31.71.76c0,.42-.28.74-.72.74-.42,0-.71-.32-.71-.74Z"/><path d="M106.94,620.58v.78h-2.96v-.78h2.96Z"/><path d="M128.68,623.85c-.47.17-1.39.44-2.48.44-1.22,0-2.23-.31-3.02-1.07-.7-.67-1.13-1.75-1.13-3.01.01-2.41,1.67-4.17,4.38-4.17.94,0,1.67.2,2.01.37l-.25.85c-.43-.19-.97-.35-1.79-.35-1.97,0-3.25,1.22-3.25,3.25s1.24,3.26,3.12,3.26c.68,0,1.15-.1,1.39-.22v-2.41h-1.64v-.84h2.66v3.89Z"/><path d="M130.25,620.22c0-.68-.01-1.27-.05-1.81h.92l.04,1.14h.05c.26-.78.9-1.27,1.61-1.27.12,0,.2.01.3.04v1c-.11-.02-.22-.04-.36-.04-.74,0-1.27.56-1.42,1.36-.02.14-.05.31-.05.49v3.09h-1.04v-3.99Z"/><path d="M139.3,621.26c0,2.15-1.49,3.08-2.89,3.08-1.57,0-2.78-1.15-2.78-2.99,0-1.94,1.27-3.08,2.88-3.08s2.79,1.21,2.79,2.99ZM134.7,621.32c0,1.27.73,2.23,1.76,2.23s1.76-.95,1.76-2.25c0-.98-.49-2.23-1.74-2.23s-1.79,1.15-1.79,2.25Z"/><path d="M140.64,620.3c0-.74-.02-1.34-.05-1.89h.95l.05,1h.02c.43-.71,1.12-1.13,2.06-1.13,1.4,0,2.46,1.19,2.46,2.95,0,2.09-1.27,3.12-2.64,3.12-.77,0-1.44-.34-1.79-.91h-.02v3.15h-1.04v-6.29ZM141.68,621.85c0,.16.02.3.05.43.19.73.83,1.24,1.58,1.24,1.12,0,1.76-.91,1.76-2.24,0-1.16-.61-2.16-1.73-2.16-.72,0-1.39.52-1.59,1.31-.04.13-.07.29-.07.43v1Z"/><path d="M148.64,616.77c.01.36-.25.65-.67.65-.37,0-.64-.29-.64-.65s.28-.66.66-.66.65.29.65.66ZM147.47,624.21v-5.8h1.05v5.8h-1.05Z"/><path d="M155.13,622.63c0,.6.01,1.13.05,1.58h-.94l-.06-.95h-.02c-.28.47-.89,1.08-1.92,1.08-.91,0-2-.5-2-2.54v-3.39h1.05v3.21c0,1.1.34,1.85,1.3,1.85.71,0,1.2-.49,1.39-.96.06-.16.1-.35.1-.54v-3.56h1.05v4.22Z"/><path d="M156.74,623.13c.31.2.86.42,1.39.42.77,0,1.13-.38,1.13-.86s-.3-.78-1.08-1.07c-1.04-.37-1.54-.95-1.54-1.64,0-.94.76-1.7,2-1.7.59,0,1.1.17,1.43.36l-.26.77c-.23-.14-.65-.34-1.19-.34-.62,0-.97.36-.97.79,0,.48.35.7,1.1.98,1.01.38,1.52.89,1.52,1.75,0,1.02-.79,1.74-2.17,1.74-.64,0-1.22-.16-1.63-.4l.26-.8Z"/><path d="M165.26,616.13v3.38h3.91v-3.38h1.05v8.08h-1.05v-3.79h-3.91v3.79h-1.04v-8.08h1.04Z"/><path d="M177.26,621.26c0,2.15-1.49,3.08-2.89,3.08-1.57,0-2.78-1.15-2.78-2.99,0-1.94,1.27-3.08,2.88-3.08s2.79,1.21,2.79,2.99ZM172.65,621.32c0,1.27.73,2.23,1.76,2.23s1.76-.95,1.76-2.25c0-.98-.49-2.23-1.74-2.23s-1.79,1.15-1.79,2.25Z"/><path d="M183.45,622.63c0,.6.01,1.13.05,1.58h-.94l-.06-.95h-.02c-.28.47-.89,1.08-1.92,1.08-.91,0-2-.5-2-2.54v-3.39h1.05v3.21c0,1.1.34,1.85,1.3,1.85.71,0,1.2-.49,1.39-.96.06-.16.1-.35.1-.54v-3.56h1.05v4.22Z"/><path d="M185.06,623.13c.31.2.86.42,1.39.42.77,0,1.13-.38,1.13-.86s-.3-.78-1.08-1.07c-1.04-.37-1.54-.95-1.54-1.64,0-.94.76-1.7,2-1.7.59,0,1.1.17,1.43.36l-.26.77c-.23-.14-.65-.34-1.19-.34-.62,0-.97.36-.97.79,0,.48.35.7,1.1.98,1.01.38,1.52.89,1.52,1.75,0,1.02-.79,1.74-2.17,1.74-.64,0-1.22-.16-1.63-.4l.26-.8Z"/><path d="M190.54,621.5c.02,1.43.94,2.02,1.99,2.02.76,0,1.21-.13,1.61-.3l.18.75c-.37.17-1.01.36-1.93.36-1.79,0-2.85-1.18-2.85-2.93s1.03-3.13,2.72-3.13c1.89,0,2.4,1.67,2.4,2.73,0,.22-.02.38-.04.49h-4.08ZM193.64,620.74c.01-.67-.28-1.72-1.46-1.72-1.07,0-1.54.98-1.62,1.72h3.08Z"/><line class="cls-2" x1="308.96" y1="523.49" x2="307.27" y2="524.47"/><line class="cls-2" x1="310.66" y1="524.47" x2="308.96" y2="525.45"/><line class="cls-2" x1="271.12" y1="549.26" x2="271.12" y2="548.28"/><line class="cls-2" x1="269.42" y1="547.3" x2="269.42" y2="548.28"/><line class="cls-2" x1="301.11" y1="528.02" x2="301.08" y2="528.04"/><line class="cls-2" x1="301.12" y1="529.97" x2="301.08" y2="530"/><line class="cls-2" x1="253.12" y1="524.16" x2="253.12" y2="525.14"/><line class="cls-2" x1="254.82" y1="526.12" x2="254.82" y2="525.14"/><line class="cls-2" x1="261.27" y1="535.73" x2="261.27" y2="536.71"/><line class="cls-2" x1="262.97" y1="537.69" x2="262.97" y2="536.71"/><line class="cls-2" x1="300.81" y1="511.92" x2="299.12" y2="512.9"/><line class="cls-2" x1="301.11" y1="513.71" x2="300.81" y2="513.88"/><line class="cls-2" x1="292.66" y1="500.35" x2="290.97" y2="501.33"/><line class="cls-2" x1="256.13" y1="433.19" x2="256.13" y2="441.77"/><line class="cls-2" x1="255.28" y1="442.26" x2="255.28" y2="431.72"/><line class="cls-2" x1="283.73" y1="468.24" x2="291.23" y2="472.57"/><line class="cls-2" x1="291.23" y1="463.99" x2="283.73" y2="459.66"/><path class="cls-2" d="M239.37,431.3c-.32.19-.71.08-1-.07-.31-.16-.58-.41-.79-.68"/><line class="cls-2" x1="311.33" y1="465.06" x2="311.33" y2="473.63"/><line class="cls-2" x1="311.33" y1="473.63" x2="318.83" y2="477.96"/><line class="cls-2" x1="318.83" y1="469.39" x2="311.33" y2="465.06"/><line class="cls-2" x1="319.68" y1="479.43" x2="319.68" y2="468.9"/><line class="cls-2" x1="311.33" y1="494.71" x2="318.83" y2="499.04"/><line class="cls-2" x1="310.48" y1="495.2" x2="319.68" y2="500.51"/><line class="cls-2" x1="319.68" y1="500.51" x2="319.68" y2="489.97"/><line class="cls-2" x1="310.48" y1="484.66" x2="319.68" y2="489.97"/><line class="cls-2" x1="310.48" y1="495.2" x2="310.48" y2="484.66"/><line class="cls-2" x1="328.03" y1="506.31" x2="320.53" y2="501.98"/><line class="cls-2" x1="319.68" y1="511.05" x2="328.88" y2="516.36"/><line class="cls-2" x1="310.48" y1="505.74" x2="319.68" y2="511.05"/><line class="cls-2" x1="287.74" y1="496.53" x2="301.08" y2="504.23"/><line class="cls-2" x1="558.01" y1="404.49" x2="558.01" y2="400.57"/><line class="cls-2" x1="48.86" y1="402.31" x2="48.86" y2="398.39"/><line class="cls-2" x1="344.02" y1="523.14" x2="351.52" y2="518.81"/><line class="cls-2" x1="353.22" y1="517.83" x2="360.72" y2="513.5"/><line class="cls-2" x1="362.42" y1="493.4" x2="362.42" y2="501.98"/><line class="cls-2" x1="362.42" y1="501.98" x2="369.92" y2="497.65"/><line class="cls-2" x1="360.72" y1="492.42" x2="360.72" y2="483.84"/><line class="cls-2" x1="353.22" y1="488.18" x2="353.22" y2="496.75"/><line class="cls-2" x1="353.22" y1="496.75" x2="360.72" y2="492.42"/><line class="cls-2" x1="352.37" y1="498.22" x2="361.57" y2="492.91"/><line class="cls-2" x1="361.57" y1="492.91" x2="361.57" y2="482.37"/><line class="cls-2" x1="352.37" y1="487.69" x2="361.57" y2="482.37"/><line class="cls-2" x1="352.37" y1="498.22" x2="352.37" y2="487.69"/><line class="cls-2" x1="360.72" y1="502.96" x2="360.72" y2="494.38"/><line class="cls-2" x1="360.72" y1="494.38" x2="353.22" y2="498.71"/><line class="cls-2" x1="361.57" y1="503.45" x2="361.57" y2="492.91"/><line class="cls-2" x1="329.73" y1="454.6" x2="329.73" y2="463.18"/><line class="cls-2" x1="337.23" y1="458.93" x2="329.73" y2="454.6"/><line class="cls-2" x1="319.68" y1="447.82" x2="328.88" y2="453.13"/><line class="cls-2" x1="272.83" y1="430.33" x2="272.83" y2="425.75"/><line class="cls-2" x1="265.33" y1="426" x2="272.83" y2="430.33"/><line class="cls-2" x1="309.63" y1="451.58" x2="309.63" y2="443"/><line class="cls-2" x1="311.33" y1="443.98" x2="311.33" y2="452.56"/><line class="cls-2" x1="311.33" y1="452.56" x2="318.83" y2="456.89"/><line class="cls-2" x1="320.53" y1="449.29" x2="320.53" y2="457.87"/><line class="cls-2" x1="328.03" y1="453.62" x2="320.53" y2="449.29"/><line class="cls-2" x1="301.08" y1="570.48" x2="302.78" y2="571.46"/><line class="cls-2" x1="302.78" y1="571.46" x2="306.18" y2="569.5"/><line class="cls-2" x1="104.49" y1="456.97" x2="106.19" y2="457.95"/><line class="cls-2" x1="106.19" y1="457.95" x2="109.58" y2="455.99"/><line class="cls-2" x1="70.8" y1="437.52" x2="72.49" y2="438.5"/><line class="cls-2" x1="72.49" y1="438.5" x2="75.89" y2="436.54"/><line class="cls-2" x1="43.76" y1="292.52" x2="43.76" y2="288.6"/><line class="cls-2" x1="563.1" y1="294.7" x2="563.1" y2="290.78"/><line class="cls-2" x1="563.1" y1="290.78" x2="423.12" y2="209.96"/><line class="cls-2" x1="423.12" y1="209.96" x2="333.95" y2="261.44"/><line class="cls-2" x1="333.95" y1="261.44" x2="212.37" y2="191.25"/><line class="cls-2" x1="212.37" y1="191.25" x2="43.76" y2="288.6"/><line class="cls-2" x1="554.61" y1="451.55" x2="544.43" y2="457.43"/><line class="cls-2" x1="544.43" y1="457.43" x2="541.03" y2="455.47"/><line class="cls-2" x1="337.23" y1="478.05" x2="337.23" y2="469.47"/><line class="cls-2" x1="329.73" y1="473.72" x2="337.23" y2="478.05"/><line class="cls-2" x1="328.88" y1="474.21" x2="338.08" y2="479.52"/><line class="cls-2" x1="338.08" y1="479.52" x2="338.08" y2="468.98"/><line class="cls-2" x1="104.49" y1="456.97" x2="104.49" y2="434.43"/><line class="cls-2" x1="109.58" y1="455.99" x2="109.58" y2="437.33"/><line class="cls-2" x1="420.02" y1="479.26" x2="445.92" y2="464.31"/><line class="cls-2" x1="445.92" y1="422.16" x2="445.92" y2="381.96"/><line class="cls-2" x1="266.2" y1="544.45" x2="266.2" y2="545.43"/><line class="cls-2" x1="312.19" y1="527.31" x2="312.19" y2="528.29"/><line class="cls-2" x1="274.35" y1="549.16" x2="274.35" y2="550.14"/><line class="cls-2" x1="70.8" y1="437.52" x2="70.8" y2="414.97"/><line class="cls-2" x1="75.89" y1="436.54" x2="75.89" y2="417.91"/><line class="cls-2" x1="306.22" y1="507.2" x2="343.17" y2="528.53"/><line class="cls-2" x1="70.82" y1="385.71" x2="58.21" y2="392.99"/><line class="cls-2" x1="343.17" y1="528.53" x2="343.17" y2="524.61"/><line class="cls-2" x1="287.74" y1="496.53" x2="287.74" y2="493.65"/><line class="cls-2" x1="69.25" y1="414.06" x2="58.24" y2="420.42"/><line class="cls-2" x1="360.72" y1="462.77" x2="353.22" y2="467.1"/><line class="cls-2" x1="352.37" y1="456.07" x2="361.57" y2="450.76"/><line class="cls-2" x1="352.37" y1="445.53" x2="361.57" y2="440.22"/><line class="cls-2" x1="338.08" y1="521.67" x2="343.17" y2="524.61"/><line class="cls-2" x1="318.83" y1="499.04" x2="318.83" y2="490.46"/><line class="cls-2" x1="311.33" y1="486.13" x2="311.33" y2="494.71"/><line class="cls-2" x1="318.83" y1="490.46" x2="311.33" y2="486.13"/><line class="cls-2" x1="292.93" y1="454.43" x2="292.93" y2="463.01"/><line class="cls-2" x1="292.93" y1="463.01" x2="300.43" y2="467.34"/><line class="cls-2" x1="300.43" y1="458.76" x2="292.93" y2="454.43"/><line class="cls-2" x1="292.08" y1="452.96" x2="301.08" y2="458.16"/><line class="cls-2" x1="292.08" y1="463.5" x2="292.08" y2="452.96"/><line class="cls-2" x1="282.88" y1="458.19" x2="292.08" y2="463.5"/><line class="cls-2" x1="139.03" y1="476.91" x2="140.73" y2="477.89"/><line class="cls-2" x1="140.73" y1="477.89" x2="144.12" y2="475.93"/><line class="cls-2" x1="53.1" y1="427.3" x2="54.8" y2="428.28"/><line class="cls-2" x1="54.8" y1="428.28" x2="58.19" y2="426.32"/><line class="cls-2" x1="244.97" y1="512.59" x2="244.97" y2="514.56"/><line class="cls-2" x1="246.67" y1="515.54" x2="244.97" y2="514.56"/><line class="cls-2" x1="246.67" y1="515.54" x2="246.67" y2="513.57"/><line class="cls-2" x1="212.37" y1="493.77" x2="212.37" y2="495.73"/><line class="cls-2" x1="214.07" y1="494.75" x2="212.37" y2="493.77"/><line class="cls-2" x1="214.07" y1="496.71" x2="212.37" y2="495.73"/><line class="cls-2" x1="309.63" y1="462.11" x2="309.63" y2="453.54"/><line class="cls-2" x1="309.63" y1="453.54" x2="306.18" y2="451.55"/><line class="cls-2" x1="318.83" y1="458.85" x2="311.33" y2="454.52"/><line class="cls-2" x1="328.03" y1="464.16" x2="320.53" y2="459.83"/><line class="cls-2" x1="139.03" y1="476.91" x2="139.03" y2="454.37"/><line class="cls-2" x1="144.12" y1="475.93" x2="144.12" y2="457.41"/><line class="cls-2" x1="318.83" y1="488.5" x2="318.83" y2="479.92"/><line class="cls-2" x1="291.23" y1="462.03" x2="291.23" y2="453.45"/><line class="cls-2" x1="283.73" y1="457.7" x2="291.23" y2="462.03"/><line class="cls-2" x1="318.83" y1="477.96" x2="318.83" y2="469.39"/><line class="cls-2" x1="265.33" y1="427.96" x2="265.33" y2="436.54"/><line class="cls-2" x1="272.83" y1="432.29" x2="265.33" y2="427.96"/><line class="cls-2" x1="337.23" y1="480.01" x2="329.73" y2="475.68"/><line class="cls-2" x1="86.7" y1="376.54" x2="86.7" y2="318.29"/><line class="cls-2" x1="558.01" y1="400.57" x2="558.01" y2="297.65"/><line class="cls-2" x1="242.25" y1="427.12" x2="242.69" y2="427.37"/><line class="cls-2" x1="328.88" y1="432.06" x2="338.08" y2="437.37"/><line class="cls-2" x1="370.77" y1="508.68" x2="419.17" y2="480.73"/><line class="cls-2" x1="370.77" y1="498.14" x2="370.77" y2="487.6"/><line class="cls-2" x1="370.77" y1="487.6" x2="370.77" y2="477.06"/><line class="cls-2" x1="370.77" y1="466.53" x2="370.77" y2="455.99"/><line class="cls-2" x1="446.77" y1="391.03" x2="446.77" y2="380.49"/><line class="cls-2" x1="446.77" y1="422.65" x2="446.77" y2="412.11"/><line class="cls-2" x1="445.1" y1="381.46" x2="446.77" y2="380.49"/><line class="cls-2" x1="338.87" y1="511.59" x2="338.91" y2="511.61"/><line class="cls-2" x1="286.21" y1="497.61" x2="286.21" y2="497.4"/><line class="cls-2" x1="446.77" y1="391.03" x2="446.77" y2="412.11"/><line class="cls-2" x1="445.1" y1="381.46" x2="419.17" y2="396.43"/><line class="cls-2" x1="53.16" y1="395.9" x2="48.86" y2="398.39"/><line class="cls-2" x1="86.65" y1="376.57" x2="75.93" y2="382.76"/><line class="cls-2" x1="276.19" y1="503.2" x2="277.39" y2="502.7"/><line class="cls-2" x1="306.19" y1="460.13" x2="309.63" y2="462.11"/><line class="cls-2" x1="216.34" y1="449.92" x2="215.07" y2="450.65"/><path class="cls-2" d="M237.58,430.55c-.34-.41-.6-.93-.71-1.45-.06-.26-.08-.54-.03-.81.05-.26.17-.53.42-.67"/><path class="cls-2" d="M237.28,427.6c.42-.21.92.02,1.24.26.35.26.65.63.86,1,.21.38.38.82.42,1.25.02.22.01.45-.05.66-.06.21-.18.41-.38.52"/><line class="cls-2" x1="255.28" y1="421.18" x2="255.28" y2="415.62"/><line class="cls-2" x1="420.02" y1="396.92" x2="445.92" y2="381.96"/><line class="cls-2" x1="351.52" y1="510.23" x2="344.02" y2="514.56"/><line class="cls-2" x1="328.03" y1="504.35" x2="328.03" y2="495.77"/><line class="cls-2" x1="320.53" y1="500.02" x2="328.03" y2="504.35"/><line class="cls-2" x1="328.03" y1="495.77" x2="320.53" y2="491.44"/><line class="cls-2" x1="300.43" y1="469.3" x2="292.93" y2="464.97"/><line class="cls-2" x1="309.63" y1="464.07" x2="306.2" y2="462.1"/><line class="cls-2" x1="300.43" y1="467.34" x2="300.43" y2="458.76"/><line class="cls-2" x1="320.53" y1="510.56" x2="328.03" y2="514.89"/><line class="cls-2" x1="309.63" y1="495.69" x2="306.18" y2="493.69"/><line class="cls-2" x1="300.43" y1="488.42" x2="300.43" y2="479.84"/><line class="cls-2" x1="292.93" y1="475.51" x2="292.93" y2="484.09"/><line class="cls-2" x1="292.93" y1="484.09" x2="300.43" y2="488.42"/><line class="cls-2" x1="300.43" y1="479.84" x2="292.93" y2="475.51"/><line class="cls-2" x1="291.23" y1="483.11" x2="291.23" y2="474.53"/><line class="cls-2" x1="283.73" y1="470.2" x2="283.73" y2="478.77"/><line class="cls-2" x1="283.73" y1="478.77" x2="291.23" y2="483.11"/><line class="cls-2" x1="291.23" y1="474.53" x2="283.73" y2="470.2"/><line class="cls-2" x1="282.88" y1="468.73" x2="292.08" y2="474.04"/><line class="cls-2" x1="282.88" y1="479.27" x2="282.88" y2="468.73"/><line class="cls-2" x1="272.83" y1="472.48" x2="272.83" y2="463.91"/><line class="cls-2" x1="265.33" y1="459.58" x2="265.33" y2="468.15"/><line class="cls-2" x1="265.33" y1="468.15" x2="272.83" y2="472.48"/><line class="cls-2" x1="272.83" y1="463.91" x2="265.33" y2="459.58"/><line class="cls-2" x1="264.48" y1="468.64" x2="264.48" y2="458.1"/><line class="cls-2" x1="263.63" y1="467.17" x2="263.63" y2="458.59"/><line class="cls-2" x1="329.73" y1="515.87" x2="337.23" y2="520.2"/><line class="cls-2" x1="337.23" y1="511.62" x2="329.73" y2="507.29"/><line class="cls-2" x1="328.88" y1="516.36" x2="338.08" y2="521.67"/><line class="cls-2" x1="328.88" y1="505.82" x2="338.08" y2="511.13"/><line class="cls-2" x1="309.63" y1="493.73" x2="309.63" y2="485.15"/><line class="cls-2" x1="292.08" y1="474.04" x2="301.08" y2="479.23"/><line class="cls-2" x1="292.08" y1="484.58" x2="292.08" y2="474.04"/><line class="cls-2" x1="337.23" y1="509.66" x2="337.23" y2="501.08"/><line class="cls-2" x1="329.73" y1="496.75" x2="329.73" y2="505.33"/><line class="cls-2" x1="329.73" y1="505.33" x2="337.23" y2="509.66"/><line class="cls-2" x1="337.23" y1="501.08" x2="329.73" y2="496.75"/><line class="cls-2" x1="328.88" y1="495.28" x2="338.08" y2="500.59"/><line class="cls-2" x1="282.03" y1="477.79" x2="282.03" y2="469.22"/><line class="cls-2" x1="273.68" y1="473.95" x2="282.88" y2="479.27"/><line class="cls-2" x1="273.68" y1="463.42" x2="282.88" y2="468.73"/><line class="cls-2" x1="273.68" y1="473.95" x2="273.68" y2="463.42"/><line class="cls-2" x1="353.22" y1="444.06" x2="360.72" y2="439.73"/><line class="cls-2" x1="369.92" y1="444.96" x2="369.92" y2="436.38"/><line class="cls-2" x1="360.72" y1="471.35" x2="360.72" y2="462.77"/><line class="cls-2" x1="353.22" y1="467.1" x2="353.22" y2="475.68"/><line class="cls-2" x1="353.22" y1="475.68" x2="360.72" y2="471.35"/><line class="cls-2" x1="352.37" y1="477.15" x2="361.57" y2="471.84"/><line class="cls-2" x1="352.37" y1="466.61" x2="361.57" y2="461.3"/><line class="cls-2" x1="352.37" y1="477.15" x2="352.37" y2="466.61"/><line class="cls-2" x1="369.92" y1="466.04" x2="369.92" y2="457.46"/><line class="cls-2" x1="369.92" y1="457.46" x2="362.42" y2="461.79"/><line class="cls-2" x1="361.57" y1="471.84" x2="361.57" y2="461.3"/><line class="cls-2" x1="265.33" y1="478.69" x2="272.83" y2="483.02"/><line class="cls-2" x1="272.83" y1="474.44" x2="265.33" y2="470.11"/><line class="cls-2" x1="274.53" y1="464.89" x2="274.53" y2="473.46"/><line class="cls-2" x1="274.53" y1="473.46" x2="282.03" y2="477.79"/><line class="cls-2" x1="282.03" y1="469.22" x2="274.53" y2="464.89"/><line class="cls-2" x1="311.33" y1="505.25" x2="318.83" y2="509.58"/><line class="cls-2" x1="318.83" y1="501" x2="311.33" y2="496.67"/><line class="cls-2" x1="292.93" y1="494.62" x2="300.43" y2="498.95"/><line class="cls-2" x1="300.43" y1="490.38" x2="292.93" y2="486.05"/><line class="cls-2" x1="274.53" y1="462.93" x2="282.03" y2="467.26"/><line class="cls-2" x1="309.63" y1="485.15" x2="306.18" y2="483.16"/><line class="cls-2" x1="318.83" y1="446.35" x2="318.83" y2="437.77"/><line class="cls-2" x1="311.33" y1="442.02" x2="318.83" y2="446.35"/><line class="cls-2" x1="328.03" y1="451.66" x2="328.03" y2="443.08"/><line class="cls-2" x1="320.53" y1="438.75" x2="320.53" y2="447.33"/><line class="cls-2" x1="328.03" y1="443.08" x2="320.53" y2="438.75"/><line class="cls-2" x1="328.03" y1="441.12" x2="328.03" y2="432.55"/><line class="cls-2" x1="320.53" y1="436.79" x2="328.03" y2="441.12"/><line class="cls-2" x1="337.23" y1="448.39" x2="329.73" y2="444.06"/><line class="cls-2" x1="256.13" y1="454.26" x2="256.13" y2="462.84"/><line class="cls-2" x1="264.48" y1="479.18" x2="273.68" y2="484.49"/><line class="cls-2" x1="264.48" y1="468.64" x2="273.68" y2="473.95"/><line class="cls-2" x1="274.53" y1="484" x2="282.03" y2="488.33"/><line class="cls-2" x1="282.03" y1="479.76" x2="274.53" y2="475.42"/><line class="cls-2" x1="283.73" y1="489.31" x2="291.23" y2="493.64"/><line class="cls-2" x1="291.23" y1="485.07" x2="283.73" y2="480.74"/><line class="cls-2" x1="282.88" y1="479.27" x2="292.08" y2="484.58"/><line class="cls-2" x1="256.13" y1="473.38" x2="263.63" y2="477.71"/><line class="cls-2" x1="255.28" y1="473.87" x2="264.48" y2="479.18"/><line class="cls-2" x1="362.42" y1="480.9" x2="369.92" y2="476.57"/><line class="cls-2" x1="361.57" y1="471.84" x2="370.77" y2="466.53"/><line class="cls-2" x1="360.72" y1="473.31" x2="353.22" y2="477.64"/><line class="cls-2" x1="362.42" y1="461.79" x2="362.42" y2="470.37"/><line class="cls-2" x1="362.42" y1="470.37" x2="369.92" y2="466.04"/><line class="cls-2" x1="353.22" y1="456.56" x2="353.22" y2="465.14"/><line class="cls-2" x1="353.22" y1="465.14" x2="360.72" y2="460.81"/><line class="cls-2" x1="360.72" y1="452.23" x2="353.22" y2="456.56"/><line class="cls-2" x1="262.97" y1="537.69" x2="261.27" y2="536.71"/><line class="cls-2" x1="294.36" y1="501.33" x2="292.66" y2="500.35"/><line class="cls-2" x1="254.82" y1="524.16" x2="253.12" y2="523.18"/><line class="cls-2" x1="254.82" y1="526.12" x2="253.12" y2="525.14"/><line class="cls-2" x1="344.02" y1="449.38" x2="346.47" y2="447.96"/><line class="cls-2" x1="338.08" y1="447.9" x2="338.08" y2="437.37"/><line class="cls-2" x1="343.17" y1="450.85" x2="346.48" y2="448.94"/><line class="cls-2" x1="338.87" y1="448.36" x2="343.17" y2="450.85"/><line class="cls-2" x1="344.02" y1="445.45" x2="344.02" y2="449.38"/><line class="cls-2" x1="346.48" y1="448.94" x2="352.37" y2="445.53"/><line class="cls-2" x1="346.47" y1="447.96" x2="351.52" y2="445.04"/><line class="cls-2" x1="351.52" y1="436.47" x2="344.02" y2="440.8"/><line class="cls-2" x1="329.73" y1="433.53" x2="329.73" y2="442.1"/><line class="cls-2" x1="337.23" y1="437.86" x2="329.73" y2="433.53"/><line class="cls-2" x1="319.68" y1="447.82" x2="319.68" y2="437.28"/><line class="cls-2" x1="353.36" y1="544.22" x2="343.17" y2="550.1"/><line class="cls-2" x1="353.36" y1="567.74" x2="343.17" y2="573.62"/><line class="cls-2" x1="343.17" y1="550.1" x2="332.98" y2="544.22"/><line class="cls-2" x1="343.17" y1="573.62" x2="339.77" y2="571.66"/><line class="cls-2" x1="329.73" y1="444.06" x2="329.73" y2="452.64"/><line class="cls-2" x1="328.88" y1="453.13" x2="328.88" y2="442.59"/><line class="cls-2" x1="320.53" y1="447.33" x2="328.03" y2="451.66"/><line class="cls-2" x1="319.68" y1="437.28" x2="328.88" y2="442.59"/><line class="cls-2" x1="328.88" y1="442.59" x2="328.88" y2="432.06"/><line class="cls-2" x1="465.45" y1="503.03" x2="455.26" y2="508.91"/><line class="cls-2" x1="455.26" y1="508.91" x2="451.86" y2="506.95"/><line class="cls-2" x1="241.75" y1="509.75" x2="241.75" y2="510.73"/><line class="cls-2" x1="287.74" y1="492.61" x2="287.74" y2="493.59"/><line class="cls-2" x1="272.83" y1="453.37" x2="265.33" y2="449.04"/><line class="cls-2" x1="310.48" y1="442.51" x2="310.48" y2="441.54"/><line class="cls-2" x1="319.68" y1="437.28" x2="319.68" y2="436.2"/><line class="cls-2" x1="318.83" y1="435.81" x2="318.83" y2="435.74"/><line class="cls-2" x1="296.6" y1="523.21" x2="299.8" y2="525.05"/><line class="cls-2" x1="306.21" y1="470.68" x2="309.63" y2="472.65"/><line class="cls-2" x1="306.18" y1="491.73" x2="309.63" y2="493.73"/><line class="cls-2" x1="306.18" y1="502.27" x2="309.63" y2="504.27"/><line class="cls-2" x1="306.18" y1="503.25" x2="310.48" y2="505.74"/><line class="cls-2" x1="306.18" y1="492.71" x2="310.48" y2="495.2"/><line class="cls-2" x1="301.12" y1="512.09" x2="300.81" y2="511.92"/><line class="cls-2" x1="308.79" y1="441.53" x2="309.64" y2="442.03"/><line class="cls-2" x1="274.53" y1="443.81" x2="274.53" y2="452.39"/><line class="cls-2" x1="282.03" y1="448.14" x2="274.53" y2="443.81"/><line class="cls-2" x1="273.68" y1="452.88" x2="282.88" y2="458.19"/><line class="cls-2" x1="263.63" y1="446.1" x2="263.63" y2="437.52"/><line class="cls-2" x1="255.28" y1="442.26" x2="264.48" y2="447.57"/><line class="cls-2" x1="264.48" y1="447.57" x2="264.48" y2="437.03"/><line class="cls-2" x1="216.34" y1="449.92" x2="242.69" y2="465.13"/><line class="cls-2" x1="282.03" y1="458.68" x2="274.53" y2="454.35"/><line class="cls-2" x1="263.63" y1="456.63" x2="263.63" y2="448.06"/><line class="cls-2" x1="256.13" y1="443.73" x2="256.13" y2="452.3"/><line class="cls-2" x1="256.13" y1="452.3" x2="263.63" y2="456.63"/><line class="cls-2" x1="263.63" y1="448.06" x2="256.13" y2="443.73"/><line class="cls-2" x1="255.28" y1="452.79" x2="264.48" y2="458.1"/><line class="cls-2" x1="255.28" y1="452.79" x2="255.28" y2="442.26"/><line class="cls-2" x1="337.23" y1="467.51" x2="337.23" y2="458.93"/><line class="cls-2" x1="329.73" y1="463.18" x2="337.23" y2="467.51"/><line class="cls-2" x1="274.53" y1="431.31" x2="282.03" y2="435.64"/><line class="cls-2" x1="292.93" y1="436.35" x2="292.93" y2="436.36"/><line class="cls-2" x1="283.73" y1="436.62" x2="291.23" y2="440.95"/><line class="cls-2" x1="72.49" y1="438.5" x2="72.49" y2="415.95"/><line class="cls-2" x1="329.73" y1="465.14" x2="329.73" y2="473.72"/><line class="cls-2" x1="328.88" y1="463.67" x2="338.08" y2="468.98"/><line class="cls-2" x1="445.92" y1="464.31" x2="445.92" y2="424.12"/><line class="cls-2" x1="420.02" y1="439.07" x2="445.92" y2="424.12"/><line class="cls-2" x1="420.02" y1="437.11" x2="420.02" y2="396.92"/><line class="cls-2" x1="420.46" y1="436.86" x2="445.92" y2="422.16"/><line class="cls-2" x1="269.1" y1="507.33" x2="271.61" y2="508.78"/><line class="cls-2" x1="281.99" y1="514.77" x2="285.7" y2="516.92"/><line class="cls-2" x1="352.37" y1="456.07" x2="352.37" y2="445.53"/><line class="cls-2" x1="282.88" y1="458.19" x2="282.88" y2="447.65"/><line class="cls-2" x1="420.02" y1="437.11" x2="420.46" y2="436.86"/><line class="cls-2" x1="446.77" y1="422.65" x2="440.84" y2="426.07"/><line class="cls-2" x1="282.03" y1="446.18" x2="282.03" y2="437.6"/><line class="cls-2" x1="274.53" y1="433.27" x2="274.53" y2="441.85"/><line class="cls-2" x1="274.53" y1="441.85" x2="282.03" y2="446.18"/><line class="cls-2" x1="283.73" y1="438.58" x2="283.73" y2="447.16"/><line class="cls-2" x1="291.23" y1="442.91" x2="283.73" y2="438.58"/><line class="cls-2" x1="337.23" y1="469.47" x2="329.73" y2="465.14"/><line class="cls-2" x1="283.73" y1="449.12" x2="283.73" y2="457.7"/><line class="cls-2" x1="291.23" y1="453.45" x2="283.73" y2="449.12"/><line class="cls-2" x1="272.83" y1="440.87" x2="272.83" y2="432.29"/><line class="cls-2" x1="265.33" y1="436.54" x2="272.83" y2="440.87"/><line class="cls-2" x1="86.7" y1="376.54" x2="87.64" y2="377.08"/><line class="cls-2" x1="338.08" y1="437.37" x2="343.17" y2="440.31"/><line class="cls-2" x1="343.17" y1="440.31" x2="352.37" y2="435"/><line class="cls-2" x1="370.77" y1="434.91" x2="370.77" y2="424.37"/><line class="cls-2" x1="361.57" y1="429.69" x2="370.77" y2="424.37"/><line class="cls-2" x1="419.17" y1="438.58" x2="419.17" y2="430.21"/><line class="cls-2" x1="242.69" y1="466.6" x2="255.28" y2="473.87"/><line class="cls-2" x1="265.33" y1="438.5" x2="265.33" y2="447.08"/><line class="cls-2" x1="265.33" y1="447.08" x2="272.83" y2="451.41"/><line class="cls-2" x1="256.13" y1="441.77" x2="263.63" y2="446.1"/><line class="cls-2" x1="263.63" y1="437.52" x2="256.13" y2="433.19"/><line class="cls-2" x1="255.28" y1="463.33" x2="264.48" y2="468.64"/><line class="cls-2" x1="255.28" y1="463.33" x2="255.28" y2="452.79"/><line class="cls-2" x1="370.77" y1="445.45" x2="370.77" y2="434.91"/><line class="cls-2" x1="361.57" y1="450.76" x2="361.57" y2="440.22"/><line class="cls-2" x1="256.13" y1="462.84" x2="263.63" y2="467.17"/><line class="cls-2" x1="263.63" y1="458.59" x2="256.13" y2="454.26"/><line class="cls-2" x1="262.97" y1="537.69" x2="263.97" y2="537.27"/><line class="cls-2" x1="294.36" y1="501.33" x2="292.69" y2="502.29"/><line class="cls-2" x1="294.36" y1="508.19" x2="294.36" y2="506.04"/><line class="cls-2" x1="254.82" y1="526.12" x2="255.82" y2="525.71"/><line class="cls-2" x1="440.84" y1="426.07" x2="419.17" y2="438.58"/><line class="cls-2" x1="419.17" y1="478.75" x2="419.17" y2="480.73"/><line class="cls-2" x1="446.77" y1="464.8" x2="419.17" y2="480.73"/><line class="cls-2" x1="353.22" y1="446.02" x2="353.22" y2="454.6"/><line class="cls-2" x1="353.22" y1="454.6" x2="360.72" y2="450.27"/><line class="cls-2" x1="360.72" y1="441.69" x2="353.22" y2="446.02"/><line class="cls-2" x1="369.92" y1="434.42" x2="369.92" y2="425.84"/><line class="cls-2" x1="361.57" y1="440.22" x2="370.77" y2="434.91"/><line class="cls-2" x1="264.48" y1="426.49" x2="264.48" y2="420.93"/><line class="cls-2" x1="282.03" y1="435.64" x2="282.03" y2="431.06"/><line class="cls-2" x1="273.68" y1="431.8" x2="282.88" y2="437.11"/><line class="cls-2" x1="273.68" y1="431.8" x2="273.68" y2="426.24"/><line class="cls-2" x1="292.93" y1="437.36" x2="292.93" y2="441.93"/><line class="cls-2" x1="274.53" y1="426.73" x2="274.53" y2="431.31"/><line class="cls-2" x1="309.65" y1="442.03" x2="310.48" y2="442.51"/><line class="cls-2" x1="337.23" y1="499.12" x2="337.23" y2="490.55"/><line class="cls-2" x1="329.73" y1="486.22" x2="329.73" y2="494.79"/><line class="cls-2" x1="329.73" y1="494.79" x2="337.23" y2="499.12"/><line class="cls-2" x1="337.23" y1="490.55" x2="329.73" y2="486.22"/><line class="cls-2" x1="351.52" y1="466.12" x2="351.52" y2="457.54"/><line class="cls-2" x1="352.37" y1="466.61" x2="352.37" y2="456.07"/><line class="cls-2" x1="346.48" y1="460.45" x2="344.02" y2="461.87"/><line class="cls-2" x1="344.02" y1="461.87" x2="344.02" y2="464.57"/><line class="cls-2" x1="351.52" y1="457.54" x2="346.48" y2="460.45"/><line class="cls-2" x1="362.42" y1="512.52" x2="369.92" y2="508.19"/><line class="cls-2" x1="351.52" y1="508.27" x2="351.52" y2="499.69"/><line class="cls-2" x1="352.37" y1="508.76" x2="352.37" y2="498.22"/><line class="cls-2" x1="338.08" y1="511.13" x2="338.08" y2="500.59"/><line class="cls-2" x1="351.52" y1="499.69" x2="346.48" y2="502.6"/><line class="cls-2" x1="346.48" y1="502.6" x2="344.02" y2="504.02"/><line class="cls-2" x1="310.66" y1="524.47" x2="308.96" y2="523.49"/><line class="cls-2" x1="310.66" y1="531.33" x2="306.21" y2="533.9"/><line class="cls-2" x1="271.12" y1="549.26" x2="269.42" y2="548.28"/><line class="cls-2" x1="310.66" y1="531.33" x2="310.66" y2="529.17"/><line class="cls-2" x1="271.12" y1="549.26" x2="272.12" y2="548.84"/><line class="cls-2" x1="147.18" y1="456.13" x2="147.18" y2="458.09"/><line class="cls-2" x1="148.87" y1="457.11" x2="147.18" y2="456.13"/><line class="cls-2" x1="148.87" y1="459.07" x2="147.18" y2="458.09"/><line class="cls-2" x1="148.87" y1="459.07" x2="148.87" y2="457.11"/><line class="cls-2" x1="87.64" y1="447.25" x2="89.34" y2="448.23"/><line class="cls-2" x1="89.34" y1="448.23" x2="92.74" y2="446.27"/><line class="cls-2" x1="121.33" y1="466.7" x2="123.03" y2="467.68"/><line class="cls-2" x1="123.03" y1="467.68" x2="126.43" y2="465.72"/><line class="cls-2" x1="28.48" y1="425.83" x2="53.12" y2="411.61"/><line class="cls-2" x1="28.48" y1="425.83" x2="28.48" y2="431.72"/><line class="cls-2" x1="578.38" y1="428.02" x2="578.38" y2="433.9"/><line class="cls-2" x1="305.33" y1="585.67" x2="305.33" y2="591.55"/><line class="cls-2" x1="305.33" y1="591.55" x2="28.48" y2="431.72"/><line class="cls-2" x1="305.33" y1="585.67" x2="28.48" y2="425.83"/><line class="cls-2" x1="337.23" y1="446.43" x2="337.23" y2="437.86"/><line class="cls-2" x1="329.73" y1="442.1" x2="337.23" y2="446.43"/><line class="cls-2" x1="328.88" y1="442.59" x2="338.08" y2="447.9"/><line class="cls-2" x1="369.92" y1="436.38" x2="362.42" y2="440.71"/><line class="cls-2" x1="361.57" y1="461.3" x2="370.77" y2="455.99"/><line class="cls-2" x1="361.57" y1="461.3" x2="361.57" y2="450.76"/><line class="cls-2" x1="360.72" y1="460.81" x2="360.72" y2="452.23"/><line class="cls-2" x1="318.83" y1="456.89" x2="318.83" y2="448.31"/><line class="cls-2" x1="318.83" y1="448.31" x2="311.33" y2="443.98"/><line class="cls-2" x1="310.48" y1="453.05" x2="319.68" y2="458.36"/><line class="cls-2" x1="310.48" y1="442.51" x2="319.68" y2="447.82"/><line class="cls-2" x1="291.23" y1="440.95" x2="291.23" y2="436.37"/><line class="cls-2" x1="292.08" y1="442.42" x2="292.08" y2="436.8"/><line class="cls-2" x1="282.88" y1="437.11" x2="282.88" y2="431.55"/><line class="cls-2" x1="300.43" y1="456.8" x2="300.43" y2="448.23"/><line class="cls-2" x1="292.93" y1="452.47" x2="300.43" y2="456.8"/><line class="cls-2" x1="282.03" y1="437.6" x2="274.53" y2="433.27"/><line class="cls-2" x1="273.68" y1="442.34" x2="282.88" y2="447.65"/><line class="cls-2" x1="263.63" y1="435.56" x2="263.63" y2="426.98"/><line class="cls-2" x1="311.33" y1="454.52" x2="311.33" y2="463.09"/><line class="cls-2" x1="310.48" y1="463.58" x2="310.48" y2="453.05"/><line class="cls-2" x1="320.53" y1="459.83" x2="320.53" y2="468.41"/><line class="cls-2" x1="264.48" y1="437.03" x2="273.68" y2="442.34"/><line class="cls-2" x1="273.68" y1="442.34" x2="273.68" y2="431.8"/><line class="cls-2" x1="264.48" y1="426.49" x2="273.68" y2="431.8"/><line class="cls-2" x1="264.48" y1="437.03" x2="264.48" y2="426.49"/><line class="cls-2" x1="282.88" y1="437.11" x2="292.08" y2="442.42"/><line class="cls-2" x1="282.88" y1="447.65" x2="282.88" y2="437.11"/><line class="cls-2" x1="329.73" y1="484.26" x2="337.23" y2="488.59"/><line class="cls-2" x1="328.88" y1="484.75" x2="338.08" y2="490.06"/><line class="cls-2" x1="320.53" y1="478.94" x2="328.03" y2="483.27"/><line class="cls-2" x1="319.68" y1="479.43" x2="328.88" y2="484.75"/><line class="cls-2" x1="319.68" y1="468.9" x2="319.68" y2="458.36"/><line class="cls-2" x1="265.33" y1="421.49" x2="265.33" y2="426"/><line class="cls-2" x1="283.73" y1="432.04" x2="283.73" y2="436.62"/><line class="cls-2" x1="351.52" y1="476.66" x2="351.52" y2="468.08"/><line class="cls-2" x1="362.42" y1="451.25" x2="362.42" y2="459.83"/><line class="cls-2" x1="362.42" y1="459.83" x2="369.92" y2="455.5"/><line class="cls-2" x1="360.72" y1="483.84" x2="353.22" y2="488.18"/><line class="cls-2" x1="353.22" y1="498.71" x2="353.22" y2="507.29"/><line class="cls-2" x1="353.22" y1="507.29" x2="360.72" y2="502.96"/><line class="cls-2" x1="362.42" y1="438.75" x2="369.92" y2="434.42"/><line class="cls-2" x1="369.92" y1="425.84" x2="362.42" y2="430.18"/><line class="cls-2" x1="362.42" y1="482.86" x2="362.42" y2="491.44"/><line class="cls-2" x1="353.22" y1="486.22" x2="360.72" y2="481.88"/><line class="cls-2" x1="369.92" y1="468" x2="362.42" y2="472.33"/><line class="cls-2" x1="360.72" y1="504.92" x2="353.22" y2="509.25"/><line class="cls-2" x1="352.37" y1="519.3" x2="361.57" y2="513.99"/><line class="cls-2" x1="352.37" y1="508.76" x2="361.57" y2="503.45"/><line class="cls-2" x1="369.92" y1="499.61" x2="362.42" y2="503.94"/><line class="cls-2" x1="361.57" y1="513.99" x2="370.77" y2="508.68"/><line class="cls-2" x1="369.92" y1="487.11" x2="369.92" y2="478.53"/><line class="cls-2" x1="362.42" y1="491.44" x2="369.92" y2="487.11"/><line class="cls-2" x1="369.92" y1="478.53" x2="362.42" y2="482.86"/><line class="cls-2" x1="361.57" y1="492.91" x2="370.77" y2="487.6"/><line class="cls-2" x1="361.57" y1="482.37" x2="370.77" y2="477.06"/><line class="cls-2" x1="369.92" y1="497.65" x2="369.92" y2="489.07"/><line class="cls-2" x1="369.92" y1="489.07" x2="362.42" y2="493.4"/><line class="cls-2" x1="361.57" y1="503.45" x2="370.77" y2="498.14"/><line class="cls-2" x1="292.93" y1="473.55" x2="300.43" y2="477.88"/><line class="cls-2" x1="311.33" y1="475.59" x2="311.33" y2="484.17"/><line class="cls-2" x1="311.33" y1="484.17" x2="318.83" y2="488.5"/><line class="cls-2" x1="318.83" y1="479.92" x2="311.33" y2="475.59"/><line class="cls-2" x1="310.48" y1="474.12" x2="319.68" y2="479.43"/><line class="cls-2" x1="272.83" y1="451.41" x2="272.83" y2="442.83"/><line class="cls-2" x1="272.83" y1="442.83" x2="265.33" y2="438.5"/><line class="cls-2" x1="273.68" y1="452.88" x2="273.68" y2="442.34"/><line class="cls-2" x1="328.03" y1="493.81" x2="328.03" y2="485.24"/><line class="cls-2" x1="320.53" y1="480.9" x2="320.53" y2="489.48"/><line class="cls-2" x1="320.53" y1="489.48" x2="328.03" y2="493.81"/><line class="cls-2" x1="328.03" y1="485.24" x2="320.53" y2="480.9"/><line class="cls-2" x1="328.88" y1="495.28" x2="328.88" y2="484.75"/><line class="cls-2" x1="319.68" y1="489.97" x2="319.68" y2="479.43"/><line class="cls-2" x1="309.63" y1="483.19" x2="309.63" y2="474.61"/><line class="cls-2" x1="309.63" y1="474.61" x2="306.22" y2="472.64"/><line class="cls-2" x1="310.48" y1="484.66" x2="310.48" y2="474.12"/><line class="cls-2" x1="338.08" y1="500.59" x2="338.08" y2="490.06"/><line class="cls-2" x1="265.33" y1="449.04" x2="265.33" y2="457.61"/><line class="cls-2" x1="265.33" y1="457.61" x2="272.83" y2="461.95"/><line class="cls-2" x1="264.48" y1="458.1" x2="273.68" y2="463.42"/><line class="cls-2" x1="264.48" y1="447.57" x2="273.68" y2="452.88"/><line class="cls-2" x1="264.48" y1="458.1" x2="264.48" y2="447.57"/><line class="cls-2" x1="320.53" y1="491.44" x2="320.53" y2="500.02"/><line class="cls-2" x1="319.68" y1="500.51" x2="328.88" y2="505.82"/><line class="cls-2" x1="328.88" y1="505.82" x2="328.88" y2="495.28"/><line class="cls-2" x1="319.68" y1="489.97" x2="328.88" y2="495.28"/><line class="cls-2" x1="258.05" y1="532.89" x2="258.05" y2="533.87"/><line class="cls-2" x1="266.2" y1="537.59" x2="266.2" y2="538.57"/><line class="cls-2" x1="249.9" y1="521.32" x2="249.9" y2="522.3"/><line class="cls-2" x1="295.89" y1="504.17" x2="295.89" y2="505.16"/><line class="cls-2" x1="258.05" y1="526.02" x2="258.05" y2="527"/><line class="cls-2" x1="50.55" y1="400.35" x2="50.55" y2="402.31"/><line class="cls-2" x1="52.25" y1="401.33" x2="50.55" y2="400.35"/><line class="cls-2" x1="52.25" y1="403.29" x2="50.55" y2="402.31"/><line class="cls-2" x1="81.98" y1="418.49" x2="81.98" y2="420.45"/><line class="cls-2" x1="83.68" y1="419.47" x2="81.98" y2="418.49"/><line class="cls-2" x1="83.68" y1="421.43" x2="81.98" y2="420.45"/><line class="cls-2" x1="351.52" y1="497.73" x2="351.52" y2="489.16"/><line class="cls-2" x1="343.17" y1="493" x2="346.48" y2="491.09"/><line class="cls-2" x1="346.48" y1="491.09" x2="352.37" y2="487.69"/><line class="cls-2" x1="338.08" y1="490.06" x2="343.17" y2="493"/><line class="cls-2" x1="114.58" y1="437.31" x2="114.58" y2="439.27"/><line class="cls-2" x1="116.27" y1="438.29" x2="114.58" y2="437.31"/><line class="cls-2" x1="116.27" y1="440.25" x2="114.58" y2="439.27"/><path class="cls-2" d="M219.33,448.7c5.58,3.22,11.16,6.44,16.74,9.66"/><line class="cls-2" x1="179.77" y1="474.95" x2="179.77" y2="476.91"/><line class="cls-2" x1="181.47" y1="475.93" x2="179.77" y2="474.95"/><line class="cls-2" x1="181.47" y1="477.89" x2="179.77" y2="476.91"/><line class="cls-2" x1="181.47" y1="477.89" x2="181.47" y2="475.93"/><line class="cls-2" x1="344.02" y1="487.61" x2="344.02" y2="491.53"/><line class="cls-2" x1="343.17" y1="482.46" x2="343.17" y2="471.92"/><line class="cls-2" x1="344.02" y1="491.53" x2="351.52" y2="487.2"/><line class="cls-2" x1="351.52" y1="478.62" x2="346.48" y2="481.53"/><line class="cls-2" x1="353.22" y1="509.25" x2="353.22" y2="517.83"/><line class="cls-2" x1="361.57" y1="513.99" x2="361.57" y2="503.45"/><line class="cls-2" x1="351.52" y1="487.2" x2="351.52" y2="478.62"/><line class="cls-2" x1="346.48" y1="481.53" x2="344.02" y2="482.95"/><line class="cls-2" x1="343.17" y1="482.46" x2="352.37" y2="477.15"/><line class="cls-2" x1="338.08" y1="479.52" x2="343.17" y2="482.46"/><line class="cls-2" x1="121.39" y1="402.59" x2="121.52" y2="402.52"/><line class="cls-2" x1="305.33" y1="444.51" x2="305.33" y2="443.49"/><line class="cls-2" x1="48.86" y1="296.44" x2="48.86" y2="295.46"/><line class="cls-2" x1="343.17" y1="422.66" x2="343.17" y2="421.67"/><line class="cls-2" x1="362.42" y1="430.18" x2="362.42" y2="438.75"/><line class="cls-2" x1="344.02" y1="464.57" x2="344.02" y2="470.45"/><line class="cls-2" x1="344.02" y1="470.45" x2="351.52" y2="466.12"/><line class="cls-2" x1="343.17" y1="471.92" x2="352.37" y2="466.61"/><line class="cls-2" x1="343.17" y1="471.92" x2="343.17" y2="461.38"/><line class="cls-2" x1="369.92" y1="508.19" x2="369.92" y2="499.61"/><line class="cls-2" x1="362.42" y1="503.94" x2="362.42" y2="512.52"/><line class="cls-2" x1="343.17" y1="503.53" x2="352.37" y2="498.22"/><line class="cls-2" x1="89.34" y1="448.23" x2="89.34" y2="425.68"/><line class="cls-2" x1="87.64" y1="447.25" x2="87.64" y2="424.7"/><line class="cls-2" x1="92.74" y1="446.27" x2="92.74" y2="427.64"/><line class="cls-2" x1="121.33" y1="466.7" x2="121.33" y2="444.15"/><line class="cls-2" x1="126.43" y1="465.72" x2="126.43" y2="447.09"/><line class="cls-2" x1="338.08" y1="468.98" x2="343.17" y2="471.92"/><line class="cls-2" x1="121.46" y1="397.65" x2="121.37" y2="397.71"/><line class="cls-2" x1="343.17" y1="503.53" x2="343.17" y2="493"/><line class="cls-2" x1="338.08" y1="500.59" x2="343.17" y2="503.53"/><path class="cls-2" d="M219.33,448.7v-53.72"/><line class="cls-2" x1="310.67" y1="531.33" x2="332.98" y2="544.21"/><line class="cls-2" x1="265.33" y1="421.42" x2="265.33" y2="421.49"/><line class="cls-2" x1="256.13" y1="416.11" x2="256.13" y2="420.69"/><line class="cls-2" x1="319.68" y1="435.23" x2="319.68" y2="435.22"/><line class="cls-2" x1="311.33" y1="441.05" x2="311.33" y2="442.02"/><line class="cls-2" x1="320.53" y1="435.74" x2="320.53" y2="436.79"/><line class="cls-2" x1="554.61" y1="447.61" x2="554.61" y2="451.55"/><line class="cls-2" x1="544.43" y1="453.51" x2="544.43" y2="457.43"/><line class="cls-2" x1="126.43" y1="399.47" x2="139.03" y2="406.75"/><line class="cls-2" x1="280.21" y1="530.49" x2="293.69" y2="524.86"/><line class="cls-2" x1="294.36" y1="503.28" x2="294.36" y2="501.33"/><line class="cls-2" x1="353.36" y1="563.82" x2="353.36" y2="567.74"/><line class="cls-2" x1="343.17" y1="569.7" x2="343.17" y2="573.62"/><line class="cls-2" x1="465.45" y1="499.11" x2="465.45" y2="503.03"/><line class="cls-2" x1="455.26" y1="504.99" x2="455.26" y2="508.91"/><line class="cls-2" x1="306.17" y1="449.58" x2="309.63" y2="451.58"/><line class="cls-2" x1="310.66" y1="526.43" x2="310.66" y2="524.47"/><line class="cls-2" x1="288.36" y1="542.05" x2="301.14" y2="536.71"/><line class="cls-2" x1="58.23" y1="408.66" x2="59.09" y2="408.16"/><line class="cls-2" x1="301.13" y1="458.19" x2="301.28" y2="458.27"/><line class="cls-2" x1="301.08" y1="479.23" x2="301.28" y2="479.35"/><line class="cls-2" x1="306.22" y1="481.22" x2="309.63" y2="483.19"/><line class="cls-2" x1="306.18" y1="482.18" x2="310.48" y2="484.66"/><line class="cls-2" x1="121.29" y1="372.25" x2="121.43" y2="372.17"/><line class="cls-2" x1="554.62" y1="414.3" x2="578.38" y2="428.02"/><line class="cls-2" x1="306.21" y1="471.66" x2="310.48" y2="474.12"/><line class="cls-2" x1="282.03" y1="456.72" x2="282.03" y2="448.14"/><line class="cls-2" x1="274.53" y1="452.39" x2="282.03" y2="456.72"/><line class="cls-2" x1="255.28" y1="431.72" x2="264.48" y2="437.03"/><path class="cls-2" d="M236.07,458.36v-53.84"/><line class="cls-2" x1="216.34" y1="449.92" x2="216.34" y2="393.14"/><line class="cls-2" x1="283.73" y1="459.66" x2="283.73" y2="468.24"/><line class="cls-2" x1="292.08" y1="474.04" x2="292.08" y2="463.5"/><line class="cls-2" x1="282.88" y1="468.73" x2="282.88" y2="458.19"/><line class="cls-2" x1="274.53" y1="454.35" x2="274.53" y2="462.93"/><line class="cls-2" x1="273.68" y1="463.42" x2="273.68" y2="452.88"/><line class="cls-2" x1="310.48" y1="463.58" x2="319.68" y2="468.9"/><line class="cls-2" x1="310.48" y1="474.12" x2="310.48" y2="463.58"/><line class="cls-2" x1="309.63" y1="472.65" x2="309.63" y2="464.07"/><line class="cls-2" x1="328.03" y1="514.89" x2="328.03" y2="506.31"/><line class="cls-2" x1="320.53" y1="501.98" x2="320.53" y2="510.56"/><line class="cls-2" x1="328.88" y1="516.36" x2="328.88" y2="505.82"/><line class="cls-2" x1="319.68" y1="511.05" x2="319.68" y2="500.51"/><line class="cls-2" x1="318.83" y1="509.58" x2="318.83" y2="501"/><line class="cls-2" x1="249.9" y1="518.38" x2="249.9" y2="514.46"/><line class="cls-2" x1="48.86" y1="398.39" x2="249.9" y2="514.46"/><line class="cls-2" x1="249.9" y1="518.38" x2="287.74" y2="496.53"/><line class="cls-2" x1="249.9" y1="514.46" x2="287.74" y2="492.61"/><line class="cls-2" x1="351.52" y1="518.81" x2="351.52" y2="510.23"/><line class="cls-2" x1="344.02" y1="514.56" x2="344.02" y2="523.14"/><line class="cls-2" x1="344.02" y1="502.06" x2="351.52" y2="497.73"/><line class="cls-2" x1="351.52" y1="489.16" x2="344.02" y2="493.49"/><line class="cls-2" x1="338.08" y1="468.98" x2="338.08" y2="458.44"/><line class="cls-2" x1="328.88" y1="463.67" x2="328.88" y2="453.13"/><line class="cls-2" x1="320.53" y1="457.87" x2="328.03" y2="462.2"/><line class="cls-2" x1="319.68" y1="458.36" x2="328.88" y2="463.67"/><line class="cls-2" x1="319.68" y1="458.36" x2="319.68" y2="447.82"/><line class="cls-2" x1="300.43" y1="446.27" x2="300.43" y2="441.62"/><line class="cls-2" x1="292.93" y1="441.93" x2="300.43" y2="446.27"/><line class="cls-2" x1="309.63" y1="443" x2="307.94" y2="442.02"/><line class="cls-2" x1="328.03" y1="462.2" x2="328.03" y2="453.62"/><line class="cls-2" x1="302.78" y1="571.46" x2="302.78" y2="442.06"/><line class="cls-2" x1="301.08" y1="570.48" x2="301.08" y2="442.06"/><line class="cls-2" x1="306.18" y1="569.5" x2="306.18" y2="444.02"/><polyline class="cls-2" points="53.13 423.37 48.86 425.83 305.33 573.91 558.01 428.02 554.64 426.08"/><line class="cls-2" x1="106.19" y1="457.95" x2="106.19" y2="435.4"/><line class="cls-2" x1="106.19" y1="431.49" x2="106.19" y2="329.54"/><line class="cls-2" x1="104.49" y1="430.49" x2="104.49" y2="328.56"/><line class="cls-2" x1="109.58" y1="433.45" x2="109.58" y2="331.5"/><line class="cls-2" x1="72.49" y1="412.03" x2="72.49" y2="310.09"/><line class="cls-2" x1="305.33" y1="443.53" x2="305.33" y2="439.61"/><line class="cls-2" x1="43.76" y1="288.6" x2="305.33" y2="439.61"/><line class="cls-2" x1="305.33" y1="439.61" x2="563.1" y2="290.78"/><line class="cls-2" x1="256.13" y1="420.69" x2="263.63" y2="425.02"/><line class="cls-2" x1="420.02" y1="479.26" x2="420.02" y2="439.07"/><line class="cls-2" x1="343.17" y1="550.1" x2="343.17" y2="528.47"/><polyline class="cls-2" points="353.36 544.22 455.26 485.38 465.45 479.5 554.61 428.02"/><line class="cls-2" x1="306.18" y1="523.84" x2="312.19" y2="527.31"/><line class="cls-2" x1="301.11" y1="533.7" x2="274.35" y2="549.16"/><line class="cls-2" x1="312.19" y1="528.29" x2="306.23" y2="531.73"/><line class="cls-2" x1="301.12" y1="534.68" x2="274.35" y2="550.14"/><line class="cls-2" x1="274.35" y1="549.16" x2="266.2" y2="544.45"/><line class="cls-2" x1="274.35" y1="550.14" x2="266.2" y2="545.43"/><line class="cls-2" x1="344.02" y1="472.41" x2="344.02" y2="480.99"/><line class="cls-2" x1="346.48" y1="479.57" x2="351.52" y2="476.66"/><line class="cls-2" x1="351.52" y1="468.08" x2="346.48" y2="470.99"/><line class="cls-2" x1="343.17" y1="524.61" x2="352.37" y2="519.3"/><line class="cls-2" x1="343.17" y1="524.61" x2="343.17" y2="514.07"/><line class="cls-2" x1="282.88" y1="447.65" x2="292.08" y2="452.96"/><line class="cls-2" x1="140.73" y1="477.89" x2="140.73" y2="455.35"/><line class="cls-2" x1="140.73" y1="451.43" x2="140.73" y2="349.48"/><line class="cls-2" x1="139.03" y1="450.39" x2="139.03" y2="348.5"/><line class="cls-2" x1="144.12" y1="453.37" x2="144.12" y2="351.44"/><line class="cls-2" x1="54.8" y1="428.28" x2="54.8" y2="405.74"/><line class="cls-2" x1="54.8" y1="400.53" x2="54.8" y2="299.87"/><line class="cls-2" x1="286.21" y1="497.61" x2="277.39" y2="502.7"/><line class="cls-2" x1="291.23" y1="451.49" x2="291.23" y2="442.91"/><line class="cls-2" x1="328.03" y1="472.74" x2="328.03" y2="464.16"/><line class="cls-2" x1="263.63" y1="425.02" x2="263.63" y2="420.44"/><line class="cls-2" x1="256.13" y1="422.65" x2="256.13" y2="431.23"/><line class="cls-2" x1="263.63" y1="426.98" x2="256.13" y2="422.65"/><line class="cls-2" x1="328.03" y1="483.27" x2="328.03" y2="474.7"/><line class="cls-2" x1="320.53" y1="470.37" x2="320.53" y2="478.94"/><line class="cls-2" x1="337.23" y1="488.59" x2="337.23" y2="480.01"/><line class="cls-2" x1="329.73" y1="475.68" x2="329.73" y2="484.26"/><line class="cls-2" x1="92.74" y1="380.02" x2="104.49" y2="386.81"/><line class="cls-2" x1="109.6" y1="389.76" x2="121.33" y2="396.53"/><line class="cls-2" x1="144.12" y1="409.69" x2="215.07" y2="450.65"/><line class="cls-2" x1="242.69" y1="466.6" x2="242.69" y2="408.35"/><line class="cls-2" x1="215.07" y1="450.65" x2="215.07" y2="392.4"/><line class="cls-2" x1="343.17" y1="440.31" x2="343.17" y2="422.65"/><line class="cls-2" x1="446.77" y1="464.8" x2="558.01" y2="400.57"/><line class="cls-2" x1="419.17" y1="478.75" x2="419.17" y2="470.19"/><line class="cls-2" x1="272.83" y1="461.95" x2="272.83" y2="453.37"/><line class="cls-2" x1="300.43" y1="477.88" x2="300.43" y2="469.3"/><line class="cls-2" x1="292.93" y1="464.97" x2="292.93" y2="473.55"/><line class="cls-2" x1="337.23" y1="520.2" x2="337.23" y2="511.62"/><line class="cls-2" x1="353.22" y1="435.49" x2="353.22" y2="444.06"/><line class="cls-2" x1="360.72" y1="431.16" x2="353.22" y2="435.49"/><line class="cls-2" x1="352.37" y1="435" x2="361.57" y2="429.69"/><line class="cls-2" x1="362.42" y1="440.71" x2="362.42" y2="449.29"/><line class="cls-2" x1="362.42" y1="449.29" x2="369.92" y2="444.96"/><line class="cls-2" x1="361.57" y1="450.76" x2="370.77" y2="445.45"/><line class="cls-2" x1="272.83" y1="483.02" x2="272.83" y2="474.44"/><line class="cls-2" x1="265.33" y1="470.11" x2="265.33" y2="478.69"/><line class="cls-2" x1="282.03" y1="488.33" x2="282.03" y2="479.76"/><line class="cls-2" x1="311.33" y1="496.67" x2="311.33" y2="505.25"/><line class="cls-2" x1="300.43" y1="498.95" x2="300.43" y2="490.38"/><line class="cls-2" x1="282.03" y1="467.26" x2="282.03" y2="458.68"/><line class="cls-2" x1="291.23" y1="472.57" x2="291.23" y2="463.99"/><line class="cls-2" x1="318.83" y1="437.77" x2="317.08" y2="436.76"/><line class="cls-2" x1="328.03" y1="432.55" x2="326.2" y2="431.49"/><line class="cls-2" x1="329.73" y1="452.64" x2="337.23" y2="456.97"/><line class="cls-2" x1="274.53" y1="475.42" x2="274.53" y2="484"/><line class="cls-2" x1="273.68" y1="484.49" x2="282.88" y2="489.8"/><line class="cls-2" x1="282.88" y1="489.8" x2="282.88" y2="479.27"/><line class="cls-2" x1="273.68" y1="484.49" x2="273.68" y2="473.95"/><line class="cls-2" x1="309.63" y1="504.27" x2="309.63" y2="495.69"/><line class="cls-2" x1="310.48" y1="505.74" x2="310.48" y2="495.2"/><line class="cls-2" x1="291.23" y1="493.64" x2="291.23" y2="485.07"/><line class="cls-2" x1="282.88" y1="489.8" x2="292.08" y2="495.11"/><line class="cls-2" x1="292.93" y1="486.05" x2="292.93" y2="494.62"/><line class="cls-2" x1="292.08" y1="484.58" x2="301.28" y2="489.89"/><line class="cls-2" x1="292.08" y1="495.11" x2="292.08" y2="484.58"/><line class="cls-2" x1="264.48" y1="479.18" x2="264.48" y2="468.64"/><line class="cls-2" x1="255.28" y1="473.87" x2="255.28" y2="463.33"/><line class="cls-2" x1="369.92" y1="476.57" x2="369.92" y2="468"/><line class="cls-2" x1="362.42" y1="472.33" x2="362.42" y2="480.9"/><line class="cls-2" x1="370.77" y1="477.06" x2="370.77" y2="466.53"/><line class="cls-2" x1="361.57" y1="482.37" x2="361.57" y2="471.84"/><line class="cls-2" x1="306.22" y1="530.75" x2="312.19" y2="527.31"/><line class="cls-2" x1="344.02" y1="440.8" x2="344.02" y2="445.45"/><line class="cls-2" x1="360.72" y1="439.73" x2="360.72" y2="431.16"/><line class="cls-2" x1="301.09" y1="520.58" x2="293.69" y2="524.86"/><line class="cls-2" x1="294.36" y1="508.19" x2="285.54" y2="513.29"/><line class="cls-2" x1="272.06" y1="518.92" x2="285.54" y2="513.29"/><line class="cls-2" x1="351.52" y1="445.04" x2="351.52" y2="436.47"/><line class="cls-2" x1="352.37" y1="445.53" x2="352.37" y2="435"/><line class="cls-2" x1="343.17" y1="450.85" x2="343.17" y2="440.31"/><line class="cls-2" x1="351.52" y1="455.58" x2="351.52" y2="447"/><line class="cls-2" x1="344.02" y1="451.34" x2="344.02" y2="459.91"/><line class="cls-2" x1="344.02" y1="459.91" x2="351.52" y2="455.58"/><line class="cls-2" x1="343.17" y1="461.38" x2="352.37" y2="456.07"/><line class="cls-2" x1="343.17" y1="461.38" x2="343.17" y2="450.85"/><line class="cls-2" x1="338.08" y1="447.9" x2="338.87" y2="448.36"/><line class="cls-2" x1="419.17" y1="438.58" x2="419.17" y2="470.19"/><line class="cls-2" x1="317.91" y1="436.26" x2="319.68" y2="437.28"/><line class="cls-2" x1="337.23" y1="456.97" x2="337.23" y2="448.39"/><line class="cls-2" x1="328.88" y1="453.13" x2="338.08" y2="458.44"/><line class="cls-2" x1="338.08" y1="458.44" x2="338.08" y2="447.9"/><line class="cls-2" x1="327.04" y1="431" x2="328.88" y2="432.06"/><line class="cls-2" x1="241.75" y1="509.75" x2="279.59" y2="487.9"/><line class="cls-2" x1="287.74" y1="493.59" x2="249.9" y2="515.44"/><line class="cls-2" x1="249.9" y1="515.44" x2="241.75" y2="510.73"/><line class="cls-2" x1="360.72" y1="450.27" x2="360.72" y2="441.69"/><line class="cls-2" x1="361.57" y1="440.22" x2="361.57" y2="429.69"/><line class="cls-2" x1="338.08" y1="458.44" x2="343.17" y2="461.38"/><line class="cls-2" x1="344.02" y1="504.02" x2="344.02" y2="512.6"/><line class="cls-2" x1="344.02" y1="512.6" x2="351.52" y2="508.27"/><line class="cls-2" x1="343.17" y1="514.07" x2="352.37" y2="508.76"/><line class="cls-2" x1="343.17" y1="514.07" x2="343.17" y2="503.53"/><line class="cls-2" x1="338.08" y1="511.13" x2="343.17" y2="514.07"/><line class="cls-2" x1="283.73" y1="480.74" x2="283.73" y2="489.31"/><line class="cls-2" x1="263.63" y1="477.71" x2="263.63" y2="469.13"/><line class="cls-2" x1="256.13" y1="464.8" x2="256.13" y2="473.38"/><line class="cls-2" x1="263.63" y1="469.13" x2="256.13" y2="464.8"/><line class="cls-2" x1="215.07" y1="450.65" x2="242.69" y2="466.6"/><line class="cls-2" x1="89.34" y1="421.74" x2="89.34" y2="319.81"/><line class="cls-2" x1="87.64" y1="420.78" x2="87.64" y2="318.83"/><line class="cls-2" x1="92.74" y1="415.96" x2="92.74" y2="321.76"/><line class="cls-2" x1="123.03" y1="467.68" x2="123.03" y2="445.13"/><line class="cls-2" x1="123.03" y1="441.2" x2="123.03" y2="339.26"/><line class="cls-2" x1="121.33" y1="440.23" x2="121.33" y2="338.25"/><line class="cls-2" x1="126.43" y1="434.27" x2="126.43" y2="341.22"/><line class="cls-2" x1="578.38" y1="428.02" x2="305.33" y2="585.67"/><line class="cls-2" x1="351.52" y1="447" x2="344.02" y2="451.34"/><line class="cls-2" x1="370.77" y1="455.99" x2="370.77" y2="445.45"/><line class="cls-2" x1="310.48" y1="453.05" x2="310.48" y2="442.51"/><line class="cls-2" x1="292.93" y1="443.89" x2="292.93" y2="452.47"/><line class="cls-2" x1="300.43" y1="448.23" x2="292.93" y2="443.89"/><line class="cls-2" x1="292.08" y1="442.42" x2="301.28" y2="447.74"/><line class="cls-2" x1="306.18" y1="461.1" x2="310.48" y2="463.58"/><line class="cls-2" x1="256.13" y1="431.23" x2="263.63" y2="435.56"/><line class="cls-2" x1="255.28" y1="421.18" x2="264.48" y2="426.49"/><line class="cls-2" x1="255.28" y1="431.72" x2="255.28" y2="421.18"/><line class="cls-2" x1="318.83" y1="467.43" x2="318.83" y2="458.85"/><line class="cls-2" x1="311.33" y1="463.09" x2="318.83" y2="467.43"/><line class="cls-2" x1="320.53" y1="468.41" x2="328.03" y2="472.74"/><line class="cls-2" x1="319.68" y1="468.9" x2="328.88" y2="474.21"/><line class="cls-2" x1="328.88" y1="474.21" x2="328.88" y2="463.67"/><line class="cls-2" x1="283.73" y1="447.16" x2="291.23" y2="451.49"/><line class="cls-2" x1="292.08" y1="452.96" x2="292.08" y2="442.42"/><line class="cls-2" x1="328.88" y1="484.75" x2="328.88" y2="474.21"/><line class="cls-2" x1="328.03" y1="474.7" x2="320.53" y2="470.37"/><line class="cls-2" x1="329.73" y1="507.29" x2="329.73" y2="515.87"/><line class="cls-2" x1="344.02" y1="480.99" x2="346.48" y2="479.57"/><line class="cls-2" x1="346.48" y1="470.99" x2="344.02" y2="472.41"/><line class="cls-2" x1="369.92" y1="455.5" x2="369.92" y2="446.92"/><line class="cls-2" x1="369.92" y1="446.92" x2="362.42" y2="451.25"/><line class="cls-2" x1="360.72" y1="481.88" x2="360.72" y2="473.31"/><line class="cls-2" x1="353.22" y1="477.64" x2="353.22" y2="486.22"/><line class="cls-2" x1="360.72" y1="513.5" x2="360.72" y2="504.92"/><line class="cls-2" x1="352.37" y1="519.3" x2="352.37" y2="508.76"/><line class="cls-2" x1="370.77" y1="508.68" x2="370.77" y2="498.14"/><line class="cls-2" x1="292.08" y1="463.5" x2="301.28" y2="468.81"/><line class="cls-2" x1="258.05" y1="532.89" x2="295.89" y2="511.04"/><line class="cls-2" x1="301.09" y1="517.44" x2="266.2" y2="537.59"/><line class="cls-2" x1="301.1" y1="518.42" x2="266.2" y2="538.57"/><line class="cls-2" x1="266.2" y1="537.59" x2="258.05" y2="532.89"/><line class="cls-2" x1="266.2" y1="538.57" x2="258.05" y2="533.87"/><line class="cls-2" x1="249.9" y1="521.32" x2="287.74" y2="499.47"/><line class="cls-2" x1="287.74" y1="499.47" x2="295.89" y2="504.17"/><line class="cls-2" x1="295.89" y1="504.17" x2="258.05" y2="526.02"/><line class="cls-2" x1="295.89" y1="505.16" x2="258.05" y2="527"/><line class="cls-2" x1="258.05" y1="526.02" x2="254.82" y2="524.16"/><line class="cls-2" x1="253.12" y1="523.18" x2="249.9" y2="521.32"/><line class="cls-2" x1="258.05" y1="527" x2="249.9" y2="522.3"/><line class="cls-2" x1="52.25" y1="403.29" x2="52.25" y2="401.33"/><line class="cls-2" x1="83.68" y1="421.43" x2="83.68" y2="419.47"/><line class="cls-2" x1="344.02" y1="482.95" x2="344.02" y2="487.61"/><line class="cls-2" x1="352.37" y1="487.69" x2="352.37" y2="477.15"/><line class="cls-2" x1="343.17" y1="493" x2="343.17" y2="482.46"/><line class="cls-2" x1="338.08" y1="490.06" x2="338.08" y2="479.52"/><line class="cls-2" x1="344.02" y1="493.49" x2="344.02" y2="502.06"/><line class="cls-2" x1="116.27" y1="440.25" x2="116.27" y2="438.29"/><line class="cls-2" x1="343.17" y1="528.53" x2="558.01" y2="404.49"/><line class="cls-2" x1="48.86" y1="402.31" x2="249.9" y2="518.38"/><line class="cls-2" x1="70.8" y1="411.05" x2="70.8" y2="309.11"/><line class="cls-2" x1="75.89" y1="410.22" x2="75.89" y2="312.05"/><line class="cls-2" x1="43.76" y1="292.52" x2="305.33" y2="443.53"/><line class="cls-2" x1="305.33" y1="443.53" x2="563.1" y2="294.7"/><line class="cls-2" x1="554.61" y1="428.02" x2="554.61" y2="406.45"/><line class="cls-2" x1="266.2" y1="544.45" x2="301.14" y2="524.28"/><line class="cls-2" x1="53.1" y1="427.3" x2="53.1" y2="404.76"/><line class="cls-2" x1="53.1" y1="399.86" x2="53.1" y2="297.91"/><line class="cls-2" x1="58.19" y1="426.32" x2="58.19" y2="407.7"/><line class="cls-2" x1="58.19" y1="396.92" x2="58.19" y2="301.83"/><line class="cls-2" x1="419.17" y1="396.43" x2="419.17" y2="430.21"/><line class="cls-2" x1="338.08" y1="521.67" x2="338.08" y2="511.13"/><line class="cls-2" x1="292.08" y1="495.11" x2="301.28" y2="500.42"/><line class="cls-2" x1="446.77" y1="422.65" x2="446.77" y2="464.8"/><line class="cls-2" x1="48.86" y1="296.44" x2="305.33" y2="444.51"/><line class="cls-2" x1="305.33" y1="444.51" x2="343.17" y2="422.66"/><line class="cls-2" x1="578.38" y1="433.9" x2="305.33" y2="591.55"/><line class="cls-2" x1="295.89" y1="511.04" x2="301.12" y2="514.06"/><line class="cls-2" x1="121.52" y1="395.66" x2="120.71" y2="396.13"/></svg>