<svg xmlns="http://www.w3.org/2000/svg" xmlns:xlink="http://www.w3.org/1999/xlink" viewBox="0 0 366.5 375.81"><defs><style>.cls-1{fill:url(#linear-gradient);}.cls-2{fill:url(#linear-gradient-2);}.cls-3{fill:url(#linear-gradient-3);}.cls-4{fill:url(#linear-gradient-4);}</style><linearGradient id="linear-gradient" x1="23.93" y1="64.07" x2="199.87" y2="64.07" gradientUnits="userSpaceOnUse"><stop offset="0" stop-color="#fceca9"/><stop offset="0.31" stop-color="#fceaa6"/><stop offset="0.53" stop-color="#fce39d"/><stop offset="0.72" stop-color="#fcd78d"/><stop offset="0.89" stop-color="#fdc778"/><stop offset="1" stop-color="#fdb965"/></linearGradient><linearGradient id="linear-gradient-2" y1="122.84" x2="366.5" y2="122.84" gradientUnits="userSpaceOnUse"><stop offset="0" stop-color="#ff8ba3"/><stop offset="0.21" stop-color="#fe9b8e"/><stop offset="0.49" stop-color="#feab77"/><stop offset="0.76" stop-color="#fdb66a"/><stop offset="1" stop-color="#fdb965"/></linearGradient><linearGradient id="linear-gradient-3" x1="147.51" y1="241.81" x2="363.81" y2="241.81" gradientUnits="userSpaceOnUse"><stop offset="0" stop-color="#ff8ba3"/><stop offset="0.38" stop-color="#fea186"/><stop offset="0.76" stop-color="#fdb26e"/><stop offset="1" stop-color="#fdb965"/></linearGradient><linearGradient id="linear-gradient-4" x1="197.74" y1="268.78" x2="66.48" y2="137.52" gradientUnits="userSpaceOnUse"><stop offset="0" stop-color="#fdb965"/><stop offset="0.12" stop-color="#fdca7b"/><stop offset="0.27" stop-color="#fcd990"/><stop offset="0.45" stop-color="#fce49e"/><stop offset="0.66" stop-color="#fceaa6"/><stop offset="1" stop-color="#fceca9"/></linearGradient></defs><g id="Layer_2" data-name="Layer 2"><g id="faq"><path class="cls-1" d="M199.76,71.66c-1.42,7.6-15,5.25-24.06,18.77-11,16.28-1.87,35.35-7.75,37.52-6.09,2.25-22.2-15.85-31-33.85-3.27-6.71-4.26-10.77-9.08-14.1-7.23-5-14.79-2.59-28.44-2.63-14,1.78-23.54-1.25-29-3.67C63.55,70.61,60.79,67.34,34.58,35,27.15,25.78,23.45,21.12,24,17.83,25.83,6.17,52.05-1.73,74.17.33c15.32,1.42,24,7.31,43.61,18.72C175,52.34,201.79,60.84,199.76,71.66Z"/><path class="cls-2" d="M139.33,23.27C104,7.05,86.37-1.06,74.17.33c-33.1,3.77-53.46,42-59.65,53.57C4.45,72.8,2.41,89.39,1.14,100.62.53,105.93-2.24,130.43,4,132.44c4.11,1.31,8-8.47,21.21-21.62,9.56-9.48,19.42-15.43,39.15-27.33C81,73.43,89.57,68.36,98.61,66.36c9.64-2.12,17.71-1.69,33.86-.81a226.43,226.43,0,0,1,32.3,3.68c5.39,1,23.75,4.79,47.87,15.48,7.61,3.37,36.62,16.67,68.69,43.65,0,0,33,27.73,65.67,76.67a143.39,143.39,0,0,1,14.43,26.41c3.37,8.23,4.83,14.14,5.05,14.07s-2.4-13-9-27.8c0,0-2.23-5-5-10.08-16.63-30.55-41-57.66-41-57.66-31.3-34.85-82.47-79.66-139.64-110.66C158.85,32.24,148.11,27.31,139.33,23.27Z"/><path class="cls-3" d="M250.27,173.2c0,11.56-2.54,13.71-5.43,31.89-4,25.06-.64,29.21,1.2,30.78,3.34,2.84,6.91,1.63,11.15,6.27,2.69,3,2.64,5,6.05,8.82a31.25,31.25,0,0,0,7.1,5.89c52.48,33.86,74.21,61.63,74.21,61.63,15.75,20.12,18.11,33.83,18.74,39.15,1,8.18.41,18.15-.29,18.18s-1.63-8.54-2.38-16.15a146,146,0,0,0-9.77-22.88c-13.06-24.54-36.94-41.73-84.17-75.11-4.2-3-11.68-8.12-22.18-9.15-6.68-.65-10.66.75-16.7,1.52,0,0-14.93,3.21-33.23-3.9-32.46-12.61-54.18-52.23-44.9-67.45,2.31-3.79,4.74-3.09,19.68-10.69a243.78,243.78,0,0,0,30.53-18.41c5.43-4,6.17-5,35.71-31.9,11.17-10.16,16.82-15.21,19.51-13.57.58.35,2.09,1.66-.53,16.73-2.68,15.47-5.11,18.92-5.79,28.44S250.29,162.14,250.27,173.2Z"/><path class="cls-4" d="M212.12,254.4c-5.16-.27-12.52-.75-21.34-1.7-15.42-1.66-27.48-2.74-40.51-6.89-21.4-6.82-17.88-11-33.31-14.46-18.57-4.13-24.66,1.75-39.43-5.26-10-4.75-18.45-12.78-17.21-17.82.25-1,.72-1.22,3-6,2.59-5.35,2.15-5.41,3.14-6.83,3.25-4.63,7.57-3.33,10.7-7.11,2.8-3.4,2.27-8,2.08-10.58-1.31-17.44,5.31-43.42,12-58.25,4.27-9.4,8.44-18.56,15-19,8.86-.65,17.17,14.69,26.84,32.54,3.87,7.14,3.7,7.9,14.21,29.38,5,10.32,7.57,15.48,10,20.14a282.57,282.57,0,0,0,22.25,36.16A236,236,0,0,0,212.12,254.4Z"/></g></g></svg>