<svg xmlns="http://www.w3.org/2000/svg" xmlns:xlink="http://www.w3.org/1999/xlink" viewBox="0 0 396.21 268.76"><defs><style>.cls-1{fill:url(#linear-gradient);}.cls-2{fill:url(#linear-gradient-2);}.cls-3{fill:none;stroke:#ebffe2;stroke-miterlimit:10;}.cls-4{fill:url(#linear-gradient-3);}.cls-5{fill:#0084ad;}.cls-6{fill:url(#linear-gradient-4);}.cls-7{fill:url(#linear-gradient-5);}.cls-8{fill:url(#linear-gradient-6);}.cls-9{fill:url(#linear-gradient-7);}.cls-10{fill:url(#linear-gradient-8);}.cls-11{fill:url(#linear-gradient-10);}.cls-12{fill:#fceca9;}.cls-13{fill:#002633;}</style><linearGradient id="linear-gradient" x1="574.07" y1="382.11" x2="645.13" y2="287.32" gradientTransform="translate(-340.64 -72.18) rotate(-19.2)" gradientUnits="userSpaceOnUse"><stop offset="0" stop-color="#00bfc3"/><stop offset="0.26" stop-color="#4acbb9"/><stop offset="0.63" stop-color="#aadbab"/><stop offset="0.88" stop-color="#e7e5a2"/><stop offset="1" stop-color="#ffe99f"/></linearGradient><linearGradient id="linear-gradient-2" x1="624.78" y1="306.66" x2="635.6" y2="292.22" xlink:href="#linear-gradient"/><linearGradient id="linear-gradient-3" x1="483.03" y1="397.9" x2="548.82" y2="397.9" gradientTransform="translate(-340.64 -72.18) rotate(-19.2)" gradientUnits="userSpaceOnUse"><stop offset="0.32" stop-color="#00bfc3"/><stop offset="0.47" stop-color="#4acbb9"/><stop offset="0.68" stop-color="#aadbab"/><stop offset="0.82" stop-color="#e7e5a2"/><stop offset="0.89" stop-color="#ffe99f"/></linearGradient><linearGradient id="linear-gradient-4" x1="211.2" y1="400.47" x2="301.78" y2="400.47" xlink:href="#linear-gradient"/><linearGradient id="linear-gradient-5" x1="473.7" y1="443.62" x2="626.44" y2="374.43" gradientTransform="translate(-340.64 -72.18) rotate(-19.2)" gradientUnits="userSpaceOnUse"><stop offset="0" stop-color="#00bfc3"/><stop offset="0.15" stop-color="#4acbb9"/><stop offset="0.37" stop-color="#aadbab"/><stop offset="0.52" stop-color="#e7e5a2"/><stop offset="0.59" stop-color="#ffe99f"/></linearGradient><linearGradient id="linear-gradient-6" x1="496.67" y1="485.97" x2="597.25" y2="351.8" xlink:href="#linear-gradient"/><linearGradient id="linear-gradient-7" x1="-516.15" y1="-1939.56" x2="-415.57" y2="-2073.74" gradientTransform="translate(1941.81 1409.71) rotate(-38.59)" xlink:href="#linear-gradient"/><linearGradient id="linear-gradient-8" x1="258.07" y1="123.27" x2="572.91" y2="123.27" gradientTransform="matrix(-1, 0.08, 0.08, 1, 568.26, -36.58)" gradientUnits="userSpaceOnUse"><stop offset="0" stop-color="#ffe99f"/><stop offset="1" stop-color="#00bfc3"/></linearGradient><linearGradient id="linear-gradient-10" x1="278.81" y1="112.01" x2="556.7" y2="112.01" xlink:href="#linear-gradient-8"/></defs><g id="Layer_2" data-name="Layer 2"><g id="Layer_2-2" data-name="Layer 2"><path id="Head" class="cls-1" d="M301.44,41.21a113.3,113.3,0,0,0,30-26l6.28-4.92L367.05.1s27.61,4.54,29.1,19.32-25.71,25.17-25.71,25.17-33.25,8.15-41.06,31-41.48,27.11-41.48,27.11Z"/><path class="cls-2" d="M337.72,10.31s1.5-2.26,9.64-6.74S367.05.1,367.05.1Z"/><path class="cls-3" d="M314.12,65.5S329.91,45.92,346.87,42s44.95-15.89,48.87-24.79"/><path class="cls-3" d="M315.69,84.57S328.14,54.82,345.1,50.9s46.08-16.29,50-25.19"/><path id="Bottom_Shell" data-name="Bottom Shell" class="cls-4" d="M250.67,157.08s38-12.3,50.37-33.07-7.21-8.9-7.21-8.9Z"/><path id="Back_leg_back" data-name="Back leg back" class="cls-5" d="M46.7,225.82l10.1.14,14.26-5s7.92-4.12,8.88-9.25c0,0,31.74-13.11,23.84-12.19s-37.86-20.84-37.86-20.84L37.77,200.16l1.42,25.08Z"/><path id="Back_leg_front" data-name="Back leg front" class="cls-6" d="M39.41,183.32,10,213.36a4.38,4.38,0,0,0-.41.45c-1.43,1.81-9.81,12.77-6.5,18.3a5.93,5.93,0,0,1,.54,5.12,38.43,38.43,0,0,1-2.94,5.91c-1.22,2.07-.54,5,.22,7.26.57,1.73,1.33,3.84,2.2,5.91a11.39,11.39,0,0,1,.7,6.16,9.39,9.39,0,0,1-1.74,4.14c-.75,1.06-1.3,2.51,1.92,2.07,4.7-.65,59.47-32.91,65.67-78.42a5.8,5.8,0,0,0-5.15-6.54l-20.34-2.11A5.83,5.83,0,0,0,39.41,183.32Z"/><path class="cls-3" d="M3.07,232.11s57.1-42.05,53.39-51.72"/><path class="cls-3" d="M2.14,255.35s71.17-57.69,65.73-72.08"/><path id="Front_arm_back" data-name="Front arm back" class="cls-5" d="M214.1,191.74a7.5,7.5,0,0,1,2.27,6.52c-.7,3.89,15.48-5.39,15.48-5.39s3.09,1.66,7.77,0S267.87,173,267.87,173s4.53-8,5.49-12.42c0,0,10.78-10.38,10.27-23s-44,20.57-44,20.57l-12,18.1Z"/><path class="cls-7" d="M313.93,171.94a50.51,50.51,0,0,1-4-11.77,6.79,6.79,0,0,1,.59-4.16c6-12.17-3.4-29.84-6.15-34.53a6.87,6.87,0,0,1-.88-2.64l-4.32-36.21-8.76,39.21a6.85,6.85,0,0,0,0,2.78c1,5.34,4.05,25.14-5.66,34.62a6.75,6.75,0,0,0-1.94,3.73,50.42,50.42,0,0,0-.1,12.44c1,11.33-9.24,31.29-10.69,34.06a6.79,6.79,0,0,0-.37.83c-.72,2-2.79,9.1,4.55,8.71,5.27-.28,21.58-5,40.28-24.88C316.74,186.51,316.45,177.52,313.93,171.94Z"/><path class="cls-8" d="M351.12,139a6.86,6.86,0,0,0,.56-2.86,87.69,87.69,0,0,0-3.95-24.25c-2.17-6.58-2-10.41-1.4-12.57a13.56,13.56,0,0,0-.72-9.38c-3.45-7.68-11.75-20.82-31.09-33.8a6.79,6.79,0,0,0-10.4,4.17l-5,22.34,4.32,36.21a6.87,6.87,0,0,0,.88,2.64c2.75,4.69,12.17,22.36,6.15,34.53a6.79,6.79,0,0,0-.59,4.16,50.51,50.51,0,0,0,4,11.77c2.52,5.58,2.81,14.57,2.47,22.19C327.74,182.09,340,164.5,351.12,139Z"/><path class="cls-9" d="M351.12,139a6.86,6.86,0,0,0,.56-2.86,87.69,87.69,0,0,0-3.95-24.25c-2.17-6.58-2-10.41-1.4-12.57a13.56,13.56,0,0,0-.72-9.38c-3.45-7.68-11.75-20.82-31.09-33.8a6.79,6.79,0,0,0-10.4,4.17l-5,22.34,4.32,36.21a6.87,6.87,0,0,0,.88,2.64c2.75,4.69,12.17,22.36,6.15,34.53a6.79,6.79,0,0,0-.59,4.16,50.51,50.51,0,0,0,4,11.77c2.52,5.58,2.81,14.57,2.47,22.19C327.74,182.09,340,164.5,351.12,139Z"/><path class="cls-3" d="M290.55,214.26s24.34-71.79,7.42-97.75"/><path class="cls-3" d="M316.4,194.13s5.39-78.64-17.73-99.27"/><path class="cls-3" d="M335.28,169.31S323,99.74,299.92,79.11"/><path class="cls-10" d="M300.85,29.2l-14.42-.75-2.78.54,11.48,17.62L294.51,61l2.56,8.56-3.52,6.81s-4,29.72-40.49,56.61l-7,10.16-12.39,4.32-13.42,9.82s-18,12.29-57.06,19.87-116.12-3.46-116.12-3.46-14.36-1.64-20.84-4.79L15.1,179.27l-3.4,6.49c-3.41,6.48,26.58,9.91,26.58,9.91s86.45,12.38,130.23,3.88,64-22.29,64-22.29l15.05-11,13.89-4.84,7.84-11.4c41-30.15,45.4-63.49,45.4-63.49l3.95-7.64-2.87-9.59.69-16.14Z"/><path class="cls-10" d="M300.85,29.2l-14.42-.75-2.78.54,11.48,17.62L294.51,61l2.56,8.56-3.52,6.81s-4,29.72-40.49,56.61l-7,10.16-12.39,4.32-13.42,9.82s-18,12.29-57.06,19.87-116.12-3.46-116.12-3.46-14.36-1.64-20.84-4.79L15.1,179.27l-3.4,6.49c-3.41,6.48,26.58,9.91,26.58,9.91s86.45,12.38,130.23,3.88,64-22.29,64-22.29l15.05-11,13.89-4.84,7.84-11.4c41-30.15,45.4-63.49,45.4-63.49l3.95-7.64-2.87-9.59.69-16.14Z"/><path class="cls-11" d="M163.21,177.15c39-7.58,57.06-19.87,57.06-19.87l13.42-9.82,12.39-4.32,7-10.16c36.52-26.89,40.49-56.61,40.49-56.61l3.52-6.81L294.51,61l.62-14.39L283.65,29l-16.22,3.18-30.07,8.55-25.27,8.79L174,66.15,148.51,78.4,122.64,92.22l-15.2,10.59L84.09,122.5l-9.9,6.82L35.78,160l-9.53,8.87c6.48,3.15,20.84,4.79,20.84,4.79S124.17,184.73,163.21,177.15Z"/><path class="cls-11" d="M163.21,177.15c39-7.58,57.06-19.87,57.06-19.87l13.42-9.82,12.39-4.32,7-10.16c36.52-26.89,40.49-56.61,40.49-56.61l3.52-6.81L294.51,61l.62-14.39L283.65,29l-16.22,3.18-30.07,8.55-25.27,8.79L174,66.15,148.51,78.4,122.64,92.22l-15.2,10.59L84.09,122.5l-9.9,6.82L35.78,160l-9.53,8.87c6.48,3.15,20.84,4.79,20.84,4.79S124.17,184.73,163.21,177.15Z"/><path class="cls-11" d="M163.21,177.15c39-7.58,57.06-19.87,57.06-19.87l13.42-9.82,12.39-4.32,7-10.16c36.52-26.89,40.49-56.61,40.49-56.61l3.52-6.81L294.51,61l.62-14.39L283.65,29l-16.22,3.18-30.07,8.55-25.27,8.79L174,66.15,148.51,78.4,122.64,92.22l-15.2,10.59L84.09,122.5l-9.9,6.82L35.78,160l-9.53,8.87c6.48,3.15,20.84,4.79,20.84,4.79S124.17,184.73,163.21,177.15Z"/><path class="cls-12" d="M74.6,126.51,30.46,161.28s7.12,11.11,16,10.23L78.51,128.4Z"/><path class="cls-12" d="M103.75,128.54c.42-.33,8.77-2.13,8.77-2.13L127,102.34l-12.23-8.29L82.89,119.19C83.17,120,103.34,128.87,103.75,128.54Z"/><path class="cls-12" d="M83.64,129.45l-22.8,36.17L64.28,170s17.54,5.34,34.05,6.23l8.67-3.94s-2.32-28.91-2.67-31.92S83.64,129.45,83.64,129.45Z"/><path class="cls-12" d="M137.55,111.28l-8.34-2.68-16.33,24.92,1.1,45.14s30.77,10,56.66-12.28c0,0,.48-17.34-11.54-39.22Z"/><polygon class="cls-12" points="173.09 64.16 136.81 78.83 122.68 89.84 130.89 98.23 159.65 116.08 185.65 81.01 173.09 64.16"/><polygon class="cls-12" points="193.58 85.08 167.85 124.73 176.25 163.28 183.58 166.61 238.3 146.23 243.65 132.76 225.06 98.59 193.58 85.08"/><polygon class="cls-12" points="230.98 85.16 254.8 50.84 249.42 35.37 203.47 49.71 184.44 58.73 182.35 64.45 197.22 76.43 230.98 85.16"/><path class="cls-12" d="M287.27,27.18,257.7,34.33l3.61,10.37L287.1,62.11s7.94-5.53,5.09-20.78S287.27,27.18,287.27,27.18Z"/><path class="cls-12" d="M234,97.33,245.67,124l10.13,1.28S283.4,109,293.52,68.51L262,53.15Z"/><path class="cls-13" d="M353.49,27.21c.11.63,6.08.75,10.66-2.3,3.41-2.27,5.23-5.74,4.71-6.1s-2.48,1.87-7.2,4.52C356.57,26.19,353.41,26.74,353.49,27.21Z"/></g></g></svg>